<svg width="22" height="22" viewBox="0 0 22 22" fill="none" xmlns="http://www.w3.org/2000/svg">
<path d="M11 0.5C5.2063 0.5 0.5 5.2063 0.5 11C0.5 16.7937 5.2063 21.5 11 21.5C16.7937 21.5 21.5 16.7937 21.5 11C21.5 5.2063 16.7937 0.5 11 0.5ZM11 1.39362C16.3108 1.39362 20.6064 5.68925 20.6064 11C20.6064 13.4929 19.6608 15.7655 18.107 17.4717C17.0241 14.5996 14.253 12.5638 11 12.5638C7.74705 12.5638 4.97593 14.5996 3.89295 17.4717C2.33919 15.7655 1.39362 13.4929 1.39362 11C1.39362 5.68925 5.68925 1.39362 11 1.39362ZM11 3.62766C8.7844 3.62766 6.97872 5.43334 6.97872 7.64894C6.97872 9.86453 8.7844 11.6702 11 11.6702C13.2156 11.6702 15.0213 9.86453 15.0213 7.64894C15.0213 5.43334 13.2156 3.62766 11 3.62766ZM11 4.52128C12.7327 4.52128 14.1277 5.91628 14.1277 7.64894C14.1277 9.38159 12.7327 10.7766 11 10.7766C9.26735 10.7766 7.87234 9.38159 7.87234 7.64894C7.87234 5.91628 9.26735 4.52128 11 4.52128ZM11 13.4574C14.0231 13.4574 16.5566 15.4312 17.4019 18.1629C15.703 19.6828 13.4624 20.6064 11 20.6064C8.53765 20.6064 6.29699 19.6828 4.59807 18.1629C5.44335 15.4312 7.9769 13.4574 11 13.4574Z" fill="#8A92A6"/>
</svg>
