<svg width="24" height="25" viewBox="0 0 24 25" fill="none" xmlns="http://www.w3.org/2000/svg">
<path d="M0.720215 22.124C0.720215 16.7 0.720215 11.3 0.720215 5.87604C0.720215 5.85204 0.744215 5.80404 0.744215 5.78005C0.864215 4.96404 1.58421 4.29205 2.40021 4.24405C2.59221 4.22005 2.76021 4.22004 2.95221 4.19604C2.95221 3.59604 2.95221 2.99604 2.95221 2.39604C2.95221 1.67604 3.43221 1.22004 4.15221 1.19604C4.39221 1.19604 4.63222 1.19604 4.84822 1.19604C5.44822 1.22004 5.90421 1.65204 5.95221 2.25204C5.97621 2.70804 5.95221 3.18805 5.97621 3.64405C5.97621 3.83605 5.97621 4.00404 5.97621 4.19604C10.0082 4.19604 13.9922 4.19604 18.0242 4.19604C18.0242 4.10004 18.0242 4.00404 18.0242 3.93204C18.0242 3.38004 18.0242 2.80404 18.0482 2.25204C18.0722 1.65204 18.5282 1.24404 19.1282 1.19604C19.3682 1.19604 19.6082 1.19604 19.8242 1.19604C20.5682 1.19604 21.0242 1.67604 21.0482 2.42004C21.0482 2.92404 21.0482 3.45204 21.0482 3.95604C21.0482 4.02804 21.0482 4.10004 21.0482 4.19604C21.1682 4.19604 21.2642 4.19604 21.3362 4.19604C22.4882 4.22004 23.3042 5.01204 23.3042 6.14004C23.3042 11.372 23.3042 16.604 23.3042 21.836C23.3042 22.316 23.1602 22.748 22.8482 23.108C22.5362 23.492 22.1042 23.66 21.6242 23.756C15.2162 23.756 8.80822 23.756 2.40021 23.756C2.06421 23.684 1.72821 23.588 1.46421 23.372C1.03221 23.06 0.816215 22.628 0.720215 22.124ZM22.5362 11.012C15.5042 11.012 8.47221 11.012 1.46421 11.012C1.46421 11.108 1.46421 11.18 1.46421 11.276C1.46421 14.756 1.46421 18.236 1.46421 21.716C1.46421 22.58 1.89621 23.036 2.78421 23.036C8.92822 23.036 15.0962 23.036 21.2402 23.036C22.1042 23.036 22.5602 22.58 22.5602 21.716C22.5602 18.236 22.5602 14.756 22.5602 11.276C22.5362 11.204 22.5362 11.108 22.5362 11.012ZM21.0242 4.98805C21.0242 5.34804 21.0242 5.68404 21.0242 6.04404C21.0002 6.71604 20.5922 7.17204 19.9202 7.22005C19.6082 7.24404 19.2962 7.22004 18.9842 7.19604C18.8642 7.19604 18.7442 7.14805 18.6242 7.10004C18.1682 6.86004 18.0002 6.47604 18.0002 5.99604C18.0002 5.66004 18.0002 5.32405 18.0002 4.98805C13.9682 4.98805 9.98421 4.98805 5.97621 4.98805C5.97621 5.08405 5.97621 5.15605 5.97621 5.22804C5.97621 5.54005 5.97621 5.87605 5.95221 6.18805C5.92821 6.66805 5.61621 7.10004 5.13621 7.17204C4.70421 7.24404 4.22421 7.24404 3.79221 7.17204C3.28821 7.10004 2.97621 6.62005 2.95221 6.04404C2.95221 5.68404 2.95221 5.34804 2.95221 4.98805C2.04021 4.84405 1.44021 5.34804 1.44021 6.21204C1.44021 7.46004 1.44021 8.73204 1.44021 9.98004C1.44021 10.052 1.44021 10.124 1.44021 10.22C8.47221 10.22 15.4802 10.22 22.5122 10.22C22.5122 10.124 22.5122 10.052 22.5122 9.98004C22.5122 8.73204 22.5122 7.46004 22.5122 6.21204C22.5362 5.37204 21.9362 4.86805 21.0242 4.98805ZM5.23221 4.22004C5.23221 3.62004 5.23221 3.02004 5.23221 2.42004C5.23221 2.10804 5.08821 1.96404 4.77621 1.96404C4.58421 1.96404 4.39221 1.96404 4.20021 1.96404C3.86421 1.96404 3.74421 2.10804 3.72021 2.44404C3.72021 2.73204 3.72021 3.02004 3.72021 3.30804C3.72021 4.19604 3.72021 5.10804 3.72021 5.99604C3.72021 6.35604 3.84021 6.47605 4.20021 6.50004C4.36821 6.50004 4.56021 6.50004 4.72821 6.50004C5.08821 6.50004 5.20821 6.38004 5.20821 5.99604C5.23221 5.39604 5.23221 4.82004 5.23221 4.22004ZM18.7682 4.22004C18.7682 4.82004 18.7682 5.42004 18.7682 5.99604C18.7682 6.35604 18.8882 6.47604 19.2482 6.47604C19.4162 6.47604 19.6082 6.47604 19.7762 6.47604C20.1362 6.47604 20.2562 6.33204 20.2802 5.99604C20.2802 5.78005 20.2802 5.58804 20.2802 5.37204C20.2802 4.41204 20.2802 3.42804 20.2802 2.46804C20.2802 2.10804 20.1362 1.96404 19.7762 1.96404C19.6082 1.96404 19.4402 1.96404 19.2722 1.96404C18.9122 1.96404 18.7922 2.08404 18.7922 2.46804C18.7682 3.04404 18.7682 3.62004 18.7682 4.22004Z" fill="#8A92A6"/>
<path d="M4.46415 14.756C4.10415 14.756 3.74415 14.756 3.38415 14.756C3.09615 14.756 2.95215 14.612 2.95215 14.348C2.95215 13.748 2.95215 13.148 2.95215 12.572C2.95215 12.284 3.09615 12.14 3.38415 12.14C4.10415 12.14 4.82415 12.14 5.54415 12.14C5.83215 12.14 5.97615 12.284 5.97615 12.572C5.97615 13.172 5.97615 13.772 5.97615 14.348C5.97615 14.636 5.83215 14.78 5.54415 14.78C5.18415 14.756 4.82415 14.756 4.46415 14.756ZM5.20815 12.884C4.70415 12.884 4.22415 12.884 3.72015 12.884C3.72015 13.268 3.72015 13.628 3.72015 13.988C4.22415 13.988 4.70415 13.988 5.20815 13.988C5.20815 13.628 5.20815 13.268 5.20815 12.884Z" fill="#8A92A6"/>
<path d="M9.36007 14.756C9.00007 14.756 8.66407 14.756 8.30407 14.756C8.01607 14.756 7.87207 14.612 7.87207 14.324C7.87207 13.748 7.87207 13.148 7.87207 12.572C7.87207 12.284 8.01607 12.14 8.28007 12.14C9.00007 12.14 9.74407 12.14 10.4641 12.14C10.7521 12.14 10.8721 12.284 10.8721 12.572C10.8721 13.148 10.8721 13.748 10.8721 14.324C10.8721 14.612 10.7281 14.756 10.4401 14.756C10.0801 14.756 9.72007 14.756 9.36007 14.756ZM10.1041 13.988C10.1041 13.604 10.1041 13.268 10.1041 12.884C9.60007 12.884 9.12007 12.884 8.61607 12.884C8.61607 13.268 8.61607 13.604 8.61607 13.988C9.12007 13.988 9.60007 13.988 10.1041 13.988Z" fill="#8A92A6"/>
<path d="M14.6404 14.756C14.2804 14.756 13.9204 14.756 13.5604 14.756C13.2724 14.756 13.1284 14.612 13.1284 14.324C13.1284 13.748 13.1284 13.148 13.1284 12.572C13.1284 12.284 13.2724 12.14 13.5604 12.14C14.2804 12.14 14.9764 12.14 15.6964 12.14C16.0084 12.14 16.1284 12.284 16.1284 12.596C16.1284 13.172 16.1284 13.748 16.1284 14.324C16.1284 14.636 15.9844 14.78 15.6724 14.78C15.3364 14.756 15.0004 14.756 14.6404 14.756ZM15.3604 13.988C15.3604 13.604 15.3604 13.244 15.3604 12.884C14.8564 12.884 14.3764 12.884 13.8964 12.884C13.8964 13.268 13.8964 13.628 13.8964 13.988C14.4004 13.988 14.8804 13.988 15.3604 13.988Z" fill="#8A92A6"/>
<path d="M19.5364 14.756C19.1764 14.756 18.8404 14.756 18.4804 14.756C18.1684 14.756 18.0484 14.636 18.0244 14.324C18.0244 13.748 18.0244 13.172 18.0244 12.596C18.0244 12.284 18.1684 12.164 18.4804 12.14C19.1764 12.14 19.8964 12.14 20.5924 12.14C20.9044 12.14 21.0484 12.284 21.0484 12.596C21.0484 13.172 21.0484 13.724 21.0484 14.3C21.0484 14.636 20.9044 14.756 20.5684 14.756C20.2084 14.756 19.8724 14.756 19.5364 14.756ZM18.7924 13.988C19.2964 13.988 19.7764 13.988 20.2804 13.988C20.2804 13.628 20.2804 13.268 20.2804 12.884C19.7764 12.884 19.2964 12.884 18.7924 12.884C18.7924 13.268 18.7924 13.628 18.7924 13.988Z" fill="#8A92A6"/>
<path d="M4.48815 15.884C4.84815 15.884 5.18415 15.884 5.54415 15.884C5.83215 15.884 5.97615 16.004 5.97615 16.316C5.97615 16.892 5.97615 17.492 5.97615 18.068C5.97615 18.356 5.83215 18.5 5.54415 18.5C4.82415 18.5 4.10415 18.5 3.38415 18.5C3.09615 18.5 2.97615 18.356 2.95215 18.068C2.95215 17.468 2.95215 16.868 2.95215 16.292C2.95215 16.004 3.09615 15.884 3.38415 15.884C3.76815 15.884 4.12815 15.884 4.48815 15.884ZM5.20815 17.756C5.20815 17.372 5.20815 17.012 5.20815 16.652C4.70415 16.652 4.22415 16.652 3.74415 16.652C3.74415 17.036 3.74415 17.396 3.74415 17.756C4.22415 17.756 4.70415 17.756 5.20815 17.756Z" fill="#8A92A6"/>
<path d="M9.36022 15.884C9.72022 15.884 10.0562 15.884 10.4162 15.884C10.7042 15.884 10.8482 16.004 10.8482 16.316C10.8482 16.916 10.8482 17.516 10.8482 18.092C10.8482 18.356 10.7042 18.5 10.4402 18.5C9.69622 18.5 8.97622 18.5 8.23222 18.5C7.96822 18.5 7.82422 18.356 7.82422 18.068C7.82422 17.468 7.82422 16.868 7.82422 16.292C7.82422 16.004 7.96822 15.884 8.25622 15.884C8.64022 15.884 9.00022 15.884 9.36022 15.884ZM10.1042 17.756C10.1042 17.372 10.1042 17.012 10.1042 16.652C9.60022 16.652 9.12022 16.652 8.64022 16.652C8.64022 17.036 8.64022 17.396 8.64022 17.756C9.12022 17.756 9.60022 17.756 10.1042 17.756Z" fill="#8A92A6"/>
<path d="M14.6164 15.884C14.9764 15.884 15.3364 15.884 15.6964 15.884C15.9844 15.884 16.1284 16.028 16.1284 16.316C16.1284 16.892 16.1284 17.492 16.1284 18.068C16.1284 18.356 15.9844 18.5 15.7204 18.5C15.0004 18.5 14.2564 18.5 13.5364 18.5C13.2484 18.5 13.1284 18.356 13.1284 18.068C13.1284 17.492 13.1284 16.892 13.1284 16.316C13.1284 16.028 13.2724 15.884 13.5604 15.884C13.9204 15.884 14.2804 15.884 14.6164 15.884ZM15.3844 16.652C14.8804 16.652 14.4004 16.652 13.9204 16.652C13.9204 17.036 13.9204 17.396 13.9204 17.756C14.4244 17.756 14.9044 17.756 15.3844 17.756C15.3844 17.372 15.3844 17.012 15.3844 16.652Z" fill="#8A92A6"/>
<path d="M19.5124 18.524C19.1764 18.524 18.8404 18.524 18.5044 18.524C18.1444 18.524 18.0244 18.404 18.0244 18.044C18.0244 17.468 18.0244 16.916 18.0244 16.34C18.0244 16.004 18.1684 15.884 18.5044 15.884C19.2004 15.884 19.8724 15.884 20.5684 15.884C20.9044 15.884 21.0244 16.028 21.0244 16.364C21.0244 16.916 21.0244 17.468 21.0244 18.044C21.0244 18.38 20.8804 18.524 20.5444 18.524C20.2084 18.524 19.8724 18.524 19.5124 18.524ZM20.2804 16.652C19.7764 16.652 19.2964 16.652 18.8164 16.652C18.8164 17.036 18.8164 17.396 18.8164 17.756C19.3204 17.756 19.8004 17.756 20.2804 17.756C20.2804 17.372 20.2804 17.036 20.2804 16.652Z" fill="#8A92A6"/>
<path d="M4.46407 19.6521C4.82407 19.6521 5.16007 19.6521 5.52007 19.6521C5.83207 19.6521 5.97607 19.7961 5.97607 20.1081C5.97607 20.6841 5.97607 21.2601 5.97607 21.8361C5.97607 22.1481 5.83207 22.2681 5.52007 22.2681C4.82407 22.2681 4.12807 22.2681 3.43207 22.2681C3.12007 22.2681 2.97607 22.1241 2.97607 21.8121C2.97607 21.2361 2.97607 20.6601 2.97607 20.0841C2.97607 19.7721 3.12007 19.6281 3.45607 19.6281C3.79207 19.6521 4.12807 19.6521 4.46407 19.6521ZM5.20807 21.5241C5.20807 21.1401 5.20807 20.7801 5.20807 20.4201C4.70407 20.4201 4.22407 20.4201 3.74407 20.4201C3.74407 20.8041 3.74407 21.1641 3.74407 21.5241C4.22407 21.5241 4.70407 21.5241 5.20807 21.5241Z" fill="#8A92A6"/>
<path d="M9.38407 19.6521C9.72007 19.6521 10.0561 19.6521 10.3921 19.6521C10.7281 19.6521 10.8721 19.7961 10.8721 20.1081C10.8721 20.6841 10.8721 21.2601 10.8721 21.8361C10.8721 22.1481 10.7281 22.2921 10.4161 22.2921C9.72007 22.2921 9.02407 22.2921 8.32807 22.2921C8.01607 22.2921 7.87207 22.1481 7.87207 21.8361C7.87207 21.2601 7.87207 20.6841 7.87207 20.1081C7.87207 19.7961 8.01607 19.6521 8.32807 19.6521C8.66407 19.6521 9.02407 19.6521 9.38407 19.6521ZM8.61607 20.3961C8.61607 20.7801 8.61607 21.1401 8.61607 21.5001C9.12007 21.5001 9.60007 21.5001 10.0801 21.5001C10.0801 21.1161 10.0801 20.7561 10.0801 20.3961C9.60007 20.3961 9.12007 20.3961 8.61607 20.3961Z" fill="#8A92A6"/>
<path d="M15.8403 19.412C16.0323 19.58 16.2243 19.724 16.4163 19.892C16.2483 20.084 16.1043 20.276 15.9363 20.468C15.5043 20.996 15.0723 21.524 14.6163 22.052C14.3523 22.364 14.1603 22.388 13.8723 22.1C13.5363 21.764 13.2003 21.428 12.8643 21.092C13.0563 20.924 13.2243 20.756 13.3923 20.564C13.6323 20.804 13.8963 21.092 14.1843 21.38C14.7843 20.708 15.3123 20.06 15.8403 19.412Z" fill="#8A92A6"/>
<path d="M20.3764 19.412C20.5684 19.58 20.7604 19.724 20.9524 19.892C20.4964 20.42 20.0644 20.948 19.6324 21.476C19.4644 21.692 19.2724 21.908 19.1044 22.124C18.9124 22.34 18.7204 22.364 18.5284 22.172C18.1444 21.812 17.7844 21.428 17.4004 21.044C17.5684 20.876 17.7364 20.708 17.9284 20.516C18.1924 20.804 18.4564 21.068 18.7204 21.38C19.2964 20.708 19.8244 20.06 20.3764 19.412Z" fill="#8A92A6"/>
<path d="M12.0003 9.11604C10.6803 9.11604 9.33628 9.11604 8.01628 9.11604C7.60828 9.11604 7.48828 8.99604 7.48828 8.58804C7.48828 7.91604 7.48828 7.26804 7.48828 6.59604C7.48828 6.21204 7.60828 6.09204 7.99228 6.09204C10.6563 6.09204 13.3443 6.09204 16.0083 6.09204C16.3923 6.09204 16.5123 6.21204 16.5123 6.59604C16.5123 7.26804 16.5123 7.94004 16.5123 8.61204C16.5123 8.99604 16.3923 9.11604 16.0083 9.11604C14.6643 9.11604 13.3443 9.11604 12.0003 9.11604ZM8.25628 8.34804C10.7763 8.34804 13.2483 8.34804 15.7443 8.34804C15.7443 7.84404 15.7443 7.36404 15.7443 6.88404C13.2483 6.88404 10.7523 6.88404 8.25628 6.88404C8.25628 7.36404 8.25628 7.84404 8.25628 8.34804Z" fill="#8A92A6"/>
</svg>
