<svg width="24" height="25" viewBox="0 0 24 25" fill="none" xmlns="http://www.w3.org/2000/svg">
<path d="M11.6954 23.7824C11.621 23.7536 11.549 23.7224 11.4746 23.6984C10.7858 23.4608 10.3298 22.8296 10.3322 22.1096C10.3346 21.4064 10.7882 20.7632 11.4674 20.5424C11.6258 20.4896 11.6714 20.4224 11.6642 20.2664C11.6522 20.0264 11.6618 19.784 11.6618 19.5152C9.99861 19.4048 8.54181 18.8096 7.31301 17.7152C6.72501 18.308 6.14661 18.8888 5.55861 19.4792C6.14661 20.7752 5.95941 21.7928 4.99461 22.4456C4.13781 23.0264 3.00501 22.904 2.28261 22.1504C1.57461 21.4112 1.50261 20.276 2.10981 19.4432C2.64021 18.7136 3.82581 18.188 5.04261 18.956C5.62341 18.3728 6.20181 17.792 6.79461 17.1968C5.70741 15.9728 5.10501 14.528 4.99461 12.848C4.69701 12.848 4.40661 12.8408 4.11621 12.8552C4.06821 12.8576 4.00341 12.9512 3.98181 13.0136C3.73461 13.712 3.11541 14.1704 2.40261 14.1752C1.56501 14.18 0.833014 13.5416 0.729814 12.7184C0.626614 11.8856 1.17141 11.084 1.97781 10.8848C2.81061 10.6808 3.66021 11.1176 3.94341 11.9264C4.01301 12.1232 4.10421 12.1856 4.30101 12.1712C4.52421 12.1544 4.75221 12.1664 4.99221 12.1664C5.10021 10.4936 5.69781 9.04638 6.78981 7.81758C6.20181 7.23678 5.61861 6.65838 5.01381 6.06318C5.00421 6.06798 4.94661 6.09918 4.89381 6.13038C3.82581 6.75918 2.45061 6.34878 1.91301 5.23998C1.37781 4.13598 1.88901 2.80638 3.02901 2.35278C3.07701 2.33358 3.12501 2.31438 3.17301 2.29998C3.40101 2.23278 3.57141 2.30718 3.63861 2.50158C3.70341 2.68878 3.60741 2.85438 3.37941 2.93598C2.80101 3.14238 2.46261 3.54558 2.37861 4.15758C2.27781 4.91598 2.80821 5.59998 3.60501 5.74398C4.30581 5.87118 5.05941 5.36478 5.21301 4.65438C5.34261 4.05198 5.16021 3.55518 4.68501 3.16878C4.47381 2.99598 4.42101 2.85678 4.51221 2.68398C4.62261 2.48238 4.83381 2.45118 5.05701 2.60958C5.90181 3.20478 6.17061 4.39998 5.66661 5.32158C5.62581 5.39838 5.58021 5.47278 5.54421 5.53518C6.12981 6.12318 6.71061 6.70398 7.30581 7.29918C8.52741 6.21438 9.97461 5.60718 11.657 5.49918C11.657 5.19918 11.6642 4.90158 11.6498 4.60398C11.6474 4.55838 11.5442 4.50318 11.477 4.47918C10.8026 4.23918 10.3442 3.62238 10.3298 2.93358C10.3202 2.21598 10.7498 1.57998 11.4194 1.32558C12.2738 1.00158 13.2362 1.44078 13.5626 2.30478C13.8866 3.16398 13.4522 4.13358 12.5858 4.44318C12.3938 4.51038 12.3194 4.59198 12.3362 4.79838C12.3554 5.02158 12.341 5.24958 12.341 5.49678C14.0066 5.60478 15.4562 6.20238 16.673 7.28238C17.261 6.69438 17.8442 6.10878 18.4346 5.51838C17.6834 4.33518 18.2018 3.13518 18.9578 2.59758C19.817 1.98558 20.9738 2.09118 21.7082 2.84958C22.433 3.59838 22.5002 4.75518 21.8714 5.59038C21.2954 6.35598 20.105 6.78318 18.9746 6.05838C18.3914 6.64158 17.813 7.21998 17.213 7.81758C17.7242 8.39838 18.161 9.07038 18.473 9.81918C18.7826 10.5632 18.9458 11.3384 19.0058 12.164C19.301 12.164 19.5866 12.1688 19.8698 12.1592C19.9178 12.1568 19.9826 12.0992 20.0042 12.0512C20.3546 11.2112 20.9162 10.8032 21.6914 10.8344C22.433 10.8656 22.973 11.3264 23.2466 12.164C23.2514 12.176 23.2658 12.1832 23.2754 12.1952C23.2754 12.4016 23.2754 12.6056 23.2754 12.812C23.2058 12.98 23.153 13.1552 23.0642 13.3112C22.7114 13.9184 22.169 14.2232 21.473 14.1632C20.7674 14.1032 20.2874 13.7048 20.0282 13.0424C19.9994 12.968 19.9274 12.86 19.8698 12.8552C19.5866 12.836 19.301 12.8456 19.0058 12.8456C18.8978 14.5232 18.2906 15.9752 17.2154 17.1872C17.8154 17.7872 18.3938 18.3656 18.9818 18.9512C19.0322 18.9224 19.0994 18.8792 19.1714 18.8408C19.7402 18.536 20.3282 18.4928 20.933 18.716C21.137 18.7904 21.2186 18.9728 21.1514 19.1552C21.089 19.3208 20.9138 19.3976 20.7146 19.34C20.6714 19.328 20.6306 19.3112 20.5898 19.2992C19.829 19.0856 19.0466 19.5128 18.8114 20.2664C18.581 21.0056 18.9866 21.8048 19.7186 22.0568C20.4554 22.3112 21.2594 21.9344 21.5378 21.2048C21.653 20.9 21.6602 20.5928 21.5762 20.2784C21.509 20.0264 21.5954 19.8584 21.8018 19.808C22.0034 19.7576 22.1786 19.8632 22.217 20.1176C22.2626 20.4176 22.3058 20.732 22.2626 21.0272C22.085 22.2464 20.8802 23.0384 19.6994 22.7456C18.4922 22.4456 17.7914 21.1976 18.1826 20.0288C18.2522 19.8248 18.3626 19.6328 18.437 19.4744C17.849 18.8816 17.273 18.2984 16.6874 17.7104C15.461 18.7976 14.0114 19.3976 12.341 19.508C12.341 19.7696 12.3506 20.0168 12.3386 20.264C12.3314 20.4224 12.3818 20.4872 12.5378 20.54C13.2338 20.7704 13.685 21.4256 13.673 22.1528C13.661 22.8632 13.181 23.492 12.4898 23.7104C12.4298 23.7296 12.3698 23.7584 12.3122 23.78C12.1058 23.7824 11.8994 23.7824 11.6954 23.7824ZM12.0098 6.15678C8.52261 6.15198 5.66421 9.00798 5.65941 12.4952C5.65461 15.98 8.50821 18.8432 11.9954 18.848C15.4802 18.8528 18.341 15.9968 18.3458 12.5096C18.3506 9.02238 15.497 6.16158 12.0098 6.15678ZM20.1938 5.76078C20.981 5.75838 21.6338 5.10558 21.6386 4.31598C21.6434 3.52878 20.993 2.87358 20.1986 2.86638C19.4042 2.85918 18.737 3.52398 18.7418 4.32078C18.7466 5.10798 19.4066 5.76318 20.1938 5.76078ZM3.81621 19.244C3.02901 19.244 2.37621 19.892 2.36661 20.684C2.35941 21.4784 3.02901 22.148 3.82341 22.1384C4.61541 22.1288 5.26581 21.4736 5.26341 20.6864C5.26101 19.9016 4.60341 19.244 3.81621 19.244ZM12.0338 21.1208C11.4746 21.104 11.0162 21.5384 10.9994 22.0952C10.985 22.628 11.4266 23.096 11.9714 23.1176C12.5114 23.1392 12.9866 22.688 13.0058 22.1336C13.0226 21.5984 12.5786 21.1376 12.0338 21.1208ZM12.0098 3.88398C12.557 3.87918 13.0034 3.43518 13.0058 2.89038C13.0082 2.34318 12.5426 1.87758 11.9954 1.88238C11.4554 1.88718 11.0042 2.34078 10.9994 2.88318C10.997 3.43518 11.453 3.88878 12.0098 3.88398ZM3.38421 12.5072C3.38661 11.9504 2.93301 11.492 2.38341 11.4992C1.84101 11.504 1.38981 11.9576 1.38501 12.4976C1.38021 13.0448 1.84821 13.5104 2.39301 13.5056C2.94021 13.5008 3.38181 13.0544 3.38421 12.5072ZM22.6178 12.5C22.6178 11.9528 22.145 11.4896 21.6026 11.4992C21.0554 11.5088 20.6186 11.9552 20.621 12.5048C20.621 13.0544 21.0602 13.4984 21.6074 13.5056C22.1498 13.5128 22.6202 13.0472 22.6178 12.5Z" fill="#8A92A6"/>
<path d="M10.2434 12.152C9.05064 10.9088 9.32184 9.25996 10.2794 8.38876C11.2706 7.48636 12.797 7.50076 13.7738 8.43196C14.7146 9.32956 14.9234 10.9544 13.7714 12.14C13.8386 12.1496 13.889 12.1616 13.9418 12.164C15.1874 12.2168 16.0394 13.064 16.073 14.3096C16.0898 14.9264 16.0802 15.5432 16.0754 16.16C16.073 16.4624 15.9626 16.5728 15.6602 16.5728C14.729 16.5752 13.7954 16.5752 12.8642 16.5728C12.5834 16.5728 12.4418 16.4504 12.4466 16.232C12.4514 16.0184 12.6002 15.9032 12.8786 15.9008C13.0898 15.8984 13.3034 15.9008 13.5458 15.9008C13.5458 15.7208 13.5434 15.5552 13.5458 15.3872C13.5506 15.164 13.6754 15.0224 13.865 15.0152C14.0642 15.0104 14.1986 15.1568 14.2058 15.3896C14.2106 15.5432 14.2106 15.6968 14.213 15.8528C14.213 15.86 14.2202 15.8648 14.2322 15.8864C14.609 15.8864 14.993 15.8864 15.3626 15.8864C15.3626 15.2336 15.425 14.576 15.3458 13.9376C15.2666 13.292 14.6642 12.8504 14.0138 12.848C12.677 12.8408 11.3426 12.8384 10.0058 12.848C9.23064 12.8528 8.62104 13.4792 8.61144 14.2592C8.60424 14.7944 8.60904 15.3296 8.60904 15.884C9.00264 15.884 9.38664 15.884 9.80664 15.884C9.80664 15.728 9.80424 15.5624 9.80664 15.3968C9.81144 15.164 9.94584 15.0152 10.1426 15.02C10.3322 15.0224 10.4594 15.1664 10.4666 15.3872C10.469 15.4688 10.4666 15.548 10.4666 15.6296C10.4666 15.7088 10.4666 15.788 10.4666 15.9032C10.7186 15.9032 10.9562 15.8984 11.1962 15.9056C11.4314 15.9128 11.5706 16.052 11.5658 16.2536C11.561 16.448 11.429 16.5632 11.1962 16.5752C11.1386 16.5776 11.0786 16.5752 11.021 16.5752C10.1834 16.5752 9.34824 16.5752 8.51064 16.5752C8.44344 16.5752 8.37864 16.5776 8.31144 16.5728C8.05944 16.5584 7.94184 16.4552 7.93944 16.2056C7.93464 15.5456 7.91544 14.8832 7.94664 14.2232C8.00184 13.0352 8.85384 12.2168 10.0442 12.164C10.097 12.1616 10.1546 12.1568 10.2434 12.152ZM12.0074 8.39356C10.961 8.39116 10.1114 9.23117 10.109 10.2728C10.1066 11.312 10.9538 12.1592 12.0002 12.1616C13.0466 12.164 13.8962 11.3216 13.8986 10.2824C13.901 9.24316 13.0514 8.39596 12.0074 8.39356Z" fill="#8A92A6"/>
</svg>
