<svg width="24" height="25" viewBox="0 0 24 25" fill="none" xmlns="http://www.w3.org/2000/svg">
<path d="M2.8129 18.5384C2.4649 18.8936 2.0761 19.0592 1.6033 18.9488C1.0465 18.8192 0.662499 18.356 0.657699 17.7848C0.650499 16.6952 0.648099 15.6056 0.657699 14.5184C0.662499 14.0408 0.900099 13.6928 1.3129 13.448C1.3849 13.4048 1.4593 13.2896 1.4593 13.2056C1.4665 11.1128 1.4665 9.01759 1.4593 6.92479C1.4593 6.84319 1.3825 6.72799 1.3081 6.68479C0.796899 6.38479 0.554499 5.85918 0.696099 5.31438C0.835299 4.77678 1.3105 4.39998 1.8577 4.39518C2.4193 4.39038 2.9017 4.76478 3.0457 5.31438C3.1873 5.85918 2.9497 6.39919 2.4289 6.67759C2.2993 6.74719 2.2753 6.82399 2.2753 6.95118C2.2777 9.02718 2.2825 11.1056 2.2729 13.1816C2.2705 13.5128 2.5825 13.4552 2.6809 13.6088C4.3753 9.35599 7.4089 6.84799 12.0505 6.86479C16.6465 6.88159 19.6465 9.39438 21.3217 13.604C21.3145 13.6064 21.3385 13.5992 21.3601 13.5896C21.7057 13.4696 21.7369 13.208 21.7345 12.8792C21.7201 10.9208 21.7249 8.96239 21.7297 7.00159C21.7297 6.83839 21.7081 6.73519 21.5353 6.64639C21.0505 6.39439 20.8225 5.83518 20.9545 5.31198C21.0913 4.77198 21.5641 4.39519 22.1137 4.38799C22.6537 4.38079 23.1409 4.73838 23.2945 5.25198C23.4529 5.78478 23.2489 6.35359 22.7569 6.62479C22.5673 6.73039 22.5313 6.84559 22.5337 7.03999C22.5409 9.07519 22.5385 11.1104 22.5337 13.1456C22.5337 13.3064 22.5721 13.3928 22.7233 13.4768C23.1409 13.7072 23.3449 14.0816 23.3473 14.5592C23.3497 15.6056 23.3473 16.652 23.3473 17.7008C23.3473 18.2432 23.1145 18.6512 22.6177 18.872C22.1185 19.0928 21.6625 18.9848 21.2689 18.6104C21.2449 18.5888 21.2185 18.5696 21.1849 18.5432C20.7481 19.268 20.1697 19.832 19.4113 20.2016C18.8881 20.456 18.3337 20.5976 17.7529 20.5976C13.9201 20.6048 10.0873 20.6168 6.2545 20.5952C4.8361 20.5856 3.7417 19.9136 2.9449 18.7472C2.9041 18.6848 2.8657 18.62 2.8129 18.5384ZM12.0121 19.7936C13.8937 19.7936 15.7777 19.7984 17.6593 19.7912C19.4953 19.784 20.9305 18.3272 20.9161 16.4936C20.9041 15.0416 20.5561 13.6736 19.8841 12.3872C17.4841 7.79359 11.5633 6.21439 7.2193 9.04158C4.6801 10.6928 3.3361 13.0664 3.0913 16.0832C2.9017 18.4112 4.6873 19.8752 6.5929 19.808C8.3977 19.7408 10.2049 19.7936 12.0121 19.7936ZM2.2753 16.1696C2.2753 15.6464 2.2777 15.1232 2.2753 14.6C2.2729 14.3024 2.1145 14.12 1.8697 14.1224C1.6249 14.1224 1.4665 14.3048 1.4665 14.6024C1.4641 15.632 1.4641 16.6616 1.4665 17.6912C1.4665 17.9888 1.6273 18.1712 1.8721 18.1688C2.1169 18.1688 2.2729 17.9864 2.2753 17.6888C2.2777 17.1824 2.2753 16.676 2.2753 16.1696ZM22.5361 16.1576C22.5361 15.6416 22.5385 15.128 22.5361 14.612C22.5337 14.3 22.3705 14.1104 22.1185 14.12C21.8761 14.1272 21.7273 14.3096 21.7273 14.612C21.7249 15.6344 21.7249 16.6544 21.7273 17.6768C21.7273 17.9888 21.8929 18.1784 22.1449 18.1688C22.3873 18.1616 22.5361 17.9792 22.5385 17.6768C22.5385 17.1704 22.5361 16.664 22.5361 16.1576ZM2.2753 5.60959C2.2753 5.39119 2.0929 5.20639 1.8721 5.20639C1.6537 5.20639 1.4689 5.38879 1.4689 5.60959C1.4689 5.83039 1.6513 6.01278 1.8697 6.01518C2.0881 6.01278 2.2729 5.82799 2.2753 5.60959ZM22.5361 5.61678C22.5409 5.39838 22.3609 5.20879 22.1425 5.20399C21.9241 5.19919 21.7369 5.37918 21.7321 5.59758C21.7273 5.81598 21.9073 6.00558 22.1257 6.01038C22.3417 6.01518 22.5289 5.83519 22.5361 5.61678Z" fill="#8A92A6"/>
<path d="M11.9999 17.36C10.7855 17.36 9.56869 17.3696 8.35429 17.3576C6.71029 17.3432 5.45269 16.0064 5.52229 14.3696C5.58229 12.9488 6.78229 11.7152 8.20309 11.6984C10.7351 11.6696 13.2671 11.6696 15.7991 11.6984C17.2151 11.7176 18.4031 12.9344 18.4799 14.348C18.5567 15.8048 17.5343 17.0984 16.1255 17.3144C15.9263 17.3456 15.7223 17.36 15.5207 17.36C14.3471 17.3624 13.1735 17.3624 11.9999 17.36ZM12.0119 12.4976C10.8143 12.4976 9.61429 12.4976 8.41669 12.4976C8.39989 12.4976 8.38309 12.4976 8.36629 12.4976C7.22629 12.512 6.33109 13.4 6.32869 14.5184C6.32629 15.6368 7.21909 16.544 8.35669 16.5464C10.7879 16.5536 13.2167 16.556 15.6479 16.5392C15.9335 16.5368 16.2383 16.4624 16.4999 16.3448C17.3735 15.956 17.8199 15.0272 17.6231 14.0864C17.4359 13.1816 16.6223 12.5072 15.6815 12.4976C14.4599 12.4904 13.2359 12.4976 12.0119 12.4976Z" fill="#8A92A6"/>
<path d="M10.38 14.516C10.3824 15.188 9.83278 15.74 9.16078 15.7376C8.49838 15.7352 7.95358 15.1904 7.95118 14.5304C7.94878 13.8584 8.49838 13.3064 9.17038 13.3088C9.83278 13.3112 10.3752 13.856 10.38 14.516ZM9.56878 14.5352C9.57598 14.3168 9.39598 14.1272 9.17758 14.12C8.95918 14.1128 8.76958 14.2904 8.76238 14.5112C8.75518 14.7296 8.93278 14.9192 9.15358 14.9264C9.37198 14.9336 9.56158 14.756 9.56878 14.5352Z" fill="#8A92A6"/>
<path d="M16.0538 14.528C16.0514 15.2 15.497 15.7472 14.8226 15.74C14.1626 15.7328 13.6226 15.1832 13.625 14.5208C13.6274 13.8488 14.1818 13.3016 14.8562 13.3088C15.5138 13.316 16.0538 13.8656 16.0538 14.528ZM15.2402 14.5304C15.2426 14.312 15.0626 14.1248 14.8418 14.1224C14.6234 14.12 14.4362 14.3 14.4338 14.5208C14.4314 14.7392 14.6114 14.9264 14.8298 14.9288C15.0506 14.9312 15.2378 14.7488 15.2402 14.5304Z" fill="#8A92A6"/>
</svg>
