<svg width="24" height="25" viewBox="0 0 24 25" fill="none" xmlns="http://www.w3.org/2000/svg">
<g clip-path="url(#clip0_189_5042)">
<path d="M2.20059 24.02C1.77579 23.8136 1.65579 23.4728 1.65579 23.0096C1.67019 19.016 1.66299 15.0224 1.66299 11.0288C1.66299 10.94 1.66299 10.8512 1.66299 10.736C1.54779 10.7288 1.43979 10.724 1.33419 10.7192C0.947792 10.7 0.671792 10.5056 0.570992 10.1816C0.470192 9.8552 0.582992 9.5384 0.897392 9.3056C3.38859 7.46 5.88219 5.6168 8.37579 3.7736C8.73099 3.512 9.03819 3.512 9.39579 3.776C10.1974 4.364 10.9966 4.9568 11.7934 5.5472C12.0142 5.7104 12.0694 5.9384 11.9398 6.1232C11.8006 6.3224 11.575 6.3416 11.335 6.164C10.5718 5.6 9.80859 5.036 9.04779 4.4672C8.94219 4.388 8.86779 4.3544 8.74059 4.448C6.31179 6.2528 3.87819 8.0528 1.44459 9.8528C1.42059 9.8696 1.40139 9.8912 1.33419 9.9488C1.45899 9.9488 1.53339 9.9488 1.61019 9.9488C3.68139 9.9488 5.75259 9.9488 7.82379 9.9488C8.14059 9.9488 8.31099 10.0904 8.30619 10.3424C8.30139 10.5392 8.20059 10.664 8.00859 10.7024C7.91499 10.7216 7.81659 10.7192 7.72059 10.7192C6.05019 10.7192 4.37979 10.7192 2.70939 10.7192C2.62299 10.7192 2.53419 10.7192 2.43339 10.7192C2.43339 14.9024 2.43339 19.064 2.43339 23.2424C4.82379 23.2424 7.21659 23.2424 9.63819 23.2424C9.63819 23.1656 9.63819 23.0864 9.63819 23.0072C9.63819 21.9608 9.63579 20.9144 9.63819 19.868C9.64059 18.6824 10.4902 17.7104 11.6398 17.5688C12.8062 17.4248 13.8814 18.1832 14.1478 19.3544C14.1958 19.5608 14.2078 19.7816 14.2078 19.9952C14.215 20.9888 14.2102 21.9848 14.2102 22.9784C14.2102 23.06 14.2102 23.1416 14.2102 23.24C14.5822 23.24 14.9398 23.24 15.3382 23.24C15.3382 23.1656 15.3382 23.0816 15.3382 22.9952C15.3382 20.9096 15.3382 18.824 15.3382 16.7384C15.3382 16.6424 15.3382 16.5416 15.367 16.4552C15.4318 16.2704 15.5782 16.1912 15.7702 16.2152C15.9646 16.2392 16.075 16.3568 16.0942 16.5536C16.1014 16.6352 16.099 16.7168 16.099 16.7984C16.099 18.8696 16.0894 20.9408 16.1062 23.012C16.111 23.4752 15.9862 23.8184 15.5542 24.02C11.1094 24.02 6.65499 24.02 2.20059 24.02ZM13.4038 23.2544C13.4182 23.2208 13.4278 23.2088 13.4278 23.1944C13.4278 22.016 13.4566 20.8352 13.4182 19.6592C13.3918 18.8312 12.5182 18.1976 11.7046 18.3416C10.903 18.4832 10.4086 19.0784 10.4038 19.9232C10.399 20.9696 10.4014 22.0136 10.4038 23.06C10.4038 23.1224 10.4134 23.1872 10.4182 23.2544C11.4238 23.2544 12.4102 23.2544 13.4038 23.2544Z" fill="#8A92A6"/>
<path d="M14.976 15.5264C12.7464 15.3584 11.0352 14.324 9.86643 12.4136C9.29523 11.4824 8.96643 10.4624 9.02163 9.35362C9.03363 9.09202 9.09123 8.82322 9.17283 8.57362C9.29523 8.19682 9.52803 7.94002 9.95763 7.85122C10.5864 7.72162 11.2056 7.53442 11.8272 7.36402C11.892 7.34722 11.9688 7.30882 12.0024 7.25602C12.4176 6.58642 13.0008 6.15682 13.7688 5.97682C14.3352 5.84482 14.8896 5.90002 15.4176 6.14242C15.5616 6.20722 15.6336 6.18322 15.7344 6.07282C16.9128 4.76722 18.1032 3.47122 19.2792 2.16562C19.6752 1.72642 20.1048 1.36402 20.7096 1.25122C21.6576 1.07602 22.6008 1.51762 23.0544 2.36242C23.5104 3.21202 23.3808 4.25842 22.6944 4.92802C22.0848 5.52322 21.4392 6.08482 20.8104 6.65842C20.0208 7.37842 19.2312 8.09842 18.4368 8.81362C18.3336 8.90482 18.3264 8.97202 18.3816 9.09442C18.8328 10.112 18.636 11.2352 17.8608 12.0368C17.6832 12.2192 17.46 12.3584 17.2656 12.5264C17.2152 12.5696 17.184 12.6416 17.1648 12.7064C16.9848 13.3784 16.8192 14.0528 16.6248 14.72C16.5792 14.876 16.464 15.0416 16.332 15.1376C15.9336 15.4304 15.4776 15.5504 14.976 15.5264ZM11.1456 12.8432C11.5536 12.4328 11.9592 12.02 12.3696 11.6144C12.5496 11.4368 12.7632 11.432 12.9264 11.5832C13.092 11.7392 13.0896 11.9648 12.912 12.1568C12.7848 12.2936 12.6528 12.4232 12.5184 12.5504C12.2328 12.8264 11.9472 13.1 11.6544 13.3832C12.18 13.8368 12.7152 14.168 13.3272 14.4008C13.452 13.952 13.5672 13.5152 13.6944 13.0832C13.764 12.8384 13.9536 12.7184 14.1552 12.7736C14.3856 12.8336 14.4936 13.0376 14.4288 13.2968C14.3976 13.4192 14.3592 13.5392 14.328 13.6592C14.2416 13.9784 14.1576 14.2976 14.0712 14.6336C14.616 14.7608 15.1344 14.8232 15.6504 14.648C15.7584 14.612 15.8856 14.4992 15.9144 14.3936C16.1016 13.7552 16.2648 13.1096 16.4256 12.4616C16.4448 12.3872 16.4136 12.2696 16.3608 12.2144C15.0168 10.8608 13.668 9.51202 12.3144 8.16802C12.2616 8.11522 12.1416 8.08882 12.0672 8.10562C11.4432 8.25922 10.824 8.43922 10.1976 8.58562C10.008 8.63122 9.91923 8.72722 9.86883 8.89522C9.71763 9.40882 9.77523 9.91762 9.89763 10.4456C10.0104 10.4192 10.1112 10.4024 10.2096 10.376C10.56 10.28 10.908 10.1768 11.2584 10.088C11.5032 10.0256 11.7024 10.1432 11.7624 10.3664C11.8128 10.5608 11.6952 10.748 11.472 10.8248C11.4096 10.8464 11.3424 10.8584 11.28 10.8752C10.8984 10.9808 10.5168 11.0864 10.1328 11.1944C10.3488 11.8016 10.8096 12.5456 11.1456 12.8432ZM17.8704 8.29522C19.2888 7.00402 20.7216 5.71522 22.1352 4.40482C22.5384 4.03042 22.6464 3.52642 22.4832 2.99122C22.1544 1.92322 20.82 1.63042 20.0568 2.46082C19.2528 3.33442 18.4608 4.21522 17.6616 5.09362C17.184 5.61922 16.7064 6.14482 16.2456 6.65122C16.7904 7.20322 17.3256 7.74562 17.8704 8.29522ZM12.7728 7.46962C14.2056 8.90242 15.6288 10.3256 17.0544 11.7512C18.0504 10.9472 18.1272 9.68722 17.2128 8.76802C16.716 8.26882 16.2264 7.76242 15.7152 7.28002C15.5208 7.09522 15.2856 6.92962 15.0408 6.82642C14.2248 6.48322 13.428 6.72562 12.7728 7.46962Z" fill="#8A92A6"/>
<path d="M5.85118 11.8592C6.45838 11.8592 7.06798 11.8568 7.67518 11.8592C7.98718 11.8592 8.12158 11.9936 8.12158 12.3056C8.12398 13.5296 8.12398 14.7536 8.12158 15.9776C8.12158 16.2752 7.98958 16.4192 7.68958 16.4192C6.45838 16.424 5.22718 16.424 3.99598 16.4192C3.69838 16.4192 3.55438 16.2776 3.55438 15.98C3.54958 14.7488 3.54958 13.5176 3.55438 12.2864C3.55678 11.9912 3.70318 11.8592 4.00318 11.8592C4.61998 11.8568 5.23678 11.8592 5.85118 11.8592ZM6.23758 12.6272C6.23758 13.0016 6.23758 13.3616 6.23758 13.7312C6.61438 13.7312 6.97918 13.7312 7.35358 13.7312C7.35358 13.3568 7.35358 12.9968 7.35358 12.6272C6.98158 12.6272 6.62158 12.6272 6.23758 12.6272ZM7.35598 14.5376C6.97438 14.5376 6.61438 14.5376 6.23998 14.5376C6.23998 14.9072 6.23998 15.2672 6.23998 15.6368C6.61678 15.6368 6.98158 15.6368 7.35598 15.6368C7.35598 15.2672 7.35598 14.9144 7.35598 14.5376ZM4.34158 13.7336C4.72078 13.7336 5.08078 13.7336 5.44318 13.7336C5.44318 13.3568 5.44318 12.9968 5.44318 12.6296C5.07118 12.6296 4.71358 12.6296 4.34158 12.6296C4.34158 12.9992 4.34158 13.3568 4.34158 13.7336ZM4.34158 15.6344C4.71598 15.6344 5.08078 15.6344 5.44078 15.6344C5.44078 15.26 5.44078 14.9 5.44078 14.54C5.06878 14.54 4.70878 14.54 4.34158 14.54C4.34158 14.9096 4.34158 15.2672 4.34158 15.6344Z" fill="#8A92A6"/>
<path d="M5.83918 17.5592C6.44638 17.5592 7.05598 17.5592 7.66318 17.5592C7.98958 17.5592 8.12398 17.6912 8.12398 18.0152C8.12398 19.232 8.12398 20.4488 8.12398 21.6632C8.12398 21.9776 7.99438 22.1192 7.68238 22.1192C6.45838 22.124 5.23438 22.124 4.01038 22.1192C3.69838 22.1192 3.55678 21.98 3.55438 21.6704C3.54958 20.4464 3.54958 19.2224 3.55438 17.9984C3.55678 17.6888 3.69838 17.5592 4.01278 17.5568C4.62238 17.5592 5.22958 17.5592 5.83918 17.5592ZM6.23998 19.4312C6.62398 19.4312 6.98638 19.4312 7.34878 19.4312C7.34878 19.052 7.34878 18.692 7.34878 18.3272C6.97438 18.3272 6.61438 18.3272 6.23998 18.3272C6.23998 18.6944 6.23998 19.052 6.23998 19.4312ZM6.23998 20.24C6.23998 20.6168 6.23998 20.9768 6.23998 21.332C6.62158 21.332 6.98638 21.332 7.35358 21.332C7.35358 20.96 7.35358 20.6072 7.35358 20.24C6.98158 20.24 6.62158 20.24 6.23998 20.24ZM4.34398 18.3248C4.34398 18.7064 4.34398 19.064 4.34398 19.4384C4.71358 19.4384 5.07358 19.4384 5.44078 19.4384C5.44078 19.0616 5.44078 18.6968 5.44078 18.3248C5.07118 18.3248 4.71838 18.3248 4.34398 18.3248ZM5.44798 20.2424C5.06638 20.2424 4.70638 20.2424 4.34638 20.2424C4.34638 20.6144 4.34638 20.9744 4.34638 21.3344C4.72318 21.3344 5.08558 21.3344 5.44798 21.3344C5.44798 20.9624 5.44798 20.6096 5.44798 20.2424Z" fill="#8A92A6"/>
<path d="M12.4776 4.25362C11.7384 4.25122 11.1528 3.66562 11.1528 2.92642C11.1528 2.18962 11.7384 1.59682 12.4752 1.58722C13.2048 1.58002 13.8264 2.20162 13.8192 2.93362C13.812 3.66562 13.212 4.25602 12.4776 4.25362ZM12.492 2.36482C12.1776 2.36002 11.9208 2.60482 11.9136 2.91202C11.9064 3.21442 12.1632 3.48082 12.4704 3.48562C12.7848 3.49282 13.0368 3.24802 13.0416 2.93362C13.044 2.61442 12.8088 2.36962 12.492 2.36482Z" fill="#8A92A6"/>
<path d="M17.6133 15.8528C17.6109 15.1112 18.1917 14.5256 18.9309 14.516C19.6701 14.5088 20.2821 15.1136 20.2797 15.8528C20.2773 16.58 19.6725 17.1824 18.9429 17.1824C18.2085 17.1824 17.6133 16.5872 17.6133 15.8528ZM19.5021 15.8456C19.5021 15.5288 19.2549 15.2864 18.9381 15.2864C18.6285 15.2888 18.3717 15.5432 18.3717 15.8504C18.3741 16.1576 18.6309 16.4096 18.9429 16.4096C19.2597 16.4072 19.5045 16.1624 19.5021 15.8456Z" fill="#8A92A6"/>
<path d="M5.20762 3.3056C5.51002 3.3248 6.22282 4.0208 6.19642 4.2344C6.18202 4.3568 6.10042 4.5104 6.00202 4.5728C5.91322 4.6304 5.71402 4.6352 5.63722 4.5728C5.38282 4.3616 5.14522 4.124 4.93882 3.8696C4.87642 3.7952 4.89082 3.6008 4.94602 3.5048C5.00362 3.3968 5.15242 3.344 5.20762 3.3056Z" fill="#8A92A6"/>
<path d="M3.50876 4.66643C3.42236 4.59683 3.26876 4.53443 3.22796 4.42883C3.18236 4.31363 3.19196 4.11683 3.26396 4.02323C3.44396 3.79043 3.66476 3.58643 3.88556 3.38963C4.03436 3.25763 4.21436 3.26003 4.37036 3.39443C4.51676 3.51923 4.57916 3.70403 4.45676 3.84803C4.23596 4.11443 3.97436 4.34723 3.72476 4.58723C3.68636 4.62563 3.61676 4.63043 3.50876 4.66643Z" fill="#8A92A6"/>
<path d="M3.50857 1.57043C3.62377 1.61363 3.71737 1.62083 3.77257 1.67123C3.99817 1.88243 4.22857 2.09603 4.42777 2.33363C4.55737 2.48723 4.51897 2.66963 4.37497 2.81363C4.24777 2.94083 4.02697 2.96483 3.89017 2.84003C3.66457 2.63603 3.44137 2.42723 3.25417 2.18963C3.18697 2.10323 3.18697 1.91363 3.23257 1.80323C3.27097 1.70243 3.41497 1.64243 3.50857 1.57043Z" fill="#8A92A6"/>
<path d="M6.25181 1.95923C6.17981 2.08643 6.14621 2.18483 6.07901 2.25683C5.90861 2.44163 5.72861 2.61923 5.54621 2.79203C5.36861 2.96003 5.14541 2.96723 4.98941 2.81843C4.82621 2.66003 4.83101 2.43443 5.01341 2.24963C5.19341 2.06243 5.37821 1.88003 5.56541 1.70243C5.69261 1.58243 5.85581 1.55603 5.99261 1.64963C6.10061 1.71923 6.16541 1.84883 6.25181 1.95923Z" fill="#8A92A6"/>
<path d="M21.4076 11.0936C21.4076 11.2352 21.4196 11.3768 21.4052 11.516C21.3836 11.7248 21.2324 11.8568 21.0356 11.8568C20.846 11.8592 20.6684 11.72 20.654 11.5232C20.6372 11.2424 20.6372 10.9592 20.6516 10.6784C20.6636 10.4672 20.8412 10.3328 21.0476 10.34C21.2468 10.3472 21.386 10.4768 21.4052 10.6928C21.4196 10.8248 21.41 10.9592 21.4076 11.0936Z" fill="#8A92A6"/>
<path d="M22.183 11.8616C22.3174 11.8616 22.4494 11.8544 22.5838 11.864C22.783 11.876 22.9294 12.0344 22.9366 12.2264C22.9438 12.4256 22.7902 12.6056 22.5862 12.6128C22.3126 12.6224 22.0366 12.6224 21.763 12.6128C21.5614 12.6056 21.403 12.4208 21.4078 12.2264C21.415 12.0368 21.5662 11.876 21.7606 11.8616C21.8998 11.852 22.0414 11.8616 22.183 11.8616Z" fill="#8A92A6"/>
<path d="M19.9004 11.8616C20.0348 11.8616 20.1668 11.8544 20.3012 11.864C20.5076 11.8784 20.642 12.0248 20.6468 12.2264C20.6516 12.4376 20.5124 12.6056 20.3036 12.6128C20.03 12.6248 19.754 12.6224 19.4804 12.6128C19.274 12.6056 19.1228 12.428 19.1276 12.2264C19.1324 12.032 19.2788 11.8736 19.4756 11.8616C19.6196 11.852 19.7612 11.8616 19.9004 11.8616Z" fill="#8A92A6"/>
<path d="M21.4103 13.3856C21.4103 13.52 21.4199 13.6544 21.4079 13.7864C21.3887 14 21.2447 14.1296 21.0455 14.1344C20.8391 14.1392 20.6663 14.0048 20.6543 13.7912C20.6375 13.5176 20.6399 13.2416 20.6543 12.968C20.6663 12.7568 20.8415 12.6152 21.0431 12.62C21.2423 12.6248 21.3815 12.7544 21.4103 12.9656C21.4127 12.9872 21.4175 13.0088 21.4175 13.0328C21.4175 13.1504 21.4175 13.2704 21.4175 13.388C21.4127 13.3856 21.4127 13.3856 21.4103 13.3856Z" fill="#8A92A6"/>
<path d="M12.6813 20.9744C12.6813 21.116 12.6933 21.2576 12.6789 21.3968C12.6573 21.6056 12.5013 21.74 12.3093 21.7424C12.1149 21.7448 11.9349 21.596 11.9229 21.3848C11.9085 21.1184 11.9085 20.8496 11.9229 20.5832C11.9325 20.3672 12.0957 20.2232 12.2997 20.2184C12.5061 20.216 12.6597 20.3504 12.6837 20.5712C12.6933 20.7056 12.6837 20.84 12.6813 20.9744Z" fill="#8A92A6"/>
</g>
<defs>
<clipPath id="clip0_189_5042">
<rect width="24" height="24" fill="white" transform="translate(0 0.5)"/>
</clipPath>
</defs>
</svg>
