<svg width="24" height="25" viewBox="0 0 24 25" fill="none" xmlns="http://www.w3.org/2000/svg">
<path d="M18.3026 1.21997C18.6266 1.21997 18.9482 1.21997 19.2722 1.21997C19.3178 1.23677 19.3634 1.25837 19.4114 1.26557C21.4634 1.54637 23.1242 3.29597 23.2682 5.35757C23.3642 6.72557 22.9442 7.92557 21.9722 8.89997C20.9858 9.88637 19.7858 10.3448 18.3794 10.2152C18.1202 10.1912 17.861 10.1432 17.5898 10.1072C16.9802 11.7968 16.373 13.4816 15.7634 15.176C16.4378 15.4952 16.9802 15.9344 17.4218 16.4816C17.4482 16.4792 17.4554 16.4816 17.4602 16.4768C18.1562 16.028 18.8546 15.5816 19.5458 15.1256C19.5914 15.0944 19.601 14.9792 19.5986 14.9048C19.589 14.6072 19.5074 14.2976 19.5626 14.0144C19.8122 12.7328 21.2138 12.1208 22.3562 12.7664C23.1554 13.22 23.501 14.2688 23.1314 15.1208C22.7546 15.992 21.7562 16.4696 20.8754 16.172C20.5826 16.0736 20.3186 15.896 20.009 15.7376C19.3202 16.1864 18.5906 16.6592 17.861 17.1344C17.8922 17.2064 17.9186 17.2592 17.9402 17.312C18.7418 19.148 18.5018 20.8376 17.1746 22.3376C15.5786 24.14 12.6434 24.2648 10.8746 22.6304C10.3322 22.1288 9.91701 21.5432 9.65541 20.8496C9.63141 20.7872 9.53541 20.6984 9.48981 20.708C8.94742 20.8256 8.40981 20.96 7.86502 21.0896C7.85301 21.7184 7.62501 22.2272 7.14261 22.6184C6.39861 23.2256 5.20581 23.1296 4.59381 22.4096C3.89781 21.5912 3.95061 20.4344 4.71381 19.76C5.63541 18.944 6.95781 19.1528 7.60821 20.2112C7.63941 20.264 7.71861 20.3336 7.76181 20.324C8.30901 20.2016 8.85381 20.0672 9.41541 19.9328C9.30981 19.2416 9.36981 18.5816 9.56662 17.9336C9.76581 17.2784 10.1186 16.7096 10.5698 16.1888C10.073 15.644 9.59061 15.1136 9.11541 14.5904C9.07941 14.6 9.06261 14.6 9.05061 14.6072C7.67301 15.5744 6.20181 15.7664 4.63221 15.1496C4.51941 15.1064 4.47621 15.152 4.42822 15.2408C4.26022 15.5504 4.09701 15.8624 3.91461 16.1624C3.83541 16.2944 3.84981 16.3712 3.95301 16.4816C4.48101 17.0408 4.61541 17.7008 4.35141 18.4136C4.10661 19.076 3.60981 19.4864 2.91381 19.604C2.23221 19.7288 1.62261 19.5296 1.18821 18.98C0.979415 18.7112 0.873815 18.3632 0.720215 18.0536C0.720215 17.8616 0.720215 17.672 0.720215 17.48C0.734615 17.4392 0.753815 17.4008 0.763415 17.36C1.00581 16.4096 1.77861 15.8408 2.76021 15.8984C2.89701 15.9056 3.03141 15.9392 3.16821 15.9608C3.39381 15.5552 3.61221 15.1592 3.83781 14.7536C2.52741 13.7792 1.80741 12.5024 1.86021 10.8584C1.91301 9.21197 2.71221 7.98557 4.08021 7.09517C3.73461 6.36797 3.39141 5.65037 3.05301 4.93517C2.18421 5.06237 1.55781 4.84637 1.09701 4.20797C0.924215 3.96557 0.842615 3.65837 0.720215 3.37997C0.720215 3.18797 0.720215 2.99837 0.720215 2.80637C0.734615 2.76797 0.756215 2.72957 0.765815 2.68877C0.876215 2.23277 1.10901 1.84397 1.50261 1.58717C1.74501 1.42877 2.03541 1.33997 2.30661 1.21997C2.49861 1.21997 2.68821 1.21997 2.88021 1.21997C2.92821 1.23677 2.97381 1.25357 3.02181 1.26797C4.38021 1.61837 4.95381 3.20477 4.05621 4.24877C3.76821 4.58477 3.80181 4.79357 3.97701 5.12237C4.26261 5.65757 4.50501 6.21437 4.76181 6.74957C7.17861 6.05597 9.02901 6.79517 10.3754 8.87837C11.7386 8.29997 13.1042 7.72157 14.4818 7.13837C14.1986 6.26717 14.177 5.40797 14.4242 4.53677C14.0666 4.40477 13.7282 4.28957 13.397 4.15517C13.2602 4.09997 13.193 4.12877 13.1066 4.23917C12.7514 4.70237 12.2786 4.94957 11.693 4.97597C10.913 5.01197 10.157 4.51997 9.87861 3.79517C9.58101 3.02237 9.78501 2.15357 10.4258 1.67357C10.6922 1.47437 11.0306 1.36877 11.3378 1.22237C11.5298 1.22237 11.7194 1.22237 11.9114 1.22237C11.9162 1.22717 11.921 1.23677 11.9258 1.23677C13.0538 1.59437 13.4426 2.10077 13.4954 3.26717C13.4978 3.32237 13.553 3.40397 13.601 3.42317C13.9538 3.56237 14.3114 3.68957 14.6594 3.81677C14.681 3.79517 14.6954 3.78557 14.7026 3.77357C14.7242 3.73517 14.7458 3.69677 14.7674 3.65837C15.3602 2.57597 16.2266 1.81517 17.4074 1.43597C17.7002 1.33997 18.005 1.28957 18.3026 1.21997ZM16.8842 9.82877C15.953 9.38957 15.2642 8.71997 14.777 7.84637C14.7122 7.87037 14.6714 7.88477 14.633 7.90157C13.3658 8.43677 12.0986 8.97437 10.829 9.50717C10.6802 9.56957 10.6634 9.63917 10.7042 9.78797C10.9562 10.6952 10.9274 11.5976 10.6154 12.4904C10.409 13.0784 10.0826 13.5968 9.66261 14.0672C10.157 14.6096 10.6442 15.1448 11.1362 15.6872C12.3266 14.8184 13.625 14.5568 15.0506 14.912C15.665 13.2104 16.2698 11.5304 16.8842 9.82877ZM21.605 8.16317C22.877 6.74717 22.8794 4.35917 21.2378 2.90237C19.673 1.51277 17.1914 1.72157 15.857 3.36317C14.5562 4.96157 14.921 7.14557 15.9434 8.14157C16.2362 7.45757 16.7282 6.96797 17.4074 6.66797C16.5626 5.65997 16.8794 4.57037 17.4554 4.01117C18.113 3.37517 19.1546 3.29837 19.8578 3.82397C20.249 4.11677 20.513 4.49837 20.6066 4.97837C20.729 5.61197 20.5562 6.17597 20.117 6.66797C20.8202 6.97517 21.3026 7.46477 21.605 8.16317ZM9.18981 13.4384C10.4786 11.996 10.457 9.61997 8.83942 8.17757C7.28421 6.79277 4.84101 6.97277 3.48741 8.58317C2.15301 10.172 2.48181 12.3536 3.52821 13.4096C3.81621 12.7208 4.31301 12.236 4.99221 11.9336C4.15221 10.9328 4.45221 9.84317 5.04741 9.27197C5.72661 8.62157 6.77781 8.56637 7.48582 9.12077C7.86021 9.41357 8.10982 9.79037 8.19622 10.2512C8.31382 10.8752 8.14821 11.4392 7.70421 11.9288C8.40501 12.2432 8.89701 12.7352 9.18981 13.4384ZM12.5186 20.204C11.7314 19.2896 11.9186 18.1976 12.5426 17.5664C13.1834 16.916 14.2634 16.832 14.9786 17.3696C15.3698 17.6648 15.6266 18.0488 15.7178 18.5288C15.8378 19.1576 15.6602 19.712 15.2282 20.2016C15.9338 20.5088 16.4162 21.008 16.7114 21.6944C17.9114 20.42 18.0602 18.0704 16.481 16.5632C14.8802 15.0368 12.3626 15.1952 10.973 16.8944C9.65061 18.512 10.0514 20.7128 11.0522 21.668C11.3426 20.9936 11.8322 20.5088 12.5186 20.204ZM13.8746 23.0288C14.6402 23.012 15.3362 22.8152 15.953 22.3784C16.0082 22.3376 16.0562 22.2176 16.037 22.1528C15.8546 21.5168 15.4466 21.0704 14.8154 20.8784C14.2466 20.7032 13.6466 20.72 13.073 20.84C12.3842 20.9864 11.9378 21.4376 11.7146 22.112C11.669 22.2488 11.6954 22.3208 11.8154 22.4C12.4466 22.8128 13.1402 23.0168 13.8746 23.0288ZM8.56101 14.024C8.36421 13.244 7.89861 12.7136 7.11621 12.5648C6.66501 12.4784 6.17781 12.4928 5.71701 12.5456C4.94661 12.6344 4.45941 13.1072 4.19541 13.8296C4.13781 13.9904 4.18821 14.0624 4.31541 14.144C5.55141 14.948 7.23381 14.9936 8.56101 14.024ZM18.7682 7.25357C18.605 7.25357 18.4442 7.24877 18.281 7.25357C17.513 7.28477 16.8218 7.84397 16.6058 8.59037C16.5698 8.71757 16.5866 8.78477 16.697 8.86157C17.8946 9.68957 19.6466 9.68717 20.8442 8.85677C20.9498 8.78237 20.969 8.71517 20.9354 8.60237C20.8154 8.20397 20.5898 7.87997 20.261 7.62317C19.8194 7.27757 19.3058 7.21037 18.7682 7.25357ZM5.98341 20.0312C5.36901 20.0312 4.86501 20.5304 4.86021 21.1448C4.85541 21.752 5.35941 22.2632 5.97141 22.2752C6.57861 22.2872 7.11141 21.7568 7.10662 21.1448C7.10421 20.5328 6.59781 20.0312 5.98341 20.0312ZM11.6306 4.21997C12.2402 4.21757 12.749 3.70877 12.749 3.09917C12.749 2.49437 12.2378 1.97837 11.6282 1.97357C11.0162 1.96877 10.493 2.49677 10.5002 3.11117C10.5098 3.72317 11.0162 4.22237 11.6306 4.21997ZM3.72021 17.756C3.71781 17.1464 3.20901 16.64 2.59701 16.6424C1.98981 16.6448 1.47621 17.156 1.47381 17.7632C1.47141 18.3656 1.98501 18.884 2.59221 18.8912C3.20901 18.896 3.72261 18.3776 3.72021 17.756ZM18.7754 6.47117C19.397 6.46877 19.8938 5.96957 19.8914 5.35037C19.889 4.73597 19.3802 4.23197 18.7634 4.23437C18.149 4.23917 17.6378 4.75277 17.6426 5.35997C17.6474 5.97677 18.1562 6.47357 18.7754 6.47117ZM7.46902 10.6256C7.47142 10.0016 6.97701 9.50237 6.35781 9.49997C5.74101 9.49757 5.23461 9.99677 5.22982 10.6136C5.22261 11.2208 5.73622 11.7392 6.34822 11.7464C6.95541 11.7536 7.46902 11.2424 7.46902 10.6256ZM13.8698 17.7776C13.2482 17.78 12.7466 18.2816 12.749 18.8984C12.7514 19.5128 13.2602 20.0144 13.877 20.012C14.4962 20.0096 15.0002 19.5056 14.9978 18.8912C14.9954 18.272 14.4914 17.7752 13.8698 17.7776ZM3.72021 3.09677C3.72021 2.48717 3.21381 1.97837 2.60181 1.97357C2.00181 1.96877 1.48101 2.48717 1.47141 3.09197C1.46421 3.70397 1.98501 4.22237 2.60661 4.21997C3.22101 4.21757 3.72261 3.71117 3.72021 3.09677ZM21.4034 15.5C22.013 15.5 22.5218 14.9936 22.5266 14.384C22.5314 13.784 22.0154 13.2632 21.4082 13.2536C20.7962 13.244 20.2778 13.7672 20.2802 14.3864C20.285 15.0008 20.789 15.5024 21.4034 15.5Z" fill="#8A92A6"/>
</svg>
