<svg width="24" height="25" viewBox="0 0 24 25" fill="none" xmlns="http://www.w3.org/2000/svg">
<g clip-path="url(#clip0_189_5071)">
<path d="M19.104 5.99122C19.6296 5.46322 20.1096 4.98802 20.5848 4.50562C20.9424 4.14322 21.3696 4.01122 21.864 4.11682C22.368 4.22482 23.4408 5.29762 23.5608 5.80402C23.6784 6.29842 23.5464 6.72562 23.1888 7.08562C22.4232 7.85362 21.6576 8.61922 20.8896 9.38722C18.648 11.6288 16.4112 13.8728 14.1624 16.1096C14.0256 16.244 13.836 16.3544 13.6512 16.4048C12.8616 16.6256 12.0672 16.82 11.2728 17.0216C10.7712 17.1488 10.5096 16.8848 10.6416 16.388C10.8576 15.5816 11.0688 14.7752 11.2968 13.9736C11.3424 13.8176 11.4432 13.6592 11.5584 13.5416C13.7088 11.3792 15.8664 9.22402 18.0264 7.07122C18.1536 6.94402 18.2064 6.81922 18.2064 6.63922C18.1992 5.50162 18.204 4.36402 18.2016 3.22882C18.2016 2.54002 17.832 2.17282 17.1384 2.17282C12.336 2.17282 7.53118 2.17282 2.72878 2.17282C2.01838 2.17282 1.65358 2.53522 1.65358 3.23842C1.65358 8.46322 1.65358 13.6904 1.65358 18.9152C1.65358 19.6088 2.01358 19.9688 2.71198 19.9688C4.96318 19.9688 7.21438 19.9712 9.46558 19.9664C9.71758 19.9664 9.92638 20.0264 10.1328 20.1776C11.2656 20.9984 12.408 21.8072 13.548 22.6208C13.608 22.664 13.6704 22.7024 13.752 22.7552C13.752 22.1192 13.752 21.5072 13.752 20.876C13.6824 20.8712 13.6104 20.8664 13.5384 20.864C13.248 20.852 13.0464 20.6624 13.0536 20.408C13.0608 20.1608 13.2552 19.9736 13.536 19.9712C14.1168 19.964 14.6952 19.9688 15.276 19.9688C15.924 19.9688 16.572 19.9712 17.2176 19.9688C17.8224 19.9664 18.2016 19.5848 18.2016 18.9776C18.204 17.396 18.2016 15.8144 18.2016 14.2328C18.2016 14.1656 18.1992 14.096 18.2016 14.0288C18.216 13.7408 18.4104 13.5392 18.6648 13.5488C18.912 13.5584 19.0944 13.7552 19.0944 14.036C19.0968 15.716 19.1064 17.3936 19.0896 19.0736C19.08 20.0696 18.276 20.8472 17.2728 20.8592C16.4592 20.8688 15.6456 20.8616 14.8344 20.8616C14.784 20.8616 14.7336 20.8688 14.6592 20.8736C14.6592 20.9672 14.6592 21.0488 14.6592 21.128C14.6592 21.9272 14.6568 22.724 14.6592 23.5232C14.6592 23.7392 14.616 23.9312 14.4024 24.0344C14.2008 24.1328 14.028 24.0584 13.86 23.936C12.4848 22.9496 11.1096 21.9632 9.72718 20.984C9.62638 20.912 9.48238 20.8664 9.35758 20.8664C7.15198 20.8592 4.94638 20.8616 2.74078 20.8616C1.53358 20.8616 0.763184 20.0936 0.763184 18.8888C0.763184 13.6712 0.763184 8.45122 0.763184 3.23362C0.763184 2.25202 1.32478 1.51762 2.22478 1.32562C2.38078 1.29682 2.54398 1.29202 2.69998 1.29202C7.52638 1.28962 12.3504 1.28962 17.1768 1.29202C18.3384 1.29202 19.1016 2.05522 19.104 3.21442C19.1064 4.04242 19.104 4.87042 19.104 5.69842C19.104 5.77282 19.104 5.84722 19.104 5.99122ZM20.5224 5.88802C17.8152 8.59522 15.1128 11.2952 12.42 13.9856C12.8424 14.4128 13.2768 14.8496 13.6752 15.2528C16.3752 12.5528 19.0824 9.84802 21.7824 7.14802C21.372 6.74002 20.9424 6.30802 20.5224 5.88802ZM21.1704 5.20882C21.6072 5.64562 22.0416 6.08002 22.4784 6.51682C22.7832 6.27442 22.8 6.04882 22.5168 5.76082C22.3152 5.55682 22.116 5.35522 21.9096 5.15602C21.6384 4.88722 21.4056 4.90882 21.1704 5.20882ZM11.6784 15.9944C12.0792 15.884 12.4344 15.788 12.7656 15.6968C12.5016 15.4328 12.2472 15.176 11.9856 14.9168C11.8896 15.2456 11.7912 15.596 11.6784 15.9944Z" fill="#8A92A6"/>
<path d="M10.901 8.624C11.6906 8.624 12.4826 8.6216 13.2722 8.6264C13.5314 8.6288 13.7066 8.7632 13.7498 8.9888C13.7882 9.1976 13.7066 9.3656 13.5218 9.4592C13.4258 9.5072 13.3058 9.5192 13.1954 9.5192C12.6842 9.524 12.173 9.5216 11.6594 9.5216C10.673 9.5216 9.68657 9.5216 8.70257 9.5216C8.63537 9.5216 8.56577 9.524 8.49857 9.5192C8.23457 9.5 8.04737 9.3152 8.04257 9.0776C8.03777 8.8328 8.23697 8.6336 8.50817 8.6264C8.85377 8.6192 9.19937 8.624 9.54737 8.624C9.99617 8.624 10.4498 8.624 10.901 8.624Z" fill="#8A92A6"/>
<path d="M7.10655 16.0808C7.81455 16.0808 8.52015 16.0784 9.22815 16.0832C9.49215 16.0856 9.68175 16.2752 9.68895 16.5152C9.69615 16.7552 9.51375 16.9472 9.25215 16.9712C9.19215 16.976 9.13215 16.9736 9.07215 16.9736C7.76415 16.9736 6.45375 16.9736 5.14575 16.9736C5.10735 16.9736 5.07135 16.9736 5.03295 16.9736C4.72575 16.964 4.51935 16.7768 4.52655 16.5152C4.53375 16.2608 4.73535 16.0832 5.03295 16.0808C5.72175 16.0784 6.41295 16.0808 7.10655 16.0808Z" fill="#8A92A6"/>
<path d="M6.78967 5.78484C6.20167 5.78484 5.61607 5.78724 5.02807 5.78484C4.72567 5.78244 4.52887 5.61204 4.52167 5.35524C4.51447 5.09124 4.71367 4.90404 5.02807 4.90164C6.19447 4.89684 7.36087 4.89924 8.52727 4.90164C8.78887 4.90164 8.96647 5.02164 9.01447 5.22324C9.06247 5.42484 9.00967 5.60724 8.82727 5.71284C8.73847 5.76324 8.61607 5.78004 8.50567 5.78004C7.93447 5.78724 7.36327 5.78484 6.78967 5.78484Z" fill="#8A92A6"/>
<path d="M11.9401 5.78481C11.4961 5.78481 11.0545 5.78721 10.6105 5.78481C10.2889 5.78241 10.1017 5.61201 10.1065 5.33841C10.1089 5.07681 10.2937 4.90401 10.6009 4.90161C11.4865 4.89681 12.3745 4.89681 13.2601 4.90161C13.5625 4.90401 13.7569 5.08161 13.7593 5.33841C13.7617 5.60241 13.5601 5.78241 13.2481 5.78481C12.8113 5.78721 12.3769 5.78481 11.9401 5.78481Z" fill="#8A92A6"/>
<path d="M5.82229 8.62404C6.10069 8.62404 6.37909 8.61924 6.65749 8.62404C6.92149 8.62884 7.11349 8.80884 7.12549 9.04644C7.13749 9.28404 6.95749 9.50004 6.69589 9.50484C6.11749 9.51924 5.53909 9.51924 4.96069 9.50484C4.69669 9.50004 4.51909 9.28884 4.52869 9.04884C4.53829 8.80884 4.73029 8.62644 4.99189 8.62164C5.26549 8.61924 5.54389 8.62404 5.82229 8.62404Z" fill="#8A92A6"/>
<path d="M9.16805 13.2392C8.91365 13.2392 8.65685 13.244 8.40245 13.2368C8.12405 13.2296 7.93685 13.0424 7.94405 12.788C7.94885 12.5432 8.13125 12.3632 8.40005 12.3608C8.91125 12.3536 9.42005 12.3536 9.93125 12.3608C10.1976 12.3656 10.38 12.5528 10.38 12.7976C10.38 13.04 10.1976 13.2224 9.93365 13.2392C9.91925 13.2392 9.90485 13.2392 9.88805 13.2392C9.64805 13.2392 9.40805 13.2392 9.16805 13.2392Z" fill="#8A92A6"/>
<path d="M5.88738 13.2368C5.72178 13.2368 5.55618 13.244 5.39058 13.2344C5.14098 13.22 4.96338 13.0328 4.96338 12.7976C4.96338 12.5624 5.13858 12.3704 5.39058 12.3608C5.72178 12.3512 6.05298 12.3512 6.38418 12.3608C6.63618 12.368 6.81138 12.56 6.81138 12.7952C6.81138 13.0328 6.63378 13.2128 6.38418 13.2344C6.36978 13.2344 6.35298 13.2368 6.33858 13.2368C6.18738 13.2392 6.03618 13.2392 5.88738 13.2368C5.88738 13.2392 5.88738 13.2392 5.88738 13.2368Z" fill="#8A92A6"/>
<path d="M15.4224 5.78243C15.2808 5.78243 15.1368 5.78723 14.9952 5.78003C14.7432 5.76803 14.5632 5.59043 14.556 5.35523C14.5464 5.12243 14.7192 4.91843 14.9688 4.90643C15.276 4.89203 15.5856 4.89203 15.8928 4.90643C16.1328 4.91843 16.2984 5.11043 16.2984 5.33843C16.3008 5.57363 16.1232 5.76323 15.876 5.77763C15.7224 5.78963 15.5712 5.78003 15.4224 5.78243Z" fill="#8A92A6"/>
</g>
<defs>
<clipPath id="clip0_189_5071">
<rect width="24" height="24" fill="white" transform="translate(0 0.5)"/>
</clipPath>
</defs>
</svg>
