<svg width="24" height="25" viewBox="0 0 24 25" fill="none" xmlns="http://www.w3.org/2000/svg">
<path d="M12.4964 12.2384C12.4964 13.0424 12.4964 13.8176 12.4964 14.5928C12.5156 14.6096 12.5348 14.6264 12.554 14.6408C12.7964 14.3816 13.0268 14.1128 13.2836 13.8728C13.3772 13.784 13.5404 13.7096 13.6628 13.724C13.9556 13.7576 14.0468 14.1128 13.8284 14.3432C13.5284 14.66 13.214 14.9624 12.9068 15.2696C12.7508 15.4256 12.5972 15.5864 12.4364 15.74C12.2396 15.9272 12.014 15.9392 11.8268 15.7544C11.3516 15.2888 10.8812 14.8184 10.4156 14.3456C10.2452 14.1728 10.2476 13.9688 10.4012 13.8176C10.5548 13.6664 10.754 13.6664 10.9292 13.8368C11.1908 14.0936 11.4428 14.36 11.7356 14.66C11.7356 13.8272 11.7356 13.0472 11.7356 12.2408C11.6492 12.2408 11.5604 12.2408 11.4716 12.2408C9.04998 12.2408 6.62838 12.2408 4.20678 12.2408C3.77958 12.2408 3.68838 12.1472 3.68598 11.7128C3.68598 10.9208 3.68598 10.1264 3.68598 9.30563C3.58758 9.30563 3.50598 9.30563 3.42678 9.30563C2.68518 9.30563 1.94358 9.30563 1.20438 9.30563C0.875579 9.30563 0.755579 9.19043 0.755579 8.87123C0.753179 7.69523 0.753179 6.51923 0.755579 5.34083C0.755579 5.02643 0.940379 4.85363 1.20438 4.91363C1.43238 4.96643 1.48998 5.13443 1.48998 5.34803C1.48278 6.33203 1.48518 7.31843 1.48518 8.30483C1.48518 8.38643 1.48518 8.46803 1.48518 8.56163C3.20118 8.56163 4.89318 8.56163 6.60438 8.56163C6.60438 6.37283 6.60438 4.18643 6.60438 1.98563C4.90998 1.98563 3.21798 1.98563 1.48518 1.98563C1.48518 2.05043 1.48518 2.12243 1.48518 2.19443C1.48518 2.69843 1.48766 5.42326 1.48526 5.92726C1.48286 6.21046 1.35806 6.34966 1.11806 6.34966C0.878065 6.34966 0.755665 6.20806 0.753265 5.92486C0.750865 5.24566 0.750779 2.34323 0.753179 1.66403C0.755579 1.35683 0.875579 1.23923 1.18758 1.23923C3.09798 1.23683 5.00838 1.23683 6.91878 1.23923C7.23078 1.23923 7.35318 1.35923 7.35318 1.66643C7.35558 4.07363 7.35558 6.48083 7.35318 8.88563C7.35318 9.18083 7.22838 9.30323 6.93318 9.30563C6.10758 9.30803 5.28198 9.30563 4.43958 9.30563C4.43958 10.0328 4.43958 10.7528 4.43958 11.4896C6.86598 11.4896 9.29718 11.4896 11.7428 11.4896C11.7428 10.772 11.7428 10.0568 11.7428 9.30563C11.6684 9.30563 11.5892 9.30563 11.5076 9.30563C10.766 9.30563 10.0244 9.30563 9.28518 9.30563C8.93478 9.30563 8.82438 9.19283 8.82198 8.83763C8.82198 8.76083 8.82198 8.68403 8.82198 8.60723C8.81958 8.39603 8.90838 8.25203 9.12198 8.21123C9.32358 8.17283 9.46758 8.27603 9.54918 8.49923C9.55638 8.52083 9.56358 8.54003 9.57318 8.56643C11.27 8.56643 12.9644 8.56643 14.6732 8.56643C14.6732 6.37283 14.6732 4.18403 14.6732 1.98563C12.9764 1.98563 11.282 1.98563 9.55398 1.98563C9.55398 2.06243 9.55398 2.14163 9.55398 2.22323C9.55398 3.14723 9.55158 7.68083 9.54918 8.60723C9.54918 8.86883 9.43878 9.00563 9.22518 9.02483C8.97318 9.04643 8.81958 8.90003 8.81958 8.62163C8.81718 7.94963 8.82198 3.66803 8.82198 2.99603C8.82198 2.55203 8.81958 2.11043 8.82198 1.66643C8.82438 1.36883 8.94438 1.24403 9.23718 1.24403C11.162 1.24163 13.0868 1.24163 15.014 1.24403C15.2948 1.24403 15.422 1.37123 15.422 1.65203C15.4244 4.06643 15.4244 6.48083 15.422 8.89523C15.422 9.18803 15.2948 9.31043 14.9996 9.31043C14.174 9.31283 13.3508 9.31043 12.5084 9.31043C12.5084 10.04 12.5084 10.76 12.5084 11.4968C14.9372 11.4968 17.3684 11.4968 19.814 11.4968C19.814 10.7768 19.814 10.0616 19.814 9.31043C19.7372 9.31043 19.6556 9.31043 19.5764 9.31043C18.842 9.31043 18.11 9.31043 17.3756 9.31043C17.0036 9.31043 16.8932 9.20243 16.8932 8.83763C16.8932 6.46163 16.8932 4.08563 16.8932 1.70963C16.8932 1.35443 17.0036 1.24163 17.3564 1.24163C19.25 1.24163 21.146 1.24163 23.0396 1.24163C23.378 1.24163 23.4908 1.35683 23.4932 1.69763C23.4932 1.75763 23.4932 1.82003 23.4932 1.88003C23.4908 2.16563 23.3948 2.30723 23.1812 2.33603C22.9676 2.36483 22.8356 2.26163 22.742 1.98323C21.0452 1.98323 19.346 1.98323 17.6348 1.98323C17.6348 4.17683 17.6348 6.35843 17.6348 8.55683C19.334 8.55683 21.0308 8.55683 22.7588 8.55683C22.7588 8.47523 22.7588 8.39363 22.7588 8.31443C22.7588 6.73283 22.7588 5.15123 22.7588 3.56963C22.7588 3.26003 22.874 3.11843 23.1164 3.11603C23.3444 3.11123 23.4836 3.24323 23.4884 3.48563C23.4956 3.78323 23.4908 4.08083 23.4908 4.37843C23.4908 5.84483 23.4908 7.31123 23.4908 8.78003C23.4908 9.21443 23.3972 9.30803 22.9724 9.30803C22.178 9.30803 21.3836 9.30803 20.558 9.30803C20.558 9.39923 20.558 9.47843 20.558 9.56003C20.558 10.2848 20.558 11.012 20.558 11.7368C20.558 12.1376 20.4572 12.2408 20.0612 12.2408C17.6396 12.2408 15.218 12.2408 12.7964 12.2408C12.7004 12.2384 12.6116 12.2384 12.4964 12.2384Z" fill="#8A92A6"/>
<path d="M6.62151 21.0992C6.62151 21.5168 6.61431 21.9224 6.62871 22.3256C6.63111 22.3976 6.71991 22.5032 6.79431 22.5296C7.10871 22.6448 7.43031 22.736 7.75191 22.832C8.03511 22.9184 8.16231 23.216 7.97271 23.4176C7.89111 23.5064 7.70631 23.5784 7.59591 23.5496C7.17831 23.4392 6.76311 23.3072 6.36471 23.1416C6.02871 23 5.87991 22.724 5.88231 22.3376C5.89431 20.2448 5.89671 18.152 5.87991 16.0568C5.87751 15.6512 6.05271 15.4088 6.38151 15.2384C6.95031 14.9408 7.57431 14.8184 8.20071 14.72C8.65191 14.648 9.10791 14.6024 9.56391 14.552C9.80631 14.5256 9.97191 14.6552 9.99591 14.8856C10.0199 15.1064 9.90231 15.2384 9.65271 15.2816C8.86311 15.4112 8.07351 15.536 7.28631 15.6776C7.09911 15.7112 6.92151 15.8072 6.73911 15.8744C6.73671 15.9056 6.73431 15.9392 6.73191 15.9704C7.08471 16.0712 7.43031 16.196 7.78791 16.2704C9.61911 16.6424 11.4719 16.6808 13.3319 16.616C14.4551 16.5776 15.5735 16.4864 16.6703 16.2248C16.9559 16.1552 17.2319 16.0496 17.5127 15.9608C17.5127 15.9368 17.5151 15.9152 17.5151 15.8912C17.4167 15.848 17.3207 15.7832 17.2175 15.7616C16.4327 15.6056 15.6479 15.4592 14.8607 15.3104C14.7719 15.2936 14.6759 15.2936 14.5895 15.2696C14.4047 15.2144 14.2751 15.1016 14.2847 14.8952C14.2943 14.7176 14.4935 14.5376 14.6879 14.5568C15.7055 14.6528 16.7255 14.7512 17.6831 15.1544C17.8367 15.2192 17.9783 15.3152 18.1103 15.416C18.2783 15.5408 18.3551 15.716 18.3551 15.932C18.3527 18.1088 18.3527 20.288 18.3551 22.4648C18.3551 22.7504 18.2015 22.9376 17.9855 23.084C17.5463 23.3792 17.0423 23.5088 16.5311 23.6096C14.6759 23.9696 12.7991 24.0152 10.9175 23.9552C10.3535 23.936 9.78951 23.8856 9.22551 23.84C8.87511 23.8112 8.72631 23.5784 8.86071 23.2976C8.94951 23.1104 9.10311 23.096 9.28311 23.1056C10.1903 23.156 11.0975 23.228 12.0047 23.24C13.5647 23.2592 15.1199 23.1728 16.6487 22.8296C16.9295 22.7672 17.2031 22.6664 17.4719 22.5584C17.5391 22.532 17.6111 22.4168 17.6135 22.34C17.6279 21.9368 17.6207 21.5312 17.6207 21.1088C15.8255 21.7136 13.9751 21.7736 12.1223 21.7736C10.2791 21.7664 8.42871 21.7088 6.62151 21.0992ZM17.6231 16.736C15.8159 17.348 13.9679 17.4032 12.1199 17.4032C10.2695 17.4032 8.41671 17.3456 6.61911 16.736C6.61911 17.1296 6.63351 17.5064 6.61431 17.8784C6.60231 18.0872 6.68391 18.2 6.86871 18.2432C7.44471 18.3848 8.01831 18.56 8.60391 18.644C10.4711 18.9128 12.3479 18.9344 14.2271 18.8024C14.5007 18.7832 14.7743 18.752 15.0479 18.7376C15.2543 18.728 15.4223 18.86 15.4535 19.0376C15.4823 19.196 15.3431 19.3928 15.1559 19.448C15.0911 19.4672 15.0215 19.4744 14.9543 19.4792C14.3063 19.52 13.6583 19.5776 13.0103 19.5944C11.3207 19.6376 9.63351 19.592 7.96551 19.2944C7.50471 19.2128 7.05111 19.0736 6.58071 18.956C6.58071 19.3136 6.59751 19.6784 6.57351 20.0432C6.55911 20.2808 6.65271 20.4032 6.86391 20.4536C7.42551 20.588 7.98471 20.7632 8.55591 20.84C10.9991 21.1688 13.4447 21.1712 15.8831 20.7968C16.3847 20.72 16.8743 20.5592 17.3663 20.4248C17.4479 20.4032 17.5703 20.312 17.5727 20.2472C17.5919 19.8248 17.5823 19.4024 17.5823 18.9824C17.2343 19.0712 16.9199 19.16 16.6007 19.2296C16.3631 19.2824 16.1663 19.1552 16.1231 18.9488C16.0823 18.7544 16.2023 18.5768 16.4255 18.5048C16.4759 18.488 16.5287 18.4808 16.5791 18.4616C16.8815 18.356 17.1863 18.2576 17.4815 18.1376C17.5463 18.1112 17.6159 18.008 17.6183 17.9384C17.6303 17.5496 17.6231 17.1512 17.6231 16.736Z" fill="#8A92A6"/>
<path d="M4.11614 3.43967C4.57454 3.43967 5.03054 3.43727 5.48894 3.43967C5.78654 3.44207 5.93534 3.56927 5.93294 3.80927C5.93054 4.04207 5.78414 4.16927 5.50334 4.17167C4.56494 4.17407 3.62654 4.17407 2.69054 4.17167C2.41454 4.17167 2.26814 4.03727 2.27054 3.80207C2.27294 3.56927 2.41934 3.44207 2.70014 3.44207C3.17054 3.43967 3.64334 3.43967 4.11614 3.43967Z" fill="#8A92A6"/>
<path d="M20.1336 4.1749C19.668 4.1749 19.2024 4.1773 18.7392 4.1749C18.4608 4.1725 18.3144 4.0453 18.312 3.8101C18.312 3.5749 18.4584 3.4429 18.7344 3.4429C19.6728 3.4405 20.6112 3.4405 21.5472 3.4429C21.8256 3.4429 21.9744 3.5725 21.9744 3.8077C21.9744 4.0429 21.828 4.1725 21.5496 4.1749C21.0792 4.1773 20.6064 4.1749 20.1336 4.1749Z" fill="#8A92A6"/>
<path d="M4.12334 4.90828C4.58174 4.90828 5.03774 4.90588 5.49614 4.90828C5.77934 4.91068 5.92574 5.03308 5.93054 5.26348C5.93534 5.50588 5.78414 5.63788 5.49134 5.64028C4.56014 5.64268 3.63134 5.64268 2.70014 5.64028C2.41694 5.64028 2.27054 5.51548 2.26574 5.28268C2.26094 5.04028 2.41214 4.90828 2.70494 4.90588C3.17774 4.90588 3.65054 4.90828 4.12334 4.90828Z" fill="#8A92A6"/>
<path d="M20.1385 5.6417C19.6729 5.6417 19.2073 5.6441 18.7441 5.6417C18.4609 5.6393 18.3145 5.5169 18.3121 5.2841C18.3073 5.0417 18.4585 4.9097 18.7513 4.9097C19.6825 4.9073 20.6113 4.9073 21.5425 4.9097C21.8233 4.9097 21.9721 5.0345 21.9769 5.2673C21.9817 5.5097 21.8305 5.6393 21.5353 5.6417C21.0697 5.6441 20.6041 5.6417 20.1385 5.6417Z" fill="#8A92A6"/>
<path d="M4.11569 6.37472C4.56449 6.37472 5.01569 6.37472 5.46449 6.37472C5.78129 6.37472 5.93249 6.49952 5.93009 6.74672C5.92769 6.98672 5.77649 7.10672 5.47649 7.10672C4.55489 7.10672 3.63089 7.10912 2.70929 7.10672C2.41409 7.10672 2.26289 6.97712 2.26769 6.73472C2.27009 6.49472 2.41889 6.37472 2.72129 6.37472C3.18689 6.37232 3.65009 6.37472 4.11569 6.37472Z" fill="#8A92A6"/>
<path d="M12.1189 3.43967C12.5845 3.43967 13.0501 3.43727 13.5133 3.43967C13.8061 3.44207 13.9597 3.57167 13.9549 3.81407C13.9501 4.04687 13.8037 4.17167 13.5229 4.17407C12.5917 4.17647 11.6629 4.17647 10.7317 4.17407C10.4365 4.17407 10.2877 4.04207 10.2901 3.79967C10.2949 3.56687 10.4389 3.44207 10.7221 3.44207C11.1901 3.43967 11.6557 3.43967 12.1189 3.43967Z" fill="#8A92A6"/>
<path d="M12.1069 5.64042C11.6485 5.64042 11.1925 5.64282 10.7341 5.64042C10.4389 5.63802 10.2877 5.51082 10.2901 5.26842C10.2925 5.02842 10.4413 4.90842 10.7437 4.90842C11.6653 4.90842 12.5893 4.90602 13.5109 4.90842C13.8061 4.90842 13.9573 5.03802 13.9549 5.28042C13.9525 5.52042 13.8013 5.64042 13.5013 5.64282C13.0381 5.64282 12.5725 5.64042 12.1069 5.64042Z" fill="#8A92A6"/>
<path d="M12.1165 7.10697C11.6509 7.10697 11.1853 7.10937 10.7221 7.10697C10.4413 7.10457 10.2949 6.97977 10.2925 6.74457C10.2901 6.50937 10.4365 6.37497 10.7125 6.37497C11.6509 6.37257 12.5893 6.37257 13.5253 6.37497C13.8061 6.37497 13.9525 6.50217 13.9549 6.73737C13.9573 6.97257 13.8109 7.10697 13.5349 7.10697C13.0621 7.10937 12.5893 7.10697 12.1165 7.10697Z" fill="#8A92A6"/>
<path d="M20.1193 7.10801C19.6609 7.10801 19.2049 7.11041 18.7465 7.10801C18.4633 7.10561 18.3169 6.98321 18.3121 6.75281C18.3073 6.51041 18.4561 6.37601 18.7489 6.37601C19.6801 6.37361 20.6089 6.37361 21.5401 6.37601C21.8233 6.37601 21.9697 6.50081 21.9769 6.73121C21.9817 6.97361 21.8305 7.10561 21.5377 7.10801C21.0649 7.11041 20.5921 7.10801 20.1193 7.10801Z" fill="#8A92A6"/>
</svg>
