<svg width="24" height="25" viewBox="0 0 24 25" fill="none" xmlns="http://www.w3.org/2000/svg">
<path d="M23.1122 7.86952L12.6972 3.88888C12.2365 3.71209 11.7707 3.71209 11.3099 3.88888L0.894979 7.86952C0.570441 7.99328 0.359863 8.30265 0.359863 8.65917C0.359863 9.01569 0.570441 9.32507 0.894979 9.44882L5.13131 11.0694V15.9163C5.13131 16.538 5.43107 17.0742 5.91416 17.3129C7.75486 18.2233 10.2 18.8391 12.0011 18.8421C13.8022 18.8362 16.2473 18.2233 18.088 17.3129C18.5711 17.0742 18.8709 16.538 18.8709 15.9163V11.0664L20.5976 10.4064V13.0229C20.1616 13.1908 19.842 13.6711 19.842 14.2456C19.842 14.6051 19.9659 14.9292 20.1641 15.162C19.9659 15.3947 19.842 15.7189 19.842 16.0783V17.9788C19.842 18.4119 20.1393 18.7625 20.501 18.7625H21.3508C21.7149 18.7625 22.0097 18.4119 22.0097 17.9788V16.0783C22.0097 15.7189 21.8859 15.3947 21.6877 15.162C21.8859 14.9292 22.0097 14.6051 22.0097 14.2456C22.0097 13.6711 21.6902 13.1908 21.2541 13.0229V10.153L23.1047 9.44587C23.4293 9.32212 23.6399 9.01274 23.6399 8.65623C23.6399 8.29971 23.4367 7.99328 23.1122 7.86952ZM20.506 17.9817V16.0813C20.506 15.8043 20.6967 15.5774 20.9296 15.5774C21.1625 15.5774 21.3532 15.8043 21.3532 16.0813V17.9817H20.506ZM20.9296 14.7524C20.6967 14.7524 20.506 14.5255 20.506 14.2486C20.506 13.9716 20.6967 13.7447 20.9296 13.7447C21.1625 13.7447 21.3532 13.9716 21.3532 14.2486C21.3557 14.5255 21.165 14.7524 20.9296 14.7524ZM18.2144 15.9163C18.2144 16.2197 18.0732 16.4731 17.8378 16.5881C16.069 17.4631 13.7254 18.0524 12.0061 18.0583C10.2843 18.0524 7.94067 17.4631 6.17181 16.5881C5.93646 16.4702 5.79525 16.2197 5.79525 15.9163V11.3198L11.3124 13.4295C11.5428 13.5179 11.7732 13.5621 12.0061 13.5621C12.2389 13.5621 12.4693 13.5179 12.6997 13.4295L18.2169 11.3198V15.9163H18.2144ZM22.909 8.70042L20.6794 9.55194L12.0457 8.26729C11.8648 8.24078 11.6989 8.39399 11.6766 8.60908C11.6543 8.82417 11.7831 9.02158 11.9639 9.0481L19.188 10.1236L12.4941 12.6811C12.1671 12.8048 11.8376 12.8048 11.5106 12.6811L1.09812 8.70042C1.06096 8.68569 1.03867 8.67096 1.02876 8.65917C1.04114 8.64739 1.06344 8.62971 1.09812 8.61792L11.5131 4.63727C11.8401 4.51352 12.1696 4.51352 12.4966 4.63727L22.9115 8.61792C22.9487 8.63265 22.971 8.64739 22.9809 8.65917C22.9685 8.67096 22.9462 8.68569 22.909 8.70042Z" fill="#8A92A6"/>
</svg>
