<svg width="24" height="25" viewBox="0 0 24 25" fill="none" xmlns="http://www.w3.org/2000/svg">
<mask id="path-1-outside-1_189_5126" maskUnits="userSpaceOnUse" x="0.515137" y="2.64789" width="23" height="21" fill="black">
<rect fill="white" x="0.515137" y="2.64789" width="23" height="21"/>
<path d="M20.976 22.9654H3.01937C2.62056 22.965 2.23822 22.8063 1.95622 22.5243C1.67422 22.2423 1.51559 21.86 1.51514 21.4612V5.15212C1.51559 4.75332 1.67422 4.37097 1.95622 4.08897C2.23822 3.80697 2.62056 3.64834 3.01937 3.64789H4.76754C4.82429 3.64789 4.87871 3.67043 4.91884 3.71056C4.95897 3.75069 4.98151 3.80511 4.98151 3.86186V4.91033C4.98151 5.0034 5.01848 5.09266 5.08429 5.15847C5.1501 5.22428 5.23936 5.26125 5.33243 5.26125C5.4255 5.26125 5.51475 5.22428 5.58056 5.15847C5.64637 5.09266 5.68334 5.0034 5.68334 4.91033V3.86186C5.68334 3.80511 5.70589 3.75069 5.74601 3.71056C5.78614 3.67043 5.84057 3.64789 5.89732 3.64789H8.10124C8.15799 3.64789 8.21242 3.67043 8.25255 3.71056C8.29268 3.75069 8.31522 3.80511 8.31522 3.86186V4.91033C8.31473 4.95655 8.32348 5.0024 8.34094 5.0452C8.3584 5.08799 8.38423 5.12687 8.41692 5.15955C8.4496 5.19224 8.48848 5.21807 8.53127 5.23553C8.57407 5.25299 8.61992 5.26174 8.66614 5.26125C8.75919 5.26114 8.8484 5.22414 8.91422 5.15836C8.98004 5.09258 9.0171 5.00339 9.01727 4.91033V3.86186C9.01727 3.80511 9.03981 3.75069 9.07994 3.71056C9.12007 3.67043 9.17449 3.64789 9.23124 3.64789H11.4328C11.4896 3.64789 11.544 3.67043 11.5841 3.71056C11.6242 3.75069 11.6468 3.80511 11.6468 3.86186V4.91033C11.6468 5.0034 11.6838 5.09266 11.7496 5.15847C11.8154 5.22428 11.9046 5.26125 11.9977 5.26125C12.0908 5.26125 12.18 5.22428 12.2458 5.15847C12.3117 5.09266 12.3486 5.0034 12.3486 4.91033V3.86186C12.3486 3.80511 12.3712 3.75069 12.4113 3.71056C12.4514 3.67043 12.5058 3.64789 12.5626 3.64789H14.7665C14.8233 3.64789 14.8777 3.67043 14.9178 3.71056C14.958 3.75069 14.9805 3.80511 14.9805 3.86186V4.91033C14.9805 5.0034 15.0175 5.09266 15.0833 5.15847C15.1491 5.22428 15.2383 5.26125 15.3314 5.26125C15.4245 5.26125 15.5137 5.22428 15.5795 5.15847C15.6454 5.09266 15.6823 5.0034 15.6823 4.91033V3.86186C15.6823 3.80511 15.7049 3.75069 15.745 3.71056C15.7851 3.67043 15.8396 3.64789 15.8963 3.64789H18.0981C18.1548 3.64789 18.2093 3.67043 18.2494 3.71056C18.2895 3.75069 18.3121 3.80511 18.3121 3.86186V4.91033C18.3122 5.00337 18.3492 5.09256 18.415 5.15834C18.4808 5.22413 18.57 5.26114 18.663 5.26125C18.7092 5.26177 18.7551 5.25304 18.7979 5.23559C18.8407 5.21814 18.8796 5.19231 18.9123 5.15962C18.945 5.12693 18.9708 5.08804 18.9882 5.04523C19.0057 5.00242 19.0144 4.95656 19.0139 4.91033V3.86186C19.0139 3.80511 19.0364 3.75069 19.0766 3.71056C19.1167 3.67043 19.1711 3.64789 19.2279 3.64789H20.9803C21.1777 3.64761 21.3733 3.68635 21.5557 3.7619C21.738 3.83745 21.9037 3.9483 22.0431 4.0881C22.1825 4.22789 22.2929 4.39386 22.3679 4.57647C22.4429 4.75907 22.4811 4.95471 22.4803 5.15212V21.4612C22.4798 21.86 22.3212 22.2423 22.0392 22.5243C21.7572 22.8063 21.3748 22.965 20.976 22.9654ZM3.01937 4.07584C2.73403 4.07618 2.46047 4.18968 2.2587 4.39145C2.05693 4.59322 1.94342 4.86678 1.94308 5.15212V21.4612C1.94342 21.7465 2.05693 22.0201 2.2587 22.2219C2.46047 22.4236 2.73403 22.5371 3.01937 22.5375H20.976C21.2614 22.5372 21.535 22.4237 21.7368 22.2219C21.9386 22.0201 22.052 21.7466 22.0523 21.4612V5.15212C22.0534 5.01085 22.0264 4.87078 21.9729 4.74C21.9195 4.60923 21.8406 4.49035 21.7409 4.39026C21.6412 4.29016 21.5227 4.21083 21.3921 4.15686C21.2616 4.10289 21.1216 4.07535 20.9803 4.07584H19.4418V4.91033C19.4418 5.1169 19.3598 5.31501 19.2137 5.46107C19.0677 5.60714 18.8696 5.6892 18.663 5.6892C18.4564 5.6892 18.2583 5.60714 18.1122 5.46107C17.9662 5.31501 17.8841 5.1169 17.8841 4.91033V4.07584H16.1103V4.91033C16.1103 5.1169 16.0282 5.31501 15.8822 5.46107C15.7361 5.60714 15.538 5.6892 15.3314 5.6892C15.1248 5.6892 14.9267 5.60714 14.7807 5.46107C14.6346 5.31501 14.5526 5.1169 14.5526 4.91033V4.07584H12.7766V4.91033C12.7766 5.1169 12.6945 5.31501 12.5484 5.46107C12.4024 5.60714 12.2043 5.6892 11.9977 5.6892C11.7911 5.6892 11.593 5.60714 11.447 5.46107C11.3009 5.31501 11.2188 5.1169 11.2188 4.91033V4.07584H9.44521V4.91033C9.44183 5.11469 9.35827 5.30954 9.21255 5.45286C9.06683 5.59618 8.87063 5.6765 8.66624 5.6765C8.46185 5.6765 8.26565 5.59618 8.11994 5.45286C7.97422 5.30954 7.89066 5.11469 7.88727 4.91033V4.07584H6.11129V4.91033C6.11129 5.1169 6.02923 5.31501 5.88317 5.46107C5.7371 5.60714 5.53899 5.6892 5.33243 5.6892C5.12586 5.6892 4.92775 5.60714 4.78169 5.46107C4.63562 5.31501 4.55356 5.1169 4.55356 4.91033V4.07584H3.01937Z"/>
</mask>
<path d="M20.976 22.9654H3.01937C2.62056 22.965 2.23822 22.8063 1.95622 22.5243C1.67422 22.2423 1.51559 21.86 1.51514 21.4612V5.15212C1.51559 4.75332 1.67422 4.37097 1.95622 4.08897C2.23822 3.80697 2.62056 3.64834 3.01937 3.64789H4.76754C4.82429 3.64789 4.87871 3.67043 4.91884 3.71056C4.95897 3.75069 4.98151 3.80511 4.98151 3.86186V4.91033C4.98151 5.0034 5.01848 5.09266 5.08429 5.15847C5.1501 5.22428 5.23936 5.26125 5.33243 5.26125C5.4255 5.26125 5.51475 5.22428 5.58056 5.15847C5.64637 5.09266 5.68334 5.0034 5.68334 4.91033V3.86186C5.68334 3.80511 5.70589 3.75069 5.74601 3.71056C5.78614 3.67043 5.84057 3.64789 5.89732 3.64789H8.10124C8.15799 3.64789 8.21242 3.67043 8.25255 3.71056C8.29268 3.75069 8.31522 3.80511 8.31522 3.86186V4.91033C8.31473 4.95655 8.32348 5.0024 8.34094 5.0452C8.3584 5.08799 8.38423 5.12687 8.41692 5.15955C8.4496 5.19224 8.48848 5.21807 8.53127 5.23553C8.57407 5.25299 8.61992 5.26174 8.66614 5.26125C8.75919 5.26114 8.8484 5.22414 8.91422 5.15836C8.98004 5.09258 9.0171 5.00339 9.01727 4.91033V3.86186C9.01727 3.80511 9.03981 3.75069 9.07994 3.71056C9.12007 3.67043 9.17449 3.64789 9.23124 3.64789H11.4328C11.4896 3.64789 11.544 3.67043 11.5841 3.71056C11.6242 3.75069 11.6468 3.80511 11.6468 3.86186V4.91033C11.6468 5.0034 11.6838 5.09266 11.7496 5.15847C11.8154 5.22428 11.9046 5.26125 11.9977 5.26125C12.0908 5.26125 12.18 5.22428 12.2458 5.15847C12.3117 5.09266 12.3486 5.0034 12.3486 4.91033V3.86186C12.3486 3.80511 12.3712 3.75069 12.4113 3.71056C12.4514 3.67043 12.5058 3.64789 12.5626 3.64789H14.7665C14.8233 3.64789 14.8777 3.67043 14.9178 3.71056C14.958 3.75069 14.9805 3.80511 14.9805 3.86186V4.91033C14.9805 5.0034 15.0175 5.09266 15.0833 5.15847C15.1491 5.22428 15.2383 5.26125 15.3314 5.26125C15.4245 5.26125 15.5137 5.22428 15.5795 5.15847C15.6454 5.09266 15.6823 5.0034 15.6823 4.91033V3.86186C15.6823 3.80511 15.7049 3.75069 15.745 3.71056C15.7851 3.67043 15.8396 3.64789 15.8963 3.64789H18.0981C18.1548 3.64789 18.2093 3.67043 18.2494 3.71056C18.2895 3.75069 18.3121 3.80511 18.3121 3.86186V4.91033C18.3122 5.00337 18.3492 5.09256 18.415 5.15834C18.4808 5.22413 18.57 5.26114 18.663 5.26125C18.7092 5.26177 18.7551 5.25304 18.7979 5.23559C18.8407 5.21814 18.8796 5.19231 18.9123 5.15962C18.945 5.12693 18.9708 5.08804 18.9882 5.04523C19.0057 5.00242 19.0144 4.95656 19.0139 4.91033V3.86186C19.0139 3.80511 19.0364 3.75069 19.0766 3.71056C19.1167 3.67043 19.1711 3.64789 19.2279 3.64789H20.9803C21.1777 3.64761 21.3733 3.68635 21.5557 3.7619C21.738 3.83745 21.9037 3.9483 22.0431 4.0881C22.1825 4.22789 22.2929 4.39386 22.3679 4.57647C22.4429 4.75907 22.4811 4.95471 22.4803 5.15212V21.4612C22.4798 21.86 22.3212 22.2423 22.0392 22.5243C21.7572 22.8063 21.3748 22.965 20.976 22.9654ZM3.01937 4.07584C2.73403 4.07618 2.46047 4.18968 2.2587 4.39145C2.05693 4.59322 1.94342 4.86678 1.94308 5.15212V21.4612C1.94342 21.7465 2.05693 22.0201 2.2587 22.2219C2.46047 22.4236 2.73403 22.5371 3.01937 22.5375H20.976C21.2614 22.5372 21.535 22.4237 21.7368 22.2219C21.9386 22.0201 22.052 21.7466 22.0523 21.4612V5.15212C22.0534 5.01085 22.0264 4.87078 21.9729 4.74C21.9195 4.60923 21.8406 4.49035 21.7409 4.39026C21.6412 4.29016 21.5227 4.21083 21.3921 4.15686C21.2616 4.10289 21.1216 4.07535 20.9803 4.07584H19.4418V4.91033C19.4418 5.1169 19.3598 5.31501 19.2137 5.46107C19.0677 5.60714 18.8696 5.6892 18.663 5.6892C18.4564 5.6892 18.2583 5.60714 18.1122 5.46107C17.9662 5.31501 17.8841 5.1169 17.8841 4.91033V4.07584H16.1103V4.91033C16.1103 5.1169 16.0282 5.31501 15.8822 5.46107C15.7361 5.60714 15.538 5.6892 15.3314 5.6892C15.1248 5.6892 14.9267 5.60714 14.7807 5.46107C14.6346 5.31501 14.5526 5.1169 14.5526 4.91033V4.07584H12.7766V4.91033C12.7766 5.1169 12.6945 5.31501 12.5484 5.46107C12.4024 5.60714 12.2043 5.6892 11.9977 5.6892C11.7911 5.6892 11.593 5.60714 11.447 5.46107C11.3009 5.31501 11.2188 5.1169 11.2188 4.91033V4.07584H9.44521V4.91033C9.44183 5.11469 9.35827 5.30954 9.21255 5.45286C9.06683 5.59618 8.87063 5.6765 8.66624 5.6765C8.46185 5.6765 8.26565 5.59618 8.11994 5.45286C7.97422 5.30954 7.89066 5.11469 7.88727 4.91033V4.07584H6.11129V4.91033C6.11129 5.1169 6.02923 5.31501 5.88317 5.46107C5.7371 5.60714 5.53899 5.6892 5.33243 5.6892C5.12586 5.6892 4.92775 5.60714 4.78169 5.46107C4.63562 5.31501 4.55356 5.1169 4.55356 4.91033V4.07584H3.01937Z" fill="#8A92A6"/>
<path d="M20.976 22.9654H3.01937C2.62056 22.965 2.23822 22.8063 1.95622 22.5243C1.67422 22.2423 1.51559 21.86 1.51514 21.4612V5.15212C1.51559 4.75332 1.67422 4.37097 1.95622 4.08897C2.23822 3.80697 2.62056 3.64834 3.01937 3.64789H4.76754C4.82429 3.64789 4.87871 3.67043 4.91884 3.71056C4.95897 3.75069 4.98151 3.80511 4.98151 3.86186V4.91033C4.98151 5.0034 5.01848 5.09266 5.08429 5.15847C5.1501 5.22428 5.23936 5.26125 5.33243 5.26125C5.4255 5.26125 5.51475 5.22428 5.58056 5.15847C5.64637 5.09266 5.68334 5.0034 5.68334 4.91033V3.86186C5.68334 3.80511 5.70589 3.75069 5.74601 3.71056C5.78614 3.67043 5.84057 3.64789 5.89732 3.64789H8.10124C8.15799 3.64789 8.21242 3.67043 8.25255 3.71056C8.29268 3.75069 8.31522 3.80511 8.31522 3.86186V4.91033C8.31473 4.95655 8.32348 5.0024 8.34094 5.0452C8.3584 5.08799 8.38423 5.12687 8.41692 5.15955C8.4496 5.19224 8.48848 5.21807 8.53127 5.23553C8.57407 5.25299 8.61992 5.26174 8.66614 5.26125C8.75919 5.26114 8.8484 5.22414 8.91422 5.15836C8.98004 5.09258 9.0171 5.00339 9.01727 4.91033V3.86186C9.01727 3.80511 9.03981 3.75069 9.07994 3.71056C9.12007 3.67043 9.17449 3.64789 9.23124 3.64789H11.4328C11.4896 3.64789 11.544 3.67043 11.5841 3.71056C11.6242 3.75069 11.6468 3.80511 11.6468 3.86186V4.91033C11.6468 5.0034 11.6838 5.09266 11.7496 5.15847C11.8154 5.22428 11.9046 5.26125 11.9977 5.26125C12.0908 5.26125 12.18 5.22428 12.2458 5.15847C12.3117 5.09266 12.3486 5.0034 12.3486 4.91033V3.86186C12.3486 3.80511 12.3712 3.75069 12.4113 3.71056C12.4514 3.67043 12.5058 3.64789 12.5626 3.64789H14.7665C14.8233 3.64789 14.8777 3.67043 14.9178 3.71056C14.958 3.75069 14.9805 3.80511 14.9805 3.86186V4.91033C14.9805 5.0034 15.0175 5.09266 15.0833 5.15847C15.1491 5.22428 15.2383 5.26125 15.3314 5.26125C15.4245 5.26125 15.5137 5.22428 15.5795 5.15847C15.6454 5.09266 15.6823 5.0034 15.6823 4.91033V3.86186C15.6823 3.80511 15.7049 3.75069 15.745 3.71056C15.7851 3.67043 15.8396 3.64789 15.8963 3.64789H18.0981C18.1548 3.64789 18.2093 3.67043 18.2494 3.71056C18.2895 3.75069 18.3121 3.80511 18.3121 3.86186V4.91033C18.3122 5.00337 18.3492 5.09256 18.415 5.15834C18.4808 5.22413 18.57 5.26114 18.663 5.26125C18.7092 5.26177 18.7551 5.25304 18.7979 5.23559C18.8407 5.21814 18.8796 5.19231 18.9123 5.15962C18.945 5.12693 18.9708 5.08804 18.9882 5.04523C19.0057 5.00242 19.0144 4.95656 19.0139 4.91033V3.86186C19.0139 3.80511 19.0364 3.75069 19.0766 3.71056C19.1167 3.67043 19.1711 3.64789 19.2279 3.64789H20.9803C21.1777 3.64761 21.3733 3.68635 21.5557 3.7619C21.738 3.83745 21.9037 3.9483 22.0431 4.0881C22.1825 4.22789 22.2929 4.39386 22.3679 4.57647C22.4429 4.75907 22.4811 4.95471 22.4803 5.15212V21.4612C22.4798 21.86 22.3212 22.2423 22.0392 22.5243C21.7572 22.8063 21.3748 22.965 20.976 22.9654ZM3.01937 4.07584C2.73403 4.07618 2.46047 4.18968 2.2587 4.39145C2.05693 4.59322 1.94342 4.86678 1.94308 5.15212V21.4612C1.94342 21.7465 2.05693 22.0201 2.2587 22.2219C2.46047 22.4236 2.73403 22.5371 3.01937 22.5375H20.976C21.2614 22.5372 21.535 22.4237 21.7368 22.2219C21.9386 22.0201 22.052 21.7466 22.0523 21.4612V5.15212C22.0534 5.01085 22.0264 4.87078 21.9729 4.74C21.9195 4.60923 21.8406 4.49035 21.7409 4.39026C21.6412 4.29016 21.5227 4.21083 21.3921 4.15686C21.2616 4.10289 21.1216 4.07535 20.9803 4.07584H19.4418V4.91033C19.4418 5.1169 19.3598 5.31501 19.2137 5.46107C19.0677 5.60714 18.8696 5.6892 18.663 5.6892C18.4564 5.6892 18.2583 5.60714 18.1122 5.46107C17.9662 5.31501 17.8841 5.1169 17.8841 4.91033V4.07584H16.1103V4.91033C16.1103 5.1169 16.0282 5.31501 15.8822 5.46107C15.7361 5.60714 15.538 5.6892 15.3314 5.6892C15.1248 5.6892 14.9267 5.60714 14.7807 5.46107C14.6346 5.31501 14.5526 5.1169 14.5526 4.91033V4.07584H12.7766V4.91033C12.7766 5.1169 12.6945 5.31501 12.5484 5.46107C12.4024 5.60714 12.2043 5.6892 11.9977 5.6892C11.7911 5.6892 11.593 5.60714 11.447 5.46107C11.3009 5.31501 11.2188 5.1169 11.2188 4.91033V4.07584H9.44521V4.91033C9.44183 5.11469 9.35827 5.30954 9.21255 5.45286C9.06683 5.59618 8.87063 5.6765 8.66624 5.6765C8.46185 5.6765 8.26565 5.59618 8.11994 5.45286C7.97422 5.30954 7.89066 5.11469 7.88727 4.91033V4.07584H6.11129V4.91033C6.11129 5.1169 6.02923 5.31501 5.88317 5.46107C5.7371 5.60714 5.53899 5.6892 5.33243 5.6892C5.12586 5.6892 4.92775 5.60714 4.78169 5.46107C4.63562 5.31501 4.55356 5.1169 4.55356 4.91033V4.07584H3.01937Z" stroke="#8A92A6" stroke-width="0.4" mask="url(#path-1-outside-1_189_5126)"/>
<mask id="path-2-outside-2_189_5126" maskUnits="userSpaceOnUse" x="0.515137" y="2.64789" width="23" height="6" fill="black">
<rect fill="white" x="0.515137" y="2.64789" width="23" height="6"/>
<path d="M22.2706 8.10924H1.72911C1.67236 8.10924 1.61794 8.0867 1.57781 8.04657C1.53768 8.00644 1.51514 7.95202 1.51514 7.89527V5.15213C1.51559 4.75332 1.67422 4.37097 1.95622 4.08897C2.23822 3.80697 2.62056 3.64834 3.01937 3.64789H4.76754C4.82429 3.64789 4.87871 3.67043 4.91884 3.71056C4.95897 3.75069 4.98151 3.80511 4.98151 3.86186V4.91034C4.98151 5.0034 5.01848 5.09266 5.08429 5.15847C5.1501 5.22428 5.23936 5.26125 5.33243 5.26125C5.4255 5.26125 5.51475 5.22428 5.58056 5.15847C5.64637 5.09266 5.68334 5.0034 5.68334 4.91034V3.86186C5.68334 3.80511 5.70589 3.75069 5.74601 3.71056C5.78614 3.67043 5.84057 3.64789 5.89732 3.64789H8.10124C8.15799 3.64789 8.21242 3.67043 8.25255 3.71056C8.29268 3.75069 8.31522 3.80511 8.31522 3.86186V4.91034C8.3147 4.95656 8.32343 5.00242 8.34088 5.04523C8.35833 5.08804 8.38416 5.12693 8.41685 5.15962C8.44954 5.19231 8.48843 5.21814 8.53124 5.23559C8.57405 5.25304 8.61991 5.26177 8.66613 5.26125C8.75919 5.26114 8.8484 5.22414 8.91422 5.15836C8.98004 5.09258 9.0171 5.00339 9.01727 4.91034V3.86186C9.01727 3.80511 9.03981 3.75069 9.07994 3.71056C9.12007 3.67043 9.17449 3.64789 9.23124 3.64789H11.4328C11.4896 3.64789 11.544 3.67043 11.5841 3.71056C11.6242 3.75069 11.6468 3.80511 11.6468 3.86186V4.91034C11.6468 5.0034 11.6838 5.09266 11.7496 5.15847C11.8154 5.22428 11.9046 5.26125 11.9977 5.26125C12.0908 5.26125 12.18 5.22428 12.2458 5.15847C12.3116 5.09266 12.3486 5.0034 12.3486 4.91034V3.86186C12.3486 3.80511 12.3712 3.75069 12.4113 3.71056C12.4514 3.67043 12.5058 3.64789 12.5626 3.64789H14.7665C14.8233 3.64789 14.8777 3.67043 14.9178 3.71056C14.958 3.75069 14.9805 3.80511 14.9805 3.86186V4.91034C14.9805 5.0034 15.0175 5.09266 15.0833 5.15847C15.1491 5.22428 15.2383 5.26125 15.3314 5.26125C15.4245 5.26125 15.5137 5.22428 15.5795 5.15847C15.6454 5.09266 15.6823 5.0034 15.6823 4.91034V3.86186C15.6823 3.80511 15.7049 3.75069 15.745 3.71056C15.7851 3.67043 15.8396 3.64789 15.8963 3.64789H18.0981C18.1548 3.64789 18.2093 3.67043 18.2494 3.71056C18.2895 3.75069 18.3121 3.80511 18.3121 3.86186V4.91034C18.3122 5.00337 18.3492 5.09256 18.415 5.15835C18.4808 5.22413 18.5699 5.26114 18.663 5.26125C18.7092 5.26177 18.7551 5.25304 18.7979 5.23559C18.8407 5.21814 18.8796 5.19231 18.9123 5.15962C18.945 5.12693 18.9708 5.08804 18.9882 5.04523C19.0057 5.00242 19.0144 4.95656 19.0139 4.91034V3.86186C19.0139 3.80511 19.0364 3.75069 19.0766 3.71056C19.1167 3.67043 19.1711 3.64789 19.2279 3.64789H20.9803C21.2762 3.64736 21.5656 3.73445 21.812 3.8982C22.0584 4.06195 22.2508 4.29501 22.3649 4.56798C22.4444 4.75244 22.4851 4.95127 22.4846 5.15213V7.89527C22.4846 7.95202 22.462 8.00644 22.4219 8.04657C22.3818 8.0867 22.3273 8.10924 22.2706 8.10924ZM1.94308 7.68129H22.0566V5.15213C22.0567 5.00943 22.0276 4.86823 21.971 4.73723C21.8898 4.54139 21.7523 4.37403 21.576 4.2563C21.3996 4.13858 21.1923 4.07578 20.9803 4.07584H19.4418V4.91034C19.4418 5.1169 19.3598 5.31501 19.2137 5.46108C19.0677 5.60714 18.8696 5.6892 18.663 5.6892C18.4564 5.6892 18.2583 5.60714 18.1122 5.46108C17.9662 5.31501 17.8841 5.1169 17.8841 4.91034V4.07584H16.1103V4.91034C16.1103 5.1169 16.0282 5.31501 15.8822 5.46108C15.7361 5.60714 15.538 5.6892 15.3314 5.6892C15.1248 5.6892 14.9267 5.60714 14.7807 5.46108C14.6346 5.31501 14.5526 5.1169 14.5526 4.91034V4.07584H12.7766V4.91034C12.7766 5.1169 12.6945 5.31501 12.5484 5.46108C12.4024 5.60714 12.2043 5.6892 11.9977 5.6892C11.7911 5.6892 11.593 5.60714 11.447 5.46108C11.3009 5.31501 11.2188 5.1169 11.2188 4.91034V4.07584H9.44521V4.91034C9.44183 5.1147 9.35827 5.30954 9.21255 5.45286C9.06683 5.59618 8.87063 5.6765 8.66624 5.6765C8.46185 5.6765 8.26565 5.59618 8.11994 5.45286C7.97422 5.30954 7.89066 5.1147 7.88727 4.91034V4.07584H6.11129V4.91034C6.11129 5.1169 6.02923 5.31501 5.88317 5.46108C5.7371 5.60714 5.53899 5.6892 5.33243 5.6892C5.12586 5.6892 4.92775 5.60714 4.78169 5.46108C4.63562 5.31501 4.55356 5.1169 4.55356 4.91034V4.07584H3.01937C2.73403 4.07618 2.46047 4.18968 2.2587 4.39145C2.05693 4.59322 1.94342 4.86678 1.94308 5.15213V7.68129Z"/>
</mask>
<path d="M22.2706 8.10924H1.72911C1.67236 8.10924 1.61794 8.0867 1.57781 8.04657C1.53768 8.00644 1.51514 7.95202 1.51514 7.89527V5.15213C1.51559 4.75332 1.67422 4.37097 1.95622 4.08897C2.23822 3.80697 2.62056 3.64834 3.01937 3.64789H4.76754C4.82429 3.64789 4.87871 3.67043 4.91884 3.71056C4.95897 3.75069 4.98151 3.80511 4.98151 3.86186V4.91034C4.98151 5.0034 5.01848 5.09266 5.08429 5.15847C5.1501 5.22428 5.23936 5.26125 5.33243 5.26125C5.4255 5.26125 5.51475 5.22428 5.58056 5.15847C5.64637 5.09266 5.68334 5.0034 5.68334 4.91034V3.86186C5.68334 3.80511 5.70589 3.75069 5.74601 3.71056C5.78614 3.67043 5.84057 3.64789 5.89732 3.64789H8.10124C8.15799 3.64789 8.21242 3.67043 8.25255 3.71056C8.29268 3.75069 8.31522 3.80511 8.31522 3.86186V4.91034C8.3147 4.95656 8.32343 5.00242 8.34088 5.04523C8.35833 5.08804 8.38416 5.12693 8.41685 5.15962C8.44954 5.19231 8.48843 5.21814 8.53124 5.23559C8.57405 5.25304 8.61991 5.26177 8.66613 5.26125C8.75919 5.26114 8.8484 5.22414 8.91422 5.15836C8.98004 5.09258 9.0171 5.00339 9.01727 4.91034V3.86186C9.01727 3.80511 9.03981 3.75069 9.07994 3.71056C9.12007 3.67043 9.17449 3.64789 9.23124 3.64789H11.4328C11.4896 3.64789 11.544 3.67043 11.5841 3.71056C11.6242 3.75069 11.6468 3.80511 11.6468 3.86186V4.91034C11.6468 5.0034 11.6838 5.09266 11.7496 5.15847C11.8154 5.22428 11.9046 5.26125 11.9977 5.26125C12.0908 5.26125 12.18 5.22428 12.2458 5.15847C12.3116 5.09266 12.3486 5.0034 12.3486 4.91034V3.86186C12.3486 3.80511 12.3712 3.75069 12.4113 3.71056C12.4514 3.67043 12.5058 3.64789 12.5626 3.64789H14.7665C14.8233 3.64789 14.8777 3.67043 14.9178 3.71056C14.958 3.75069 14.9805 3.80511 14.9805 3.86186V4.91034C14.9805 5.0034 15.0175 5.09266 15.0833 5.15847C15.1491 5.22428 15.2383 5.26125 15.3314 5.26125C15.4245 5.26125 15.5137 5.22428 15.5795 5.15847C15.6454 5.09266 15.6823 5.0034 15.6823 4.91034V3.86186C15.6823 3.80511 15.7049 3.75069 15.745 3.71056C15.7851 3.67043 15.8396 3.64789 15.8963 3.64789H18.0981C18.1548 3.64789 18.2093 3.67043 18.2494 3.71056C18.2895 3.75069 18.3121 3.80511 18.3121 3.86186V4.91034C18.3122 5.00337 18.3492 5.09256 18.415 5.15835C18.4808 5.22413 18.5699 5.26114 18.663 5.26125C18.7092 5.26177 18.7551 5.25304 18.7979 5.23559C18.8407 5.21814 18.8796 5.19231 18.9123 5.15962C18.945 5.12693 18.9708 5.08804 18.9882 5.04523C19.0057 5.00242 19.0144 4.95656 19.0139 4.91034V3.86186C19.0139 3.80511 19.0364 3.75069 19.0766 3.71056C19.1167 3.67043 19.1711 3.64789 19.2279 3.64789H20.9803C21.2762 3.64736 21.5656 3.73445 21.812 3.8982C22.0584 4.06195 22.2508 4.29501 22.3649 4.56798C22.4444 4.75244 22.4851 4.95127 22.4846 5.15213V7.89527C22.4846 7.95202 22.462 8.00644 22.4219 8.04657C22.3818 8.0867 22.3273 8.10924 22.2706 8.10924ZM1.94308 7.68129H22.0566V5.15213C22.0567 5.00943 22.0276 4.86823 21.971 4.73723C21.8898 4.54139 21.7523 4.37403 21.576 4.2563C21.3996 4.13858 21.1923 4.07578 20.9803 4.07584H19.4418V4.91034C19.4418 5.1169 19.3598 5.31501 19.2137 5.46108C19.0677 5.60714 18.8696 5.6892 18.663 5.6892C18.4564 5.6892 18.2583 5.60714 18.1122 5.46108C17.9662 5.31501 17.8841 5.1169 17.8841 4.91034V4.07584H16.1103V4.91034C16.1103 5.1169 16.0282 5.31501 15.8822 5.46108C15.7361 5.60714 15.538 5.6892 15.3314 5.6892C15.1248 5.6892 14.9267 5.60714 14.7807 5.46108C14.6346 5.31501 14.5526 5.1169 14.5526 4.91034V4.07584H12.7766V4.91034C12.7766 5.1169 12.6945 5.31501 12.5484 5.46108C12.4024 5.60714 12.2043 5.6892 11.9977 5.6892C11.7911 5.6892 11.593 5.60714 11.447 5.46108C11.3009 5.31501 11.2188 5.1169 11.2188 4.91034V4.07584H9.44521V4.91034C9.44183 5.1147 9.35827 5.30954 9.21255 5.45286C9.06683 5.59618 8.87063 5.6765 8.66624 5.6765C8.46185 5.6765 8.26565 5.59618 8.11994 5.45286C7.97422 5.30954 7.89066 5.1147 7.88727 4.91034V4.07584H6.11129V4.91034C6.11129 5.1169 6.02923 5.31501 5.88317 5.46108C5.7371 5.60714 5.53899 5.6892 5.33243 5.6892C5.12586 5.6892 4.92775 5.60714 4.78169 5.46108C4.63562 5.31501 4.55356 5.1169 4.55356 4.91034V4.07584H3.01937C2.73403 4.07618 2.46047 4.18968 2.2587 4.39145C2.05693 4.59322 1.94342 4.86678 1.94308 5.15213V7.68129Z" fill="#8A92A6"/>
<path d="M22.2706 8.10924H1.72911C1.67236 8.10924 1.61794 8.0867 1.57781 8.04657C1.53768 8.00644 1.51514 7.95202 1.51514 7.89527V5.15213C1.51559 4.75332 1.67422 4.37097 1.95622 4.08897C2.23822 3.80697 2.62056 3.64834 3.01937 3.64789H4.76754C4.82429 3.64789 4.87871 3.67043 4.91884 3.71056C4.95897 3.75069 4.98151 3.80511 4.98151 3.86186V4.91034C4.98151 5.0034 5.01848 5.09266 5.08429 5.15847C5.1501 5.22428 5.23936 5.26125 5.33243 5.26125C5.4255 5.26125 5.51475 5.22428 5.58056 5.15847C5.64637 5.09266 5.68334 5.0034 5.68334 4.91034V3.86186C5.68334 3.80511 5.70589 3.75069 5.74601 3.71056C5.78614 3.67043 5.84057 3.64789 5.89732 3.64789H8.10124C8.15799 3.64789 8.21242 3.67043 8.25255 3.71056C8.29268 3.75069 8.31522 3.80511 8.31522 3.86186V4.91034C8.3147 4.95656 8.32343 5.00242 8.34088 5.04523C8.35833 5.08804 8.38416 5.12693 8.41685 5.15962C8.44954 5.19231 8.48843 5.21814 8.53124 5.23559C8.57405 5.25304 8.61991 5.26177 8.66613 5.26125C8.75919 5.26114 8.8484 5.22414 8.91422 5.15836C8.98004 5.09258 9.0171 5.00339 9.01727 4.91034V3.86186C9.01727 3.80511 9.03981 3.75069 9.07994 3.71056C9.12007 3.67043 9.17449 3.64789 9.23124 3.64789H11.4328C11.4896 3.64789 11.544 3.67043 11.5841 3.71056C11.6242 3.75069 11.6468 3.80511 11.6468 3.86186V4.91034C11.6468 5.0034 11.6838 5.09266 11.7496 5.15847C11.8154 5.22428 11.9046 5.26125 11.9977 5.26125C12.0908 5.26125 12.18 5.22428 12.2458 5.15847C12.3116 5.09266 12.3486 5.0034 12.3486 4.91034V3.86186C12.3486 3.80511 12.3712 3.75069 12.4113 3.71056C12.4514 3.67043 12.5058 3.64789 12.5626 3.64789H14.7665C14.8233 3.64789 14.8777 3.67043 14.9178 3.71056C14.958 3.75069 14.9805 3.80511 14.9805 3.86186V4.91034C14.9805 5.0034 15.0175 5.09266 15.0833 5.15847C15.1491 5.22428 15.2383 5.26125 15.3314 5.26125C15.4245 5.26125 15.5137 5.22428 15.5795 5.15847C15.6454 5.09266 15.6823 5.0034 15.6823 4.91034V3.86186C15.6823 3.80511 15.7049 3.75069 15.745 3.71056C15.7851 3.67043 15.8396 3.64789 15.8963 3.64789H18.0981C18.1548 3.64789 18.2093 3.67043 18.2494 3.71056C18.2895 3.75069 18.3121 3.80511 18.3121 3.86186V4.91034C18.3122 5.00337 18.3492 5.09256 18.415 5.15835C18.4808 5.22413 18.5699 5.26114 18.663 5.26125C18.7092 5.26177 18.7551 5.25304 18.7979 5.23559C18.8407 5.21814 18.8796 5.19231 18.9123 5.15962C18.945 5.12693 18.9708 5.08804 18.9882 5.04523C19.0057 5.00242 19.0144 4.95656 19.0139 4.91034V3.86186C19.0139 3.80511 19.0364 3.75069 19.0766 3.71056C19.1167 3.67043 19.1711 3.64789 19.2279 3.64789H20.9803C21.2762 3.64736 21.5656 3.73445 21.812 3.8982C22.0584 4.06195 22.2508 4.29501 22.3649 4.56798C22.4444 4.75244 22.4851 4.95127 22.4846 5.15213V7.89527C22.4846 7.95202 22.462 8.00644 22.4219 8.04657C22.3818 8.0867 22.3273 8.10924 22.2706 8.10924ZM1.94308 7.68129H22.0566V5.15213C22.0567 5.00943 22.0276 4.86823 21.971 4.73723C21.8898 4.54139 21.7523 4.37403 21.576 4.2563C21.3996 4.13858 21.1923 4.07578 20.9803 4.07584H19.4418V4.91034C19.4418 5.1169 19.3598 5.31501 19.2137 5.46108C19.0677 5.60714 18.8696 5.6892 18.663 5.6892C18.4564 5.6892 18.2583 5.60714 18.1122 5.46108C17.9662 5.31501 17.8841 5.1169 17.8841 4.91034V4.07584H16.1103V4.91034C16.1103 5.1169 16.0282 5.31501 15.8822 5.46108C15.7361 5.60714 15.538 5.6892 15.3314 5.6892C15.1248 5.6892 14.9267 5.60714 14.7807 5.46108C14.6346 5.31501 14.5526 5.1169 14.5526 4.91034V4.07584H12.7766V4.91034C12.7766 5.1169 12.6945 5.31501 12.5484 5.46108C12.4024 5.60714 12.2043 5.6892 11.9977 5.6892C11.7911 5.6892 11.593 5.60714 11.447 5.46108C11.3009 5.31501 11.2188 5.1169 11.2188 4.91034V4.07584H9.44521V4.91034C9.44183 5.1147 9.35827 5.30954 9.21255 5.45286C9.06683 5.59618 8.87063 5.6765 8.66624 5.6765C8.46185 5.6765 8.26565 5.59618 8.11994 5.45286C7.97422 5.30954 7.89066 5.1147 7.88727 4.91034V4.07584H6.11129V4.91034C6.11129 5.1169 6.02923 5.31501 5.88317 5.46108C5.7371 5.60714 5.53899 5.6892 5.33243 5.6892C5.12586 5.6892 4.92775 5.60714 4.78169 5.46108C4.63562 5.31501 4.55356 5.1169 4.55356 4.91034V4.07584H3.01937C2.73403 4.07618 2.46047 4.18968 2.2587 4.39145C2.05693 4.59322 1.94342 4.86678 1.94308 5.15213V7.68129Z" stroke="#8A92A6" stroke-width="0.4" mask="url(#path-2-outside-2_189_5126)"/>
<path d="M4.45371 4.91038L4.45371 4.91049C4.45397 5.14347 4.54663 5.36684 4.71137 5.53158C4.87612 5.69633 5.09948 5.78899 5.33247 5.78925L5.33268 5.78925C5.56567 5.78899 5.78903 5.69633 5.95378 5.53158C6.11852 5.36684 6.21118 5.14347 6.21144 4.91049V4.91038V2.81344C6.21144 2.58035 6.11884 2.35681 5.95403 2.19199C5.78921 2.02717 5.56566 1.93458 5.33257 1.93458C5.09949 1.93458 4.87594 2.02717 4.71112 2.19199C4.5463 2.35681 4.45371 2.58035 4.45371 2.81344L4.45371 4.91038ZM5.08166 4.91038V2.81348L5.3327 2.56252L5.33257 2.46252L5.33245 2.56252C5.39901 2.5626 5.46281 2.58908 5.50987 2.63614C5.55692 2.68318 5.58339 2.74695 5.58349 2.81348C5.58349 2.8135 5.58349 2.81353 5.58349 2.81356L5.58349 4.91038C5.58349 4.97693 5.55706 5.04075 5.51 5.08781C5.46294 5.13486 5.39912 5.1613 5.33257 5.1613C5.26603 5.1613 5.20221 5.13486 5.15515 5.08781C5.10809 5.04075 5.08166 4.97693 5.08166 4.91038Z" fill="#8A92A6" stroke="#8A92A6" stroke-width="0.2"/>
<path d="M7.78721 4.91041L7.78721 4.91052C7.78746 5.1435 7.88013 5.36687 8.04487 5.53161C8.20961 5.69635 8.43298 5.78902 8.66596 5.78927L8.66615 5.78927C8.89918 5.78908 9.12261 5.69645 9.2874 5.5317C9.4522 5.36695 9.54489 5.14354 9.54515 4.91052V4.91041V2.81347H9.54516L9.54514 2.81181C9.54131 2.58122 9.44703 2.36137 9.28261 2.19965C9.11819 2.03793 8.8968 1.9473 8.66618 1.9473C8.43556 1.9473 8.21417 2.03793 8.04975 2.19965C7.88533 2.36137 7.79104 2.58122 7.78722 2.81181L7.78721 2.81181V2.81347L7.78721 4.91041ZM8.66502 2.56255L8.66595 2.56255C8.73253 2.56263 8.79637 2.58911 8.84347 2.63618C8.89054 2.68322 8.91705 2.74699 8.9172 2.81354V4.91034C8.91705 4.97689 8.89054 5.04066 8.84347 5.0877C8.79637 5.13477 8.73253 5.16125 8.66595 5.16132L8.66502 5.16133C8.63211 5.16168 8.59946 5.15545 8.56899 5.14302C8.53852 5.13058 8.51083 5.11219 8.48756 5.08892C8.46429 5.06565 8.4459 5.03797 8.43346 5.00749C8.42103 4.97702 8.4148 4.94437 8.41515 4.91146H8.41515V4.91041V2.81347H8.41516L8.41515 2.81242C8.4148 2.77951 8.42103 2.74686 8.43346 2.71639C8.4459 2.68592 8.46429 2.65823 8.48756 2.63496C8.51083 2.61169 8.53852 2.5933 8.56899 2.58086C8.59946 2.56843 8.63211 2.5622 8.66502 2.56255Z" fill="#8A92A6" stroke="#8A92A6" stroke-width="0.2"/>
<path d="M11.1187 4.91038L11.1188 4.91049C11.119 5.14347 11.2117 5.36684 11.3764 5.53158C11.5412 5.69633 11.7645 5.78899 11.9975 5.78925L11.9977 5.78925C12.2307 5.78899 12.4541 5.69633 12.6188 5.53158C12.7836 5.36684 12.8762 5.14347 12.8765 4.91049V4.91038V2.81344C12.8765 2.58035 12.7839 2.35681 12.6191 2.19199C12.4542 2.02717 12.2307 1.93458 11.9976 1.93458C11.7645 1.93458 11.541 2.02717 11.3762 2.19199C11.2113 2.35681 11.1187 2.58035 11.1187 2.81344L11.1187 4.91038Z" fill="#8A92A6" stroke="#8A92A6" stroke-width="0.2"/>
<path d="M14.4527 4.91038L14.4527 4.91049C14.453 5.14347 14.5457 5.36684 14.7104 5.53158C14.8751 5.69633 15.0985 5.78899 15.3315 5.78925L15.3317 5.78925C15.5647 5.78899 15.7881 5.69633 15.9528 5.53158C16.1175 5.36684 16.2102 5.14347 16.2105 4.91049V4.91038V2.81344C16.2105 2.58035 16.1179 2.35681 15.953 2.19199C15.7882 2.02717 15.5647 1.93458 15.3316 1.93458C15.0985 1.93458 14.875 2.02717 14.7101 2.19199C14.5453 2.35681 14.4527 2.58035 14.4527 2.81344L14.4527 4.91038ZM15.0807 4.91038V2.81348L15.3317 2.56252L15.3316 2.46252L15.3315 2.56252C15.398 2.5626 15.4618 2.58908 15.5089 2.63614C15.5559 2.68318 15.5824 2.74695 15.5825 2.81348C15.5825 2.8135 15.5825 2.81353 15.5825 2.81356L15.5825 4.91038C15.5825 4.97693 15.5561 5.04075 15.509 5.08781C15.462 5.13486 15.3981 5.1613 15.3316 5.1613C15.2651 5.1613 15.2012 5.13486 15.1542 5.08781C15.1071 5.04075 15.0807 4.97693 15.0807 4.91038Z" fill="#8A92A6" stroke="#8A92A6" stroke-width="0.2"/>
<path d="M17.7843 4.91038L17.7843 4.91049C17.7845 5.14347 17.8772 5.36684 18.0419 5.53158C18.2067 5.69633 18.43 5.78899 18.663 5.78925L18.6633 5.78925C18.8962 5.78899 19.1196 5.69633 19.2843 5.53158C19.4491 5.36684 19.5417 5.14347 19.542 4.91049V4.91038V2.81344C19.542 2.58035 19.4494 2.35681 19.2846 2.19199C19.1198 2.02717 18.8962 1.93458 18.6631 1.93458C18.4301 1.93458 18.2065 2.02717 18.0417 2.19199C17.8769 2.35681 17.7843 2.58035 17.7843 2.81344L17.7843 4.91038ZM18.6633 2.56253L18.6643 2.56252C18.6972 2.56215 18.7298 2.56836 18.7603 2.58078C18.7908 2.59321 18.8184 2.6116 18.8417 2.63487C18.865 2.65814 18.8834 2.68582 18.8958 2.71629C18.9082 2.74677 18.9144 2.77942 18.9141 2.81232L18.9141 2.81232V2.81344V4.91038H18.9141L18.9141 4.9115C18.9144 4.9444 18.9082 4.97705 18.8958 5.00753C18.8834 5.038 18.865 5.06569 18.8417 5.08896C18.8184 5.11223 18.7908 5.13061 18.7603 5.14304C18.7298 5.15546 18.6972 5.16167 18.6643 5.1613L18.6633 5.1613C18.5967 5.16122 18.5329 5.13474 18.4858 5.08768C18.4388 5.04064 18.4123 4.97687 18.4122 4.91035V2.81348C18.4123 2.74695 18.4388 2.68318 18.4858 2.63614C18.5329 2.58908 18.5967 2.5626 18.6633 2.56253ZM19.0141 4.91038V2.81344L18.6631 5.2613C18.7094 5.26181 18.7552 5.25309 18.798 5.23564C18.8408 5.21818 18.8797 5.19236 18.9124 5.15967C18.9451 5.12698 18.9709 5.08809 18.9884 5.04528C19.0058 5.00247 19.0146 4.95661 19.0141 4.91038Z" fill="#8A92A6" stroke="#8A92A6" stroke-width="0.2"/>
<path d="M3.54308 9.77361H8.09087C8.17414 9.77361 8.254 9.74053 8.31288 9.68165C8.37177 9.62277 8.40484 9.54291 8.40484 9.45964C8.40484 9.37637 8.37177 9.29651 8.31288 9.23763C8.254 9.17875 8.17414 9.14567 8.09087 9.14567H3.54308C3.4598 9.14567 3.37994 9.17875 3.32106 9.23763C3.26218 9.29651 3.2291 9.37637 3.2291 9.45964C3.2291 9.54291 3.26218 9.62277 3.32106 9.68165C3.37994 9.74053 3.4598 9.77361 3.54308 9.77361Z" fill="#8A92A6" stroke="#8A92A6" stroke-width="0.2"/>
<path d="M3.32204 11.1172L3.39275 11.0465L3.32204 11.1172C3.38092 11.1761 3.46078 11.2092 3.54405 11.2092H6.45409C6.53736 11.2092 6.61722 11.1761 6.67611 11.1172C6.73499 11.0583 6.76807 10.9785 6.76807 10.8952C6.76807 10.8119 6.73499 10.7321 6.67611 10.6732C6.61722 10.6143 6.53736 10.5812 6.45409 10.5812H3.54405C3.46078 10.5812 3.38092 10.6143 3.32204 10.6732C3.26316 10.7321 3.23008 10.8119 3.23008 10.8952C3.23008 10.9785 3.26316 11.0583 3.32204 11.1172Z" fill="#8A92A6" stroke="#8A92A6" stroke-width="0.2"/>
<path d="M11.7208 10.7524L11.721 10.7525C11.7496 10.7042 11.7902 10.6642 11.8389 10.6365C11.8876 10.6087 11.9427 10.5941 11.9988 10.5941C12.0549 10.5941 12.11 10.6087 12.1587 10.6365C12.2074 10.6642 12.2481 10.7042 12.2766 10.7525L12.2805 10.759L12.2802 10.7591L13.6118 13.4558L16.5888 13.8894L16.5888 13.8895L16.5744 13.9884L11.7208 10.7524ZM11.7208 10.7524L11.7174 10.7592L10.3867 13.4558L7.41055 13.8894L11.7208 10.7524ZM9.19271 19.8537C9.2435 19.854 9.29359 19.8419 9.33869 19.8185L9.33924 19.8183L11.9997 18.4194L14.6623 19.8183L14.6624 19.8183C14.7142 19.8455 14.7727 19.8577 14.8311 19.8534C14.8895 19.8491 14.9455 19.8286 14.9929 19.7941C15.0403 19.7597 15.077 19.7127 15.0991 19.6584C15.1211 19.6041 15.1275 19.5448 15.1176 19.4871C15.1176 19.4871 15.1176 19.4871 15.1176 19.4871L14.6089 16.5242L16.7627 14.4251L7.23661 14.4251L9.39047 16.5236L8.88345 19.4867C8.88344 19.4867 8.88344 19.4867 8.88344 19.4867C8.87572 19.5318 8.87793 19.578 8.88993 19.6221C8.90192 19.6662 8.92342 19.7072 8.9529 19.7422C8.98239 19.7771 9.01915 19.8052 9.06063 19.8245C9.10201 19.8437 9.14709 19.8537 9.19271 19.8537ZM9.19271 19.8537C9.1926 19.8537 9.19249 19.8537 9.19238 19.8537L9.19299 19.7537L9.19302 19.8537C9.19292 19.8537 9.19282 19.8537 9.19271 19.8537ZM11.9997 11.6075L13.1226 13.8822C13.1226 13.8822 13.1226 13.8822 13.1226 13.8822C13.1451 13.9278 13.1783 13.9673 13.2195 13.9972C13.2606 14.0271 13.3084 14.0466 13.3587 14.054L13.3588 14.054L15.8689 14.4192L14.0525 16.1898L14.0524 16.1899C14.016 16.2254 13.9888 16.2693 13.9731 16.3177C13.9574 16.3661 13.9537 16.4176 13.9623 16.4677C13.9623 16.4678 13.9623 16.4678 13.9623 16.4678L14.3917 18.9665L12.1459 17.7868C12.1459 17.7868 12.1459 17.7868 12.1459 17.7868L12.1457 17.7867L12.0992 17.8752C12.0685 17.859 12.0344 17.8506 11.9997 17.8506L11.9997 11.6075ZM11.9997 11.6075L10.8768 13.8816M11.9997 11.6075L10.8768 13.8816M11.8534 17.7867C11.8985 17.763 11.9487 17.7506 11.9997 17.7506L10.8768 13.8816L10.8768 13.8816M11.8534 17.7867L11.8534 17.7867L11.9 17.8752L11.8534 17.7867ZM11.8534 17.7867L9.60964 18.9665L10.037 16.4675C10.0456 16.4174 10.0419 16.3659 10.0262 16.3176C10.0105 16.2692 9.98329 16.2254 9.94693 16.1899L9.94686 16.1898L8.13038 14.4191L10.6406 14.0533L10.6407 14.0533C10.691 14.046 10.7388 14.0265 10.7799 13.9966C10.821 13.9667 10.8543 13.9272 10.8768 13.8816" fill="#8A92A6" stroke="#8A92A6" stroke-width="0.2"/>
</svg>
