<svg width="24" height="25" viewBox="0 0 24 25" fill="none" xmlns="http://www.w3.org/2000/svg">
<path d="M1.20015 9.2144C1.30335 8.972 1.49295 8.816 1.70415 8.672C2.80335 7.9184 3.89775 7.1528 4.99695 6.3992C5.12415 6.3128 5.16255 6.2192 5.16255 6.0728C5.15535 5.3624 5.15775 4.6544 5.16015 3.944C5.16255 3.2384 5.59215 2.7992 6.29535 2.7848C6.62655 2.7776 6.95535 2.7752 7.28655 2.7848C7.94415 2.804 8.37375 3.2312 8.40495 3.884C8.40735 3.9176 8.40975 3.9536 8.41455 4.0232C8.49375 3.9704 8.55615 3.932 8.61615 3.8888C9.56895 3.2288 10.5218 2.5712 11.4746 1.9112C11.873 1.6352 12.1178 1.6304 12.5138 1.9064C15.821 4.196 19.1282 6.4856 22.433 8.7752C22.8386 9.056 22.9082 9.4592 22.6274 9.8696C22.505 10.0496 22.3802 10.2272 22.2554 10.4048C21.9578 10.8272 21.5618 10.904 21.125 10.628C21.0962 10.6088 21.065 10.592 20.9954 10.5512C20.9954 10.6664 20.9954 10.7528 20.9954 10.8392C20.9954 14.3456 20.9882 17.852 21.0002 21.356C21.0026 22.4 20.3858 22.9808 19.8146 23.1896C19.7114 23.228 19.6058 23.2616 19.5026 23.2976C14.4986 23.2976 9.49455 23.2976 4.48815 23.2976C4.30815 23.2256 4.11615 23.1752 3.94815 23.0816C3.27615 22.7072 2.99295 22.1168 2.99295 21.3584C2.99775 17.8472 2.99535 14.3384 2.99535 10.8272C2.99535 10.7456 2.99535 10.664 2.99535 10.556C2.93295 10.5896 2.90175 10.604 2.87295 10.6208C2.41695 10.904 2.03295 10.8296 1.73055 10.3928C1.54815 10.1288 1.37535 9.8576 1.19775 9.5912C1.20015 9.4664 1.20015 9.3416 1.20015 9.2144ZM12.0122 4.3184C11.969 4.3448 11.945 4.3592 11.9234 4.3736C9.23775 6.2288 6.55215 8.0864 3.86175 9.9392C3.74175 10.0208 3.72735 10.112 3.72735 10.2368C3.72975 13.9616 3.72975 17.6864 3.72975 21.4112C3.72975 22.1336 4.17375 22.58 4.89855 22.58C9.63615 22.58 14.3738 22.5824 19.109 22.58C19.8218 22.58 20.2682 22.1312 20.2682 21.4208C20.2682 17.6888 20.2682 13.9568 20.2706 10.2248C20.2706 10.0832 20.2274 9.9992 20.1098 9.9176C18.917 9.0992 17.729 8.2736 16.5386 7.4504C15.0314 6.4088 13.5266 5.3672 12.0122 4.3184ZM22.0634 9.4088C22.0058 9.3632 21.9674 9.332 21.9266 9.3032C18.677 7.052 15.425 4.8032 12.1778 2.5472C12.0434 2.4536 11.957 2.4656 11.8298 2.5544C9.11295 4.4384 6.39135 6.32 3.67215 8.1992C3.09615 8.5976 2.52015 8.9984 1.92975 9.4064C2.09055 9.6344 2.23935 9.8504 2.39295 10.0712C2.47935 10.0136 2.54415 9.9728 2.60655 9.9296C5.54655 7.8944 8.48415 5.8592 11.4242 3.8264C11.8802 3.5096 12.1154 3.5072 12.5714 3.8216C15.1298 5.5928 17.6858 7.364 20.2442 9.1328C20.6882 9.44 21.1322 9.7472 21.5858 10.0592C21.7466 9.8384 21.9002 9.6296 22.0634 9.4088ZM5.88255 5.7392C5.91375 5.7368 5.93055 5.7416 5.94015 5.7368C6.48975 5.36 7.03695 4.9832 7.58415 4.6016C7.62735 4.5704 7.66575 4.5008 7.66815 4.448C7.67775 4.2512 7.67775 4.0544 7.66815 3.86C7.65615 3.6464 7.53135 3.524 7.31775 3.5192C6.96015 3.512 6.60255 3.5144 6.24495 3.5192C6.04335 3.5216 5.89215 3.644 5.88975 3.8336C5.87775 4.4672 5.88255 5.1032 5.88255 5.7392Z" fill="#8A92A6"/>
<path d="M11.9834 10.6952C13.673 10.724 15.1706 11.2352 16.4834 12.2744C16.7378 12.476 16.7426 12.7736 16.4954 12.9176C16.313 13.0232 16.1618 12.9488 16.0154 12.8312C15.4346 12.368 14.7962 12.0056 14.0858 11.78C11.933 11.096 9.93617 11.4104 8.10257 12.7376C8.05217 12.7736 8.00417 12.8168 7.95377 12.8528C7.74017 13.0136 7.53617 13.0016 7.39697 12.824C7.26017 12.6488 7.30097 12.4448 7.50977 12.2792C8.82497 11.2304 10.3298 10.7216 11.9834 10.6952Z" fill="#8A92A6"/>
<path d="M11.9979 12.8576C13.2051 12.8744 14.2923 13.2416 15.2451 13.9952C15.4707 14.1728 15.5091 14.3744 15.3603 14.5544C15.2187 14.7296 15.0219 14.7344 14.8035 14.5688C13.0563 13.2536 10.9251 13.2512 9.19473 14.564C8.96913 14.7344 8.76273 14.7272 8.62353 14.5424C8.48913 14.3648 8.52753 14.168 8.74353 13.9976C9.69633 13.2464 10.7835 12.8768 11.9979 12.8576Z" fill="#8A92A6"/>
<path d="M13.4353 18.632C13.4353 19.4264 12.7993 20.06 12.0049 20.06C11.1961 20.06 10.5625 19.4288 10.5601 18.6224C10.5601 17.816 11.1937 17.1824 12.0025 17.1848C12.8065 17.1872 13.4353 17.8208 13.4353 18.632ZM11.9953 17.9024C11.6161 17.9024 11.2849 18.2312 11.2801 18.6128C11.2753 19.004 11.6065 19.3376 12.0001 19.3352C12.3865 19.3352 12.7105 19.0112 12.7153 18.6272C12.7177 18.2384 12.3841 17.9024 11.9953 17.9024Z" fill="#8A92A6"/>
<path d="M11.9904 15.0248C12.7464 15.0248 13.4232 15.26 14.0184 15.7232C14.2128 15.8744 14.2584 16.088 14.136 16.256C14.0088 16.4336 13.7904 16.4504 13.5792 16.3016C12.54 15.56 11.4528 15.5576 10.4208 16.2944C10.2024 16.4504 9.99839 16.4384 9.86159 16.2656C9.72479 16.0904 9.77519 15.8744 9.99359 15.7064C10.584 15.2576 11.2488 15.0272 11.9904 15.0248Z" fill="#8A92A6"/>
</svg>
