<svg width="24" height="25" viewBox="0 0 24 25" fill="none" xmlns="http://www.w3.org/2000/svg">
<path d="M2.36394 11.7896C2.14794 11.7896 1.95594 11.7824 1.76394 11.792C1.56234 11.8016 1.38474 11.7632 1.31034 11.552C1.24074 11.3552 1.34394 11.216 1.48794 11.0864C2.49834 10.184 3.50634 9.27919 4.51674 8.37439C6.89994 6.23839 9.28554 4.09999 11.6687 1.96399C11.9543 1.70719 12.0743 1.70479 12.3575 1.95679C13.3775 2.87119 14.3975 3.78559 15.4175 4.69999C15.4823 4.75999 15.5495 4.81519 15.6215 4.87759C16.0271 4.59679 16.4447 4.54159 16.8647 4.79599C17.1983 4.99759 17.4191 5.31199 17.3687 5.70319C17.2967 6.26959 17.5295 6.62239 17.9447 6.98239C19.4735 8.30959 20.9687 9.67519 22.4783 11.0288C22.5335 11.0792 22.6151 11.12 22.6367 11.1824C22.6799 11.3072 22.7423 11.4656 22.6991 11.5664C22.6559 11.6672 22.4975 11.7608 22.3775 11.78C22.1543 11.8136 21.9215 11.7896 21.6695 11.7896C21.6695 11.8976 21.6695 11.984 21.6695 12.0704C21.6695 15.6224 21.6695 19.1744 21.6695 22.7264C21.6695 23.1296 21.5711 23.2304 21.1751 23.2304C15.0695 23.2304 8.96394 23.2304 2.85834 23.2304C2.46234 23.2304 2.36634 23.1296 2.36634 22.724C2.36634 19.1792 2.36634 15.6344 2.36634 12.0896C2.36394 12.0008 2.36394 11.912 2.36394 11.7896ZM3.09354 11.7992C3.09354 15.38 3.09354 18.9416 3.09354 22.4984C3.57354 22.4984 4.03914 22.4984 4.50954 22.4984C4.50954 22.3904 4.50954 22.3016 4.50954 22.2128C4.50954 20.0912 4.50954 17.9672 4.50954 15.8456C4.50954 15.4736 4.61514 15.368 4.98474 15.368C6.33354 15.368 7.67994 15.368 9.02874 15.368C9.41274 15.368 9.51354 15.4712 9.51354 15.86C9.51354 17.9912 9.51354 20.12 9.51354 22.2512C9.51354 22.3376 9.51354 22.424 9.51354 22.52C10.3631 22.52 11.1815 22.5176 11.9999 22.5224C12.1319 22.5224 12.1583 22.4456 12.1943 22.3544C12.4751 21.6512 12.7343 20.9384 13.0439 20.2472C13.3439 19.5752 13.5167 18.896 13.4519 18.1568C13.4207 17.7896 13.5599 17.4536 13.7759 17.1584C14.1311 16.676 14.6183 16.448 15.2207 16.4312C15.2207 14.8856 15.2207 13.3496 15.2207 11.8016C11.1767 11.7992 7.14234 11.7992 3.09354 11.7992ZM2.60394 11.06C6.84714 11.06 11.0327 11.06 15.2327 11.06C15.2327 10.9568 15.2327 10.8704 15.2327 10.7816C15.2327 9.09199 15.2303 7.40239 15.2375 5.71279C15.2375 5.56639 15.1991 5.46799 15.0887 5.36959C14.2199 4.59919 13.3583 3.82159 12.4919 3.04639C12.3335 2.90479 12.1727 2.76559 12.0119 2.62399C8.87514 5.43679 5.75754 8.23279 2.60394 11.06ZM20.9375 22.5056C20.9375 18.9272 20.9375 15.3656 20.9375 11.8064C19.7423 11.8064 18.5639 11.8064 17.3879 11.8064C17.3879 13.3568 17.3879 14.888 17.3879 16.4264C17.4263 16.4312 17.4551 16.436 17.4839 16.4384C18.3359 16.484 19.0007 17.0456 19.1351 17.8904C19.1927 18.2552 19.1495 18.6344 19.1663 19.004C19.1735 19.1408 19.1975 19.2848 19.2479 19.412C19.6055 20.3264 19.9703 21.236 20.3327 22.1456C20.4911 22.5392 20.4911 22.5392 20.9375 22.5056ZM5.23194 22.5008C6.42954 22.5008 7.60794 22.5008 8.78154 22.5008C8.78154 20.3528 8.78154 18.2192 8.78154 16.0904C7.59114 16.0904 6.41514 16.0904 5.23194 16.0904C5.23194 18.2312 5.23194 20.3576 5.23194 22.5008ZM19.6799 22.5176C19.6751 22.4816 19.6775 22.46 19.6703 22.4408C19.3151 21.5504 18.9647 20.66 18.5999 19.772C18.5759 19.7144 18.4703 19.6616 18.4007 19.6592C17.0015 19.652 15.6023 19.6568 14.2007 19.652C14.0855 19.652 14.0303 19.688 13.9871 19.7936C13.6439 20.6648 13.2959 21.5336 12.9479 22.4024C12.9359 22.4336 12.9311 22.4696 12.9215 22.5176C13.2335 22.5176 13.5311 22.5176 13.8287 22.5176C14.2247 22.5176 14.2199 22.5176 14.2943 22.1312C14.3663 21.7616 14.4431 21.3944 14.5223 21.0128C14.7719 21.0632 14.9951 21.1088 15.2255 21.1568C15.1343 21.6224 15.0479 22.0616 14.9615 22.5032C15.3023 22.5032 15.6167 22.5032 15.9575 22.5032C15.9575 22.0232 15.9575 21.56 15.9575 21.1016C16.2023 21.1016 16.4231 21.1016 16.6679 21.1016C16.6679 21.5792 16.6679 22.0448 16.6679 22.5008C17.0063 22.5008 17.3207 22.5008 17.6447 22.5008C17.5559 22.0424 17.4695 21.6032 17.3807 21.1544C17.6303 21.1064 17.8535 21.0656 18.0863 21.0224C18.1799 21.4832 18.2615 21.9224 18.3599 22.3568C18.3743 22.4192 18.4583 22.5104 18.5135 22.5128C18.9023 22.5224 19.2887 22.5176 19.6799 22.5176ZM15.9479 16.4192C16.1855 16.4192 16.4159 16.4192 16.6655 16.4192C16.6655 16.3304 16.6655 16.2512 16.6655 16.1696C16.6655 12.7424 16.6655 9.31759 16.6655 5.89039C16.6655 5.53519 16.5407 5.35039 16.3031 5.35519C16.0679 5.35759 15.9479 5.53999 15.9479 5.89999C15.9479 9.16159 15.9479 12.4256 15.9479 15.6872C15.9479 15.9248 15.9479 16.1624 15.9479 16.4192ZM21.4343 11.0648C20.0663 9.83839 18.7415 8.65039 17.3951 7.44559C17.3951 8.68159 17.3951 9.87439 17.3951 11.0648C18.7343 11.0648 20.0543 11.0648 21.4343 11.0648ZM14.1767 18.9272C15.6047 18.9272 17.0207 18.9272 18.4487 18.9272C18.4487 18.6512 18.4607 18.392 18.4463 18.1328C18.4127 17.5832 17.9951 17.168 17.4455 17.1584C16.6871 17.144 15.9263 17.1464 15.1679 17.1584C14.6567 17.168 14.2559 17.5112 14.1839 18.0224C14.1431 18.3128 14.1767 18.6128 14.1767 18.9272Z" fill="#8A92A6"/>
<path d="M12.0216 12.5144C12.2568 12.5144 12.4776 12.5144 12.7152 12.5144C12.8328 13.58 13.4256 14.1824 14.5056 14.3048C14.5056 14.5328 14.5056 14.7608 14.5056 14.9864C13.3368 15.2096 12.8688 15.6776 12.72 16.7816C12.4944 16.7816 12.2664 16.7816 12.0216 16.7816C11.988 16.3088 11.8344 15.884 11.496 15.5432C11.1552 15.2 10.7352 15.0368 10.2432 15.0032C10.2432 14.7728 10.2432 14.5472 10.2432 14.2976C10.716 14.264 11.148 14.108 11.4912 13.76C11.832 13.4192 11.988 12.9944 12.0216 12.5144ZM13.0104 14.6576C12.8184 14.4632 12.5496 14.1944 12.372 14.0192C12.1848 14.2064 11.9136 14.4752 11.7408 14.6504C11.928 14.8424 12.192 15.116 12.3672 15.2936C12.5616 15.1016 12.828 14.8376 13.0104 14.6576Z" fill="#8A92A6"/>
<path d="M12.0165 10.0016C11.4429 10.0016 10.8693 10.0016 10.2957 10.0016C9.99814 10.0016 9.87094 9.87919 9.87094 9.58639C9.86854 8.87119 9.86614 8.15599 9.87094 7.44079C9.88054 6.38959 10.7253 5.47039 11.7789 5.35999C12.8685 5.24479 13.8981 5.98399 14.1117 7.03999C14.1381 7.16959 14.1573 7.30399 14.1573 7.43839C14.1621 8.15359 14.1621 8.86879 14.1597 9.58399C14.1597 9.87679 14.0325 10.0016 13.7373 10.0016C13.1637 10.0016 12.5901 10.0016 12.0165 10.0016ZM11.6469 8.22559C11.2917 8.22559 10.9461 8.22559 10.5981 8.22559C10.5981 8.58319 10.5981 8.92879 10.5981 9.26959C10.9581 9.26959 11.3037 9.26959 11.6469 9.26959C11.6469 8.91439 11.6469 8.57359 11.6469 8.22559ZM12.3885 8.21359C12.3885 8.58799 12.3885 8.93359 12.3885 9.27679C12.7437 9.27679 13.0845 9.27679 13.4325 9.27679C13.4325 8.92159 13.4325 8.57599 13.4325 8.22079C13.3773 8.21839 13.3341 8.21359 13.2909 8.21359C12.9957 8.21359 12.6981 8.21359 12.3885 8.21359ZM11.6517 6.14719C11.0421 6.27199 10.5645 6.89359 10.6077 7.48639C10.9533 7.48639 11.2989 7.48639 11.6517 7.48639C11.6517 7.03519 11.6517 6.59839 11.6517 6.14719ZM13.4277 7.48879C13.4565 6.86239 12.9213 6.18799 12.3909 6.16399C12.3909 6.60559 12.3909 7.04719 12.3909 7.48879C12.7461 7.48879 13.0869 7.48879 13.4277 7.48879Z" fill="#8A92A6"/>
<path d="M6.63375 19.6472C6.40575 19.6472 6.18495 19.6472 5.95215 19.6472C5.95215 19.4144 5.95215 19.1912 5.95215 18.9536C6.17775 18.9536 6.39615 18.9536 6.63375 18.9536C6.63375 19.1744 6.63375 19.3976 6.63375 19.6472Z" fill="#8A92A6"/>
</svg>
