<svg width="24" height="25" viewBox="0 0 24 25" fill="none" xmlns="http://www.w3.org/2000/svg">
<path d="M0.996094 14.7848C1.10409 14.6384 1.22649 14.5184 1.42569 14.5928C1.62009 14.6648 1.64169 14.8328 1.64169 15.0152C1.63929 16.8776 1.64169 18.74 1.64169 20.6024C1.64169 20.9744 1.70409 21.0368 2.08089 21.0368C6.09129 21.0368 10.0993 21.0368 14.1097 21.0368C14.4865 21.0368 14.5393 20.9816 14.5393 20.6C14.5393 17.9864 14.5393 15.3728 14.5393 12.7592C14.5393 12.4016 14.4721 12.3368 14.1145 12.3368C10.0969 12.3368 6.08169 12.3368 2.06409 12.3368C1.71609 12.3368 1.64169 12.4136 1.64169 12.7688C1.64169 12.9488 1.63689 13.1264 1.64409 13.3064C1.64889 13.4672 1.59369 13.5968 1.44489 13.6544C1.29129 13.7144 1.14969 13.676 1.04889 13.532C1.03929 13.5176 1.01529 13.5104 0.998494 13.4984C0.998494 13.1264 0.998494 12.7544 0.998494 12.38C1.11369 12.14 1.23129 11.8928 1.49289 11.7944C1.66809 11.7296 1.86489 11.7176 2.05449 11.6888C2.13609 11.6768 2.22249 11.6864 2.33049 11.6864C2.33049 11.5904 2.33049 11.5136 2.33049 11.4368C2.33049 10.6784 2.31609 9.9176 2.33289 9.1592C2.38809 6.656 3.54249 4.82 5.82249 3.8096C7.77609 2.9432 9.69849 3.1856 11.4553 4.4216C12.6721 5.276 13.4257 6.4616 13.7281 7.9136C13.8169 8.3432 13.8385 8.792 13.8505 9.2336C13.8697 9.9632 13.8553 10.6952 13.8553 11.4248C13.8553 11.5016 13.8553 11.5784 13.8553 11.6888C14.0233 11.6888 14.1721 11.684 14.3209 11.6888C14.7937 11.708 15.1513 12.0608 15.1825 12.5336C15.1873 12.5912 15.1897 12.6488 15.1897 12.7064C15.1897 15.356 15.1897 18.0056 15.1921 20.6576C15.1921 20.948 15.1369 21.212 14.9233 21.4232C14.7049 21.6392 14.4313 21.6992 14.1361 21.6992C12.2737 21.6968 10.4113 21.6992 8.55129 21.6992C6.41769 21.6992 4.28409 21.692 2.14809 21.704C1.59129 21.7064 1.19049 21.5216 0.998494 20.9768C0.996094 18.9128 0.996094 16.8488 0.996094 14.7848ZM11.4649 11.6744C11.4697 11.5928 11.4745 11.5232 11.4745 11.4536C11.4745 10.7024 11.4793 9.9488 11.4721 9.1976C11.4697 8.984 11.4553 8.768 11.4217 8.5568C11.1241 6.6992 9.36969 5.4872 7.57929 5.7512C6.06249 5.9744 4.77369 7.3424 4.73049 8.8712C4.70649 9.7592 4.71849 10.6472 4.71609 11.5352C4.71609 11.5808 4.73049 11.6288 4.74009 11.6744C6.98889 11.6744 9.22089 11.6744 11.4649 11.6744ZM4.05609 11.6744C4.05609 11.5664 4.05369 11.468 4.05609 11.3696C4.08009 10.376 4.01529 9.3704 4.14729 8.3912C4.44729 6.1664 6.75369 4.6472 8.94249 5.1536C10.8289 5.5904 12.1081 7.1768 12.1225 9.1136C12.1297 9.8864 12.1225 10.6616 12.1225 11.4344C12.1225 11.5112 12.1225 11.588 12.1225 11.6744C12.4921 11.6744 12.8377 11.6744 13.1929 11.6744C13.1977 11.612 13.2025 11.564 13.2025 11.516C13.2025 10.6856 13.2145 9.8528 13.1953 9.0224C13.1881 8.6672 13.1497 8.3048 13.0681 7.9592C12.5473 5.7824 10.7905 4.2152 8.60649 4.0016C7.42569 3.8864 6.31209 4.1384 5.31609 4.8032C3.94329 5.72 3.13689 7.004 3.01449 8.6552C2.94249 9.6248 2.98329 10.6016 2.97369 11.576C2.97369 11.6096 2.98809 11.6408 2.99289 11.6744C3.35049 11.6744 3.69129 11.6744 4.05609 11.6744Z" fill="#8A92A6"/>
<path d="M19.7787 14.6576C20.4747 14.6576 21.1467 14.6528 21.8163 14.66C22.3227 14.6648 22.7427 14.9528 22.9179 15.4064C23.2227 16.1912 22.6659 16.9976 21.7947 17.0144C21.2067 17.0264 20.6211 17.0168 20.0331 17.0168C19.9563 17.0168 19.8795 17.0168 19.7907 17.0168C19.7907 17.24 19.7907 17.444 19.7907 17.6696C19.9875 17.6696 20.1795 17.6696 20.3715 17.6696C20.8443 17.6696 21.3171 17.6648 21.7899 17.672C22.4883 17.684 23.0043 18.1928 23.0019 18.8552C22.9995 19.5176 22.4787 20.0216 21.7803 20.0264C21.1347 20.0312 20.4915 20.0288 19.8459 20.0312C19.8315 20.0312 19.8195 20.0384 19.7763 20.0504C19.7763 20.1536 19.7787 20.2664 19.7763 20.3768C19.7523 21.0728 19.1787 21.6704 18.4995 21.704C17.7363 21.7424 17.1027 21.2408 17.0283 20.504C16.9875 20.0936 16.9947 19.676 16.9995 19.2608C17.0019 19.0376 17.1387 18.9104 17.3259 18.9104C17.5155 18.9104 17.6427 19.0304 17.6523 19.2608C17.6643 19.5896 17.6547 19.9208 17.6571 20.2496C17.6643 20.732 17.9571 21.0584 18.3843 21.0632C18.8115 21.068 19.1283 20.7224 19.1331 20.2424C19.1355 20.0984 19.1331 19.9568 19.1331 19.8128C19.1355 19.4888 19.2339 19.3856 19.5531 19.3856C20.2683 19.3832 20.9859 19.3904 21.7011 19.3808C21.8427 19.3784 22.0011 19.3376 22.1235 19.268C22.3035 19.1648 22.3851 18.98 22.3419 18.7712C22.2963 18.5528 22.1619 18.3992 21.9363 18.3488C21.8475 18.3296 21.7515 18.3272 21.6603 18.3248C20.9667 18.3224 20.2707 18.3248 19.5771 18.3224C19.2291 18.3224 19.1355 18.224 19.1355 17.8712C19.1355 17.5208 19.1355 17.168 19.1355 16.8176C19.1355 16.46 19.2315 16.364 19.5963 16.364C20.2899 16.3616 20.9859 16.3664 21.6795 16.3616C21.8043 16.3616 21.9411 16.3472 22.0539 16.2968C22.2699 16.2032 22.3875 15.9584 22.3467 15.752C22.2987 15.5168 22.1019 15.3344 21.8547 15.3104C21.7347 15.2984 21.6123 15.3056 21.4899 15.3056C20.8371 15.3056 20.1867 15.308 19.5339 15.3056C19.2435 15.3056 19.1355 15.1952 19.1355 14.9C19.1355 13.2656 19.1379 11.6336 19.1307 9.9992C19.1307 9.7616 19.2243 9.6272 19.4379 9.5432C20.0883 9.2888 20.5923 8.8568 20.9235 8.2424C21.9267 6.3872 20.7315 4.2752 18.8163 3.9872C17.3187 3.7616 15.8091 4.7936 15.5475 6.3512C15.3315 7.6352 15.9291 8.888 17.1315 9.4376C17.5347 9.6224 17.6739 9.836 17.6691 10.2728C17.6475 12.68 17.6595 15.0872 17.6571 17.4944C17.6571 17.5928 17.6715 17.7128 17.6235 17.7872C17.5611 17.8832 17.4555 17.9768 17.3475 18.008C17.2035 18.0488 17.0787 17.9624 17.0331 17.8136C17.0019 17.7128 16.9971 17.6024 16.9971 17.4968C16.9947 15.1256 16.9923 12.7544 16.9995 10.3832C16.9995 10.1888 16.9491 10.0832 16.7667 9.9896C15.3915 9.2912 14.6163 7.7408 14.8923 6.2648C15.1899 4.676 16.4595 3.4832 18.0267 3.32C19.8987 3.1256 21.6027 4.4432 21.8883 6.3032C22.1211 7.8272 21.3747 9.3008 19.9995 9.9992C19.8291 10.0856 19.7715 10.1792 19.7739 10.3712C19.7835 11.7104 19.7787 13.0496 19.7787 14.3912C19.7787 14.468 19.7787 14.5448 19.7787 14.6576Z" fill="#8A92A6"/>
<path d="M18.3842 8.8136C17.3018 8.8088 16.4234 7.928 16.4258 6.8456C16.4282 5.7656 17.3114 4.8656 18.389 4.88C19.517 4.8944 20.3594 5.7584 20.3594 6.86C20.3594 7.9544 19.4642 8.8184 18.3842 8.8136ZM19.7042 6.8408C19.6994 6.104 19.1114 5.5304 18.3722 5.5376C17.6546 5.5448 17.0642 6.1472 17.0714 6.86C17.0786 7.5848 17.6882 8.18 18.413 8.168C19.1306 8.1584 19.709 7.5656 19.7042 6.8408Z" fill="#8A92A6"/>
<path d="M7.06097 17.984C7.06097 17.912 7.05617 17.84 7.06097 17.768C7.08977 17.4128 7.02257 17.1272 6.74657 16.8368C6.27377 16.3424 6.21137 15.704 6.47297 15.0728C6.72977 14.4536 7.20977 14.0888 7.88657 14.0024C8.70497 13.8968 9.41057 14.372 9.70817 15.044C10.013 15.7328 9.82097 16.5752 9.24977 17.0576C9.15137 17.1416 9.11537 17.2208 9.11777 17.348C9.12497 17.7704 9.12257 18.1928 9.12017 18.6152C9.11537 19.1984 8.68337 19.64 8.11217 19.652C7.54817 19.664 7.08977 19.2272 7.06577 18.6488C7.05377 18.4304 7.06097 18.2072 7.06097 17.984ZM7.70897 17.7584C7.71617 17.7584 7.72577 17.7584 7.73297 17.7584C7.73297 18.0728 7.70897 18.3896 7.74497 18.6992C7.75697 18.8072 7.90337 18.9488 8.01377 18.98C8.11697 19.0088 8.28257 18.9416 8.36897 18.8624C8.44337 18.7928 8.46737 18.644 8.47217 18.5288C8.48417 18.0848 8.49137 17.6408 8.47217 17.1992C8.46017 16.9328 8.54897 16.7624 8.76257 16.6064C9.12977 16.3376 9.26177 15.9536 9.16817 15.5096C9.07697 15.0704 8.79857 14.7824 8.36897 14.6768C7.94417 14.5736 7.56017 14.6792 7.26497 15.02C6.84017 15.5096 6.91697 16.2368 7.44737 16.6232C7.64177 16.7648 7.73537 16.9208 7.71617 17.1608C7.69697 17.3576 7.70897 17.5592 7.70897 17.7584Z" fill="#8A92A6"/>
</svg>
