<svg width="24" height="25" viewBox="0 0 24 25" fill="none" xmlns="http://www.w3.org/2000/svg">
<path d="M6.84023 18.2792C7.29623 19.2296 7.14023 20.06 6.41783 20.5856C5.75063 21.0704 4.83623 21.0104 4.24103 20.4416C3.64823 19.8752 3.54983 18.9536 4.00583 18.2744C4.51463 17.5184 5.34743 17.3456 6.39383 17.7992C6.93143 17.2568 7.47623 16.7048 8.02343 16.1552C8.05463 16.124 8.08103 16.0904 8.11943 16.0448C7.92023 15.8648 7.72103 15.6992 7.53863 15.5168C6.44183 14.4224 5.81783 13.1072 5.67143 11.5616C5.42903 9.0272 6.74903 6.572 9.00263 5.384C9.25223 5.252 9.42503 5.2856 9.53783 5.4872C9.63863 5.6672 9.56663 5.84 9.32663 5.9744C7.78823 6.8384 6.82583 8.132 6.45623 9.8528C5.79383 12.944 7.93703 16.0472 11.069 16.544C13.9922 17.0072 16.7042 15.2504 17.4722 12.392C18.1154 9.992 17.0378 7.3736 14.885 6.1112C14.8274 6.0776 14.7674 6.0464 14.7098 6.0104C14.4554 5.8592 14.3834 5.6792 14.4962 5.4824C14.6114 5.2784 14.801 5.2424 15.0554 5.3768C15.8234 5.7848 16.4786 6.3296 17.0138 7.016C19.133 9.7424 18.701 13.628 16.037 15.824C15.9866 15.8672 15.9362 15.9104 15.8402 15.992C16.061 16.196 16.2746 16.388 16.481 16.5896C16.817 16.9184 17.1506 17.2496 17.477 17.588C17.5826 17.6984 17.6594 17.7128 17.801 17.6432C18.8066 17.1536 19.9634 17.6768 20.2322 18.7352C20.4218 19.4768 20.0666 20.2928 19.3874 20.6888C18.7154 21.08 17.909 20.9912 17.3618 20.468C16.793 19.9208 16.6658 19.1096 17.0402 18.3968C17.057 18.3656 17.0714 18.332 17.0834 18.308C16.4594 17.684 15.8426 17.0696 15.2234 16.4528C14.9042 16.6016 14.5874 16.796 14.2418 16.8992C13.697 17.0624 13.1354 17.1824 12.5762 17.288C12.3794 17.3264 12.3026 17.3696 12.305 17.5856C12.3194 18.3992 12.317 19.2128 12.305 20.0264C12.3026 20.2016 12.3506 20.2808 12.5234 20.3432C13.3394 20.6288 13.7954 21.4304 13.637 22.2776C13.4906 23.0648 12.7514 23.66 11.9354 23.6504C11.1434 23.6408 10.4186 23.0312 10.2914 22.2656C10.1474 21.4112 10.5866 20.6312 11.3954 20.3504C11.5874 20.2832 11.621 20.1896 11.6186 20.0144C11.6114 19.208 11.6162 18.404 11.6162 17.5976C11.6162 17.516 11.6162 17.4368 11.6162 17.3552C11.2586 17.2928 10.9226 17.2376 10.589 17.1704C9.98663 17.0504 9.41783 16.8272 8.88503 16.5248C8.75303 16.4504 8.67623 16.448 8.56343 16.5632C7.98983 17.1416 7.41143 17.7104 6.84023 18.2792ZM13.0274 21.8768C13.0298 21.3176 12.5978 20.8784 12.0458 20.8736C11.477 20.8688 11.0354 21.3032 11.0354 21.8696C11.0354 22.4312 11.4818 22.8824 12.0386 22.8752C12.5906 22.8704 13.0274 22.4288 13.0274 21.8768ZM18.5738 20.1656C19.133 20.1704 19.5626 19.7456 19.5698 19.1792C19.5794 18.632 19.133 18.164 18.5978 18.1592C18.0194 18.1544 17.5898 18.5816 17.5946 19.16C17.5994 19.736 18.0146 20.1608 18.5738 20.1656ZM4.49783 19.1528C4.50023 19.7216 4.91783 20.1368 5.48663 20.1344C6.04823 20.1344 6.48503 19.7024 6.48023 19.1504C6.47543 18.5864 6.02663 18.14 5.46983 18.1472C4.91063 18.1592 4.49543 18.5864 4.49783 19.1528Z" fill="#8A92A6"/>
<path d="M12.0675 10.5152C12.5811 9.9296 13.0707 9.3656 13.0179 8.5424C13.0059 8.3432 12.9483 8.1488 12.9051 7.952C12.8403 7.6568 13.0371 7.412 13.3347 7.4648C13.9059 7.5656 14.4795 7.664 15.0387 7.8104C15.6699 7.976 16.0395 8.396 16.1595 9.0608C16.3683 10.232 16.6131 11.3984 16.8459 12.5648C16.9179 12.9248 16.7883 13.088 16.4211 13.088C13.5267 13.088 10.6323 13.088 7.7379 13.088C7.3611 13.088 7.2243 12.9272 7.2963 12.5576C7.5339 11.3216 7.7643 10.0856 8.0187 8.8544C8.1243 8.336 8.4771 7.9832 8.9691 7.844C9.5667 7.6736 10.1859 7.568 10.8003 7.46C11.0691 7.412 11.2995 7.6784 11.2227 7.952C10.9371 8.9864 11.4075 9.7592 12.0675 10.5152ZM10.3587 8.2424C9.8979 8.2808 9.4467 8.3672 9.0267 8.5592C8.8299 8.648 8.7099 8.8208 8.6667 9.0416C8.5731 9.5312 8.4699 10.0184 8.3715 10.508C8.2515 11.1128 8.1363 11.7152 8.0139 12.3392C10.6995 12.3392 13.3635 12.3392 16.0371 12.3392C16.0275 12.2576 16.0251 12.1928 16.0131 12.128C15.8091 11.1128 15.6003 10.1 15.4035 9.0872C15.3555 8.8352 15.2259 8.6408 15.0003 8.564C14.5827 8.4224 14.1507 8.324 13.7211 8.2064C13.6995 8.5592 13.7187 8.8616 13.6587 9.1472C13.4715 10.0376 12.8811 10.6736 12.2499 11.2712C12.1227 11.3912 11.9475 11.3936 11.8203 11.2712C11.1627 10.64 10.5843 9.9512 10.4211 9.0152C10.3779 8.768 10.3779 8.5136 10.3587 8.2424Z" fill="#8A92A6"/>
<path d="M12.0005 1.3496C12.8141 1.3472 13.5125 1.8752 13.8245 2.6936C13.8845 2.8496 13.9637 3.0032 14.0549 3.1424C14.4173 3.6944 14.2949 4.5368 13.7885 4.94C13.7285 4.988 13.6949 5.0696 13.6469 5.1344C13.3973 5.4752 13.1837 5.852 12.8885 6.1472C12.3701 6.6632 11.6933 6.668 11.1725 6.1568C10.8797 5.8712 10.6733 5.4968 10.4261 5.1632C10.3541 5.0648 10.2797 4.9616 10.1885 4.8848C9.96288 4.6952 9.86688 4.4456 9.82608 4.1648C9.76608 3.7568 9.83808 3.3824 10.0901 3.0464C10.1405 2.9768 10.1717 2.8904 10.2029 2.8088C10.4573 2.1008 10.8965 1.5848 11.6525 1.3904C11.6957 1.3784 11.7389 1.3664 11.7821 1.364C11.8637 1.3568 11.9453 1.3544 12.0005 1.3496ZM10.4621 3.9752C10.5125 4.088 10.5485 4.2104 10.6205 4.3064C10.6973 4.4144 10.8221 4.4912 10.8989 4.5992C11.1125 4.9016 11.2829 5.24 11.5253 5.516C11.8493 5.8904 12.1589 5.888 12.4877 5.5136C12.7157 5.2544 12.8765 4.9376 13.0709 4.6496C13.1405 4.5464 13.1981 4.4 13.2965 4.3592C13.4693 4.2848 13.5485 4.1768 13.5485 4.0088C13.5461 3.8552 13.5365 3.692 13.4837 3.5528C13.3997 3.3344 13.2797 3.1304 13.1645 2.9264C13.0709 2.7584 12.9797 2.5832 12.8525 2.4392C12.3989 1.9208 11.6765 1.904 11.2325 2.4296C11.0381 2.66 10.9325 2.9696 10.7885 3.2432C10.7573 3.3008 10.7573 3.3896 10.7117 3.4208C10.5197 3.5576 10.5029 3.752 10.4621 3.9752Z" fill="#8A92A6"/>
</svg>
