<svg width="24" height="25" viewBox="0 0 24 25" fill="none" xmlns="http://www.w3.org/2000/svg">
<path d="M20.3855 9.5936C20.6471 9.5936 20.8727 9.5936 21.1271 9.5936C21.1271 9.6824 21.1271 9.764 21.1271 9.8456C21.1271 11.3 21.1295 12.7544 21.1247 14.2064C21.1247 14.3624 21.1703 14.4656 21.2855 14.576C22.7783 16.016 23.3183 17.7632 22.7471 19.7552C22.1831 21.7256 20.8319 22.9712 18.8111 23.3552C16.7543 23.7488 15.0575 23.0456 13.7567 21.4064C13.6607 21.2864 13.5647 21.2624 13.4279 21.2624C10.4519 21.2648 7.47587 21.248 4.49987 21.2744C3.68867 21.2816 3.13907 20.7104 3.22547 19.9976C3.23267 19.9448 3.22547 19.892 3.22547 19.8008C2.85827 19.8008 2.49587 19.8032 2.13347 19.8008C1.60547 19.7984 1.18307 19.4648 1.05827 18.9536C1.03667 18.8672 1.03427 18.7736 1.03427 18.6824C1.03427 13.3376 1.03187 7.9952 1.03427 2.6504C1.03427 1.9976 1.50227 1.532 2.15747 1.532C7.37027 1.532 12.5855 1.532 17.7983 1.532C18.4703 1.532 18.9311 1.9928 18.9359 2.66C18.9359 2.7584 18.9359 2.8568 18.9359 2.9936C19.3055 2.9936 19.6655 2.9912 20.0279 2.9936C20.5487 2.996 20.9615 3.3152 21.0935 3.8216C21.1127 3.8936 21.1247 3.9704 21.1247 4.0448C21.1271 5.096 21.1271 6.1448 21.1271 7.196C21.1271 7.2392 21.1175 7.2848 21.1127 7.3376C20.8775 7.3376 20.6519 7.3376 20.4071 7.3376C20.4071 7.112 20.4071 6.896 20.4071 6.6608C19.9127 6.6608 19.4375 6.6608 18.9479 6.6608C18.9455 6.7328 18.9383 6.8072 18.9383 6.8816C18.9383 8.9528 18.9407 11.0216 18.9335 13.0928C18.9335 13.2776 18.9839 13.3472 19.1615 13.4048C19.5719 13.5344 19.9703 13.6976 20.3903 13.8512C20.3855 12.4568 20.3855 11.0384 20.3855 9.5936ZM18.1871 13.232C18.1871 10.5344 18.1871 7.868 18.1871 5.1992C12.7079 5.1992 7.24547 5.1992 1.75907 5.1992C1.75907 5.2832 1.75907 5.3576 1.75907 5.432C1.75907 9.8024 1.75907 14.1728 1.75907 18.5408C1.75907 18.9656 1.87187 19.076 2.30387 19.076C5.70707 19.076 9.11027 19.076 12.5111 19.076C12.5927 19.076 12.6743 19.076 12.7631 19.076C12.5783 17.4584 12.9791 16.0448 14.0759 14.8616C15.1799 13.676 16.5647 13.1624 18.1871 13.232ZM22.2263 18.3536C22.2287 15.92 20.2799 13.9712 17.8343 13.9592C15.4391 13.9472 13.4495 15.9392 13.4519 18.3464C13.4543 20.756 15.4247 22.7264 17.8391 22.7312C20.2559 22.7336 22.2239 20.768 22.2263 18.3536ZM1.76147 4.4432C7.25747 4.4432 12.7247 4.4432 18.2039 4.4432C18.2039 3.9032 18.2039 3.3776 18.2039 2.8544C18.2039 2.3624 18.1079 2.2664 17.6207 2.2664C12.5279 2.2664 7.43507 2.2664 2.34467 2.2664C2.27507 2.2664 2.20787 2.2616 2.13827 2.2688C1.91027 2.2856 1.76627 2.42 1.76387 2.648C1.75667 3.2408 1.76147 3.8336 1.76147 4.4432ZM3.96947 19.8152C3.90947 20.4296 4.00787 20.54 4.59827 20.54C7.36547 20.54 10.1327 20.54 12.9023 20.54C12.9911 20.54 13.0799 20.54 13.1975 20.54C13.1015 20.2832 13.0151 20.0528 12.9263 19.8152C9.94067 19.8152 6.96227 19.8152 3.96947 19.8152ZM20.3927 5.9168C20.3927 5.2904 20.3999 4.6832 20.3879 4.076C20.3855 3.8888 20.2607 3.7472 20.0735 3.7376C19.6967 3.7184 19.3199 3.7328 18.9479 3.7328C18.9479 4.4768 18.9479 5.1944 18.9479 5.9168C19.4327 5.9168 19.8959 5.9168 20.3927 5.9168Z" fill="#8A92A6"/>
<path d="M20.4072 8.0864C20.6544 8.0864 20.8776 8.0864 21.1128 8.0864C21.1128 8.3456 21.1128 8.5928 21.1128 8.8544C20.88 8.8544 20.6496 8.8544 20.4072 8.8544C20.4072 8.5976 20.4072 8.3504 20.4072 8.0864Z" fill="#8A92A6"/>
<path d="M5.60882 6.44C5.84402 6.284 6.06482 6.1376 6.30722 5.9768C6.44402 6.1784 6.57122 6.3728 6.71522 6.584C6.52562 6.7136 6.35042 6.8432 6.16322 6.956C6.05522 7.0208 6.02402 7.0808 6.06002 7.2104C6.35282 8.2496 5.77442 9.2768 4.76882 9.5216C3.72482 9.7736 2.73122 9.1328 2.51282 8.0672C2.36882 7.352 2.70722 6.5936 3.35522 6.1856C3.98642 5.7896 4.83362 5.8352 5.43122 6.296C5.48882 6.3392 5.53922 6.3848 5.60882 6.44ZM4.11362 7.4456C4.39682 7.2536 4.66802 7.0664 4.94882 6.8768C4.48322 6.536 3.89282 6.5984 3.51362 7.0136C3.13682 7.424 3.13202 8.0528 3.50162 8.4656C3.88562 8.8952 4.50242 8.9624 4.96322 8.624C5.33522 8.3528 5.51522 7.8248 5.33282 7.5176C5.06642 7.6928 4.80242 7.8656 4.51922 8.0528C4.38482 7.8512 4.25522 7.6568 4.11362 7.4456Z" fill="#8A92A6"/>
<path d="M6.3095 10.364C6.4511 10.5776 6.5783 10.7672 6.7151 10.9712C6.5255 11.1008 6.3479 11.2328 6.1631 11.3456C6.0527 11.4104 6.0263 11.4728 6.0623 11.6C6.3551 12.6368 5.7743 13.6664 4.7687 13.9088C3.7247 14.1608 2.7311 13.5176 2.5151 12.452C2.3711 11.7368 2.7119 10.9784 3.3623 10.5728C3.9935 10.1768 4.8455 10.2176 5.4359 10.6904C5.5727 10.7984 5.6639 10.82 5.8031 10.7072C5.9543 10.5848 6.1271 10.4864 6.3095 10.364ZM4.1135 11.8304C4.4015 11.636 4.6727 11.4512 4.9559 11.2616C4.4519 10.9256 3.8831 10.9928 3.5087 11.408C3.1487 11.8064 3.1367 12.4184 3.4775 12.8264C3.8351 13.2536 4.4255 13.3496 4.8935 13.0592C5.3015 12.8048 5.5127 12.2816 5.3447 11.9C5.0735 12.0776 4.8023 12.2552 4.5191 12.4424C4.3799 12.2312 4.2527 12.0368 4.1135 11.8304Z" fill="#8A92A6"/>
<path d="M6.30717 14.7488C6.44877 14.96 6.57597 15.1544 6.71517 15.3608C6.53037 15.4856 6.36477 15.608 6.18957 15.7112C6.05997 15.788 6.02397 15.8576 6.06957 16.0184C6.35517 16.9904 5.79117 18.0008 4.82397 18.2816C3.86397 18.56 2.86317 18.0128 2.56797 17.0504C2.33517 16.2944 2.62077 15.4736 3.27597 15.0176C3.93357 14.5592 4.80957 14.5784 5.44317 15.0824C5.57757 15.188 5.66157 15.1976 5.79117 15.0968C5.95197 14.9744 6.12717 14.8688 6.30717 14.7488ZM4.94637 15.6536C4.50237 15.3104 3.91677 15.3632 3.53037 15.7664C3.14397 16.1672 3.12237 16.7984 3.48237 17.2184C3.84957 17.648 4.45917 17.7368 4.92237 17.4272C5.31597 17.1632 5.51517 16.628 5.33757 16.2848C5.06637 16.4624 4.79757 16.64 4.51917 16.8224C4.37757 16.6064 4.25037 16.4144 4.11597 16.2104C4.40397 16.0184 4.67277 15.8384 4.94637 15.6536Z" fill="#8A92A6"/>
<path d="M15.2684 12.5144C15.2684 12.752 15.2684 12.9776 15.2684 13.2152C12.7148 13.2152 10.1732 13.2152 7.61963 13.2152C7.61963 12.98 7.61963 12.7568 7.61963 12.5144C10.1612 12.5144 12.7052 12.5144 15.2684 12.5144Z" fill="#8A92A6"/>
<path d="M10.1758 7.364C10.1758 7.124 10.1758 6.9008 10.1758 6.6632C11.875 6.6632 13.567 6.6632 15.2686 6.6632C15.2686 6.8984 15.2686 7.1216 15.2686 7.364C13.5766 7.364 11.887 7.364 10.1758 7.364Z" fill="#8A92A6"/>
<path d="M7.62451 8.1224C9.32611 8.1224 11.0109 8.1224 12.7077 8.1224C12.7077 8.3552 12.7077 8.5808 12.7077 8.8232C11.0229 8.8232 9.33091 8.8232 7.62451 8.8232C7.62451 8.6024 7.62451 8.372 7.62451 8.1224Z" fill="#8A92A6"/>
<path d="M10.1758 11.7512C10.1758 11.5088 10.1758 11.2832 10.1758 11.048C11.8726 11.048 13.5574 11.048 15.259 11.048C15.259 11.2736 15.259 11.504 15.259 11.7512C13.5742 11.7512 11.8846 11.7512 10.1758 11.7512Z" fill="#8A92A6"/>
<path d="M7.61963 16.136C7.61963 15.8936 7.61963 15.6704 7.61963 15.4328C9.31643 15.4328 11.0012 15.4328 12.7028 15.4328C12.7028 15.6584 12.7028 15.8888 12.7028 16.136C11.018 16.136 9.32603 16.136 7.61963 16.136Z" fill="#8A92A6"/>
<path d="M9.41251 7.376C8.81011 7.376 8.22691 7.376 7.62451 7.376C7.62451 7.1432 7.62451 6.9128 7.62451 6.6656C8.21491 6.6656 8.81011 6.6656 9.41251 6.6656C9.41251 6.9032 9.41251 7.1384 9.41251 7.376Z" fill="#8A92A6"/>
<path d="M13.4663 8.828C13.4663 8.5856 13.4663 8.36 13.4663 8.1248C14.0663 8.1248 14.6567 8.1248 15.2615 8.1248C15.2615 8.3528 15.2615 8.5832 15.2615 8.828C14.6711 8.828 14.0759 8.828 13.4663 8.828Z" fill="#8A92A6"/>
<path d="M9.42215 11.0528C9.42215 11.2928 9.42215 11.5184 9.42215 11.7536C8.82215 11.7536 8.23415 11.7536 7.62695 11.7536C7.62695 11.528 7.62695 11.2976 7.62695 11.0528C8.21495 11.0528 8.81015 11.0528 9.42215 11.0528Z" fill="#8A92A6"/>
<path d="M9.42207 16.8968C9.42207 17.132 9.42207 17.3576 9.42207 17.5976C8.82687 17.5976 8.23167 17.5976 7.62207 17.5976C7.62207 17.3696 7.62207 17.1392 7.62207 16.8968C8.21727 16.8968 8.80527 16.8968 9.42207 16.8968Z" fill="#8A92A6"/>
<path d="M10.1831 16.892C10.7831 16.892 11.3735 16.892 11.9759 16.892C11.9759 17.1296 11.9759 17.36 11.9759 17.6024C11.3783 17.6024 10.7903 17.6024 10.1831 17.6024C10.1831 17.3768 10.1831 17.1464 10.1831 16.892Z" fill="#8A92A6"/>
<path d="M20.1263 15.9008C20.3159 16.0736 20.4815 16.2272 20.6615 16.3928C20.6135 16.4504 20.5751 16.5008 20.5295 16.5488C19.2719 17.924 18.0143 19.2992 16.7543 20.6744C16.4567 20.9984 16.2671 20.9912 15.9959 20.6528C15.5447 20.0888 15.0935 19.5248 14.6255 18.9392C14.8199 18.7832 15.0071 18.632 15.1991 18.476C15.6023 18.9776 15.9911 19.4648 16.3967 19.9664C17.6423 18.6104 18.8759 17.2664 20.1263 15.9008Z" fill="#8A92A6"/>
<path d="M3.21825 3.01279C3.21825 3.25279 3.21825 3.47359 3.21825 3.70879C2.98545 3.70879 2.75505 3.70879 2.51025 3.70879C2.51025 3.48559 2.51025 3.25519 2.51025 3.01279C2.73825 3.01279 2.96865 3.01279 3.21825 3.01279Z" fill="#8A92A6"/>
<path d="M4.67288 3.0104C4.67288 3.248 4.67288 3.4712 4.67288 3.7112C4.44248 3.7112 4.21209 3.7112 3.96729 3.7112C3.96729 3.4808 3.96729 3.2528 3.96729 3.0104C4.19769 3.0104 4.42328 3.0104 4.67288 3.0104Z" fill="#8A92A6"/>
<path d="M6.12711 3.7184C5.89191 3.7184 5.66631 3.7184 5.42871 3.7184C5.42871 3.4808 5.42871 3.2504 5.42871 3.0104C5.65911 3.0104 5.88471 3.0104 6.12711 3.0104C6.12711 3.236 6.12711 3.4664 6.12711 3.7184Z" fill="#8A92A6"/>
</svg>
