<svg width="24" height="25" viewBox="0 0 24 25" fill="none" xmlns="http://www.w3.org/2000/svg">
<path d="M11.9998 21.6429C17.0493 21.6429 21.1426 17.5495 21.1426 12.5C21.1426 7.45054 17.0493 3.35715 11.9998 3.35715C6.95033 3.35715 2.85693 7.45054 2.85693 12.5C2.85693 17.5495 6.95033 21.6429 11.9998 21.6429Z" stroke="#8A92A6" stroke-linecap="round" stroke-linejoin="round"/>
<path fill-rule="evenodd" clip-rule="evenodd" d="M11.9998 13.6429C12.5712 13.6429 13.1426 13.0714 13.1426 12.5C13.1426 11.9286 12.5712 11.3571 11.9998 11.3571C11.4283 11.3571 10.858 11.9286 10.858 12.5C10.858 13.0714 11.4283 13.6429 11.9998 13.6429ZM7.42834 13.6429C7.99976 13.6429 8.57119 13.0714 8.57119 12.5C8.57119 11.9286 7.99976 11.3571 7.42834 11.3571C6.85691 11.3571 6.28662 11.9286 6.28662 12.5C6.28662 13.0714 6.85691 13.6429 7.42834 13.6429ZM16.5712 13.6429C17.1426 13.6429 17.7141 13.0714 17.7141 12.5C17.7141 11.9286 17.1426 11.3571 16.5712 11.3571C15.9998 11.3571 15.4295 11.9286 15.4295 12.5C15.4295 13.0714 15.9998 13.6429 16.5712 13.6429Z" fill="#8A92A6"/>
</svg>
