<svg width="24" height="25" viewBox="0 0 24 25" fill="none" xmlns="http://www.w3.org/2000/svg">
<path d="M11.671 19.6352C8.23184 19.6448 5.38304 16.8128 5.34464 13.4C5.30624 9.96801 8.02544 6.99921 11.6422 6.97281C15.1558 6.94641 17.9998 9.77601 18.007 13.2752C18.0166 16.7936 15.1966 19.6232 11.671 19.6352ZM11.6662 18.9776C14.8294 18.9728 17.3614 16.4456 17.3566 13.304C17.3518 10.1576 14.8126 7.62081 11.6686 7.61601C8.54144 7.61121 5.99504 10.1768 5.99744 13.3232C6.00224 16.4408 8.55104 18.9824 11.6662 18.9776Z" fill="#8A92A6"/>
<path d="M2.89646 19.208C2.75966 19.724 2.63246 20.2016 2.50526 20.6792C2.43086 20.9528 2.27726 21.0656 2.06366 21.0032C1.87406 20.948 1.80446 20.7704 1.87406 20.504C2.06126 19.7864 2.25086 19.0712 2.44046 18.3536C2.50286 18.1208 2.65406 18.0152 2.86286 18.0728C3.62366 18.2768 4.38446 18.4808 5.14526 18.6896C5.35886 18.7496 5.45246 18.9008 5.40686 19.0856C5.36126 19.2776 5.19326 19.3664 4.97246 19.3184C4.95086 19.3136 4.92926 19.3016 4.90766 19.2968C4.51886 19.1936 4.13006 19.0904 3.74126 18.9896C3.68366 18.9752 3.62366 18.9656 3.52046 18.944C3.94766 19.5584 4.41086 20.084 4.93166 20.5568C6.48926 21.9656 8.31086 22.8224 10.3941 23.0456C13.3485 23.3624 15.9453 22.508 18.1605 20.516C18.2133 20.4704 18.2613 20.4176 18.3165 20.3768C18.4677 20.2688 18.6213 20.2688 18.7581 20.4008C18.8829 20.5208 18.8853 20.7296 18.7413 20.8568C18.4053 21.1544 18.0741 21.4616 17.7141 21.7256C15.6549 23.24 13.3365 23.9312 10.7973 23.732C7.54046 23.4752 4.93886 21.9896 3.00686 19.3448C2.97806 19.3088 2.94926 19.2752 2.89646 19.208Z" fill="#8A92A6"/>
<path d="M10.711 2.9072C10.675 2.8664 10.627 2.8088 10.5742 2.7584C10.2622 2.444 9.94782 2.1344 9.63822 1.82C9.47262 1.652 9.46782 1.4672 9.61182 1.328C9.74142 1.2008 9.93582 1.2032 10.087 1.352C10.6438 1.9016 11.1982 2.4536 11.7502 3.0104C11.9014 3.164 11.9038 3.3296 11.7502 3.4832C11.1982 4.04 10.6438 4.592 10.087 5.1416C9.93342 5.2928 9.74382 5.2976 9.61182 5.168C9.47022 5.0312 9.47742 4.8416 9.64062 4.676C9.92142 4.388 10.2094 4.1048 10.4926 3.8192C10.5454 3.7664 10.5958 3.7088 10.6294 3.6008C10.2094 3.6728 9.77982 3.7112 9.36942 3.8216C5.31822 4.8896 2.82222 7.472 1.92222 11.5616C1.64142 12.836 1.69422 14.132 1.97502 15.4112C2.01102 15.5792 2.02062 15.7376 1.86222 15.8504C1.66062 15.992 1.41342 15.8816 1.35102 15.6176C1.17102 14.8448 1.09422 14.06 1.10382 13.268C1.16142 8.54 4.27902 4.5104 8.84622 3.2792C9.45342 3.116 10.0822 3.032 10.711 2.9072Z" fill="#8A92A6"/>
<path d="M20.9276 17.8712C21.2924 17.7752 21.626 17.6888 21.9596 17.6024C22.1252 17.5592 22.2884 17.5112 22.4516 17.4728C22.6652 17.4224 22.8308 17.504 22.8812 17.6792C22.9364 17.8736 22.8452 18.0344 22.6172 18.0968C22.0676 18.2504 21.5132 18.3944 20.9612 18.5432C20.7668 18.596 20.5748 18.6512 20.3804 18.704C20.1836 18.7592 20.0132 18.6848 19.9604 18.4904C19.7492 17.7224 19.5452 16.9544 19.346 16.184C19.2932 15.98 19.4012 15.812 19.5908 15.7784C19.7924 15.7424 19.9196 15.848 19.97 16.0352C20.0996 16.496 20.2196 16.9568 20.3564 17.4608C20.4068 17.3816 20.4404 17.3384 20.4644 17.288C22.082 13.724 21.2804 9.30081 18.5228 6.52401C17.5772 5.57121 16.4972 4.82481 15.2564 4.31121C14.9972 4.20321 14.8988 4.02801 14.9852 3.83361C15.0692 3.64881 15.2492 3.59841 15.506 3.71121C18.8276 5.17041 20.918 7.66161 21.7148 11.1992C22.2164 13.4312 21.9356 15.5984 21.002 17.684C20.9804 17.732 20.9636 17.7824 20.9276 17.8712Z" fill="#8A92A6"/>
<path d="M11.3399 9.97519C11.3783 9.47599 11.4455 9.35119 11.6639 9.33919C11.8895 9.32719 11.9591 9.44959 12.0191 9.97519C12.7895 10.1768 13.2935 10.6448 13.4615 11.4392C13.4807 11.528 13.4879 11.624 13.4879 11.7152C13.4903 11.9456 13.3847 12.0728 13.1927 12.0848C12.9911 12.0992 12.8567 11.9744 12.8423 11.7416C12.8183 11.3552 12.6599 11.0408 12.3407 10.8176C12.2495 10.7528 12.1439 10.712 12.0143 10.6448C12.0143 11.4344 12.0143 12.1832 12.0143 12.9464C12.0551 12.9608 12.1031 12.98 12.1511 12.9944C12.9719 13.2464 13.4879 13.9184 13.4879 14.7416C13.4879 15.5672 12.9767 16.244 12.1511 16.4888C12.0287 16.5272 11.9903 16.58 11.9999 16.6976C12.0071 16.7816 12.0047 16.868 11.9999 16.952C11.9879 17.1464 11.8703 17.2544 11.6879 17.2616C11.5031 17.2664 11.3423 17.1512 11.3663 16.9712C11.4143 16.6136 11.2415 16.5056 10.9391 16.3832C10.3007 16.124 9.96711 15.596 9.87111 14.9168C9.86391 14.864 9.86391 14.8088 9.86631 14.7536C9.87351 14.552 9.9863 14.4368 10.1807 14.4176C10.3487 14.3984 10.4687 14.5472 10.5167 14.7344C10.5743 14.9696 10.6271 15.224 10.7567 15.4208C10.8815 15.608 11.1023 15.728 11.2799 15.8792C11.3039 15.8648 11.3279 15.848 11.3519 15.8336C11.3519 15.6296 11.3519 15.4256 11.3519 15.2216C11.3519 14.7248 11.3495 14.2304 11.3519 13.7336C11.3519 13.6256 11.3447 13.556 11.2127 13.5128C10.3559 13.244 9.8543 12.5696 9.8639 11.7272C9.8735 10.9208 10.3991 10.2632 11.2391 10.004C11.2703 9.99679 11.2991 9.98719 11.3399 9.97519ZM12.0071 15.8432C12.5567 15.6728 12.8951 15.1688 12.8375 14.6288C12.7871 14.1488 12.4127 13.712 12.0071 13.6688C12.0071 14.3888 12.0071 15.1064 12.0071 15.8432ZM11.3423 10.676C10.8335 10.8224 10.4903 11.3024 10.5143 11.8064C10.5383 12.3176 10.8935 12.764 11.3423 12.848C11.3423 12.1304 11.3423 11.4128 11.3423 10.676Z" fill="#8A92A6"/>
</svg>
