<svg width="24" height="25" viewBox="0 0 24 25" fill="none" xmlns="http://www.w3.org/2000/svg">
<path d="M1.14742 7.21761C1.18102 7.13361 1.21222 7.04961 1.25062 6.96802C1.48342 6.48562 1.86502 6.22161 2.40262 6.19761C2.54182 6.19041 2.68342 6.19761 2.84902 6.19761C2.84902 6.04881 2.84662 5.91681 2.84902 5.78481C2.85862 5.04801 3.40342 4.50321 4.14502 4.49601C4.41382 4.49361 4.68262 4.49361 4.95382 4.49601C5.69542 4.50321 6.24022 5.04801 6.24982 5.78481C6.25222 5.91201 6.24982 6.03921 6.24982 6.19521C6.51862 6.19521 6.77782 6.20481 7.03702 6.18801C7.08742 6.18561 7.14262 6.08961 7.17382 6.02481C7.57942 5.22321 7.98502 4.42161 8.37862 3.61281C8.65222 3.05121 9.08422 2.78481 9.71542 2.78961C11.2826 2.80161 12.8498 2.79681 14.4146 2.79201C14.9906 2.78961 15.4034 3.04161 15.6578 3.55281C16.0706 4.37601 16.4834 5.19681 16.889 6.02241C16.9538 6.15201 17.0282 6.20241 17.177 6.20241C18.6314 6.19521 20.0834 6.19761 21.5378 6.19761C22.3994 6.19761 22.925 6.72322 22.925 7.58721C22.925 11.48 22.925 15.3728 22.925 19.2656C22.925 20.1416 22.4018 20.66 21.521 20.66C15.2186 20.66 8.91622 20.66 2.61382 20.66C1.81222 20.66 1.45942 20.4152 1.17382 19.6688C1.16902 19.6568 1.15462 19.6496 1.14502 19.64C1.14742 15.4976 1.14742 11.3576 1.14742 7.21761ZM1.99702 17.2568C1.99702 17.9168 1.99702 18.5528 1.99702 19.1888C1.99702 19.6712 2.13622 19.8104 2.61622 19.8104C5.16742 19.8104 7.72102 19.8104 10.2722 19.8104C14.009 19.8104 17.7434 19.8104 21.4802 19.8104C21.929 19.8104 22.0754 19.6616 22.0778 19.208C22.0778 18.6344 22.0778 18.0584 22.0778 17.4848C22.0778 17.4104 22.0778 17.336 22.0778 17.2544C21.9578 17.2544 21.8738 17.2544 21.7898 17.2544C19.997 17.2544 18.2018 17.2592 16.409 17.2496C16.1426 17.2472 15.9554 17.3288 15.7562 17.5064C14.357 18.752 12.7274 19.1984 10.8914 18.8336C9.84502 18.6248 8.94502 18.1256 8.17462 17.384C8.09782 17.312 7.96582 17.2616 7.86022 17.2616C6.23062 17.2544 4.59862 17.2568 2.96902 17.2568C2.65462 17.2568 2.34262 17.2568 1.99702 17.2568ZM22.0778 9.60081C22.0778 8.91441 22.0778 8.26162 22.0778 7.60882C22.0778 7.20562 21.917 7.04482 21.5066 7.04482C15.1898 7.04482 8.87302 7.04482 2.55862 7.04482C2.16502 7.04482 2.00182 7.20801 1.99942 7.59922C1.99702 8.20881 1.99942 8.81842 1.99942 9.42802C1.99942 9.48081 2.00902 9.53602 2.01622 9.59841C2.10022 9.59841 2.16982 9.59841 2.24182 9.59841C4.10662 9.59841 5.97142 9.59601 7.83622 9.60322C7.99222 9.60322 8.10262 9.56001 8.20822 9.45201C8.69302 8.96241 9.25702 8.57841 9.89782 8.33361C12.1154 7.48881 14.1194 7.85842 15.881 9.46162C15.989 9.56001 16.0898 9.60562 16.2362 9.60322C18.1082 9.59841 19.9802 9.60081 21.8498 9.60081C21.917 9.60081 21.9866 9.60081 22.0778 9.60081ZM2.00662 16.3904C3.79702 16.3904 5.56822 16.3904 7.34902 16.3904C6.21622 14.4056 6.22342 12.4304 7.34662 10.46C5.55382 10.46 3.78502 10.46 2.00662 10.46C2.00662 12.44 2.00662 14.408 2.00662 16.3904ZM16.7234 10.46C17.8562 12.4448 17.8562 14.4176 16.7258 16.3928C18.5162 16.3928 20.2898 16.3928 22.061 16.3928C22.061 14.4056 22.061 12.4328 22.061 10.46C20.2778 10.46 18.509 10.46 16.7234 10.46ZM7.36822 13.2488C7.27222 15.7304 9.17302 17.984 11.8634 18.0968C14.3114 18.2 16.5842 16.3232 16.7066 13.6184C16.8194 11.144 14.921 8.88081 12.2234 8.76081C9.76822 8.65041 7.49302 10.532 7.36822 13.2488ZM8.07142 6.18561C10.7234 6.18561 13.3538 6.18561 16.001 6.18561C15.9842 6.14001 15.977 6.10641 15.9626 6.07761C15.6026 5.35521 15.2426 4.63521 14.885 3.91281C14.7842 3.71121 14.6162 3.63921 14.3978 3.63921C12.8258 3.64161 11.2514 3.64161 9.67942 3.63921C9.44182 3.63921 9.27862 3.73041 9.17302 3.94881C8.82982 4.64721 8.47942 5.34081 8.13142 6.03681C8.10742 6.08001 8.09542 6.12561 8.07142 6.18561ZM5.40262 6.18801C5.40262 6.04641 5.40982 5.92641 5.40022 5.80881C5.38342 5.52561 5.22502 5.36001 4.94422 5.34801C4.68262 5.33601 4.41862 5.33601 4.15702 5.34801C3.89062 5.36001 3.73222 5.50641 3.70342 5.76561C3.68902 5.90241 3.70102 6.04401 3.70102 6.19041C4.27462 6.18801 4.82422 6.18801 5.40262 6.18801Z" fill="#8A92A6"/>
<path d="M20.3904 7.89923C20.532 7.89923 20.6736 7.89203 20.8128 7.90163C21.0528 7.91603 21.2232 8.10083 21.2208 8.32883C21.2184 8.54963 21.0504 8.73443 20.8224 8.74163C20.5272 8.75363 20.2296 8.75123 19.9344 8.74163C19.6944 8.73443 19.524 8.54483 19.5264 8.31443C19.5288 8.08643 19.704 7.90883 19.9464 7.89923C20.0952 7.89203 20.244 7.89923 20.3904 7.89923Z" fill="#8A92A6"/>
<path d="M18.238 8.7464C18.0028 8.7416 17.8132 8.54 17.8252 8.3024C17.8348 8.0744 18.0292 7.8944 18.2572 7.8992C18.4924 7.904 18.682 8.1056 18.67 8.3432C18.6604 8.5712 18.466 8.7512 18.238 8.7464Z" fill="#8A92A6"/>
<path d="M8.21046 13.4144C8.21526 11.3048 9.93366 9.5984 12.0481 9.6008C14.1673 9.6032 15.8761 11.3288 15.8665 13.4552C15.8569 15.5624 14.1361 17.2664 12.0193 17.2568C9.90966 17.2496 8.20566 15.5288 8.21046 13.4144ZM12.0265 16.4048C13.6489 16.4144 15.0025 15.0704 15.0145 13.4384C15.0241 11.816 13.6801 10.46 12.0481 10.4504C10.4257 10.4408 9.07206 11.7848 9.06006 13.4168C9.05046 15.0416 10.3945 16.3952 12.0265 16.4048Z" fill="#8A92A6"/>
<path d="M12.0388 5.34322C11.6356 5.34322 11.2324 5.34562 10.8292 5.34322C10.5244 5.34082 10.3324 5.16802 10.3396 4.90882C10.3444 4.65682 10.5316 4.49602 10.8292 4.49362C11.6356 4.49122 12.442 4.49122 13.2484 4.49362C13.5532 4.49362 13.7452 4.66882 13.738 4.92802C13.7332 5.18002 13.546 5.34082 13.2484 5.34322C12.8452 5.34562 12.442 5.34322 12.0388 5.34322Z" fill="#8A92A6"/>
<path d="M9.91222 13.3256C9.92662 12.2672 10.9226 11.2952 11.9786 11.3024C12.2594 11.3048 12.4466 11.4608 12.4586 11.7032C12.4706 11.9456 12.305 12.1184 12.0242 12.152C11.2514 12.2456 10.8554 12.6368 10.7618 13.3976C10.7258 13.6976 10.5578 13.8656 10.3082 13.8512C10.0562 13.8368 9.90742 13.6424 9.91222 13.3256Z" fill="#8A92A6"/>
</svg>
