<svg width="24" height="25" viewBox="0 0 24 25" fill="none" xmlns="http://www.w3.org/2000/svg">
<path d="M0.823242 20.0528C0.950442 19.5656 1.16164 19.1312 1.58404 18.824C1.92004 18.5816 2.29684 18.4664 2.70244 18.4616C2.82484 18.4592 2.94724 18.5384 3.06964 18.5864C3.78964 18.8696 4.52644 18.9008 5.23444 18.5984C5.82244 18.3464 6.31204 18.5096 6.77764 18.8384C7.31764 19.22 7.53124 19.7792 7.53844 20.4224C7.54564 21.032 7.52164 21.644 7.54564 22.2536C7.57204 22.952 7.32964 23.4536 6.63124 23.6768C4.98724 23.6768 3.34324 23.6768 1.69684 23.6768C1.26484 23.5256 0.974442 23.2352 0.823242 22.8032C0.823242 21.8864 0.823242 20.9696 0.823242 20.0528ZM4.16644 22.9328C4.87924 22.9328 5.59204 22.9352 6.30244 22.9328C6.61924 22.9304 6.77044 22.8056 6.77044 22.52C6.77524 21.764 6.77764 21.008 6.76324 20.252C6.75604 19.8296 6.53044 19.5248 6.16324 19.3352C5.99044 19.2464 5.81044 19.1816 5.60164 19.2656C4.65124 19.6592 3.69844 19.652 2.74084 19.2728C2.64244 19.2344 2.51044 19.2296 2.40724 19.256C1.88164 19.388 1.56964 19.8176 1.56484 20.4056C1.56004 21.0752 1.56244 21.7424 1.56484 22.412C1.56484 22.7984 1.69924 22.9328 2.09284 22.9328C2.78404 22.9328 3.47524 22.9328 4.16644 22.9328Z" fill="#8A92A6"/>
<path d="M17.3688 23.6768C17.2032 23.5904 17.0232 23.5232 16.8744 23.4128C16.5936 23.204 16.464 22.8992 16.464 22.5584C16.464 21.7232 16.4592 20.8856 16.5024 20.0504C16.5408 19.2752 17.3232 18.548 18.1008 18.476C18.3216 18.4568 18.5088 18.4952 18.708 18.5768C19.4232 18.8744 20.1648 18.9008 20.8728 18.5984C21.4632 18.3464 21.9504 18.5048 22.4184 18.836C22.9344 19.2008 23.172 19.7264 23.1744 20.3552C23.1792 21.0752 23.1768 21.7952 23.1744 22.5152C23.172 23.0672 22.8984 23.444 22.3704 23.6312C22.3464 23.6408 22.3248 23.66 22.3008 23.6768C20.6592 23.6768 19.0152 23.6768 17.3688 23.6768ZM19.8096 22.9328C20.5152 22.9328 21.2208 22.9328 21.924 22.9328C22.2912 22.9328 22.4304 22.796 22.4328 22.4384C22.4352 21.7616 22.4472 21.0872 22.4256 20.4104C22.4184 20.1872 22.3536 19.9496 22.2552 19.748C22.0632 19.3616 21.5064 19.1504 21.2352 19.2656C20.2968 19.6664 19.3464 19.6496 18.3984 19.2728C18.3 19.2344 18.168 19.2272 18.0648 19.2536C17.5776 19.3712 17.2464 19.7672 17.2368 20.2712C17.2224 20.9912 17.2296 21.7112 17.2296 22.4288C17.2296 22.808 17.3568 22.9328 17.7408 22.9328C18.4272 22.9328 19.1184 22.9328 19.8096 22.9328Z" fill="#8A92A6"/>
<path d="M12.0048 11.3696C11.22 11.3696 10.4328 11.3936 9.65035 11.3624C9.10555 11.3408 8.67356 10.9232 8.65916 10.3808C8.63276 9.48799 8.62556 8.59039 8.69276 7.69999C8.75756 6.83839 9.67195 6.12319 10.5336 6.17119C10.596 6.17359 10.6608 6.19519 10.7208 6.22159C11.5704 6.60799 12.4176 6.6032 13.272 6.2288C13.6272 6.0728 13.9776 6.20239 14.2968 6.36079C15.0024 6.70879 15.3432 7.304 15.3576 8.0792C15.3696 8.7632 15.36 9.4472 15.36 10.1312C15.36 10.9304 14.9064 11.3864 14.1024 11.3912C13.404 11.396 12.7056 11.3912 12.0072 11.3912C12.0048 11.3816 12.0048 11.3768 12.0048 11.3696ZM11.9928 10.628C12.7056 10.628 13.4184 10.628 14.1288 10.628C14.4744 10.628 14.6016 10.5032 14.604 10.1552C14.6088 9.47119 14.6064 8.7896 14.604 8.1056C14.6016 7.7408 14.4984 7.41439 14.2032 7.17919C13.9368 6.96799 13.6632 6.87199 13.3032 7.01599C12.432 7.36159 11.5464 7.34479 10.668 7.01359C10.5576 6.97279 10.4304 6.9296 10.3176 6.9464C9.82796 7.016 9.44155 7.39999 9.42235 7.89679C9.39115 8.67199 9.39595 9.45199 9.40075 10.2296C9.40315 10.508 9.54956 10.628 9.83516 10.6304C10.5528 10.6304 11.2728 10.628 11.9928 10.628Z" fill="#8A92A6"/>
<path d="M7.72104 5.48241C7.33224 5.78241 6.92664 6.05841 6.56184 6.38241C5.05944 7.71921 4.17864 9.39921 3.88584 11.384C3.83544 11.7272 3.83784 12.08 3.80904 12.428C3.78504 12.7232 3.63624 12.8864 3.40824 12.8696C3.17544 12.8528 3.04344 12.6824 3.05544 12.3824C3.18744 9.07761 4.64904 6.54321 7.46424 4.79601C7.55064 4.74321 7.63704 4.69281 7.75464 4.62081C7.49784 4.50081 7.26504 4.39521 7.03464 4.28481C6.86664 4.20321 6.78024 4.07121 6.80424 3.88161C6.82824 3.70881 6.93384 3.60321 7.09944 3.57681C7.18584 3.56481 7.28904 3.58401 7.37064 3.62001C7.83624 3.82401 8.29944 4.03281 8.75784 4.25121C9.01224 4.37121 9.08184 4.55361 8.96664 4.80561C8.73144 5.31201 8.48904 5.81601 8.23944 6.31521C8.13624 6.52161 7.93224 6.58641 7.74504 6.50241C7.56504 6.42081 7.48824 6.20961 7.56504 6.00081C7.59624 5.91921 7.63944 5.84241 7.67544 5.76321C7.70904 5.69121 7.74024 5.61921 7.77384 5.54721C7.75704 5.52561 7.73784 5.50401 7.72104 5.48241Z" fill="#8A92A6"/>
<path d="M20.1194 11.4704C19.9226 9.97282 19.3682 8.62882 18.4394 7.44082C17.6138 6.38482 16.5866 5.58322 15.365 5.03122C15.3194 5.00962 15.2714 4.99042 15.2282 4.96642C15.005 4.84402 14.9282 4.65922 15.0146 4.46242C15.1058 4.25842 15.3218 4.17202 15.5474 4.29202C16.0802 4.57282 16.6322 4.82962 17.1218 5.17522C18.9746 6.47602 20.165 8.24242 20.6978 10.4432C20.7722 10.7528 20.8082 11.072 20.8634 11.3864C20.8754 11.4536 20.8922 11.5208 20.9162 11.6384C21.0938 11.456 21.2354 11.3024 21.3866 11.1584C21.5762 10.9784 21.7922 10.9688 21.9482 11.1224C22.1018 11.2736 22.097 11.5016 21.9194 11.684C21.5738 12.0368 21.2234 12.3872 20.8706 12.7328C20.6738 12.9248 20.4746 12.9272 20.2754 12.7352C19.9202 12.392 19.5698 12.0416 19.2266 11.6864C19.0394 11.4944 19.037 11.2832 19.1978 11.1248C19.3538 10.9712 19.5698 10.9856 19.7594 11.1608C19.8698 11.264 19.9802 11.3696 20.0906 11.4728C20.093 11.4728 20.1026 11.4704 20.1194 11.4704Z" fill="#8A92A6"/>
<path d="M4.2048 13.6136C5.4912 13.6496 6.4536 14.6744 6.4056 15.9848C6.3648 17.1272 5.3304 18.1544 4.0272 18.0896C2.8968 18.032 1.8984 16.9664 1.9392 15.8192C1.98 14.5736 3.0024 13.58 4.2048 13.6136ZM4.1808 14.372C3.36 14.3696 2.6976 15.0296 2.6952 15.848C2.6928 16.664 3.3576 17.336 4.1712 17.3408C4.9728 17.3456 5.6568 16.664 5.664 15.8576C5.6712 15.0512 4.9944 14.3744 4.1808 14.372Z" fill="#8A92A6"/>
<path d="M19.8194 18.0872C18.593 18.0872 17.5898 17.0816 17.5898 15.8528C17.5898 14.6264 18.5906 13.6208 19.817 13.6136C21.0386 13.6064 22.0754 14.6456 22.0634 15.8648C22.0514 17.0936 21.0458 18.0872 19.8194 18.0872ZM19.8218 14.372C19.0082 14.3744 18.3314 15.0488 18.3362 15.8552C18.341 16.6616 19.025 17.3456 19.8266 17.3408C20.6378 17.3384 21.305 16.664 21.305 15.8504C21.305 15.0296 20.6426 14.3696 19.8218 14.372Z" fill="#8A92A6"/>
<path d="M11.9759 5.79681C10.7159 5.76561 9.73906 4.74561 9.77026 3.49521C9.80146 2.24001 10.8239 1.29441 12.1223 1.32561C13.2911 1.35201 14.2655 2.41521 14.2295 3.63201C14.1959 4.82961 13.1615 5.82561 11.9759 5.79681ZM11.9807 5.03841C12.7991 5.04561 13.4711 4.39521 13.4855 3.57681C13.4999 2.76561 12.8111 2.06481 11.9975 2.06961C11.1959 2.07441 10.5287 2.73441 10.5143 3.53841C10.4975 4.34481 11.1671 5.02881 11.9807 5.03841Z" fill="#8A92A6"/>
<path d="M9.43904 21.0872C9.53504 21.2744 9.61424 21.4256 9.69104 21.5792C9.81104 21.8264 9.76064 22.0376 9.56144 22.1432C9.35984 22.2488 9.15824 22.172 9.02624 21.9248C8.79584 21.4952 8.57024 21.0656 8.34944 20.6312C8.19584 20.3288 8.28944 20.108 8.61344 20.0096C9.06464 19.8704 9.51824 19.7408 9.96944 19.6112C10.2286 19.5368 10.4278 19.6328 10.495 19.8536C10.555 20.0504 10.4326 20.2376 10.1854 20.3264C10.1278 20.348 10.0678 20.3696 10.0102 20.3936C10.0102 20.4152 10.0078 20.4368 10.0078 20.4584C10.4734 20.5256 10.9366 20.624 11.407 20.6576C12.6478 20.744 13.8574 20.5784 15.0166 20.1128C15.0982 20.0816 15.1798 20.0504 15.2638 20.0312C15.4414 19.988 15.6286 20.084 15.6958 20.2472C15.763 20.4104 15.7054 20.612 15.547 20.7032C15.4342 20.768 15.307 20.8064 15.187 20.8544C14.0758 21.2888 12.919 21.4976 11.7334 21.4352C11.035 21.3992 10.3438 21.236 9.64784 21.1304C9.59024 21.1184 9.53744 21.1064 9.43904 21.0872Z" fill="#8A92A6"/>
</svg>
