<svg width="24" height="25" viewBox="0 0 24 25" fill="none" xmlns="http://www.w3.org/2000/svg">
<path d="M0.89502 5.60243C1.01502 5.45843 1.15902 5.36963 1.35822 5.38163C1.44942 5.38643 1.54302 5.35523 1.63662 5.34803C2.05662 5.31683 2.17422 5.21843 2.25822 4.80083C2.26782 4.75043 2.22942 4.68083 2.19582 4.63523C2.05902 4.45763 1.91262 4.28723 1.77582 4.11203C1.62942 3.92243 1.63422 3.76163 1.80222 3.59123C2.16702 3.22163 2.53662 2.85203 2.90862 2.48963C3.06942 2.33123 3.23262 2.32643 3.41262 2.46563C3.58542 2.59763 3.75342 2.73203 3.91662 2.87603C4.01022 2.95763 4.08942 2.95283 4.20702 2.92163C4.53102 2.83523 4.68462 2.65283 4.66542 2.31443C4.65822 2.18003 4.68942 2.04083 4.70622 1.90643C4.73502 1.69283 4.87182 1.58483 5.07582 1.58243C5.59662 1.57523 6.11742 1.57523 6.63582 1.58243C6.86142 1.58483 6.98142 1.70003 7.01502 1.92083C7.04622 2.12003 7.08462 2.32163 7.08942 2.52083C7.09422 2.68403 7.14462 2.77523 7.30542 2.81363C7.38222 2.83043 7.45662 2.86403 7.52382 2.90723C7.63422 2.97683 7.71822 2.95283 7.81182 2.87123C7.97502 2.72723 8.14302 2.59283 8.31582 2.46083C8.50782 2.31203 8.66142 2.31683 8.83662 2.48723C9.20382 2.84483 9.56622 3.20963 9.92622 3.57443C10.1014 3.75203 10.1062 3.92003 9.95502 4.11443C9.82062 4.28483 9.68622 4.45523 9.54222 4.61603C9.46302 4.70483 9.47982 4.77443 9.50142 4.88243C9.58302 5.27123 9.83502 5.37203 10.1854 5.35043C10.207 5.34803 10.2286 5.35283 10.2502 5.35523C10.7974 5.41283 10.8406 5.46323 10.8406 6.00803C10.8406 6.43523 10.843 6.86003 10.8406 7.28723C10.8382 7.57283 10.7278 7.69043 10.4422 7.72163C10.2478 7.74323 10.0534 7.76483 9.85902 7.77443C9.72462 7.78163 9.67422 7.85123 9.60702 7.96163C9.42462 8.25683 9.47262 8.48723 9.72222 8.70803C9.81822 8.79443 9.89022 8.90483 9.96702 9.01043C10.099 9.19043 10.0918 9.35603 9.93342 9.51683C9.56862 9.88883 9.20142 10.256 8.82942 10.6208C8.66622 10.7792 8.49102 10.7816 8.30622 10.6376C8.13582 10.5032 7.96542 10.3712 7.80222 10.2272C7.71342 10.148 7.64142 10.1624 7.53342 10.1888C7.19502 10.268 7.04382 10.4624 7.06062 10.808C7.06782 10.9424 7.03662 11.0816 7.01742 11.216C6.99102 11.408 6.86862 11.5208 6.68142 11.5232C6.13902 11.5328 5.59662 11.5328 5.05662 11.5232C4.85022 11.5208 4.72782 11.3984 4.70382 11.1848C4.68222 10.9688 4.64142 10.7552 4.63422 10.5392C4.62942 10.3976 4.55982 10.3544 4.45182 10.2896C4.15662 10.1096 3.94302 10.1888 3.69582 10.4072C3.15822 10.8848 3.14622 10.8704 2.64462 10.3688C2.37342 10.0976 2.10222 9.82883 1.83342 9.55523C1.62462 9.34403 1.61982 9.20003 1.80462 8.96963C1.88142 8.87363 1.94622 8.76563 2.03742 8.68643C2.26302 8.48723 2.29422 8.28563 2.15022 8.01203C2.06862 7.85603 1.98942 7.77923 1.81662 7.77443C1.63662 7.76963 1.45182 7.76483 1.27902 7.71923C1.14222 7.68323 1.02222 7.58483 0.89502 7.51523C0.89502 6.87443 0.89502 6.23843 0.89502 5.60243ZM9.20382 9.19523C9.06702 9.02723 8.92302 8.84483 8.77662 8.66963C8.65182 8.52083 8.63742 8.36963 8.72382 8.18963C8.84382 7.94483 8.95182 7.69283 9.04062 7.43363C9.11022 7.22483 9.23742 7.13363 9.45102 7.11923C9.67662 7.10483 9.90222 7.06643 10.1326 7.04003C10.1326 6.75683 10.1206 6.50243 10.1374 6.25283C10.147 6.08243 10.0702 6.04403 9.92622 6.03683C9.75342 6.02723 9.58062 6.00803 9.40782 5.98883C9.22542 5.96963 9.11022 5.87603 9.04782 5.69603C8.95662 5.43923 8.85822 5.18243 8.73582 4.93763C8.63502 4.74083 8.65182 4.58483 8.79102 4.42163C8.93982 4.24883 9.08142 4.06643 9.18942 3.93443C8.94702 3.68963 8.71902 3.46163 8.48622 3.22643C8.32782 3.35363 8.15022 3.50003 7.97022 3.64643C7.82622 3.76643 7.67502 3.76883 7.50702 3.69203C7.25742 3.57923 7.00542 3.47363 6.74862 3.38003C6.56862 3.31283 6.45342 3.21443 6.43662 3.01283C6.41742 2.77763 6.38142 2.54483 6.35502 2.31203C6.01422 2.31203 5.69502 2.31203 5.37342 2.31203C5.34462 2.55683 5.31582 2.78723 5.29422 3.01523C5.27502 3.21683 5.15982 3.31523 4.97742 3.38003C4.73502 3.46643 4.49022 3.56003 4.25982 3.67523C4.05822 3.77363 3.89262 3.76643 3.72462 3.62003C3.55662 3.47363 3.38142 3.33923 3.22782 3.21683C2.98062 3.45683 2.75262 3.68243 2.51742 3.91043C2.65182 4.07843 2.78862 4.25603 2.93502 4.42643C3.07182 4.58963 3.08862 4.74563 2.98782 4.94243C2.86782 5.17043 2.76702 5.41283 2.69022 5.65763C2.61822 5.88803 2.47902 5.98163 2.24862 5.99603C2.03502 6.00803 1.82142 6.04163 1.60062 6.06803C1.60062 6.40163 1.60062 6.71603 1.60062 7.04243C1.83822 7.07123 2.06622 7.10483 2.29662 7.12163C2.49582 7.13603 2.60862 7.22963 2.67822 7.41443C2.77422 7.67843 2.87982 7.93763 2.99982 8.19203C3.08142 8.36243 3.07662 8.50643 2.95902 8.65283C2.80542 8.84003 2.65422 9.03203 2.53662 9.17603C2.78142 9.42083 3.00942 9.64643 3.24222 9.87923C3.39582 9.75443 3.57582 9.60803 3.75342 9.46163C3.89742 9.34403 4.04142 9.32963 4.21422 9.41123C4.47342 9.53363 4.74462 9.63443 5.01102 9.74003C5.16462 9.80003 5.26542 9.89363 5.28462 10.0664C5.30862 10.3088 5.34222 10.5512 5.37342 10.8032C5.70222 10.8032 6.02382 10.8032 6.35502 10.8032C6.38142 10.5632 6.41022 10.3352 6.43182 10.1072C6.45102 9.90083 6.55902 9.79043 6.75582 9.72323C7.00062 9.64163 7.24302 9.54323 7.47342 9.42563C7.67502 9.32243 7.84062 9.33923 8.00862 9.48563C8.17662 9.63203 8.35422 9.76643 8.52702 9.90803C8.75022 9.66803 8.97102 9.44003 9.20382 9.19523Z" fill="#8A92A6"/>
<path d="M0.894978 17.7056C1.01018 17.5352 1.17098 17.4848 1.37498 17.4872C2.31338 17.4968 3.25178 17.4896 4.19018 17.492C4.51658 17.492 4.63178 17.6048 4.63178 17.9336C4.63418 19.6088 4.63418 21.284 4.63178 22.9592C4.63178 23.3024 4.50938 23.42 4.15658 23.42C3.25418 23.4224 2.35178 23.4152 1.44938 23.4248C1.22858 23.4272 1.04138 23.384 0.892578 23.216C0.894978 21.38 0.894978 19.544 0.894978 17.7056ZM1.60538 18.1928C1.60538 19.7072 1.60538 21.2024 1.60538 22.6976C2.38538 22.6976 3.14858 22.6976 3.91418 22.6976C3.91418 21.1904 3.91418 19.6952 3.91418 18.1928C3.13898 18.1928 2.38298 18.1928 1.60538 18.1928Z" fill="#8A92A6"/>
<path d="M23.1045 14.2184C23.1045 17.1248 23.1045 20.0288 23.1045 22.9352C23.1045 23.3072 22.9917 23.4224 22.6101 23.4224C21.6933 23.4224 20.7741 23.4224 19.8573 23.4224C19.4781 23.4224 19.3677 23.3096 19.3677 22.9328C19.3677 17.1224 19.3677 11.312 19.3677 5.5016C19.3677 5.1104 19.4757 5.0072 19.8717 5.0072C20.7885 5.0072 21.7077 5.0072 22.6245 5.0072C22.9893 5.0072 23.1045 5.1224 23.1045 5.4848C23.1045 8.3936 23.1045 11.3072 23.1045 14.2184ZM20.0781 5.7248C20.0781 11.3912 20.0781 17.0384 20.0781 22.6952C20.8581 22.6952 21.6261 22.6952 22.4013 22.6952C22.4013 17.0336 22.4013 11.384 22.4013 5.7248C21.6261 5.7248 20.8629 5.7248 20.0781 5.7248Z" fill="#8A92A6"/>
<path d="M14.7407 15.7544C14.7407 13.3904 14.7407 11.0264 14.7407 8.6624C14.7407 8.2304 14.8439 8.1272 15.2807 8.1272C16.1927 8.1272 17.1023 8.1272 18.0143 8.1272C18.3767 8.1272 18.4991 8.2472 18.4991 8.6072C18.4991 13.3856 18.4991 18.164 18.4991 22.9448C18.4991 23.3024 18.3743 23.4248 18.0143 23.4248C17.0951 23.4248 16.1783 23.4248 15.2591 23.4248C14.8535 23.4248 14.7407 23.3144 14.7407 22.9112C14.7407 20.5256 14.7407 18.14 14.7407 15.7544ZM17.7695 22.6952C17.7695 18.0632 17.7695 13.4552 17.7695 8.8568C16.9871 8.8568 16.2263 8.8568 15.4655 8.8568C15.4655 13.4792 15.4655 18.08 15.4655 22.6952C16.2383 22.6952 16.9991 22.6952 17.7695 22.6952Z" fill="#8A92A6"/>
<path d="M20.3663 2.6768C19.9775 2.6768 19.6439 2.6912 19.3151 2.6696C19.1831 2.66 19.0271 2.6024 18.9383 2.5112C18.8759 2.444 18.8615 2.2544 18.9143 2.18C18.9863 2.0792 19.1375 1.9808 19.2575 1.976C19.7543 1.9544 20.2535 1.9664 20.7527 1.9664C20.9039 1.9664 21.0575 1.9616 21.2087 1.9688C21.4487 1.9808 21.5831 2.1176 21.5855 2.3552C21.5903 3.0056 21.5879 3.656 21.5855 4.3064C21.5855 4.544 21.4439 4.6904 21.2375 4.6904C21.0287 4.6904 20.8967 4.5464 20.8919 4.3064C20.8871 3.9464 20.8919 3.5864 20.8919 3.1712C20.8031 3.2528 20.7479 3.3032 20.6975 3.3536C19.5359 4.5104 18.3695 5.6672 17.2127 6.8312C17.0639 6.9824 16.9079 7.0472 16.6967 7.0424C16.0247 7.0328 15.3527 7.0448 14.6807 7.0352C14.5007 7.0328 14.3711 7.088 14.2391 7.208C12.1367 9.1616 10.0295 11.108 7.9271 13.0616C7.7567 13.22 7.5815 13.2896 7.3463 13.2848C6.7535 13.2704 6.1607 13.2752 5.5679 13.2848C5.4647 13.2872 5.3423 13.3328 5.2631 13.4C4.0991 14.384 2.9399 15.3776 1.7807 16.3664C1.7423 16.4 1.7063 16.436 1.6655 16.4648C1.5047 16.58 1.2959 16.5608 1.1759 16.4216C1.0511 16.2776 1.0583 16.076 1.2119 15.9368C1.5455 15.6392 1.8887 15.3488 2.2295 15.0584C3.1295 14.288 4.0319 13.52 4.9295 12.7448C5.0639 12.6296 5.2031 12.5768 5.3807 12.5792C5.9591 12.5864 6.5375 12.572 7.1159 12.5864C7.3223 12.5912 7.4663 12.524 7.6127 12.3872C9.4199 10.7096 11.2295 9.0368 13.0391 7.364C13.3583 7.0688 13.6703 6.7688 13.9991 6.488C14.0927 6.4064 14.2391 6.3488 14.3639 6.3488C15.0863 6.3368 15.8087 6.3464 16.5335 6.3368C16.6223 6.3368 16.7351 6.296 16.7975 6.236C17.9495 5.0984 19.0967 3.9536 20.2439 2.8112C20.2727 2.7848 20.2991 2.7512 20.3663 2.6768Z" fill="#8A92A6"/>
<path d="M13.8696 17.3385C13.8696 19.2033 13.8696 21.0705 13.8696 22.9353C13.8696 23.3145 13.7592 23.4249 13.3824 23.4249C12.456 23.4249 11.532 23.4249 10.6056 23.4249C10.2528 23.4249 10.1328 23.3097 10.1328 22.9617C10.1328 19.2081 10.1328 15.4569 10.1328 11.7033C10.1328 11.3649 10.2504 11.2473 10.5888 11.2473C11.5296 11.2473 12.468 11.2473 13.4088 11.2473C13.7568 11.2473 13.8696 11.3625 13.8696 11.7177C13.8696 13.5921 13.8696 15.4641 13.8696 17.3385ZM13.1568 22.6977C13.1568 19.1145 13.1568 15.5433 13.1568 11.9649C12.3768 11.9649 11.6136 11.9649 10.8432 11.9649C10.8432 15.5505 10.8432 19.1217 10.8432 22.6977C11.6232 22.6977 12.3864 22.6977 13.1568 22.6977Z" fill="#8A92A6"/>
<path d="M9.26137 18.9104C9.26137 20.2472 9.26137 21.584 9.26137 22.9208C9.26137 23.3048 9.14377 23.4224 8.75497 23.4224C7.83817 23.4224 6.91897 23.4224 6.00217 23.4224C5.62777 23.4224 5.50537 23.3024 5.50537 22.9304C5.50537 20.2424 5.50537 17.5544 5.50537 14.8664C5.50537 14.4848 5.62057 14.3696 5.99257 14.3696C6.91657 14.3696 7.84297 14.3696 8.76697 14.3696C9.14617 14.3696 9.26137 14.4824 9.26137 14.8568C9.26137 16.208 9.26137 17.5592 9.26137 18.9104ZM8.54137 22.6976C8.54137 20.1536 8.54137 17.6216 8.54137 15.0824C7.76377 15.0824 7.00297 15.0824 6.23257 15.0824C6.23257 17.6264 6.23257 20.1584 6.23257 22.6976C7.00777 22.6976 7.77097 22.6976 8.54137 22.6976Z" fill="#8A92A6"/>
<path d="M8.76961 6.5504C8.77201 8.1488 7.46401 9.4592 5.86321 9.4616C4.26001 9.4616 2.94961 8.1632 2.94241 6.5648C2.93521 4.9568 4.24561 3.6488 5.86081 3.6488C7.47121 3.6512 8.76721 4.9424 8.76961 6.5504ZM3.65521 6.5648C3.66001 7.7816 4.65121 8.7728 5.86081 8.7704C7.08001 8.768 8.06881 7.7672 8.06161 6.5384C8.05441 5.3264 7.05601 4.3352 5.84641 4.3448C4.63201 4.3544 3.65041 5.348 3.65521 6.5648Z" fill="#8A92A6"/>
<path d="M6.91913 5.82563C6.91913 6.06323 6.79193 6.22163 6.60953 6.24803C6.42713 6.27203 6.25193 6.15203 6.23033 5.94563C6.19673 5.61923 5.88473 5.53523 5.71433 5.63363C5.62313 5.68643 5.52473 5.80883 5.51993 5.90723C5.51513 5.99123 5.62073 6.10163 5.70473 6.16403C5.76473 6.20963 5.87033 6.20723 5.95433 6.21203C6.41993 6.24803 6.79673 6.57203 6.89753 7.03283C6.98633 7.43363 6.77033 7.85603 6.37913 8.08643C6.30233 8.13203 6.23513 8.23043 6.20633 8.31923C6.14633 8.49923 6.04553 8.60963 5.85113 8.60723C5.65673 8.60483 5.56073 8.48483 5.50553 8.30723C5.47913 8.22563 5.41673 8.13443 5.34233 8.09123C5.04713 7.92083 4.86713 7.67363 4.80713 7.34243C4.76393 7.10483 4.88153 6.91043 5.07833 6.86963C5.28713 6.82883 5.44073 6.94883 5.49593 7.19843C5.54393 7.40963 5.67593 7.52723 5.87033 7.51283C6.04553 7.50083 6.17753 7.42163 6.20633 7.23443C6.23033 7.08563 6.09833 6.94163 5.91833 6.91043C5.79833 6.88883 5.67353 6.89123 5.55593 6.86003C5.14793 6.75203 4.84793 6.40403 4.79993 6.00083C4.75433 5.61443 4.97273 5.23043 5.34473 5.01683C5.41193 4.97843 5.47913 4.89683 5.49833 4.82243C5.54873 4.63043 5.65193 4.50083 5.85113 4.50083C6.05033 4.49843 6.15833 4.62323 6.20873 4.81523C6.22793 4.88963 6.29273 4.97603 6.35993 5.01443C6.70073 5.20163 6.88553 5.48003 6.91913 5.82563Z" fill="#8A92A6"/>
</svg>
