<svg width="24" height="25" viewBox="0 0 24 25" fill="none" xmlns="http://www.w3.org/2000/svg">
<path d="M11.8895 22.2536C8.67827 22.2536 5.46467 22.2536 2.25347 22.2536C1.82867 22.2536 1.74707 22.172 1.74707 21.7544C1.74707 18.1328 1.74467 14.5136 1.75187 10.892C1.75187 10.7192 1.70867 10.6328 1.54307 10.5536C0.73427 10.16 0.28787 9.50961 0.25667 8.60001C0.24227 8.17521 0.24707 7.75041 0.25187 7.32561C0.25187 7.24161 0.27347 7.15041 0.30947 7.07361C1.15907 5.26401 2.01347 3.45921 2.85587 1.64961C2.97827 1.38801 3.13907 1.28961 3.42947 1.28961C9.06947 1.29681 14.7071 1.29681 20.3471 1.28961C20.6519 1.28961 20.8079 1.39761 20.9327 1.66641C21.7727 3.47121 22.6247 5.26881 23.4719 7.06881C23.4911 7.11201 23.5199 7.15761 23.5199 7.20081C23.5103 7.80081 23.5487 8.40561 23.4671 8.99601C23.3663 9.72321 22.9031 10.2368 22.2407 10.5512C22.0799 10.628 22.0271 10.7048 22.0271 10.8848C22.0343 14.4968 22.0319 18.1088 22.0319 21.7232C22.0319 22.1744 21.9575 22.2488 21.5039 22.2488C18.2975 22.2536 15.0935 22.2536 11.8895 22.2536ZM11.8895 9.74961C10.9127 11.1176 9.04547 11.0888 8.11667 9.74961C7.22147 11.0624 5.35427 11.144 4.38227 9.79281C4.09667 10.028 3.83507 10.3112 3.51347 10.484C3.18707 10.6592 2.80067 10.724 2.43587 10.8392C2.43587 14.3912 2.43587 17.9816 2.43587 21.5648C3.11507 21.5648 3.77747 21.5648 4.45187 21.5648C4.45187 21.452 4.45187 21.356 4.45187 21.26C4.45187 19.5536 4.45187 17.8472 4.45187 16.1432C4.45187 15.68 4.54307 15.5864 4.99427 15.5864C6.34067 15.5864 7.68467 15.5864 9.03107 15.5864C9.47267 15.5864 9.57107 15.6848 9.57107 16.1192C9.57107 17.84 9.57107 19.5632 9.57107 21.284C9.57107 21.3776 9.57107 21.4688 9.57107 21.5672C13.5167 21.5672 17.4287 21.5672 21.3479 21.5672C21.3479 17.9624 21.3479 14.372 21.3479 10.7816C20.3951 10.6592 20.3495 10.6352 19.4183 9.75921C18.4295 11.144 16.5575 11.0576 15.6623 9.74721C14.7431 11.0864 12.8759 11.1224 11.8895 9.74961ZM5.15027 16.2896C5.15027 18.0608 5.15027 19.8152 5.15027 21.5648C6.40547 21.5648 7.64147 21.5648 8.87987 21.5648C8.87987 19.7984 8.87987 18.0512 8.87987 16.2896C7.62947 16.2896 6.39347 16.2896 5.15027 16.2896ZM8.79107 1.98321C7.80707 1.98321 6.85667 1.98321 5.89907 1.98321C5.52467 3.63201 5.15267 5.27121 4.77587 6.93201C5.80067 6.93201 6.79187 6.93441 7.78307 6.92241C7.83827 6.92241 7.92947 6.79761 7.94387 6.71841C8.10707 5.85441 8.26067 4.99041 8.41427 4.12401C8.54147 3.41841 8.66387 2.71041 8.79107 1.98321ZM14.9951 1.97601C15.0071 2.07921 15.0143 2.15841 15.0287 2.23761C15.2951 3.72321 15.5663 5.20881 15.8207 6.69681C15.8543 6.89601 15.9311 6.93681 16.1135 6.93441C16.9943 6.92721 17.8751 6.93201 18.7559 6.93201C18.8327 6.93201 18.9071 6.93201 19.0031 6.93201C18.6215 5.25681 18.2495 3.61521 17.8775 1.97601C16.9079 1.97601 15.9647 1.97601 14.9951 1.97601ZM9.47987 1.98081C9.18707 3.62481 8.89427 5.26401 8.59907 6.92001C9.59987 6.92001 10.5647 6.92001 11.5415 6.92001C11.5415 5.26881 11.5415 3.63201 11.5415 1.98081C10.8527 1.98081 10.1759 1.98081 9.47987 1.98081ZM12.2399 1.97601C12.2399 3.63681 12.2399 5.27601 12.2399 6.91761C13.2191 6.91761 14.1863 6.91761 15.1799 6.91761C14.8823 5.25921 14.5919 3.62001 14.2991 1.97601C13.6007 1.97601 12.9287 1.97601 12.2399 1.97601ZM1.12787 6.92001C2.14067 6.92001 3.10787 6.92001 4.08707 6.92001C4.46147 5.27121 4.83347 3.63201 5.21267 1.96641C4.69907 1.96641 4.20467 1.97601 3.71027 1.96161C3.52547 1.95681 3.43187 2.00721 3.35027 2.18241C2.78867 3.40161 2.21267 4.61361 1.64387 5.82801C1.47587 6.18561 1.30787 6.53601 1.12787 6.92001ZM22.6199 6.92241C22.6199 6.88161 22.6223 6.87441 22.6199 6.86721C21.8687 5.26881 21.1199 3.67041 20.3663 2.07441C20.3447 2.02881 20.2775 1.97361 20.2319 1.97361C19.6823 1.96641 19.1351 1.96881 18.5663 1.96881C18.9455 3.63921 19.3175 5.27841 19.6919 6.92241C20.6783 6.92241 21.6455 6.92241 22.6199 6.92241ZM8.47187 7.64721C8.47187 7.97121 8.47187 8.27361 8.47187 8.57601C8.47187 9.33201 9.01907 9.98721 9.73907 10.0928C10.5335 10.2104 11.3015 9.76161 11.4767 9.00081C11.5775 8.56881 11.5487 8.10561 11.5799 7.64481C10.5167 7.64721 9.51347 7.64721 8.47187 7.64721ZM12.2255 7.64961C12.2255 7.98081 12.2231 8.28561 12.2255 8.58801C12.2327 9.23121 12.6407 9.80001 13.2431 10.0184C13.8407 10.2368 14.4983 10.064 14.9279 9.59601C15.4607 9.01521 15.2783 8.31681 15.2999 7.64721C14.2607 7.64961 13.2551 7.64961 12.2255 7.64961ZM0.92387 7.64721C0.92387 7.97841 0.91907 8.28801 0.92387 8.60001C0.93587 9.38961 1.50707 10.004 2.31827 10.1024C3.06947 10.1936 3.80867 9.69201 3.95267 8.93601C4.03187 8.52081 4.00307 8.08401 4.02467 7.64961C2.97107 7.64721 1.96547 7.64721 0.92387 7.64721ZM22.8743 7.65681C21.8063 7.65681 20.7959 7.65681 19.7711 7.65681C19.7711 7.96881 19.7711 8.26401 19.7711 8.55921C19.7735 9.33681 20.3423 10.016 21.0767 10.0976C21.9431 10.1936 22.6535 9.70401 22.8023 8.93121C22.8791 8.52081 22.8527 8.09121 22.8743 7.65681ZM4.68707 7.65441C4.68707 7.97841 4.67747 8.29041 4.68947 8.60001C4.72067 9.37281 5.28707 9.98241 6.06707 10.0904C6.75107 10.1864 7.51187 9.73761 7.68467 9.04881C7.79507 8.60481 7.76147 8.12481 7.79267 7.65681C6.72227 7.65441 5.71667 7.65441 4.68707 7.65441ZM16.0127 7.64961C16.0127 7.97121 16.0127 8.26641 16.0127 8.56401C16.0175 9.36081 16.5839 9.99201 17.3879 10.0904C18.1127 10.1792 18.8783 9.67521 19.0295 8.94321C19.1159 8.52801 19.0895 8.09121 19.1135 7.65201C18.0551 7.64961 17.0495 7.64961 16.0127 7.64961Z" fill="#8A92A6"/>
<path d="M19.0342 17.588C19.1542 17.588 19.2406 17.5856 19.327 17.588C19.5574 17.5976 19.687 17.7176 19.6846 17.9192C19.6846 18.1136 19.5478 18.248 19.327 18.2576C19.111 18.2672 18.895 18.2624 18.679 18.2624C16.3246 18.2624 13.9726 18.26 11.6182 18.2576C11.539 18.2576 11.455 18.2552 11.383 18.2312C11.2198 18.176 11.1406 18.0512 11.1622 17.8784C11.1814 17.7032 11.287 17.6048 11.4622 17.5928C11.5654 17.5856 11.6686 17.5904 11.7958 17.5904C11.8006 17.4776 11.8102 17.3864 11.8102 17.2928C11.8102 16.148 11.8102 15.0032 11.8102 13.8584C11.8102 13.3184 11.9734 13.1552 12.511 13.1552C14.4574 13.1552 16.4014 13.1552 18.3478 13.1552C18.8662 13.1552 19.0342 13.3256 19.0342 13.8512C19.0342 14.9888 19.0342 16.124 19.0342 17.2616C19.0342 17.3576 19.0342 17.4536 19.0342 17.588ZM18.3526 13.856C16.3822 13.856 14.443 13.856 12.5134 13.856C12.5134 15.104 12.5134 16.3328 12.5134 17.5448C12.5398 17.5616 12.547 17.5712 12.5542 17.5712C14.4334 17.5736 16.315 17.576 18.1942 17.5832C18.3526 17.5832 18.3526 17.492 18.3526 17.3816C18.3502 16.8464 18.3526 16.3088 18.3526 15.7736C18.3526 15.1376 18.3526 14.5064 18.3526 13.856Z" fill="#8A92A6"/>
</svg>
