<svg width="22" height="25" viewBox="0 0 22 25" fill="none" xmlns="http://www.w3.org/2000/svg">
<path fill-rule="evenodd" clip-rule="evenodd" d="M10.9772 1.4998C9.18261 1.4998 7.72783 2.95458 7.72783 4.74915V12.2477C7.72783 14.0422 9.18261 15.497 10.9772 15.497C12.7717 15.497 14.2265 14.0422 14.2265 12.2477V4.74915C14.2265 2.95458 12.7717 1.4998 10.9772 1.4998ZM6.72803 4.74915C6.72803 2.40241 8.63044 0.5 10.9772 0.5C13.3239 0.5 15.2263 2.40241 15.2263 4.74915V12.2477C15.2263 14.5944 13.3239 16.4968 10.9772 16.4968C8.63044 16.4968 6.72803 14.5944 6.72803 12.2477V4.74915Z" fill="#8A92A6"/>
<path fill-rule="evenodd" clip-rule="evenodd" d="M2.8461 2.66272C3.10271 2.66272 3.31072 2.87074 3.31072 3.12734V7.77358C3.31072 8.03018 3.10271 8.2382 2.8461 8.2382C2.5895 8.2382 2.38148 8.03018 2.38148 7.77358V3.12734C2.38148 2.87074 2.5895 2.66272 2.8461 2.66272ZM19.1079 2.66272C19.3645 2.66272 19.5725 2.87074 19.5725 3.12734V7.77358C19.5725 8.03018 19.3645 8.2382 19.1079 8.2382C18.8513 8.2382 18.6433 8.03018 18.6433 7.77358V3.12734C18.6433 2.87074 18.8513 2.66272 19.1079 2.66272ZM0.464622 3.82428C0.721226 3.82428 0.929244 4.0323 0.929244 4.2889V6.61202C0.929244 6.86862 0.721226 7.07664 0.464622 7.07664C0.208018 7.07664 0 6.86862 0 6.61202V4.2889C0 4.0323 0.208018 3.82428 0.464622 3.82428ZM21.4894 3.82428C21.746 3.82428 21.954 4.0323 21.954 4.2889V6.61202C21.954 6.86862 21.746 7.07664 21.4894 7.07664C21.2328 7.07664 21.0248 6.86862 21.0248 6.61202V4.2889C21.0248 4.0323 21.2328 3.82428 21.4894 3.82428ZM2.84608 9.63207C3.10269 9.63207 3.31071 9.84009 3.31071 10.0967V11.2583C3.31071 13.2915 4.1184 15.2414 5.55611 16.6791C6.99382 18.1168 8.94377 18.9245 10.977 18.9245C13.0102 18.9245 14.9602 18.1168 16.3979 16.6791C17.8356 15.2414 18.6433 13.2915 18.6433 11.2583V10.0967C18.6433 9.84009 18.8513 9.63207 19.1079 9.63207C19.3645 9.63207 19.5725 9.84009 19.5725 10.0967V11.2583C19.5725 13.5379 18.6669 15.7242 17.055 17.3362C15.5528 18.8383 13.552 19.7271 11.4416 19.8412V23.5708H14.4617C14.7183 23.5708 14.9263 23.7788 14.9263 24.0354C14.9263 24.292 14.7183 24.5 14.4617 24.5H7.49232C7.23571 24.5 7.02769 24.292 7.02769 24.0354C7.02769 23.7788 7.23571 23.5708 7.49232 23.5708H10.5124V19.8412C8.40199 19.7271 6.40115 18.8383 4.89903 17.3362C3.28706 15.7242 2.38146 13.5379 2.38146 11.2583V10.0967C2.38146 9.84009 2.58948 9.63207 2.84608 9.63207Z" fill="#8A92A6"/>
</svg>
