<svg width="24" height="25" viewBox="0 0 24 25" fill="none" xmlns="http://www.w3.org/2000/svg">
<g clip-path="url(#clip0_189_5691)">
<path d="M0.47998 15.5888C0.62398 15.4256 0.80638 15.3896 1.01998 15.392C1.77598 15.4016 2.53198 15.3944 3.31438 15.3944C3.31918 15.284 3.32638 15.1904 3.32638 15.0968C3.32638 12.464 3.32638 9.8312 3.32638 7.1984C3.32638 6.728 3.41998 6.6368 3.89278 6.6368C5.20558 6.6368 6.51838 6.6368 7.83118 6.6368C7.91038 6.6368 7.99198 6.6368 8.09518 6.6368C8.09518 6.5264 8.09518 6.4376 8.09518 6.3488C8.09518 4.8032 8.09518 3.2576 8.09518 1.7144C8.09518 1.2848 8.19598 1.1792 8.61838 1.1792C10.8768 1.1792 13.1328 1.1792 15.3912 1.1792C15.8184 1.1792 15.912 1.2752 15.912 1.7144C15.912 5.24 15.912 8.7656 15.912 12.2888C15.912 12.3848 15.912 12.4832 15.912 12.6128C16.0128 12.6128 16.0992 12.6128 16.1856 12.6128C17.5968 12.6128 19.0056 12.6128 20.4144 12.6128C20.8344 12.6128 20.9232 12.7016 20.9232 13.1312C20.9232 13.4384 20.928 13.7456 20.9208 14.0528C20.916 14.3192 20.7864 14.4632 20.5752 14.4608C20.364 14.4584 20.2392 14.3072 20.2368 14.0456C20.2344 13.8056 20.2368 13.568 20.2368 13.3112C18.2856 13.3112 16.3464 13.3112 14.3928 13.3112C14.3928 16.6832 14.3928 20.0552 14.3928 23.444C16.3248 23.444 18.2616 23.444 20.2368 23.444C20.2368 23.3696 20.2368 23.2832 20.2368 23.1968C20.2368 20.7752 20.2368 18.3512 20.2368 15.9296C20.2368 15.8624 20.2344 15.7952 20.2392 15.728C20.2536 15.524 20.3952 15.3752 20.5776 15.3728C20.7576 15.3704 20.9136 15.512 20.9184 15.7184C20.928 16.2368 20.9256 16.7528 20.9256 17.2712C20.9256 17.6744 20.9256 18.0776 20.9256 18.5144C21.024 18.5144 21.1032 18.5144 21.1824 18.5144C21.8208 18.5144 22.4568 18.512 23.0952 18.5144C23.3976 18.5144 23.52 18.6344 23.52 18.9344C23.52 20.5328 23.52 22.1312 23.52 23.7272C23.52 24.0272 23.4024 24.1448 23.0952 24.1472C22.1664 24.1496 21.2352 24.1472 20.3064 24.1472C13.8864 24.1472 7.46638 24.1472 1.04638 24.152C0.830381 24.152 0.63358 24.1304 0.48238 23.96C0.47998 21.1688 0.47998 18.3776 0.47998 15.5888ZM10.332 6.6272C10.4112 6.6296 10.4616 6.6344 10.512 6.6344C11.088 6.6416 11.1408 6.6944 11.1408 7.2656C11.1408 12.5672 11.1408 17.8688 11.1408 23.1704C11.1408 23.264 11.1408 23.3576 11.1408 23.4488C12.0024 23.4488 12.8304 23.4488 13.6704 23.4488C13.6704 23.336 13.6704 23.24 13.6704 23.1416C13.6704 19.8056 13.6704 16.4672 13.6704 13.1312C13.6704 12.7184 13.776 12.6152 14.1888 12.6128C14.5248 12.6128 14.8584 12.6128 15.1992 12.6128C15.1992 9.0152 15.1992 5.4488 15.1992 1.8752C13.0608 1.8752 10.9368 1.8752 8.81518 1.8752C8.81518 3.4664 8.81518 5.0456 8.81518 6.6248C9.09358 6.6248 9.35278 6.6248 9.64078 6.6248C9.64078 6.4136 9.63358 6.2144 9.64318 6.0128C9.65278 5.7584 9.79918 5.6 10.0008 5.6096C10.1976 5.6192 10.3272 5.7776 10.332 6.0176C10.3368 6.2144 10.332 6.4088 10.332 6.6272ZM10.4304 18.5744C10.4304 18.0224 10.4304 17.5088 10.4304 16.9928C8.29198 16.9928 6.16798 16.9928 4.04158 16.9928C4.04158 17.5232 4.04158 18.0368 4.04158 18.5744C4.13518 18.5744 4.21438 18.5744 4.29598 18.5744C4.75438 18.5744 5.21038 18.572 5.66878 18.5768C5.96398 18.5792 6.11758 18.7088 6.11038 18.9392C6.10558 19.1552 5.95198 19.2752 5.66878 19.2752C5.19598 19.2776 4.72318 19.2752 4.25278 19.2752C4.18078 19.2752 4.11118 19.2752 4.04158 19.2752C4.04158 19.8296 4.04158 20.3432 4.04158 20.8712C6.17518 20.8712 8.29918 20.8712 10.4328 20.8712C10.4328 20.336 10.4328 19.8152 10.4328 19.2752C10.3296 19.2752 10.2408 19.2752 10.152 19.2752C9.24478 19.2752 8.33758 19.2776 7.43038 19.2728C7.18798 19.2728 7.03438 19.136 7.02718 18.9368C7.01998 18.74 7.16878 18.5984 7.40638 18.5768C7.46638 18.572 7.52638 18.5744 7.58638 18.5744C8.31358 18.5744 9.04078 18.5744 9.76798 18.5744C9.98398 18.5744 10.2 18.5744 10.4304 18.5744ZM4.03918 9.3656C4.14478 9.3656 4.23358 9.3656 4.32238 9.3656C6.19678 9.3656 8.06878 9.3656 9.94318 9.3656C10.4472 9.3656 10.4472 9.3656 10.4472 8.8592C10.4472 8.3576 10.4472 7.8584 10.4472 7.3424C8.29918 7.3424 6.17518 7.3424 4.03918 7.3424C4.03918 8.012 4.03918 8.6696 4.03918 9.3656ZM3.31198 23.4512C3.31198 20.9888 3.31198 18.5456 3.31198 16.1C2.59198 16.1 1.88398 16.1 1.17838 16.1C1.17838 18.56 1.17838 20.9984 1.17838 23.4512C1.88878 23.4512 2.58958 23.4512 3.31198 23.4512ZM4.03678 23.4464C6.18478 23.4464 8.30878 23.4464 10.4328 23.4464C10.4328 22.8176 10.4328 22.2056 10.4328 21.5864C8.29438 21.5864 6.17038 21.5864 4.03678 21.5864C4.03678 22.2128 4.03678 22.8248 4.03678 23.4464ZM10.44 10.0664C8.29438 10.0664 6.17038 10.0664 4.04878 10.0664C4.04878 10.6064 4.04878 11.132 4.04878 11.6528C6.18958 11.6528 8.31118 11.6528 10.44 11.6528C10.44 11.1176 10.44 10.6016 10.44 10.0664ZM4.03678 16.2512C6.18478 16.2512 8.30878 16.2512 10.4328 16.2512C10.4328 15.7184 10.4328 15.2024 10.4328 14.6792C8.29438 14.6792 6.17038 14.6792 4.03678 14.6792C4.03678 15.2096 4.03678 15.7232 4.03678 16.2512ZM10.4328 12.3704C8.29438 12.3704 6.17038 12.3704 4.04398 12.3704C4.04398 12.908 4.04398 13.4288 4.04398 13.9568C6.17998 13.9568 8.30638 13.9568 10.4328 13.9568C10.4328 13.4216 10.4328 12.9008 10.4328 12.3704ZM20.9448 19.2128C20.9448 20.6264 20.9448 22.0352 20.9448 23.4512C21.5712 23.4512 22.1904 23.4512 22.8192 23.4512C22.8192 22.0352 22.8192 20.6288 22.8192 19.2128C22.2 19.2128 21.5928 19.2128 20.9448 19.2128Z" fill="#8A92A6"/>
<path d="M18.7944 7.76238C19.4376 7.76238 20.0832 7.75998 20.7264 7.76478C20.8296 7.76478 20.9568 7.76478 21.0264 7.81998C21.1152 7.88958 21.2136 8.02398 21.204 8.12238C21.1944 8.23038 21.084 8.34558 20.988 8.42478C20.928 8.47278 20.8152 8.46318 20.7288 8.46318C19.4328 8.46558 18.1368 8.46558 16.8432 8.46318C16.7616 8.46318 16.6584 8.47038 16.6056 8.42718C16.5096 8.35038 16.3848 8.23518 16.3848 8.13678C16.3848 8.02398 16.4928 7.89438 16.584 7.80798C16.6368 7.75758 16.7544 7.76478 16.8408 7.76478C17.4912 7.76238 18.144 7.76238 18.7944 7.76238Z" fill="#8A92A6"/>
<path d="M17.2969 19.5416C16.7209 19.5416 16.1425 19.544 15.5665 19.5392C15.4777 19.5392 15.3625 19.5488 15.3073 19.5008C15.2089 19.4168 15.0841 19.2896 15.0865 19.184C15.0889 19.0784 15.2257 18.9656 15.3193 18.872C15.3529 18.8384 15.4321 18.8384 15.4921 18.8384C16.6993 18.836 17.9065 18.836 19.1137 18.8384C19.1881 18.8384 19.2865 18.8384 19.3273 18.8816C19.4137 18.9704 19.5217 19.0856 19.5265 19.196C19.5313 19.2944 19.4257 19.4192 19.3369 19.4912C19.2721 19.544 19.1521 19.5392 19.0561 19.5392C18.4657 19.544 17.8801 19.5416 17.2969 19.5416Z" fill="#8A92A6"/>
<path d="M17.2993 21.1592C16.7233 21.1592 16.1449 21.1616 15.5689 21.1568C15.4801 21.1568 15.3673 21.1664 15.3097 21.1184C15.2113 21.0344 15.0913 20.9144 15.0841 20.8016C15.0793 20.7008 15.1969 20.5736 15.2929 20.4968C15.3577 20.4464 15.4777 20.4536 15.5737 20.4536C16.7281 20.4512 17.8825 20.4512 19.0369 20.4536C19.1257 20.4536 19.2409 20.4416 19.2961 20.4896C19.3945 20.5736 19.5193 20.6984 19.5193 20.8064C19.5193 20.912 19.3921 21.0368 19.2913 21.1184C19.2337 21.1664 19.1185 21.1544 19.0297 21.1544C18.4537 21.1592 17.8777 21.1592 17.2993 21.1592Z" fill="#8A92A6"/>
<path d="M17.3281 22.0736C17.9041 22.0736 18.4825 22.0712 19.0585 22.076C19.1545 22.076 19.2745 22.0736 19.3369 22.1264C19.4257 22.1984 19.5265 22.328 19.5193 22.4264C19.5121 22.5344 19.4065 22.6568 19.3105 22.7312C19.2457 22.7816 19.1233 22.7744 19.0273 22.7744C17.8729 22.7768 16.7185 22.7768 15.5641 22.7768C15.5569 22.7768 15.5497 22.7768 15.5425 22.7768C15.2353 22.772 15.0601 22.6424 15.0625 22.4216C15.0649 22.2008 15.2377 22.076 15.5497 22.076C16.1449 22.0736 16.7353 22.0736 17.3281 22.0736Z" fill="#8A92A6"/>
<path d="M17.2921 16.304C16.7065 16.304 16.1233 16.3064 15.5377 16.3016C15.4489 16.3016 15.3361 16.3064 15.2809 16.256C15.1897 16.1744 15.0745 16.0424 15.0841 15.944C15.0961 15.8336 15.2185 15.7136 15.3217 15.6392C15.3889 15.5912 15.5089 15.6056 15.6049 15.6032C16.7377 15.6008 17.8681 15.6008 19.0009 15.6032C19.3681 15.6032 19.5481 15.7232 19.5385 15.9656C19.5313 16.196 19.3585 16.304 19.0009 16.304C18.4297 16.304 17.8609 16.304 17.2921 16.304Z" fill="#8A92A6"/>
<path d="M17.2942 17.9216C16.7014 17.9216 16.1086 17.9312 15.5182 17.9144C15.391 17.912 15.2326 17.852 15.1462 17.7632C14.9854 17.6024 15.0742 17.3312 15.2926 17.2568C15.3814 17.2256 15.4846 17.2208 15.5806 17.2208C16.7278 17.2184 17.875 17.2184 19.0198 17.2184C19.0654 17.2184 19.111 17.216 19.1542 17.2208C19.3918 17.2424 19.543 17.384 19.5358 17.5784C19.531 17.7752 19.3774 17.9168 19.1374 17.9192C18.523 17.9264 17.9086 17.9216 17.2942 17.9216Z" fill="#8A92A6"/>
<path d="M17.3113 14.684C16.7185 14.684 16.1281 14.6864 15.5353 14.6816C15.4465 14.6816 15.3313 14.6864 15.2785 14.636C15.1873 14.5544 15.0745 14.42 15.0841 14.3216C15.0961 14.2112 15.2233 14.096 15.3241 14.0168C15.3841 13.9712 15.4969 13.9856 15.5857 13.9856C16.7257 13.9832 17.8633 13.9832 19.0033 13.9856C19.3657 13.9856 19.5313 14.0936 19.5361 14.3264C19.5433 14.5664 19.3681 14.6816 18.9961 14.6816C18.4345 14.684 17.8729 14.684 17.3113 14.684Z" fill="#8A92A6"/>
<path d="M5.13343 4.42402C4.65343 4.42402 4.17343 4.42882 3.69343 4.42162C3.37903 4.41682 3.18223 4.15042 3.34063 3.92002C3.40783 3.82162 3.57103 3.73282 3.69103 3.73282C4.65823 3.71842 5.62543 3.72082 6.59263 3.72802C6.83503 3.73042 6.98383 3.87922 6.98623 4.07362C6.98863 4.28002 6.82783 4.41922 6.57343 4.42162C6.09343 4.42642 5.61343 4.42402 5.13343 4.42402Z" fill="#8A92A6"/>
<path d="M20.6618 9.20235C21.1346 9.20235 21.6074 9.19995 22.0778 9.20235C22.3514 9.20475 22.517 9.33675 22.5194 9.54555C22.5218 9.75195 22.3562 9.89595 22.085 9.89835C21.1394 9.90315 20.1962 9.90315 19.2506 9.89835C18.9698 9.89595 18.821 9.76155 18.8258 9.54075C18.8306 9.32475 18.9866 9.20235 19.265 9.19995C19.733 9.19995 20.1986 9.20235 20.6618 9.20235Z" fill="#8A92A6"/>
<path d="M3.40545 5.55681C2.93985 5.55681 2.47665 5.55921 2.01105 5.55681C1.73265 5.55441 1.57185 5.42481 1.57425 5.21361C1.57665 5.00241 1.73745 4.87521 2.01825 4.87521C2.97105 4.87281 3.92144 4.87281 4.87424 4.87521C5.17184 4.87521 5.34225 5.09361 5.24625 5.33841C5.17905 5.50881 5.03985 5.55921 4.86705 5.55681C4.37985 5.55681 3.89265 5.55681 3.40545 5.55681Z" fill="#8A92A6"/>
<path d="M12.355 12.4592C12.355 12.6152 12.3622 12.7736 12.3526 12.9296C12.3406 13.1456 12.2134 13.28 12.0286 13.292C11.827 13.304 11.6758 13.1816 11.6638 12.9512C11.647 12.608 11.6494 12.2624 11.6662 11.9216C11.6758 11.7128 11.839 11.5808 12.0166 11.588C12.199 11.5952 12.3382 11.7344 12.3502 11.9456C12.3622 12.116 12.3526 12.2864 12.355 12.4592Z" fill="#8A92A6"/>
<path d="M12.3526 3.5168C12.3526 3.6728 12.3598 3.8312 12.3502 3.9872C12.3358 4.2032 12.2062 4.3352 12.0166 4.34C11.8222 4.3472 11.6758 4.232 11.6638 4.0136C11.647 3.6632 11.6494 3.3104 11.6662 2.96C11.6758 2.7656 11.8006 2.6456 12.0022 2.636C12.1822 2.6264 12.3238 2.7752 12.3502 2.9792C12.3526 2.9936 12.3526 3.008 12.3526 3.0248C12.355 3.1856 12.355 3.3512 12.3526 3.5168C12.355 3.5168 12.355 3.5168 12.3526 3.5168Z" fill="#8A92A6"/>
<path d="M14.376 3.49997C14.376 3.65597 14.3832 3.81437 14.3736 3.97037C14.3592 4.20077 14.2272 4.33517 14.0328 4.33997C13.8264 4.34477 13.6848 4.20557 13.6776 3.96317C13.668 3.64877 13.668 3.33437 13.6776 3.01997C13.6848 2.78477 13.836 2.63117 14.0304 2.63357C14.2224 2.63597 14.3664 2.79197 14.376 3.02717C14.3832 3.18557 14.376 3.34157 14.376 3.49997Z" fill="#8A92A6"/>
<path d="M12.3529 18.4376C12.3529 18.6032 12.3625 18.7664 12.3505 18.932C12.3361 19.1456 12.2017 19.2752 12.0145 19.28C11.8225 19.2848 11.6761 19.1672 11.6641 18.9488C11.6473 18.6056 11.6497 18.26 11.6641 17.9192C11.6737 17.7104 11.8321 17.5736 12.0073 17.576C12.1969 17.5784 12.3385 17.7248 12.3505 17.948C12.3625 18.1088 12.3553 18.2744 12.3529 18.4376Z" fill="#8A92A6"/>
<path d="M12.3528 9.44958C12.3528 9.61518 12.36 9.77838 12.3504 9.94158C12.3384 10.1504 12.1992 10.2944 12.0192 10.304C11.8416 10.3136 11.676 10.1816 11.6664 9.97278C11.6496 9.62238 11.6496 9.26958 11.6664 8.92158C11.6784 8.71038 11.8368 8.58558 12.0216 8.59518C12.204 8.60478 12.3384 8.74398 12.3504 8.95758C12.3624 9.12078 12.3528 9.28638 12.3528 9.44958Z" fill="#8A92A6"/>
<path d="M12.355 15.4448C12.355 15.6008 12.3622 15.7592 12.3526 15.9152C12.3406 16.136 12.2014 16.2872 12.0142 16.2944C11.8318 16.2992 11.671 16.1528 11.6614 15.932C11.647 15.596 11.647 15.26 11.6638 14.924C11.6758 14.7056 11.8174 14.5832 12.007 14.5856C12.2014 14.5856 12.3334 14.7272 12.3526 14.9528C12.355 14.9672 12.3526 14.9816 12.3526 14.9984C12.355 15.1472 12.355 15.296 12.355 15.4448Z" fill="#8A92A6"/>
<path d="M14.3736 9.44721C14.3736 9.61281 14.3832 9.77601 14.3712 9.93921C14.3544 10.1576 14.2032 10.3064 14.0208 10.304C13.836 10.3016 13.6848 10.1528 13.6776 9.93201C13.6656 9.61041 13.668 9.28881 13.6776 8.96721C13.6848 8.73921 13.824 8.59761 14.0184 8.59521C14.2176 8.59041 14.3616 8.73681 14.376 8.97441C14.3832 9.13281 14.376 9.28881 14.3736 9.44721C14.376 9.44721 14.376 9.44721 14.3736 9.44721Z" fill="#8A92A6"/>
<path d="M13.675 6.47361C13.675 6.30801 13.6654 6.14481 13.6774 5.98161C13.6918 5.76561 13.843 5.61201 14.0254 5.61441C14.2078 5.61441 14.3638 5.76801 14.371 5.98641C14.383 6.31521 14.383 6.64401 14.3686 6.97281C14.359 7.20081 14.2102 7.32801 14.011 7.32081C13.8214 7.31361 13.699 7.18641 13.675 6.96801C13.6726 6.95361 13.6726 6.93921 13.6726 6.92241C13.6726 6.77121 13.6726 6.62241 13.675 6.47361Z" fill="#8A92A6"/>
<path d="M12.353 21.4184C12.353 21.584 12.3602 21.7472 12.3506 21.9104C12.3386 22.1312 12.1922 22.28 12.005 22.2824C11.8298 22.2824 11.6714 22.1432 11.6618 21.9344C11.6474 21.5912 11.645 21.248 11.6642 20.9048C11.6762 20.6864 11.8226 20.5688 12.0146 20.5736C12.2018 20.5784 12.3362 20.7104 12.3506 20.924C12.3626 21.0896 12.353 21.2552 12.353 21.4184Z" fill="#8A92A6"/>
<path d="M12.3553 6.46639C12.3553 6.62959 12.3625 6.79519 12.3529 6.95839C12.3409 7.17439 12.2137 7.30879 12.0265 7.31599C11.8249 7.32559 11.6761 7.20319 11.6641 6.97279C11.6473 6.63679 11.6497 6.30079 11.6641 5.96479C11.6737 5.74639 11.8417 5.59999 12.0217 5.60719C12.2089 5.61679 12.3457 5.76799 12.3553 5.99119C12.3601 6.15199 12.3553 6.30799 12.3553 6.46639Z" fill="#8A92A6"/>
<path d="M10.3321 3.48802C10.3321 3.65362 10.3369 3.81682 10.3297 3.98242C10.3201 4.19602 10.1929 4.33282 10.0057 4.34002C9.8017 4.34962 9.6577 4.22722 9.6481 3.99682C9.6337 3.66082 9.6361 3.32482 9.6481 2.98882C9.6553 2.77042 9.8161 2.62642 10.0009 2.63362C10.1905 2.64322 10.3225 2.79202 10.3297 3.01762C10.3369 3.17362 10.3321 3.32962 10.3321 3.48802Z" fill="#8A92A6"/>
<path d="M14.3714 11.9336C14.369 12.1184 14.2106 12.2672 14.021 12.2648C13.8314 12.2624 13.6778 12.1088 13.6802 11.924C13.6826 11.744 13.8506 11.5832 14.0282 11.5856C14.2058 11.5904 14.3738 11.7608 14.3714 11.9336Z" fill="#8A92A6"/>
<path d="M2.59209 17.4176C2.59209 17.5592 2.59689 17.7008 2.59209 17.8424C2.58249 18.0512 2.44569 18.188 2.26089 18.1952C2.07369 18.2 1.92489 18.068 1.91769 17.8616C1.90569 17.564 1.90569 17.264 1.91769 16.9664C1.92489 16.7552 2.06889 16.6256 2.25609 16.6256C2.44329 16.628 2.58249 16.7648 2.59449 16.9712C2.59929 17.12 2.59209 17.2688 2.59209 17.4176Z" fill="#8A92A6"/>
<path d="M2.59209 22.1456C2.59209 22.2944 2.59929 22.4456 2.58969 22.5944C2.57529 22.7864 2.43129 22.9184 2.25369 22.9208C2.07849 22.9232 1.92489 22.7912 1.91769 22.6016C1.90569 22.2896 1.90569 21.9752 1.91769 21.6608C1.92489 21.464 2.07369 21.3464 2.25849 21.3488C2.43849 21.3536 2.57769 21.4832 2.58969 21.6752C2.59929 21.8336 2.59209 21.9896 2.59209 22.1456Z" fill="#8A92A6"/>
<path d="M2.59182 19.7696C2.59182 19.9184 2.59902 20.0696 2.58942 20.216C2.57742 20.42 2.43102 20.5616 2.24622 20.552C2.04942 20.54 1.92222 20.4344 1.91502 20.2304C1.90542 19.9256 1.90782 19.6184 1.91502 19.3136C1.91982 19.1072 2.04942 19.0016 2.24382 18.9872C2.42382 18.9728 2.57262 19.124 2.59182 19.3232C2.59422 19.3376 2.59422 19.352 2.59422 19.3688C2.59422 19.5008 2.59422 19.6352 2.59182 19.7696Z" fill="#8A92A6"/>
<path d="M21.5422 20.8424C21.5422 20.6792 21.535 20.5136 21.5446 20.3504C21.5542 20.1584 21.6982 20.024 21.8758 20.0216C22.0534 20.0192 22.2094 20.1512 22.2142 20.3384C22.2238 20.6816 22.2262 21.0248 22.2118 21.368C22.2046 21.5576 22.075 21.6608 21.8854 21.668C21.7006 21.6752 21.5566 21.548 21.5446 21.3584C21.5326 21.1856 21.5422 21.0128 21.5422 20.8424Z" fill="#8A92A6"/>
</g>
<defs>
<clipPath id="clip0_189_5691">
<rect width="24" height="24" fill="white" transform="translate(0 0.5)"/>
</clipPath>
</defs>
</svg>
