<svg width="24" height="25" viewBox="0 0 24 25" fill="none" xmlns="http://www.w3.org/2000/svg">
<g clip-path="url(#clip0_189_5478)">
<path d="M13.0873 1.5272C13.2697 1.6184 13.4689 1.6832 13.6273 1.8032C14.0017 2.0816 14.1337 2.48 14.1337 2.9384C14.1313 5.624 14.1313 8.3096 14.1313 10.9952C14.1313 11.072 14.1313 11.1512 14.1313 11.2856C14.6089 10.6856 15.1777 10.4888 15.8833 10.6664C16.2433 9.7976 16.8889 9.4568 17.8177 9.6488C17.8441 9.5888 17.8681 9.5312 17.8945 9.4712C18.1417 8.936 18.5713 8.6504 19.1449 8.6072C19.7305 8.5616 20.2321 8.7728 20.5153 9.2984C21.2857 10.7384 22.1113 12.1568 22.6297 13.7192C22.7641 14.1272 22.8745 14.5448 23.0089 14.9528C23.1457 15.3752 23.2705 15.8024 23.4457 16.2104C23.8753 17.216 23.5057 18.3968 22.5673 18.9392C22.3417 19.0712 22.1665 19.0448 22.0537 18.8672C21.9385 18.6848 21.9937 18.5168 22.2145 18.3776C22.9297 17.9264 23.1289 17.1752 22.8001 16.3928C22.5817 15.872 22.4305 15.32 22.2697 14.7752C21.9625 13.7288 21.5665 12.7184 21.0625 11.7488C20.7025 11.0552 20.3401 10.3616 19.9729 9.6728C19.8121 9.3704 19.5049 9.2096 19.1905 9.2576C18.8401 9.3128 18.5641 9.4856 18.4777 9.848C18.4465 9.9776 18.4633 10.1408 18.5185 10.2632C18.6769 10.6088 18.8665 10.9376 19.0417 11.276C19.1617 11.5088 19.1185 11.6888 18.9289 11.7824C18.7369 11.8784 18.5713 11.8088 18.4489 11.5808C18.2809 11.264 18.1177 10.9472 17.9521 10.6304C17.8009 10.34 17.5297 10.2032 17.2081 10.2728C16.8601 10.3496 16.6105 10.5512 16.5385 10.9136C16.5193 11.0192 16.5361 11.1488 16.5817 11.2448C16.7521 11.6 16.9441 11.9456 17.1241 12.296C17.2369 12.5168 17.1985 12.6848 17.0185 12.7832C16.8289 12.8864 16.6537 12.824 16.5337 12.6008C16.3705 12.2984 16.2145 11.9936 16.0561 11.6888C15.8833 11.3576 15.6673 11.2352 15.3193 11.2712C15.0073 11.3024 14.6809 11.5544 14.6305 11.8616C14.6017 12.0368 14.6209 12.2432 14.6857 12.4088C14.8009 12.6992 14.9689 12.968 15.1153 13.2464C15.2737 13.5488 15.2497 13.712 15.0337 13.8224C14.8249 13.928 14.6833 13.856 14.5273 13.5608C13.6393 11.8664 12.7489 10.172 11.8609 8.4752C11.8441 8.444 11.8273 8.4104 11.8105 8.3768C11.5657 7.9256 11.2057 7.7816 10.7977 7.9736C10.3753 8.1728 10.1785 8.6456 10.3513 9.0752C10.4209 9.2504 10.5169 9.416 10.6057 9.584C11.5681 11.4224 12.5329 13.2584 13.4881 15.0992C13.5481 15.2144 13.5697 15.3848 13.5337 15.5072C13.4809 15.6896 13.2577 15.7304 13.0513 15.6248C12.4801 15.3296 11.9113 15.0296 11.3425 14.7296C11.0353 14.5664 10.7305 14.5592 10.4665 14.7968C10.1977 15.0368 10.0825 15.344 10.1833 15.7064C10.2505 15.9488 10.4281 16.0928 10.6489 16.2008C12.2473 16.988 13.8409 17.7848 15.4417 18.5672C15.9385 18.8096 16.3177 19.1576 16.5817 19.6472C16.9825 20.3864 17.8225 20.6504 18.5761 20.2736C19.2169 19.9544 19.8457 19.6112 20.4793 19.28C20.6545 19.1888 20.8153 19.1768 20.9473 19.3496C21.0745 19.5176 21.0505 19.7264 20.8657 19.8224C20.1241 20.2136 19.3945 20.6408 18.6217 20.9648C17.6521 21.3704 16.5289 20.9288 16.0225 20.0072C15.8089 19.6184 15.5233 19.3328 15.1177 19.1528C14.7937 19.0088 14.4793 18.8432 14.1265 18.668C14.1265 18.7832 14.1265 18.8624 14.1265 18.9392C14.1265 20.1536 14.1121 21.368 14.1313 22.5848C14.1457 23.5016 13.4497 24.02 12.7105 24.0152C9.3289 23.9936 5.9473 24.0056 2.5681 24.0056C1.8145 24.0056 1.4377 23.7392 1.1689 23.024C1.1641 23.012 1.1473 23.0072 1.1377 22.9976C1.1377 16.1768 1.1377 9.356 1.1377 2.5328C1.2361 2.3504 1.2985 2.1296 1.4425 1.9976C1.6465 1.8056 1.9105 1.6784 2.1481 1.5224C2.5873 1.5224 3.0265 1.5224 3.4657 1.5224C3.5809 1.6568 3.6961 1.7864 3.6121 1.9856C3.5233 2.192 3.3481 2.1824 3.1681 2.18C2.9305 2.1824 2.6881 2.18 2.4481 2.1872C2.1241 2.1992 1.8673 2.3744 1.8337 2.6768C1.7953 3.0344 1.8241 3.3992 1.8241 3.7568C5.7001 3.7568 9.5665 3.7568 13.4569 3.7568C13.4569 3.4904 13.4569 3.236 13.4569 2.9816C13.4545 2.4032 13.2385 2.1848 12.6649 2.1848C10.2289 2.1848 7.79289 2.1848 5.35689 2.1848C5.2921 2.1848 5.2249 2.1872 5.1601 2.1848C4.8865 2.168 4.7473 1.8896 4.9009 1.6592C4.9321 1.6136 4.9705 1.5704 5.0065 1.5272C7.7017 1.5272 10.3945 1.5272 13.0873 1.5272ZM10.1881 16.7528C10.1641 16.7744 10.1209 16.8152 10.0777 16.8536C9.4945 17.4032 8.79849 17.7224 8.0041 17.8088C5.69529 18.0632 3.7657 16.0256 4.1257 13.7168C4.3873 12.0296 5.8441 10.748 7.5385 10.712C9.2761 10.676 10.7809 11.8712 11.1097 13.5728C11.1625 13.8488 11.2297 14.0408 11.5369 14.0912C11.6473 14.108 11.7457 14.1896 11.8489 14.2448C12.0337 14.3408 12.2185 14.4368 12.4513 14.5568C12.3913 14.4344 12.3601 14.3648 12.3241 14.2976C11.5561 12.8288 10.7833 11.3624 10.0201 9.8888C9.9433 9.74 9.8593 9.6848 9.6865 9.6872C7.6153 9.6944 5.5441 9.692 3.4729 9.692C2.9185 9.692 2.5993 9.3752 2.5993 8.8232C2.5969 8.1056 2.5993 7.388 2.5993 6.6728C2.5993 6.0992 2.9065 5.792 3.4801 5.792C6.2473 5.792 9.0121 5.792 11.7793 5.792C12.3721 5.792 12.6649 6.0824 12.6673 6.6824C12.6697 7.2464 12.6673 7.8104 12.6697 8.372C12.6697 8.444 12.6601 8.528 12.6889 8.588C12.9241 9.0536 13.1665 9.5144 13.4065 9.9776C13.4185 9.9728 13.4305 9.968 13.4425 9.9632C13.4425 8.1272 13.4425 6.2912 13.4425 4.4504C9.55689 4.4504 5.6905 4.4504 1.8121 4.4504C1.8121 9.5192 1.8121 14.5712 1.8121 19.6544C1.9153 19.6544 2.0065 19.6544 2.1001 19.6544C5.7817 19.6544 9.46329 19.6544 13.1425 19.6544C13.1929 19.6544 13.2457 19.6496 13.2961 19.6544C13.4209 19.6664 13.4617 19.6112 13.4593 19.4888C13.4545 19.1528 13.4641 18.8144 13.4521 18.4784C13.4497 18.4088 13.3897 18.3104 13.3297 18.2816C12.2905 17.768 11.2441 17.264 10.1881 16.7528ZM1.8145 20.3312C1.8097 20.3672 1.8025 20.396 1.8025 20.4248C1.8025 21.1784 1.7977 21.932 1.8049 22.6856C1.8097 23.1032 2.0785 23.3528 2.5105 23.3552C5.92569 23.3576 9.34089 23.3576 12.7585 23.3552C13.2049 23.3552 13.4521 23.1128 13.4617 22.6688C13.4689 22.2896 13.4641 21.908 13.4641 21.5288C13.4641 21.1352 13.4641 20.7416 13.4641 20.336C9.5713 20.3312 5.7025 20.3312 1.8145 20.3312ZM10.4881 14.0192C10.5601 12.9104 9.4513 11.6888 8.1313 11.4224C6.7777 11.1488 5.3593 11.9936 4.8961 13.3472C4.4281 14.7152 5.0569 16.2152 6.3625 16.8656C7.6609 17.5112 9.1153 17.0024 9.7009 16.2512C9.2641 15.5456 9.39369 14.4728 10.4881 14.0192ZM11.9953 7.5464C11.9953 7.2368 11.9857 6.968 11.9977 6.6992C12.0073 6.5048 11.9353 6.4496 11.7457 6.4496C9.00249 6.4544 6.2569 6.4544 3.5137 6.4496C3.3169 6.4496 3.2593 6.5192 3.2617 6.7064C3.2689 7.3784 3.2641 8.0528 3.2641 8.7248C3.2641 9.0176 3.2641 9.02 3.5569 9.02C5.4961 9.02 7.4353 9.02 9.3745 9.02C9.45129 9.02 9.5281 9.0128 9.6073 9.008C9.5281 8.3552 9.74409 7.844 10.2721 7.4936C10.8337 7.1216 11.4025 7.1576 11.9953 7.5464Z" fill="#8A92A6"/>
<path d="M7.65123 20.9432C7.95843 20.9432 8.26563 20.9384 8.57283 20.9432C9.10323 20.9528 9.43923 21.2816 9.45603 21.8C9.47283 22.3184 9.15843 22.6928 8.63523 22.712C7.97043 22.736 7.30563 22.736 6.64083 22.712C6.12003 22.6952 5.79123 22.316 5.80563 21.8072C5.82003 21.2864 6.17043 20.9504 6.71043 20.9432C7.02243 20.9408 7.33683 20.9432 7.65123 20.9432ZM7.61763 22.0448C7.93203 22.0448 8.24643 22.0424 8.55843 22.0472C8.70483 22.0496 8.80803 21.9944 8.81523 21.8432C8.82243 21.6776 8.71203 21.6152 8.55843 21.6152C7.94643 21.6152 7.33203 21.6152 6.72003 21.6152C6.57603 21.6152 6.45363 21.656 6.45363 21.8336C6.45363 22.0088 6.57123 22.0472 6.72003 22.0472C7.02003 22.0448 7.32003 22.0448 7.61763 22.0448Z" fill="#8A92A6"/>
<path d="M6.92644 14.9864C6.99844 14.9168 7.05844 14.864 7.11364 14.8088C7.74964 14.1728 8.38564 13.5368 9.02164 12.9032C9.20884 12.716 9.38404 12.7016 9.53764 12.8552C9.69364 13.0088 9.68404 13.1792 9.49444 13.3712C8.74084 14.1272 7.98724 14.8832 7.23124 15.6344C7.00804 15.8552 6.85684 15.8528 6.63124 15.632C6.34564 15.3488 6.06004 15.0656 5.77924 14.78C5.59204 14.5904 5.57764 14.42 5.72884 14.2664C5.88724 14.1032 6.05764 14.1176 6.25924 14.3168C6.48004 14.5328 6.69844 14.756 6.92644 14.9864Z" fill="#8A92A6"/>
</g>
<defs>
<clipPath id="clip0_189_5478">
<rect width="24" height="24" fill="white" transform="translate(0 0.5)"/>
</clipPath>
</defs>
</svg>
