<svg width="24" height="25" viewBox="0 0 24 25" fill="none" xmlns="http://www.w3.org/2000/svg">
<g clip-path="url(#clip0_189_5612)">
<path d="M18.5519 17.636C18.1415 17.396 17.7455 17.1608 17.3471 16.928C17.2943 16.8968 17.2391 16.868 17.1695 16.8272C15.9023 18.5936 14.1911 19.5776 12.0071 19.58C9.82075 19.5848 8.10475 18.6104 6.81595 16.8248C6.36235 17.0936 5.90875 17.36 5.43595 17.6408C5.66635 18.3896 5.60635 19.1072 5.15515 19.7624C4.83835 20.2232 4.40395 20.5304 3.86155 20.6792C2.76955 20.9768 1.64155 20.4632 1.15195 19.4432C0.664747 18.4328 0.964747 17.2232 1.86475 16.5704C2.71915 15.9536 4.07755 15.848 5.07115 16.9736C5.29435 16.844 5.51995 16.712 5.74795 16.5776C5.97595 16.4432 6.20155 16.3064 6.43435 16.1672C5.52715 14.1632 5.53195 12.188 6.62395 10.2848C7.71595 8.38638 9.41515 7.39278 11.6015 7.16478C11.6015 6.63678 11.6015 6.10158 11.6015 5.56638C10.1471 5.23518 9.51355 4.00398 9.70555 2.86638C9.91195 1.65198 10.9943 0.888781 12.1199 0.939181C13.1663 0.984781 14.1527 1.85358 14.2943 2.90238C14.4671 4.17198 13.6679 5.30718 12.3815 5.56158C12.3815 6.08958 12.3815 6.61758 12.3815 7.16238C14.5559 7.37838 16.2623 8.37438 17.3615 10.2752C18.4607 12.176 18.4679 14.1536 17.5583 16.1648C18.0071 16.4312 18.4559 16.6976 18.9239 16.9736C19.4567 16.3544 20.1263 16.0448 20.9495 16.1192C21.4895 16.1672 21.9575 16.3856 22.3559 16.7528C23.1551 17.492 23.3063 18.7352 22.7111 19.6712C22.1135 20.612 20.9399 21.0008 19.9175 20.5976C18.7607 20.144 18.2807 19.1168 18.5519 17.636ZM12.1751 18.8288C15.2303 18.7136 17.5895 16.1576 17.4335 13.1312C17.2751 10.0448 14.6903 7.74798 11.6447 7.95438C8.60875 8.16078 6.41035 10.7144 6.56155 13.652C6.72715 16.7888 9.34315 18.9224 12.1751 18.8288ZM3.24235 19.988C4.05835 20.0168 4.78075 19.34 4.81435 18.5096C4.85035 17.6504 4.18315 16.8992 3.35515 16.868C2.43115 16.8344 1.71595 17.4872 1.68715 18.392C1.65835 19.2608 2.33515 19.9544 3.24235 19.988ZM10.4423 3.26478C10.4447 4.13838 11.1359 4.83438 12.0047 4.83438C12.8663 4.83438 13.5599 4.13118 13.5575 3.25758C13.5551 2.40078 12.8615 1.70238 12.0071 1.69758C11.1479 1.69518 10.4399 2.40078 10.4423 3.26478ZM20.7431 19.9928C21.6167 19.9928 22.3055 19.3088 22.3127 18.4328C22.3199 17.5736 21.6119 16.868 20.7455 16.868C19.8911 16.8704 19.1903 17.5664 19.1855 18.4184C19.1807 19.2896 19.8767 19.9928 20.7431 19.9928Z" fill="#8A92A6"/>
<path d="M22.7254 13.3952C22.6582 14 22.5982 14.6072 22.5238 15.212C22.4902 15.4808 22.3054 15.6272 22.087 15.5984C21.8662 15.5672 21.7534 15.3872 21.7726 15.104C21.8206 14.4584 21.919 13.8104 21.9046 13.1648C21.8518 10.6544 20.9494 8.47279 19.2574 6.62479C18.2086 5.47999 16.9486 4.64479 15.499 4.09279C15.463 4.07839 15.427 4.06399 15.391 4.04959C15.1414 3.94399 15.0406 3.74479 15.1294 3.53359C15.2158 3.32959 15.4222 3.24079 15.6574 3.34639C16.2478 3.61279 16.8598 3.84559 17.4094 4.17919C20.3158 5.94079 22.0366 8.51599 22.5718 11.876C22.6054 12.0848 22.6414 12.2936 22.651 12.5048C22.6654 12.8024 22.6534 13.1 22.6534 13.3952C22.6798 13.3928 22.7038 13.3952 22.7254 13.3952Z" fill="#8A92A6"/>
<path d="M1.27686 13.3688C1.33206 8.89519 4.11126 4.91119 8.29686 3.35119C8.57286 3.24799 8.78166 3.31279 8.87046 3.53119C8.96406 3.75439 8.85366 3.95359 8.56326 4.06399C6.79446 4.73119 5.31366 5.79919 4.16406 7.30159C2.58726 9.36319 1.90326 11.696 2.12406 14.288C2.15046 14.6 2.20566 14.9072 2.22966 15.2192C2.24646 15.428 2.13126 15.5624 1.92726 15.6008C1.73046 15.6368 1.55286 15.5192 1.49286 15.3248C1.48566 15.3032 1.48326 15.2792 1.48086 15.2552C1.41366 14.6264 1.34406 13.9976 1.27686 13.3688Z" fill="#8A92A6"/>
<path d="M11.4217 24.0584C9.4201 24.0296 7.1353 23.2136 5.1481 21.5744C4.9345 21.3992 4.9009 21.188 5.0497 21.0032C5.1937 20.828 5.4145 20.8136 5.6305 20.9912C6.5137 21.7184 7.4785 22.3112 8.5585 22.6832C12.0457 23.8784 15.2665 23.36 18.2041 21.1256C18.2785 21.068 18.3481 21.0056 18.4249 20.9504C18.6073 20.8208 18.8185 20.8424 18.9505 21.0008C19.0849 21.164 19.0777 21.3752 18.9073 21.5264C18.7273 21.6872 18.5329 21.8336 18.3385 21.9776C16.4833 23.3432 14.2969 24.0608 11.4217 24.0584Z" fill="#8A92A6"/>
<path d="M11.9975 11.2184C13.3223 11.228 14.4743 11.6768 15.4463 12.5768C15.4919 12.62 15.5399 12.6608 15.5783 12.7088C15.7079 12.8672 15.7055 13.0808 15.5735 13.2224C15.4343 13.3712 15.2351 13.3928 15.0647 13.2632C14.9279 13.1576 14.8103 13.0304 14.6759 12.9248C12.9911 11.5856 10.6583 11.672 9.06948 13.1312C9.02868 13.1672 8.99028 13.208 8.94708 13.2416C8.76468 13.3856 8.56788 13.3784 8.41908 13.2248C8.27988 13.0784 8.27268 12.8504 8.43108 12.6968C8.62788 12.5072 8.83428 12.3248 9.05508 12.164C9.92148 11.5376 10.9295 11.2184 11.9975 11.2184Z" fill="#8A92A6"/>
<path d="M11.9902 12.7496C12.8926 12.776 13.6774 13.0808 14.3446 13.6784C14.419 13.7456 14.4934 13.8224 14.539 13.9088C14.6326 14.0864 14.5774 14.252 14.4214 14.3624C14.2558 14.4824 14.0806 14.4656 13.9294 14.324C13.5814 13.9952 13.1878 13.7504 12.7222 13.6304C11.7862 13.3904 10.9438 13.5896 10.1998 14.2064C10.1566 14.2424 10.1206 14.2808 10.0774 14.3168C9.89502 14.4704 9.67661 14.4752 9.53021 14.3264C9.37181 14.1656 9.37662 13.9448 9.55902 13.7648C9.99582 13.3328 10.5166 13.0352 11.1118 12.8864C11.4022 12.8192 11.6998 12.7952 11.9902 12.7496Z" fill="#8A92A6"/>
<path d="M12.0024 14.3336C12.5016 14.3264 12.9336 14.5016 13.3032 14.8304C13.5048 15.0104 13.5336 15.2384 13.3848 15.4088C13.2336 15.584 13.02 15.5816 12.8064 15.404C12.2832 14.972 11.7192 14.9744 11.1912 15.4064C10.9776 15.5816 10.7616 15.5816 10.6128 15.404C10.4664 15.2312 10.5 15.0104 10.6992 14.828C11.052 14.5064 11.5056 14.3336 12.0024 14.3336Z" fill="#8A92A6"/>
</g>
<defs>
<clipPath id="clip0_189_5612">
<rect width="24" height="24" fill="white" transform="translate(0 0.5)"/>
</clipPath>
</defs>
</svg>
