<svg width="23" height="23" viewBox="0 0 23 23" fill="none" xmlns="http://www.w3.org/2000/svg">
<path d="M10.2759 0.628052C10.7559 0.940052 11.2359 1.22805 11.6919 1.54005C14.1399 3.26805 16.5639 5.02005 19.0119 6.74805C19.5159 7.10805 19.5879 7.46805 19.2279 7.99605C19.1559 8.09205 19.0839 8.18805 19.0119 8.30805C18.7959 8.69205 18.4839 8.86005 18.0279 8.71605C18.0279 8.78805 18.0279 8.86005 18.0279 8.90805C18.0279 9.96405 18.0279 10.9961 18.0279 12.0521C18.0279 12.1481 18.0999 12.2681 18.1719 12.3641C18.4839 12.6761 18.6759 13.0361 18.7239 13.4681C18.7239 13.5401 18.7479 13.5881 18.7479 13.6841C19.0599 13.6841 19.3959 13.6841 19.7079 13.6841C20.3079 13.6841 20.6199 13.9001 20.8599 14.4281C20.8839 14.5001 20.9559 14.5481 21.0039 14.5721C21.1959 14.6921 21.4119 14.7641 21.6039 14.8841C22.0839 15.1481 22.3479 15.5801 22.3479 16.1321C22.3479 17.3801 22.3479 18.6281 22.3479 19.8761C22.3479 20.4281 22.0839 20.8361 21.6039 21.1241C21.5319 21.1721 21.4359 21.2201 21.3639 21.2441C21.0999 21.3881 20.8599 21.5081 20.7399 21.8201C20.5959 22.1801 20.2359 22.3481 19.8519 22.3481C18.4599 22.3481 17.0679 22.3481 15.6759 22.3481C15.1719 22.3481 14.7639 21.9881 14.6439 21.4841C14.6199 21.3161 14.5959 21.1721 14.5479 21.0041C14.4759 20.7401 14.2839 20.5481 14.0439 20.5481C13.8039 20.5481 13.5879 20.7161 13.5399 21.0041C13.4919 21.1721 13.4679 21.3401 13.4199 21.5321C13.2999 22.0361 12.8919 22.3721 12.3879 22.3721C11.0199 22.3721 9.62793 22.3721 8.25993 22.3721C7.80393 22.3721 7.41993 22.0841 7.22793 21.6761C7.17993 21.5801 7.10793 21.5081 7.03593 21.4601C6.89193 21.3641 6.69993 21.2921 6.55593 21.2201C6.00393 20.9321 5.73993 20.5001 5.73993 19.9001C5.73993 19.7801 5.73993 19.6601 5.73993 19.5161C5.64393 19.5161 5.57193 19.5161 5.49993 19.5161C4.89993 19.5161 4.29993 19.5161 3.69993 19.5161C2.71593 19.5161 2.11593 18.9161 2.11593 17.9561C2.11593 14.9801 2.11593 12.0281 2.11593 9.05205C2.11593 8.95605 2.11593 8.88405 2.11593 8.76405C1.58793 8.86005 1.27593 8.62005 1.03593 8.23605C0.91593 8.02005 0.77193 7.80405 0.62793 7.58805C0.62793 7.46805 0.62793 7.37205 0.62793 7.25205C0.72393 7.01205 0.91593 6.84405 1.13193 6.70005C1.99593 6.10005 2.85993 5.47605 3.72393 4.87605C3.84393 4.78005 3.89193 4.70805 3.89193 4.54005C3.89193 3.84405 3.89193 3.14805 3.89193 2.45205C3.89193 2.04405 4.17993 1.73205 4.58793 1.73205C5.21193 1.73205 5.81193 1.73205 6.43593 1.73205C6.79593 1.73205 7.03593 1.94805 7.13193 2.28405C7.13193 2.33205 7.15593 2.35605 7.17993 2.42805C7.82793 1.97205 8.47593 1.51605 9.12393 1.06005C9.36393 0.892052 9.60393 0.772052 9.84393 0.652052C9.98793 0.628052 10.1319 0.628052 10.2759 0.628052ZM17.2839 11.8601C17.2839 11.8361 17.2839 11.7881 17.2839 11.7641C17.2839 10.6121 17.2839 9.48405 17.2839 8.33205C17.2839 8.26005 17.2119 8.14005 17.1399 8.09205C14.8359 6.46005 12.5079 4.82805 10.2039 3.17205C10.1079 3.10005 10.0359 3.07605 9.91593 3.17205C7.61193 4.82805 5.28393 6.46005 2.95593 8.09205C2.83593 8.16405 2.81193 8.26005 2.81193 8.38005C2.81193 11.5481 2.81193 14.7161 2.81193 17.9081C2.81193 18.4601 3.09993 18.7481 3.65193 18.7481C4.10793 18.7481 4.56393 18.7481 5.01993 18.7481C5.23593 18.7481 5.45193 18.7481 5.69193 18.7481C5.69193 18.6521 5.69193 18.5801 5.69193 18.4841C5.69193 17.7401 5.69193 16.9961 5.69193 16.2281C5.69193 15.5801 5.97993 15.1001 6.57993 14.8121C6.72393 14.7401 6.89193 14.6681 7.03593 14.5721C7.10793 14.5241 7.17993 14.4521 7.22793 14.3561C7.41993 13.9241 7.77993 13.6601 8.25993 13.6361C8.54793 13.6361 8.85993 13.6361 9.14793 13.6361C9.21993 13.6361 9.26793 13.6361 9.31593 13.6121C9.41193 12.4841 10.1319 11.8361 11.2599 11.8121C11.6199 11.8121 11.9559 11.8121 12.3159 11.8121C12.3879 11.8121 12.4839 11.7641 12.5079 11.6921C12.7479 11.2841 13.0839 11.0681 13.5639 11.0681C13.8759 11.0681 14.1879 11.0681 14.4999 11.0681C14.9559 11.0681 15.3159 11.2601 15.5319 11.6681C15.5559 11.7161 15.6519 11.7881 15.6999 11.7881C16.2279 11.8601 16.7559 11.8601 17.2839 11.8601ZM14.0439 14.3801C12.1479 14.3801 10.2519 14.3801 8.35593 14.3801C7.99593 14.3801 7.87593 14.5001 7.87593 14.8601C7.87593 15.4121 7.87593 15.9881 7.87593 16.5401C7.87593 18.1001 7.87593 19.6361 7.87593 21.1961C7.87593 21.5081 7.99593 21.6521 8.25993 21.6521C9.62793 21.6521 10.9719 21.6521 12.3399 21.6521C12.5559 21.6521 12.6759 21.5321 12.7239 21.3401C12.7719 21.1721 12.7959 21.0041 12.8199 20.8361C12.9399 20.2601 13.4199 19.8521 13.9959 19.8281C14.5479 19.8041 15.0759 20.2121 15.2439 20.7641C15.2919 20.9081 15.3159 21.0761 15.3399 21.2201C15.4119 21.5801 15.5079 21.6521 15.8439 21.6521C17.1159 21.6521 18.3879 21.6521 19.6599 21.6521C20.0919 21.6521 20.1879 21.5561 20.1879 21.1241C20.1879 19.0601 20.1879 16.9961 20.1879 14.9321C20.1879 14.5241 20.0679 14.4041 19.6599 14.4041C17.7879 14.3801 15.9159 14.3801 14.0439 14.3801ZM18.7239 7.44405C18.6519 7.39605 18.6039 7.34805 18.5559 7.32405C15.8199 5.38005 13.0839 3.43605 10.3479 1.49205C10.0839 1.30005 9.98793 1.30005 9.74793 1.49205C7.01193 3.43605 4.27593 5.38005 1.53993 7.32405C1.49193 7.37205 1.44393 7.39605 1.37193 7.44405C1.51593 7.66005 1.65993 7.82805 1.77993 8.02005C1.85193 7.97205 1.89993 7.94805 1.94793 7.92405C4.53993 6.07605 7.13193 4.25205 9.72393 2.40405C10.0119 2.21205 10.0839 2.21205 10.3719 2.40405C12.9639 4.25205 15.5559 6.07605 18.1479 7.92405C18.1959 7.94805 18.2439 7.99605 18.3159 8.02005C18.4599 7.82805 18.5799 7.66005 18.7239 7.44405ZM15.3639 13.6601C15.2199 13.1321 15.0759 12.6281 14.9319 12.1241C14.8839 11.9561 14.7639 11.8601 14.5719 11.8601C14.2119 11.8601 13.8759 11.8361 13.5159 11.8601C13.3959 11.8601 13.2279 11.9801 13.1799 12.0761C13.0119 12.5801 12.8679 13.1081 12.7239 13.6601C13.5879 13.6601 14.4759 13.6601 15.3639 13.6601ZM7.13193 20.6441C7.13193 18.8681 7.13193 17.1161 7.13193 15.3641C6.55593 15.5801 6.41193 15.7721 6.41193 16.3481C6.41193 17.4761 6.41193 18.6041 6.41193 19.7081C6.43593 20.2601 6.60393 20.4761 7.13193 20.6441ZM20.9079 20.6681C21.4839 20.4761 21.6279 20.2601 21.6279 19.6841C21.6279 18.5321 21.6279 17.3561 21.6279 16.2041C21.6279 15.7721 21.3639 15.4601 20.9079 15.3881C20.9079 17.1401 20.9079 18.8921 20.9079 20.6681ZM4.63593 4.22805C5.16393 3.84405 5.66793 3.50805 6.14793 3.14805C6.45993 2.93205 6.48393 2.86005 6.38793 2.45205C5.81193 2.45205 5.21193 2.45205 4.61193 2.45205C4.63593 3.05205 4.63593 3.62805 4.63593 4.22805ZM10.0599 13.6601C10.7079 13.6601 11.3079 13.6601 11.9559 13.6601C12.0519 13.3001 12.1479 12.9641 12.2439 12.6041C11.7879 12.6041 11.3799 12.5801 10.9719 12.6041C10.4679 12.6281 10.0599 13.1081 10.0599 13.6601ZM15.8199 12.6041C15.9159 12.9161 16.0119 13.2281 16.0839 13.5161C16.1079 13.6361 16.1559 13.6841 16.2759 13.6601C16.6599 13.6601 17.0439 13.6601 17.4519 13.6601C17.6439 13.6601 17.8359 13.6601 18.0279 13.6601C18.0039 13.1081 17.6199 12.6281 17.1159 12.6041C16.6839 12.5801 16.2759 12.6041 15.8199 12.6041Z" fill="#E30B0B"/>
</svg>
