<svg width="24" height="25" viewBox="0 0 24 25" fill="none" xmlns="http://www.w3.org/2000/svg">
<path d="M9.16804 16.796C9.38404 17.132 9.57604 17.42 9.79204 17.708C10.512 18.764 11.232 19.796 11.928 20.876C12.6 21.884 12.168 23.156 11.04 23.54C10.272 23.804 9.45604 23.492 8.95204 22.772C7.96804 21.332 6.98404 19.892 6.02404 18.452C5.97604 18.38 5.92804 18.308 5.88004 18.236C5.42404 18.524 4.96804 18.668 4.46404 18.692C2.80804 18.74 1.44004 17.396 1.48804 15.74C1.51204 14.78 1.94404 14.036 2.71204 13.508C3.28804 13.1 3.86404 12.74 4.44004 12.332C4.56004 12.236 4.70404 12.116 4.75204 11.972C5.85604 9.69196 6.96004 7.45996 8.06404 5.20396C8.32804 4.65196 8.78404 4.38796 9.36004 4.31596C10.104 4.21996 10.776 4.48396 11.4 4.81996C12.552 5.44396 13.488 6.33196 14.328 7.33996C15.528 8.82796 16.488 10.436 16.968 12.308C17.184 13.1 17.28 13.892 17.112 14.708C17.016 15.116 16.872 15.5 16.56 15.812C16.272 16.124 15.912 16.268 15.48 16.316C13.44 16.412 11.4 16.58 9.36004 16.748C9.28804 16.748 9.24004 16.772 9.16804 16.796ZM8.54404 6.85996C8.59204 7.19596 8.64004 7.62796 8.76004 8.03596C9.48004 10.604 10.92 12.716 12.96 14.396C13.536 14.876 14.16 15.236 14.904 15.404C15.288 15.5 15.6 15.356 15.888 15.116C16.104 14.9 16.224 14.636 16.272 14.324C16.368 13.772 16.32 13.22 16.2 12.692C15.96 11.564 15.456 10.556 14.856 9.59596C14.064 8.29996 13.104 7.09996 11.88 6.16396C11.328 5.73196 10.752 5.37196 10.056 5.22796C9.26404 5.03596 8.71204 5.39596 8.59204 6.18796C8.56804 6.35596 8.56804 6.57196 8.54404 6.85996ZM7.77604 7.74796C7.75204 7.77196 7.72804 7.79596 7.72804 7.84396C7.00804 9.33196 6.26404 10.82 5.54404 12.308C5.47204 12.428 5.52004 12.5 5.59204 12.596C6.33604 13.7 7.08004 14.78 7.82404 15.884C7.89604 16.004 7.99204 16.028 8.13604 16.028C9.62404 15.908 11.112 15.788 12.624 15.668C12.792 15.644 12.96 15.644 13.152 15.62C10.368 13.604 8.59204 10.988 7.77604 7.74796ZM7.10404 16.364C6.33604 15.26 5.61604 14.156 4.87204 13.076C4.82404 13.1 4.77604 13.124 4.72804 13.148C4.17604 13.532 3.62404 13.892 3.09604 14.276C2.28004 14.876 2.08804 15.956 2.61604 16.82C3.19204 17.756 4.24804 18.14 5.16004 17.636C5.83204 17.252 6.45604 16.772 7.10404 16.364ZM6.57604 17.732C6.67204 17.876 6.76804 17.996 6.84004 18.14C7.77604 19.532 8.73604 20.924 9.67204 22.316C9.84004 22.58 10.08 22.748 10.392 22.772C10.776 22.796 11.064 22.652 11.256 22.316C11.448 21.98 11.424 21.644 11.184 21.308C10.224 19.892 9.24004 18.452 8.28004 17.036C8.16004 16.844 7.94404 16.796 7.77604 16.916C7.36804 17.18 6.98404 17.468 6.57604 17.732Z" fill="#8A92A6"/>
<path d="M18.0001 7.41202C17.7361 7.41202 17.5921 7.31602 17.5201 7.12402C17.4481 6.93202 17.5201 6.74002 17.7121 6.62002C18.1441 6.33202 18.5521 6.06802 18.9841 5.78002C19.5121 5.42002 20.0641 5.06002 20.5921 4.72402C20.8561 4.55602 21.1201 4.58002 21.2641 4.79602C21.4081 5.01202 21.3361 5.27602 21.0721 5.46802C20.1361 6.09202 19.2001 6.69202 18.2401 7.31602C18.1441 7.36402 18.0481 7.38802 18.0001 7.41202Z" fill="#8A92A6"/>
<path d="M18.6958 9.40393C19.2718 9.49993 19.8958 9.61993 20.4958 9.71593C21.0478 9.81193 21.5758 9.90793 22.1278 10.0039C22.3918 10.0519 22.5598 10.2439 22.5358 10.4839C22.5118 10.7479 22.2718 10.9159 21.9838 10.8679C20.8558 10.6759 19.7038 10.4599 18.5758 10.2439C18.3118 10.1959 18.1438 9.97993 18.1678 9.76393C18.2158 9.54793 18.4078 9.40393 18.6958 9.40393Z" fill="#8A92A6"/>
<path d="M16.5121 1.81997C16.4161 2.68397 16.3441 3.54797 16.2481 4.41197C16.2241 4.62797 16.2001 4.81997 16.1761 5.03597C16.1521 5.29997 15.9601 5.46797 15.6961 5.44397C15.4561 5.41997 15.3121 5.22797 15.3361 4.96397C15.4321 3.88397 15.5521 2.80397 15.6721 1.74797C15.6961 1.50797 15.9121 1.33997 16.1521 1.36397C16.3681 1.41197 16.5121 1.57997 16.5121 1.81997Z" fill="#8A92A6"/>
<path d="M11.4718 8.49194C12.6718 8.49194 13.5598 9.11594 13.8958 10.0759C14.2078 11.0119 13.9198 12.0439 13.1278 12.6679C13.0318 12.7399 12.9118 12.8119 12.7918 12.8359C12.5998 12.8599 12.4558 12.7639 12.3838 12.5959C12.3118 12.4279 12.3358 12.2599 12.4798 12.1159C12.5278 12.0679 12.5998 12.0199 12.6478 11.9719C13.2238 11.4919 13.3438 10.6519 12.9358 10.0279C12.5038 9.40394 11.6878 9.18794 11.0158 9.54794C10.9678 9.57194 10.9438 9.59594 10.8958 9.61994C10.6318 9.76394 10.3918 9.71594 10.2718 9.47594C10.1518 9.25994 10.2238 9.01994 10.4638 8.87594C10.7998 8.61194 11.2078 8.49194 11.4718 8.49194Z" fill="#8A92A6"/>
</svg>
