<svg width="24" height="24" viewBox="0 0 24 24" fill="none" xmlns="http://www.w3.org/2000/svg">
<path d="M13.9994 23.0152C13.5842 22.8448 13.4018 22.5424 13.4114 22.0864C13.4282 21.4528 13.2338 20.8696 12.8762 20.344C11.9186 18.94 10.961 17.536 10.013 16.1248C9.90016 15.9592 9.80176 15.7624 9.76816 15.568C9.67936 15.0664 9.96976 14.6296 10.469 14.4952C11.0618 14.3344 11.6354 14.4016 12.113 14.8072C12.401 15.052 12.6386 15.3592 12.893 15.6424C12.9602 15.7168 13.013 15.8056 13.0994 15.9232C13.109 15.8176 13.1186 15.7552 13.1186 15.6952C13.121 14.6344 13.1234 13.5736 13.1162 12.5152C13.1162 12.4456 13.0706 12.3352 13.0154 12.3112C12.1706 11.9344 11.5634 11.3224 11.1866 10.456C9.92656 11.1856 8.67376 11.908 7.41136 12.6376C7.92256 13.6192 8.00656 14.6248 7.62016 15.6496C7.29856 16.504 6.72016 17.1424 5.90896 17.5624C4.31776 18.388 2.32816 17.872 1.32496 16.372C0.312157 14.8576 0.597757 12.8176 1.98496 11.644C3.38416 10.4608 5.61616 10.4656 7.03216 12.0688C7.08496 12.0424 7.14496 12.016 7.20016 11.9848C8.40976 11.2864 9.61936 10.5856 10.8314 9.89202C10.9562 9.82002 10.9898 9.75522 10.9706 9.60162C10.865 8.71122 11.0666 7.89282 11.5922 7.16082C11.6258 7.11282 11.6618 7.06722 11.7098 7.00242C11.3618 6.65442 11.0162 6.30402 10.6658 5.96082C10.6394 5.93442 10.5746 5.94162 10.529 5.94402C10.3394 5.95842 10.1498 5.99442 9.96016 5.99442C8.96656 5.99922 7.97296 5.99922 6.97696 5.99442C6.87616 5.99442 6.74416 6.00162 6.68176 5.94402C6.59056 5.86002 6.49696 5.71602 6.50656 5.60802C6.51376 5.51202 6.64816 5.40882 6.74896 5.34162C6.80656 5.30322 6.90496 5.32242 6.98656 5.32242C7.99456 5.32242 9.00496 5.32242 10.013 5.32242C10.5122 5.32242 10.6442 5.19042 10.6442 4.69842C10.6442 3.66642 10.6442 2.63682 10.6442 1.60482C10.6442 1.22082 10.4786 1.05522 10.0922 1.05522C7.65376 1.05522 5.21776 1.05522 2.77936 1.05522C2.39296 1.05522 2.23216 1.21842 2.23216 1.60722C2.22976 2.65362 2.23216 3.69762 2.23216 4.74402C2.23216 5.18082 2.37376 5.32002 2.82016 5.32242C3.57856 5.32482 4.33696 5.32242 5.09536 5.32242C5.16256 5.32242 5.22736 5.32002 5.29456 5.32722C5.49136 5.34642 5.61616 5.47122 5.62096 5.64882C5.62576 5.82162 5.50096 5.97042 5.31136 5.98962C5.16496 6.00402 5.01616 5.99682 4.86976 5.99682C4.17136 5.99682 3.47056 5.99922 2.77216 5.99682C2.03056 5.99442 1.55776 5.52402 1.55536 4.78002C1.55056 3.71922 1.55056 2.65842 1.55536 1.60002C1.55776 0.848822 2.02336 0.392822 2.77216 0.392822C5.22496 0.392822 7.67536 0.392822 10.1282 0.392822C10.8434 0.392822 11.3114 0.839222 11.3162 1.55442C11.3258 2.63682 11.3234 3.71922 11.3138 4.80162C11.3114 4.98882 11.2394 5.17122 11.2106 5.35842C11.201 5.42562 11.1986 5.52162 11.237 5.56482C11.5394 5.88402 11.8538 6.19362 12.1706 6.51042C13.6178 5.49762 15.0554 5.48082 16.5074 6.50562C16.5434 6.47442 16.589 6.44082 16.6298 6.40002C17.3234 5.70882 18.0122 5.01282 18.7082 4.32402C18.8042 4.22802 18.8282 4.15602 18.773 4.02162C18.245 2.77842 18.869 1.41282 20.1482 1.00002C21.3842 0.601622 22.6898 1.36482 22.9898 2.66322C23.1938 3.54402 22.7954 4.49922 22.0202 5.00082C21.2426 5.50242 20.2274 5.47122 19.493 4.92402C19.4162 4.86642 19.3442 4.80642 19.2914 4.76322C18.5306 5.52162 17.7794 6.27282 17.0162 7.03362C17.4218 7.54002 17.6618 8.14722 17.7458 8.83122C18.3218 8.83122 18.881 8.83602 19.4378 8.82162C19.493 8.81922 19.5698 8.71122 19.5962 8.63682C19.8626 7.91682 20.561 7.49442 21.3266 7.60002C22.0178 7.69602 22.5914 8.31042 22.6562 9.02322C22.7258 9.80322 22.2026 10.5112 21.4178 10.696C20.6762 10.8712 19.8866 10.456 19.6226 9.72642C19.5506 9.52722 19.457 9.48162 19.2626 9.48642C18.7634 9.50082 18.2642 9.49122 17.7818 9.49122C17.681 9.83202 17.6138 10.1656 17.4842 10.4728C17.3546 10.78 17.1626 11.0632 16.9922 11.3656C17.0882 11.5288 17.1962 11.716 17.3066 11.9056C18.149 11.62 18.689 11.848 19.0586 12.6664C19.3442 12.544 19.6418 12.4936 19.949 12.5752C20.4698 12.7144 20.8322 13.1368 20.8442 13.6744C20.861 14.38 20.8514 15.088 20.849 15.796C20.849 16.0072 20.6954 16.1584 20.5058 16.1512C20.3234 16.144 20.189 16.0024 20.189 15.796C20.1842 15.148 20.189 14.5 20.1842 13.852C20.1818 13.492 20.0522 13.3024 19.7762 13.2232C19.4858 13.1416 19.2002 13.2952 19.1234 13.588C19.097 13.6864 19.0874 13.792 19.0874 13.8928C19.085 14.512 19.0874 15.1288 19.085 15.748C19.085 16.0288 18.9674 16.168 18.7442 16.1608C18.5354 16.156 18.4226 16.0144 18.4226 15.748C18.4226 14.8504 18.4274 13.9504 18.4202 13.0528C18.4178 12.568 17.9834 12.2992 17.5898 12.5272C17.3618 12.6616 17.3234 12.8848 17.3234 13.12C17.321 13.864 17.3306 14.608 17.3138 15.352C17.3114 15.4672 17.2178 15.616 17.1218 15.6832C17.0522 15.7312 16.8698 15.7096 16.8026 15.6496C16.7186 15.5728 16.6634 15.424 16.661 15.3064C16.649 14.3344 16.6562 13.3624 16.6538 12.3904C16.6538 12.2944 16.6514 12.1984 16.6298 12.1072C16.565 11.848 16.3538 11.692 16.097 11.6992C15.8258 11.7064 15.6242 11.8792 15.5858 12.1552C15.5642 12.3064 15.5642 12.4624 15.5642 12.6184C15.5618 13.3336 15.5642 14.0464 15.5642 14.7616C15.5642 14.836 15.5666 14.9104 15.557 14.9824C15.533 15.1696 15.4274 15.2752 15.2354 15.28C15.041 15.2848 14.9378 15.172 14.8994 14.9944C14.885 14.9248 14.8922 14.848 14.8922 14.7736C14.8922 12.9328 14.8922 11.092 14.8898 9.25122C14.8898 8.84802 14.669 8.62722 14.3018 8.64642C14.0498 8.66082 13.8578 8.83122 13.8242 9.08322C13.8098 9.19122 13.8098 9.30402 13.8098 9.41442C13.8098 11.4088 13.8122 13.4056 13.805 15.4C13.805 15.6784 13.7762 15.9592 13.733 16.2328C13.6946 16.4656 13.5842 16.6672 13.3298 16.7368C13.0754 16.804 12.8786 16.6864 12.725 16.5064C12.5258 16.2712 12.3578 16.0096 12.1538 15.7768C11.9954 15.5944 11.8226 15.4192 11.6282 15.2776C11.3378 15.064 10.9994 15.0424 10.6586 15.1432C10.4258 15.2104 10.3658 15.3736 10.4714 15.5896C10.5098 15.6688 10.5626 15.7408 10.613 15.8128C11.5682 17.2192 12.5234 18.6232 13.4762 20.032C13.8962 20.6536 14.1002 21.3448 14.0858 22.0912C14.081 22.2976 14.1506 22.3552 14.3522 22.3552C15.9866 22.348 17.621 22.348 19.2554 22.3552C19.4594 22.3552 19.529 22.2928 19.5242 22.0888C19.5146 21.6256 19.5026 21.16 19.5338 20.6968C19.5554 20.4088 19.601 20.0992 19.7354 19.8496C20.0954 19.1776 20.2346 18.4744 20.189 17.7232C20.1818 17.5912 20.1818 17.4568 20.1914 17.3248C20.2034 17.14 20.3498 16.9984 20.5226 17.0104C20.705 17.0224 20.8394 17.1256 20.8466 17.3104C20.873 18.2152 20.9042 19.1248 20.4194 19.9504C20.2394 20.2552 20.177 20.5912 20.1866 20.9464C20.1962 21.2992 20.1698 21.6544 20.1938 22.0072C20.225 22.48 20.0618 22.8208 19.6178 23.0104C17.7386 23.0152 15.869 23.0152 13.9994 23.0152ZM4.28416 11.476C2.67376 11.476 1.38976 12.7672 1.39456 14.3872C1.39696 15.9928 2.67856 17.2744 4.28416 17.2768C5.88976 17.2792 7.19056 15.9832 7.19536 14.3776C7.19776 12.7768 5.89456 11.4784 4.28416 11.476ZM13.1234 11.6152C13.1234 11.488 13.1234 11.4088 13.1234 11.3296C13.1234 10.6456 13.1186 9.96162 13.1258 9.27522C13.1306 8.77122 13.3082 8.35362 13.7786 8.10882C14.573 7.69842 15.5018 8.21682 15.545 9.11442C15.5738 9.70962 15.5546 10.3072 15.5594 10.9024C15.5594 10.9768 15.569 11.0536 15.5714 11.1136C15.7754 11.0872 15.9506 11.0392 16.121 11.0488C16.2914 11.0584 16.3946 10.9912 16.4882 10.8664C16.9466 10.2568 17.141 9.58242 17.057 8.81922C16.889 7.28802 15.3554 6.16002 13.8482 6.47202C12.3266 6.78642 11.381 8.15442 11.6594 9.68082C11.8178 10.5352 12.305 11.1712 13.1234 11.6152ZM22.3586 3.14562C22.3658 2.27202 21.689 1.58082 20.8226 1.57602C19.9514 1.57122 19.2554 2.25282 19.2506 3.11202C19.2458 3.98322 19.9274 4.67922 20.789 4.68402C21.665 4.68882 22.3538 4.01442 22.3586 3.14562ZM20.1794 9.16002C20.1794 9.65682 20.573 10.0624 21.0674 10.0696C21.5642 10.0768 21.9866 9.65922 21.989 9.16242C21.989 8.66562 21.5714 8.25042 21.0722 8.25522C20.5754 8.26002 20.1794 8.66082 20.1794 9.16002Z" fill="#8A92A6"/>
</svg>
