<svg width="24" height="25" viewBox="0 0 24 25" fill="none" xmlns="http://www.w3.org/2000/svg">
<path d="M0.575758 3.97996C0.767758 3.40396 1.19976 3.23596 1.77576 3.23596C8.59176 3.23596 15.4078 3.23596 22.2478 3.23596C22.3678 3.23596 22.4878 3.23596 22.6078 3.25996C23.0638 3.30796 23.3998 3.66796 23.4238 4.12396C23.4238 4.19596 23.4238 4.29196 23.4238 4.36396C23.4238 8.94796 23.4238 13.556 23.4238 18.14C23.4238 18.908 23.0638 19.268 22.3198 19.268C22.0558 19.268 21.7918 19.268 21.5038 19.268C21.6718 19.604 21.7918 19.892 21.9598 20.204C22.0558 20.372 22.1038 20.564 21.9598 20.732C21.8398 20.9 21.6718 20.9 21.4798 20.852C21.3598 20.828 21.2398 20.804 21.0958 20.804C20.6398 20.732 20.6398 20.732 20.3998 21.092C20.3278 21.212 20.2558 21.332 20.1838 21.452C20.0878 21.62 19.9678 21.764 19.7518 21.74C19.5358 21.716 19.4398 21.572 19.3678 21.404C19.1038 20.828 18.8158 20.276 18.5278 19.652C18.4798 19.748 18.4558 19.796 18.4078 19.868C18.1678 20.372 17.9278 20.876 17.6878 21.38C17.5918 21.572 17.5198 21.74 17.2798 21.764C17.0398 21.764 16.9438 21.596 16.8238 21.428C16.7278 21.26 16.6078 21.092 16.5358 20.924C16.4638 20.756 16.3438 20.732 16.1758 20.756C15.9598 20.804 15.7438 20.828 15.5278 20.852C15.3598 20.876 15.1918 20.852 15.0958 20.708C14.9758 20.564 14.9998 20.396 15.0718 20.252C15.1918 20.012 15.3118 19.748 15.4318 19.508C15.4558 19.436 15.4798 19.364 15.5278 19.268C15.4078 19.268 15.3118 19.268 15.2158 19.268C10.7278 19.268 6.23976 19.268 1.75176 19.268C1.17576 19.268 0.767758 19.1 0.551758 18.524C0.575758 13.676 0.575758 8.82796 0.575758 3.97996ZM16.0318 18.236C15.5278 17.972 15.3118 17.564 15.3118 17.012C15.3118 16.868 15.2398 16.724 15.1678 16.604C14.9518 16.196 14.9518 15.788 15.1678 15.38C15.2398 15.212 15.3118 15.044 15.3118 14.852C15.3358 14.396 15.5278 14.06 15.9118 13.796C16.0558 13.7 16.1998 13.556 16.2958 13.412C16.5358 13.028 16.8958 12.836 17.3518 12.788C17.5438 12.764 17.7358 12.716 17.9278 12.644C18.3358 12.452 18.6958 12.452 19.1038 12.644C19.2718 12.716 19.4878 12.788 19.6798 12.788C20.1358 12.812 20.4718 13.028 20.7358 13.412C20.8318 13.556 20.9758 13.7 21.1198 13.796C21.5038 14.06 21.7198 14.396 21.7438 14.876C21.7438 15.044 21.7918 15.236 21.8878 15.38C22.1038 15.812 22.1038 16.22 21.8878 16.628C21.8398 16.724 21.7678 16.844 21.7678 16.964C21.7918 17.54 21.5758 17.996 21.0478 18.26C21.1918 18.62 21.1918 18.62 21.5518 18.62C21.8158 18.62 22.0798 18.62 22.3438 18.62C22.7278 18.62 22.7998 18.572 22.7998 18.164C22.7998 13.58 22.7998 8.97196 22.7998 4.38796C22.7998 3.97996 22.7518 3.93196 22.3438 3.93196C15.4798 3.93196 8.61576 3.93196 1.75176 3.93196C1.36776 3.93196 1.29576 3.97996 1.29576 4.38796C1.29576 8.97196 1.29576 13.58 1.29576 18.164C1.29576 18.236 1.27176 18.308 1.29576 18.356C1.34376 18.452 1.43976 18.548 1.51176 18.596C1.58376 18.644 1.67976 18.62 1.77576 18.62C6.38376 18.62 10.9678 18.62 15.5758 18.62C15.9118 18.596 15.9118 18.596 16.0318 18.236ZM18.5038 18.836C18.6238 18.788 18.7198 18.788 18.7918 18.74C19.0318 18.596 19.2958 18.5 19.5838 18.524C19.8238 18.524 19.9918 18.404 20.1358 18.212C20.3038 17.996 20.4958 17.804 20.7118 17.636C20.9278 17.492 20.9998 17.3 21.0238 17.06C21.0478 16.82 21.1198 16.556 21.2158 16.316C21.3358 16.076 21.3118 15.884 21.2158 15.644C21.1198 15.428 21.0478 15.164 21.0238 14.924C20.9998 14.66 20.9038 14.492 20.6878 14.324C20.4718 14.18 20.2798 13.988 20.1358 13.772C19.9918 13.58 19.8238 13.436 19.5838 13.46C19.2958 13.46 19.0318 13.388 18.7918 13.244C18.5998 13.124 18.3838 13.124 18.1918 13.244C17.9278 13.412 17.6638 13.484 17.3758 13.46C17.1598 13.46 16.9678 13.556 16.8718 13.748C16.7278 14.012 16.5358 14.204 16.2718 14.348C16.0798 14.444 15.9838 14.636 15.9838 14.852C16.0078 15.14 15.9358 15.404 15.7678 15.644C15.6238 15.86 15.6478 16.076 15.7678 16.268C15.9118 16.508 15.9838 16.772 15.9838 17.06C15.9838 17.3 16.0798 17.468 16.2958 17.588C16.5358 17.732 16.7518 17.9 16.8718 18.164C16.9918 18.38 17.1838 18.452 17.4238 18.5C17.6878 18.524 17.9278 18.62 18.1918 18.692C18.3118 18.74 18.4078 18.788 18.5038 18.836ZM16.5118 18.812C16.2958 19.244 16.1038 19.676 15.8878 20.132C16.0798 20.108 16.2478 20.084 16.4158 20.06C16.6558 20.012 16.8238 20.108 16.9438 20.3C17.0398 20.468 17.1358 20.612 17.2558 20.804C17.4958 20.3 17.7118 19.82 17.9758 19.316C17.8078 19.268 17.6638 19.196 17.5198 19.196C17.1358 19.172 16.7998 19.1 16.5118 18.812ZM21.1438 20.132C20.9278 19.676 20.7358 19.268 20.5198 18.836C20.2318 19.1 19.9438 19.172 19.5838 19.196C19.4158 19.196 19.2478 19.268 19.0798 19.316C19.3198 19.844 19.5598 20.3 19.7998 20.804C19.9198 20.612 20.0398 20.444 20.1358 20.276C20.2318 20.108 20.3758 20.036 20.5678 20.06C20.7598 20.06 20.9278 20.084 21.1438 20.132Z" fill="#8A92A6"/>
<path d="M21.1439 7.17199C20.2079 6.95599 19.9199 6.66799 19.4639 5.58799C14.4479 5.58799 9.45593 5.58799 4.43993 5.58799C4.24793 6.42799 3.71993 6.95599 2.87993 7.14799C2.87993 9.88399 2.87993 12.596 2.87993 15.332C3.71993 15.524 4.24793 16.052 4.43993 16.916C4.53593 16.916 4.63193 16.916 4.72793 16.916C7.77593 16.916 10.8479 16.916 13.8959 16.916C13.9919 16.916 14.0879 16.916 14.1599 16.94C14.3279 16.988 14.4239 17.084 14.4239 17.276C14.4239 17.444 14.3039 17.564 14.1359 17.588C14.0879 17.588 14.0399 17.588 13.9919 17.588C10.7759 17.588 7.55993 17.588 4.36793 17.588C4.00793 17.588 3.88793 17.492 3.81593 17.132C3.69593 16.508 3.33593 16.124 2.71193 16.028C2.32793 15.956 2.23193 15.86 2.23193 15.452C2.23193 12.668 2.23193 9.88399 2.23193 7.12399C2.23193 6.71599 2.32793 6.61999 2.71193 6.54799C3.33593 6.42799 3.69593 6.06799 3.81593 5.44399C3.88793 5.05999 3.98393 4.96399 4.39193 4.96399C9.45593 4.96399 14.5439 4.96399 19.6079 4.96399C19.9919 4.96399 20.1119 5.05999 20.1839 5.46799C20.2799 6.09199 20.6879 6.47599 21.3119 6.57199C21.7679 6.64399 21.8639 6.73999 21.8639 7.19599C21.8639 9.04399 21.8639 10.892 21.8639 12.716C21.8639 12.788 21.8639 12.86 21.8639 12.932C21.8399 13.1 21.7199 13.22 21.5519 13.22C21.3599 13.22 21.2399 13.124 21.2159 12.932C21.1919 12.86 21.2159 12.788 21.2159 12.716C21.2159 10.988 21.2159 9.23599 21.2159 7.50799C21.1439 7.36399 21.1439 7.26799 21.1439 7.17199Z" fill="#8A92A6"/>
<path d="M11.9997 7.86792C9.91172 7.86792 7.79972 7.86792 5.71172 7.86792C5.63972 7.86792 5.56772 7.86792 5.49572 7.86792C5.32772 7.84392 5.20772 7.74792 5.18372 7.57992C5.15972 7.38792 5.27972 7.26792 5.44772 7.21992C5.51972 7.19592 5.59172 7.19592 5.63972 7.19592C9.86372 7.19592 14.1117 7.19592 18.3357 7.19592C18.4077 7.19592 18.4797 7.19592 18.5517 7.21992C18.7197 7.26792 18.8157 7.38792 18.7917 7.55592C18.7677 7.74792 18.6717 7.84392 18.4797 7.84392C18.4077 7.84392 18.3357 7.84392 18.2637 7.84392C16.1997 7.86792 14.0877 7.86792 11.9997 7.86792Z" fill="#8A92A6"/>
<path d="M11.9997 10.844C14.1117 10.844 16.1997 10.844 18.3117 10.844C18.6717 10.844 18.8157 10.94 18.8157 11.18C18.8157 11.42 18.6477 11.516 18.2877 11.516C14.0877 11.516 9.88774 11.516 5.66374 11.516C5.30374 11.516 5.13574 11.42 5.13574 11.18C5.13574 10.94 5.30374 10.844 5.66374 10.844C7.79974 10.844 9.91174 10.844 11.9997 10.844Z" fill="#8A92A6"/>
<path d="M13.6558 9.01992C15.2158 9.01992 16.7518 9.01992 18.3118 9.01992C18.3838 9.01992 18.4558 9.01992 18.5278 9.01992C18.6958 9.04392 18.8158 9.13992 18.8158 9.33192C18.8158 9.52392 18.7198 9.61992 18.5518 9.66792C18.4798 9.69192 18.4078 9.69192 18.3358 9.69192C15.2158 9.69192 12.0718 9.69192 8.95183 9.69192C8.85583 9.69192 8.75983 9.69192 8.68783 9.66792C8.51983 9.61992 8.42383 9.47592 8.47183 9.33192C8.51983 9.21192 8.63983 9.11592 8.73583 9.04392C8.78383 8.99592 8.90383 9.01992 8.97583 9.01992C10.5358 9.01992 12.0958 9.01992 13.6558 9.01992Z" fill="#8A92A6"/>
<path d="M11.9996 13.22C12.7196 13.22 13.4396 13.22 14.1596 13.22C14.3276 13.22 14.4716 13.268 14.5436 13.436C14.6156 13.628 14.5196 13.82 14.3276 13.868C14.2556 13.892 14.1596 13.892 14.0876 13.892C12.6956 13.892 11.3276 13.892 9.93564 13.892C9.88764 13.892 9.83964 13.892 9.79164 13.892C9.57564 13.868 9.43164 13.748 9.43164 13.556C9.43164 13.364 9.57564 13.22 9.81564 13.22C10.5356 13.22 11.2796 13.22 11.9996 13.22Z" fill="#8A92A6"/>
<path d="M6.38352 9.02002C6.64752 9.02002 6.93552 9.02002 7.19952 9.02002C7.41552 9.02002 7.58352 9.16402 7.58352 9.35602C7.58352 9.54802 7.43952 9.69202 7.22352 9.69202C6.67152 9.69202 6.11952 9.69202 5.56752 9.69202C5.32752 9.69202 5.20752 9.54802 5.20752 9.35602C5.20752 9.16402 5.35152 9.02002 5.59152 9.02002C5.83152 9.02002 6.09552 9.02002 6.38352 9.02002Z" fill="#8A92A6"/>
<path d="M20.568 15.98C20.568 17.108 19.632 18.068 18.504 18.068C17.376 18.068 16.44 17.132 16.416 16.004C16.392 14.876 17.352 13.916 18.504 13.916C19.632 13.916 20.568 14.828 20.568 15.98ZM19.896 15.98C19.896 15.212 19.272 14.588 18.504 14.564C17.736 14.54 17.088 15.212 17.088 15.98C17.088 16.748 17.736 17.372 18.504 17.372C19.272 17.396 19.896 16.772 19.896 15.98Z" fill="#8A92A6"/>
</svg>
