<svg width="24" height="25" viewBox="0 0 24 25" fill="none" xmlns="http://www.w3.org/2000/svg">
<path d="M14.3761 19.9976C14.6809 21.0152 14.9761 21.9992 15.2761 22.9976C15.6817 22.9976 16.0777 22.9976 16.4833 22.9976C16.4833 23.2472 16.4833 23.48 16.4833 23.7272C13.5001 23.7272 10.5193 23.7272 7.52167 23.7272C7.52167 23.4968 7.52167 23.264 7.52167 22.9952C7.84567 22.9952 8.17687 22.9856 8.50807 23C8.68087 23.0072 8.74807 22.9496 8.79367 22.784C9.06007 21.8648 9.33847 20.9504 9.62407 20C9.51127 20 9.42247 20 9.33367 20C6.90727 20 4.48327 20 2.05687 20C1.20967 20 0.768066 19.5632 0.768066 18.7232C0.768066 13.3328 0.768066 7.94241 0.768066 2.55201C0.768066 1.72161 1.20967 1.27521 2.03287 1.27521C8.67847 1.27521 15.3217 1.27521 21.9673 1.27521C22.7809 1.27521 23.2321 1.72161 23.2321 2.53041C23.2321 7.93521 23.2321 13.3424 23.2321 18.7472C23.2321 19.5464 22.7809 19.9976 21.9889 20C19.5553 20 17.1217 20 14.6881 20C14.5945 19.9976 14.5033 19.9976 14.3761 19.9976ZM22.4833 16.9928C22.4833 16.892 22.4833 16.8152 22.4833 16.7384C22.4833 12.0128 22.4833 7.28481 22.4833 2.55921C22.4833 2.12961 22.3753 2.02161 21.9433 2.02161C15.3145 2.02161 8.68567 2.02161 2.05687 2.02161C1.62487 2.02161 1.51447 2.12961 1.51447 2.55681C1.51447 7.28241 1.51447 12.0104 1.51447 16.736C1.51447 16.8176 1.51447 16.9016 1.51447 16.9928C8.51527 16.9928 15.4849 16.9928 22.4833 16.9928ZM1.51687 17.7584C1.51687 18.0776 1.51687 18.3728 1.51687 18.668C1.51687 19.1576 1.60807 19.2464 2.10727 19.2464C8.70247 19.2464 15.3001 19.2464 21.8953 19.2464C21.9721 19.2464 22.0513 19.2512 22.1281 19.244C22.3129 19.2272 22.4569 19.1216 22.4665 18.944C22.4881 18.5504 22.4737 18.1568 22.4737 17.756C15.4825 17.7584 8.51527 17.7584 1.51687 17.7584ZM13.5937 20.0048C12.5257 20.0048 11.4745 20.0048 10.4041 20.0048C10.1065 20.9936 9.81127 21.9824 9.50887 22.9856C11.1769 22.9856 12.8185 22.9856 14.4865 22.9856C14.1889 21.9824 13.8913 20.9936 13.5937 20.0048Z" fill="#8A92A6"/>
<path d="M14.9855 16.2536C13.1615 16.2536 11.3375 16.2536 9.51106 16.2536C8.70226 16.2536 8.25586 15.8048 8.25586 14.9912C8.25586 12.4568 8.25586 9.92239 8.25586 7.38799C8.25586 6.59599 8.70946 6.14239 9.50386 6.14239C10.8215 6.14239 12.1391 6.14719 13.4567 6.13999C13.8479 6.13759 14.1671 6.26959 14.4359 6.55039C14.7287 6.85519 15.0335 7.14319 15.3263 7.44559C15.4607 7.58479 15.6071 7.64479 15.8015 7.64239C17.3519 7.63759 18.9047 7.63999 20.4551 7.63999C21.2855 7.63999 21.7319 8.08159 21.7319 8.90479C21.7319 10.9328 21.7319 12.9608 21.7319 14.9864C21.7319 15.8096 21.2855 16.2512 20.4575 16.2512C18.6335 16.2536 16.8095 16.2536 14.9855 16.2536ZM14.9927 15.5048C16.8095 15.5048 18.6263 15.5048 20.4431 15.5048C20.8751 15.5048 20.9831 15.3968 20.9831 14.9696C20.9831 12.956 20.9831 10.9448 20.9831 8.93119C20.9831 8.49919 20.8751 8.38879 20.4479 8.38879C18.9047 8.38879 17.3591 8.38399 15.8159 8.39359C15.3983 8.39599 15.0599 8.26159 14.7743 7.95679C14.4959 7.66159 14.1983 7.38559 13.9175 7.09279C13.7783 6.94639 13.6247 6.88639 13.4207 6.88879C12.1271 6.89599 10.8311 6.89119 9.53746 6.89119C9.10786 6.89119 8.99986 6.99919 8.99986 7.43119C8.99986 9.94399 8.99986 12.4544 8.99986 14.9672C8.99986 15.3968 9.10786 15.5072 9.53746 15.5072C11.3591 15.5048 13.1759 15.5048 14.9927 15.5048Z" fill="#8A92A6"/>
<path d="M3.0264 9.00562C3.0216 9.04162 3.0144 9.06322 3.0144 9.08722C3.0168 9.39202 2.916 9.75922 3.0528 9.98002C3.18 10.1888 3.54959 10.2728 3.828 10.3568C4.28879 10.4936 4.5072 10.7984 4.6992 11.2256C4.9296 11.7416 4.9824 12.1952 4.6992 12.692C4.5768 12.9056 4.416 13.172 4.4568 13.3784C4.4976 13.5848 4.7808 13.736 4.9392 13.9256C5.0712 14.0864 5.1984 14.1176 5.376 14.0096C5.4672 13.9544 5.5776 13.928 5.6784 13.8872C6.6624 13.4936 6.6624 13.4936 7.6416 14C7.5528 14.2184 7.4616 14.4368 7.3632 14.6744C7.1328 14.5808 6.9216 14.4824 6.7032 14.4104C6.6096 14.3792 6.4896 14.3744 6.3984 14.408C5.9616 14.5712 5.532 14.756 5.0928 14.9192C5.0208 14.9456 4.8912 14.9216 4.8384 14.8688C4.4328 14.48 4.044 14.0744 3.6408 13.6856C3.54 13.5896 3.54959 13.5128 3.59519 13.4C3.76079 12.9968 3.9168 12.5888 4.0848 12.188C4.1496 12.0344 4.1376 11.9048 4.0896 11.7464C3.9672 11.3336 3.73199 11.072 3.30719 10.9496C3.00239 10.8608 2.7192 10.7024 2.424 10.5824C2.3088 10.5368 2.25599 10.4792 2.25839 10.3448C2.26799 9.79042 2.26559 9.23842 2.25839 8.68402C2.25599 8.55442 2.29919 8.48962 2.41679 8.44162C2.81999 8.27602 3.216 8.09122 3.6216 7.93282C3.7992 7.86322 3.87359 7.73842 3.95759 7.58242C4.152 7.22482 4.1616 6.89602 3.9648 6.53122C3.8112 6.24562 3.7224 5.92402 3.5928 5.62402C3.54 5.50162 3.5448 5.42002 3.64799 5.32162C4.04159 4.94242 4.4256 4.55602 4.8072 4.16482C4.9032 4.06642 4.9824 4.04722 5.1096 4.10002C5.5104 4.27042 5.9208 4.42162 6.3216 4.59202C6.4752 4.65682 6.6048 4.64482 6.7632 4.59922C7.1784 4.47922 7.4376 4.23922 7.56 3.81682C7.6488 3.51202 7.8072 3.22882 7.9272 2.93362C7.9728 2.81842 8.0304 2.76562 8.1648 2.76802C8.7192 2.77762 9.27119 2.77762 9.82559 2.76802C9.97199 2.76562 10.0272 2.82802 10.0776 2.94802C10.2432 3.35122 10.4256 3.74722 10.5864 4.15282C10.6464 4.30402 10.7496 4.37362 10.8816 4.45282C11.2752 4.68322 11.6448 4.66402 12.0408 4.45522C12.3216 4.30642 12.6288 4.20562 12.9264 4.09522C12.984 4.07362 13.0872 4.07842 13.128 4.11682C13.4712 4.44562 13.8048 4.78402 14.1216 5.09842C13.9464 5.28802 13.7832 5.46322 13.5984 5.66242C13.3896 5.44402 13.1976 5.23042 12.9864 5.03362C12.9312 4.98322 12.804 4.95442 12.732 4.98082C12.3528 5.11762 11.9808 5.28322 11.6016 5.42242C11.5104 5.45602 11.388 5.45602 11.2968 5.42242C10.9464 5.29042 10.6008 5.14642 10.2624 4.99282C10.1736 4.95202 10.0872 4.86562 10.0464 4.77682C9.8784 4.41682 9.7248 4.04962 9.5736 3.68242C9.5256 3.56722 9.4728 3.50962 9.3384 3.51682C9.1128 3.52882 8.8848 3.52882 8.6616 3.51682C8.5272 3.50962 8.47199 3.56242 8.424 3.68002C8.2776 4.04002 8.12879 4.40002 7.96079 4.75282C7.9128 4.85362 7.8168 4.95682 7.716 5.00242C7.3848 5.15842 7.0464 5.29522 6.7032 5.42482C6.6144 5.45842 6.4896 5.45602 6.3984 5.42242C6.0192 5.28322 5.6472 5.12002 5.268 4.98082C5.196 4.95442 5.0712 4.98322 5.0136 5.03362C4.8072 5.22082 4.512 5.40562 4.4568 5.63842C4.404 5.85682 4.5864 6.15442 4.716 6.38962C4.9656 6.84322 4.9272 7.24642 4.7256 7.72402C4.5192 8.21122 4.26719 8.55442 3.74639 8.69842C3.49919 8.76802 3.264 8.90242 3.0264 9.00562Z" fill="#8A92A6"/>
<path d="M7.35109 12.8432C6.25189 12.4592 5.29909 10.9976 5.26309 9.65843C5.22229 8.16323 6.09349 6.69443 7.34629 6.17603C7.45189 6.38483 7.55749 6.59603 7.66309 6.80723C5.50069 7.92083 5.42869 10.9976 7.66549 12.2096C7.56229 12.4208 7.45669 12.632 7.35109 12.8432Z" fill="#8A92A6"/>
<path d="M13.0081 10.1624C12.4729 10.6952 11.9497 11.216 11.4121 11.7536C11.9545 12.2864 12.4849 12.8096 13.0249 13.3424C12.8185 13.5344 12.6457 13.6952 12.4849 13.844C11.7961 13.1552 11.0977 12.4544 10.4233 11.78C11.1073 11.0936 11.8153 10.388 12.5281 9.67523C12.6577 9.80963 12.8209 9.97523 13.0081 10.1624Z" fill="#8A92A6"/>
<path d="M17.4865 13.844C17.3353 13.6976 17.1673 13.5368 16.9993 13.3784C17.5297 12.8504 18.0529 12.3272 18.5833 11.7968C18.0265 11.2424 17.4961 10.7144 16.9585 10.1792C17.1625 9.97759 17.3281 9.81199 17.4745 9.66559C18.1801 10.3712 18.8809 11.0744 19.5649 11.7608C18.8953 12.4328 18.1921 13.136 17.4865 13.844Z" fill="#8A92A6"/>
<path d="M14.5776 13.82C14.352 13.6928 14.148 13.58 13.9248 13.4552C14.5512 12.3296 15.168 11.216 15.7968 10.088C16.0248 10.2152 16.2336 10.3304 16.4496 10.4528C15.8232 11.5784 15.2064 12.6872 14.5776 13.82Z" fill="#8A92A6"/>
</svg>
