<svg width="24" height="25" viewBox="0 0 24 25" fill="none" xmlns="http://www.w3.org/2000/svg">
<path d="M12.4487 1.00641C12.9095 1.09281 13.3799 1.14801 13.8311 1.27521C15.4367 1.72641 16.6943 2.66961 17.6111 4.05681C18.3743 5.21361 18.7199 6.49521 18.7031 7.88001C18.7031 7.96161 18.7055 8.04561 18.7079 8.12721C18.7079 8.14161 18.7175 8.15601 18.7151 8.15121C18.9911 8.22801 19.2695 8.26881 19.5143 8.38401C20.2007 8.71041 20.5823 9.27441 20.6087 10.0304C20.6255 10.5632 20.6255 11.1152 20.5127 11.6336C20.3519 12.3752 19.6727 12.8816 18.9071 12.9584C18.8495 12.9656 18.7895 12.9776 18.7175 12.992C18.6959 13.2248 18.6815 13.4528 18.6503 13.6784C18.2903 16.2584 16.1879 18.152 13.5839 18.2456C13.4111 18.2528 13.2407 18.2504 13.0679 18.2504C12.7007 18.248 12.5591 18.1304 12.4823 17.7704C12.4151 17.4584 12.2711 17.312 12.0263 17.3024C11.7839 17.2928 11.5919 17.444 11.5463 17.6816C11.5007 17.9192 11.6207 18.1352 11.8487 18.2144C11.9111 18.236 11.9807 18.2432 12.0455 18.2576C12.3359 18.3176 12.4967 18.512 12.4727 18.7688C12.4463 19.04 12.2447 19.2056 11.9447 19.2008C11.3231 19.1864 10.7735 18.74 10.6151 18.1208C10.4615 17.5232 10.7327 16.8632 11.2607 16.5512C11.9951 16.1168 12.8975 16.376 13.2887 17.1392C13.3415 17.2424 13.3847 17.3024 13.5191 17.2952C15.2975 17.1944 16.5863 16.3544 17.3663 14.7512C17.6447 14.1776 17.7527 13.5608 17.7527 12.9224C17.7527 12.1736 17.7503 11.4248 17.7527 10.6784C17.7527 10.388 17.8799 10.196 18.0959 10.136C18.4007 10.0496 18.6863 10.2536 18.6983 10.5872C18.7127 10.976 18.7031 11.3648 18.7055 11.7536C18.7055 11.8352 18.7055 11.9144 18.7055 11.9936C19.1447 12.032 19.5863 11.7104 19.6295 11.2664C19.6727 10.8152 19.6727 10.3544 19.6295 9.90321C19.5863 9.47121 19.1879 9.18081 18.6983 9.14961C18.5567 9.14001 18.4127 9.15201 18.2711 9.14481C17.9399 9.13041 17.7599 8.95521 17.7503 8.62401C17.7431 8.36241 17.7527 8.10081 17.7479 7.83921C17.6999 5.34081 16.5599 3.53121 14.3063 2.45601C12.2111 1.45761 9.46311 2.02161 7.86231 3.73281C6.78471 4.88481 6.25191 6.24801 6.25191 7.82241C6.25191 9.32721 6.25191 10.8296 6.25191 12.3344C6.25191 12.8144 6.08391 12.98 5.60871 12.9872C5.05911 12.9968 4.53831 12.9176 4.09431 12.5504C3.64791 12.1808 3.40791 11.7032 3.38871 11.1296C3.37431 10.7048 3.36711 10.2752 3.41511 9.85281C3.51111 8.98401 4.17351 8.34081 5.04231 8.21841C5.12151 8.20641 5.20311 8.19201 5.27511 8.18001C5.30151 7.72881 5.30391 7.28481 5.35911 6.85041C5.73111 3.95601 7.96311 1.61841 10.8215 1.11681C11.0639 1.07361 11.3063 1.04241 11.5511 1.00641C11.8511 1.00641 12.1511 1.00641 12.4487 1.00641ZM5.28471 12.0032C5.28471 11.0552 5.28471 10.1192 5.28471 9.18081C4.83831 9.15201 4.41111 9.47361 4.36791 9.92721C4.32711 10.364 4.32951 10.808 4.36791 11.2448C4.40871 11.6864 4.81431 12.0008 5.28471 12.0032Z" fill="#8A92A6"/>
<path d="M23.4959 19.4168C23.4047 19.856 23.2463 20.2592 22.9127 20.576C22.4999 20.9696 22.0007 21.1232 21.4391 21.1232C16.8527 21.1208 12.2663 21.1232 7.67987 21.1184C7.48547 21.1184 7.34867 21.1712 7.21187 21.3104C6.41987 22.1168 5.61827 22.9112 4.81907 23.7104C4.77107 23.7584 4.72547 23.8064 4.67507 23.852C4.51427 23.9888 4.33187 24.0392 4.13507 23.9456C3.94787 23.8568 3.86387 23.6984 3.86387 23.492C3.86387 22.7576 3.86387 22.0256 3.86387 21.2912C3.86387 21.0896 3.85907 20.888 3.86627 20.6864C3.87827 20.3696 4.06307 20.1728 4.34147 20.1752C4.61747 20.1752 4.81187 20.3792 4.81667 20.6912C4.82387 21.1544 4.81907 21.62 4.81907 22.0832C4.81907 22.1552 4.81907 22.2296 4.81907 22.3448C4.89587 22.2752 4.94627 22.2368 4.98947 22.1912C5.57267 21.6104 6.15827 21.032 6.73187 20.4416C6.92387 20.2448 7.13267 20.1632 7.40627 20.1632C12.0671 20.168 16.7279 20.1704 21.3911 20.1608C21.6215 20.1608 21.8735 20.1128 22.0775 20.0096C22.4303 19.8296 22.5431 19.4864 22.5431 19.1024C22.5431 18.1592 22.5431 17.216 22.5431 16.2752C22.5431 12.8408 22.5431 9.4064 22.5431 5.972C22.5431 5.6912 22.5095 5.42 22.3199 5.192C22.0967 4.9208 21.7991 4.8344 21.4607 4.8344C20.7263 4.8344 19.9943 4.8368 19.2599 4.832C18.9167 4.8296 18.7031 4.6328 18.7103 4.3448C18.7175 4.0976 18.9047 3.8864 19.1735 3.8864C20.0567 3.8816 20.9423 3.8552 21.8207 3.9176C22.6751 3.9776 23.2919 4.6112 23.4599 5.4584C23.4695 5.5016 23.4839 5.5424 23.4983 5.5856C23.4959 10.196 23.4959 14.8064 23.4959 19.4168Z" fill="#8A92A6"/>
<path d="M0.50649 12.5C0.50649 10.2992 0.50409 8.1008 0.50649 5.9C0.50649 5.0816 0.84489 4.448 1.59129 4.0856C1.83849 3.9656 2.13369 3.8984 2.40969 3.8888C3.19449 3.8624 3.98169 3.8768 4.76649 3.8816C5.04969 3.884 5.22729 4.0256 5.27289 4.2632C5.31849 4.4912 5.21049 4.7144 4.99689 4.7888C4.89369 4.8248 4.77849 4.8296 4.66569 4.832C3.96969 4.8344 3.27369 4.832 2.57769 4.8344C1.83369 4.8368 1.45929 5.2112 1.45929 5.9552C1.45929 10.3184 1.45929 14.6792 1.45929 19.0424C1.45929 19.7312 1.74009 20.0624 2.41449 20.1704C2.74809 20.2232 2.91849 20.4152 2.88489 20.7056C2.85369 20.9792 2.61369 21.1472 2.29209 21.116C1.22169 21.0104 0.50649 20.2184 0.50409 19.124C0.50169 16.916 0.50649 14.708 0.50649 12.5Z" fill="#8A92A6"/>
<path d="M12.0073 2.94082C14.2873 2.93362 16.2385 4.53442 16.6945 6.77362C16.7497 7.04242 16.7641 7.32082 16.7833 7.59682C16.8073 7.93042 16.6249 8.16562 16.3369 8.18482C16.0681 8.20402 15.8473 8.00002 15.8305 7.67362C15.8089 7.19842 15.7273 6.74242 15.5569 6.29602C14.9617 4.74802 13.2961 3.72082 11.6545 3.89362C9.88333 4.08082 8.46972 5.40322 8.22253 7.10722C8.19372 7.31362 8.19133 7.52482 8.16013 7.73122C8.11693 8.02402 7.89853 8.20882 7.64653 8.18242C7.38253 8.15362 7.20493 7.94242 7.21213 7.64962C7.22893 6.99202 7.34653 6.35602 7.63213 5.76082C8.40973 4.12882 9.70573 3.19762 11.4913 2.94802C11.5201 2.94322 11.5513 2.94082 11.5801 2.94082C11.7241 2.94082 11.8657 2.94082 12.0073 2.94082Z" fill="#8A92A6"/>
<path d="M12.4826 14.408C12.149 14.408 11.849 14.408 11.5322 14.408C11.5322 14.0912 11.5322 13.7912 11.5322 13.46C11.8226 13.46 12.1034 13.4552 12.3842 13.4648C12.4178 13.4648 12.4778 13.5392 12.4778 13.58C12.4874 13.8464 12.4826 14.1128 12.4826 14.408Z" fill="#8A92A6"/>
<path d="M10.5528 13.484C10.5528 13.7912 10.5528 14.0936 10.5528 14.408C10.2408 14.408 9.93842 14.408 9.62402 14.408C9.62402 14.1008 9.62402 13.8056 9.62402 13.484C9.92162 13.484 10.2264 13.484 10.5528 13.484Z" fill="#8A92A6"/>
<path d="M14.3809 14.4104C14.0569 14.4104 13.7617 14.4104 13.4521 14.4104C13.4521 14.0984 13.4521 13.796 13.4521 13.4744C13.7545 13.4744 14.0617 13.4744 14.3809 13.4744C14.3809 13.7864 14.3809 14.0888 14.3809 14.4104Z" fill="#8A92A6"/>
</svg>
