<svg width="24" height="25" viewBox="0 0 24 25" fill="none" xmlns="http://www.w3.org/2000/svg">
<path d="M0.830566 4.3016C0.854566 4.2416 0.883366 4.184 0.904966 4.124C1.08497 3.6584 1.51217 3.3512 2.01137 3.3464C2.75297 3.3392 3.49457 3.344 4.23617 3.344C4.48817 3.344 4.62977 3.4712 4.62737 3.6824C4.62497 3.8864 4.49537 4.0016 4.24577 4.0016C3.55457 4.004 2.86577 4.0016 2.17457 4.004C1.68257 4.004 1.48577 4.2008 1.48577 4.6904C1.48577 8.1512 1.48577 11.612 1.48577 15.0728C1.48577 15.1448 1.49057 15.2144 1.49537 15.296C8.49857 15.296 15.4898 15.296 22.5098 15.296C22.5098 15.2168 22.5098 15.14 22.5098 15.0632C22.5098 11.6096 22.5098 8.156 22.5098 4.7024C22.5098 4.1984 22.3154 4.004 21.8114 4.004C16.4906 4.004 11.1698 4.004 5.84897 4.004C5.76257 4.004 5.67377 4.0064 5.58737 3.9992C5.40017 3.9824 5.29457 3.8696 5.28737 3.6872C5.28017 3.5 5.38817 3.3896 5.56577 3.3512C5.62817 3.3368 5.69537 3.344 5.76257 3.344C11.1266 3.344 16.4906 3.3488 21.857 3.3368C22.625 3.3344 23.1794 3.9152 23.1746 4.6616C23.1554 8.828 23.165 12.992 23.165 17.1584C23.165 17.9576 22.6802 18.4568 21.881 18.4592C20.5082 18.464 19.133 18.4616 17.7602 18.4592C17.6882 18.4592 17.5946 18.4712 17.549 18.4328C17.4578 18.356 17.357 18.2576 17.3258 18.1496C17.2826 18.0056 17.369 17.8784 17.5178 17.828C17.6042 17.7992 17.7026 17.792 17.7962 17.792C19.1474 17.7896 20.501 17.792 21.8522 17.7896C22.3202 17.7896 22.5122 17.5976 22.5122 17.1272C22.5122 16.7648 22.5098 16.4 22.5074 16.0376C22.5074 16.0256 22.4954 16.0136 22.4834 15.9896C15.4994 15.9896 8.50817 15.9896 1.50257 15.9896C1.50257 16.448 1.48097 16.904 1.50977 17.3552C1.52657 17.6216 1.75457 17.7776 2.02817 17.7872C2.10737 17.7896 2.18897 17.7896 2.26817 17.7896C6.87617 17.7896 11.4842 17.7896 16.0946 17.7896C16.1738 17.7896 16.2554 17.7848 16.3346 17.7944C16.5338 17.816 16.6682 17.96 16.6634 18.1376C16.6586 18.3128 16.5218 18.4496 16.3154 18.4568C16.0682 18.4664 15.821 18.4616 15.5738 18.4616C15.3074 18.4616 15.0386 18.4616 14.7362 18.4616C14.7722 18.7616 14.8058 19.0376 14.8418 19.316C14.909 19.82 14.9858 20.3216 15.0482 20.8256C15.065 20.9648 15.1178 21.0104 15.2546 21.0056C15.5306 20.996 15.8066 21.0008 16.0826 21.0056C16.325 21.0104 16.4546 21.1304 16.4522 21.3368C16.4498 21.536 16.3106 21.6632 16.0706 21.6632C13.3586 21.6656 10.649 21.6656 7.93697 21.6632C7.68737 21.6632 7.54577 21.5336 7.55057 21.3224C7.55537 21.1208 7.68737 21.0104 7.93697 21.0056C8.22017 21.0032 8.50337 21.0104 8.78657 20.9984C8.84177 20.996 8.93297 20.9264 8.94017 20.8784C9.05057 20.1248 9.15137 19.3688 9.25457 18.6152C9.25937 18.5792 9.25457 18.5432 9.25457 18.464C9.16337 18.464 9.07457 18.464 8.98337 18.464C6.77297 18.464 4.56257 18.4496 2.35457 18.4712C1.61537 18.4784 1.08737 18.2456 0.832966 17.5232C0.830566 13.1144 0.830566 8.708 0.830566 4.3016ZM9.59537 20.9864C11.2106 20.9864 12.797 20.9864 14.3882 20.9864C14.3906 20.9432 14.3954 20.9144 14.393 20.8856C14.2922 20.1392 14.1842 19.3928 14.0906 18.644C14.069 18.476 13.9826 18.4568 13.841 18.4592C12.6146 18.464 11.3858 18.4616 10.1594 18.4616C10.0946 18.4616 10.0322 18.4688 9.95777 18.4712C9.94337 18.5336 9.92417 18.5888 9.91697 18.644C9.80897 19.4192 9.70337 20.1944 9.59537 20.9864Z" fill="#8A92A6"/>
<path d="M12.8786 12.5888C12.9338 12.4544 12.9698 12.3368 13.0298 12.2336C13.1954 11.9432 13.3706 11.66 13.541 11.372C13.649 11.1896 13.5146 10.8536 13.3106 10.7984C12.9818 10.7096 12.6506 10.6256 12.3218 10.5368C12.0002 10.4504 11.8682 10.2752 11.8658 9.9368C11.8658 9.7688 11.8634 9.6032 11.8682 9.4352C11.8754 9.1424 12.0146 8.9576 12.2978 8.8832C12.6338 8.792 12.9722 8.7128 13.3082 8.624C13.5266 8.5688 13.6634 8.2376 13.5482 8.0408C13.3778 7.7456 13.2026 7.4528 13.0346 7.1552C12.8834 6.8864 12.9146 6.6656 13.1306 6.4448C13.2482 6.3248 13.3658 6.2072 13.4858 6.092C13.7162 5.8712 13.9418 5.84 14.2154 5.9984C14.5034 6.1664 14.7866 6.3416 15.0746 6.512C15.2882 6.6392 15.6098 6.5096 15.6746 6.272C15.7586 5.9576 15.8402 5.6408 15.9242 5.3264C16.0154 4.9856 16.1762 4.8584 16.5314 4.8536C16.6994 4.8512 16.865 4.8536 17.033 4.8584C17.3378 4.8656 17.501 4.9904 17.5826 5.2856C17.6714 5.6072 17.7506 5.9312 17.8322 6.2528C17.9018 6.5288 18.2138 6.6584 18.4634 6.512C18.7394 6.3512 19.013 6.1856 19.2914 6.0272C19.5914 5.8568 19.7882 5.8832 20.0354 6.1256C20.1506 6.2384 20.2634 6.3512 20.3738 6.4664C20.6066 6.7088 20.633 6.9176 20.4602 7.2152C20.2946 7.496 20.1242 7.7744 19.9586 8.0552C19.8266 8.2784 19.961 8.6 20.213 8.6648C20.5346 8.7488 20.8586 8.8328 21.1778 8.9216C21.4706 9.0032 21.605 9.1664 21.6194 9.4664C21.6266 9.656 21.6266 9.8456 21.6146 10.0328C21.5978 10.3328 21.4586 10.4984 21.1682 10.5752C20.8394 10.6616 20.5082 10.7408 20.1794 10.8272C19.9562 10.8848 19.8194 11.2088 19.9322 11.4032C20.1002 11.6912 20.2706 11.9792 20.4362 12.2696C20.6114 12.5744 20.5826 12.7784 20.333 13.0328C20.2106 13.1576 20.0882 13.2824 19.9586 13.4C19.7546 13.5824 19.5362 13.6064 19.2962 13.4696C18.9938 13.2968 18.6986 13.1144 18.3986 12.9368C18.1922 12.8144 17.8658 12.9512 17.8034 13.1864C17.717 13.5152 17.6354 13.8464 17.5418 14.1752C17.4578 14.4704 17.2922 14.5952 16.9898 14.6C16.8146 14.6024 16.6418 14.6 16.4666 14.5976C16.1498 14.5952 15.9698 14.456 15.8882 14.144C15.8042 13.8224 15.7298 13.496 15.6482 13.1744C15.5882 12.9416 15.2594 12.8048 15.053 12.9248C14.765 13.0928 14.477 13.2632 14.189 13.4288C13.9034 13.592 13.6922 13.5632 13.4618 13.3376C13.3322 13.2104 13.1954 13.088 13.0802 12.9488C12.9938 12.8432 12.9458 12.7136 12.8786 12.5888ZM12.5474 9.5072C12.4898 9.896 12.4898 9.896 12.8402 9.9872C12.9602 10.0184 13.0754 10.0664 13.1978 10.0808C13.7378 10.1408 14.0762 10.4072 14.225 10.9496C14.2922 11.192 14.3114 11.3936 14.1746 11.6096C13.9826 11.9144 13.8002 12.2288 13.6106 12.5504C13.7066 12.6512 13.793 12.7424 13.8866 12.8408C14.2274 12.6416 14.5442 12.4544 14.8634 12.2696C15.197 12.0776 16.0082 12.3248 16.1834 12.6728C16.2194 12.7424 16.241 12.8216 16.2602 12.8984C16.3226 13.136 16.3802 13.376 16.4402 13.616C16.5242 13.9592 16.5242 13.9592 16.877 13.9448C16.8914 13.9448 16.9034 13.9352 16.925 13.928C16.9802 13.7216 17.0642 13.5152 17.0906 13.3016C17.1554 12.7448 17.4242 12.392 17.981 12.2432C18.2066 12.1832 18.3986 12.1592 18.6002 12.2864C18.9146 12.4808 19.2338 12.668 19.5386 12.8504C19.6466 12.752 19.745 12.6608 19.841 12.572C19.7378 12.3968 19.6418 12.2336 19.5482 12.0704C19.4522 11.9072 19.3538 11.7464 19.2626 11.5808C19.0778 11.2472 19.361 10.4288 19.7138 10.2752C19.7594 10.256 19.8098 10.244 19.8578 10.232C20.1098 10.1672 20.3618 10.1 20.6162 10.0352C20.957 9.9488 20.957 9.9488 20.9426 9.6008C20.9426 9.5864 20.933 9.5744 20.9234 9.5456C20.7218 9.4928 20.5154 9.4088 20.3042 9.3848C19.7426 9.3224 19.397 9.044 19.253 8.4872C19.1954 8.2688 19.169 8.0816 19.2914 7.8848C19.4594 7.6136 19.613 7.3328 19.7882 7.0664C19.8698 6.9416 19.8434 6.8672 19.745 6.7712C19.6466 6.6776 19.5722 6.6128 19.4354 6.7112C19.301 6.8096 19.1378 6.8672 19.0082 6.9704C18.5834 7.304 18.1586 7.376 17.669 7.0904C17.4458 6.9608 17.285 6.8312 17.2298 6.572C17.1554 6.2216 17.0546 5.8736 16.9682 5.5352C16.5722 5.5064 16.5722 5.5064 16.4834 5.8496C16.457 5.948 16.4306 6.0464 16.4042 6.1424C16.2074 6.9104 16.2074 6.9104 15.485 7.22C15.2834 7.3064 15.0938 7.2992 14.9042 7.184C14.6258 7.0136 14.3402 6.8528 14.0666 6.6776C13.961 6.6104 13.901 6.6224 13.8074 6.7064C13.6682 6.8288 13.6418 6.9344 13.757 7.0856C13.8434 7.2008 13.8938 7.3448 13.9826 7.4576C14.3258 7.8872 14.3906 8.3216 14.1026 8.816C13.9826 9.0248 13.865 9.1832 13.6202 9.2384C13.2554 9.3176 12.9002 9.416 12.5474 9.5072Z" fill="#8A92A6"/>
<path d="M4.48599 14.5592C4.29639 14.5592 4.10679 14.5664 3.91959 14.5568C3.53559 14.5352 3.23799 14.2376 3.22839 13.8512C3.21879 13.4744 3.21879 13.0952 3.22839 12.7184C3.23799 12.356 3.49239 12.0488 3.85239 12.0224C4.27719 11.9912 4.70919 11.9888 5.13399 12.02C5.51799 12.0464 5.76999 12.3584 5.78439 12.7688C5.79639 13.1096 5.79639 13.4528 5.78439 13.7936C5.76759 14.264 5.45799 14.552 4.98759 14.5616C4.81959 14.564 4.65399 14.5616 4.48599 14.5616V14.5592ZM4.49559 12.6512C4.49559 12.6584 4.49559 12.6632 4.49319 12.6704C4.34199 12.6704 4.18599 12.656 4.03719 12.6776C3.97959 12.6848 3.89079 12.7712 3.88839 12.824C3.87399 13.1288 3.88359 13.4336 3.87879 13.7384C3.87639 13.8608 3.92679 13.9064 4.04679 13.904C4.35159 13.8992 4.65639 13.9088 4.96119 13.8944C5.01399 13.892 5.10039 13.8032 5.10759 13.7456C5.12919 13.5968 5.11719 13.4408 5.11479 13.2896C5.10999 13.0952 5.17239 12.824 5.07159 12.728C4.95879 12.62 4.69479 12.6704 4.49559 12.6512Z" fill="#8A92A6"/>
<path d="M4.52196 4.90158C4.68996 4.90158 4.85556 4.89438 5.02356 4.90158C5.46516 4.92078 5.76036 5.19918 5.78436 5.63838C5.80356 5.99358 5.80116 6.35118 5.78436 6.70638C5.76516 7.14558 5.47716 7.43838 5.03556 7.45998C4.68036 7.47678 4.32276 7.47678 3.96756 7.45998C3.50436 7.43838 3.22836 7.13358 3.22356 6.66558C3.21876 6.32478 3.21876 5.98158 3.22596 5.64078C3.23556 5.22558 3.52116 4.93038 3.93396 4.90398C4.12836 4.89198 4.32516 4.90158 4.52196 4.90158C4.52196 4.90398 4.52196 4.90398 4.52196 4.90158ZM5.11476 6.19998C5.11476 6.03918 5.12916 5.87838 5.10756 5.72238C5.10036 5.66478 5.01636 5.57358 4.96356 5.57118C4.65156 5.55678 4.33956 5.55678 4.02756 5.57118C3.97476 5.57358 3.88836 5.66958 3.88596 5.72718C3.87156 6.03198 3.87156 6.33678 3.88596 6.64158C3.88836 6.69678 3.97716 6.78318 4.03236 6.79038C4.18836 6.81198 4.35156 6.79758 4.50996 6.79758C5.11716 6.79758 5.11716 6.79758 5.11476 6.19998Z" fill="#8A92A6"/>
<path d="M3.22556 9.72801C3.22556 9.54561 3.22076 9.36561 3.22556 9.18321C3.23996 8.78001 3.54476 8.46561 3.94556 8.45361C4.31516 8.44401 4.68716 8.44401 5.05676 8.45361C5.46236 8.46561 5.76476 8.77521 5.78396 9.20481C5.79836 9.55281 5.79836 9.90321 5.78396 10.2512C5.76476 10.7168 5.44556 11.0144 4.97996 11.0168C4.65356 11.0192 4.32716 11.0216 3.99836 11.0168C3.54716 11.012 3.23276 10.7 3.22316 10.2512C3.22076 10.076 3.22316 9.90081 3.22556 9.72801ZM3.88076 9.71601C3.88076 9.86961 3.88556 10.0208 3.87836 10.1744C3.87116 10.3064 3.92876 10.3592 4.05596 10.3592C4.34636 10.3568 4.63676 10.3544 4.92716 10.3592C5.06876 10.3616 5.11916 10.3016 5.11676 10.1648C5.10956 9.87441 5.11196 9.58401 5.11676 9.29361C5.11916 9.16401 5.06876 9.10641 4.93916 9.11121C4.78556 9.11601 4.63436 9.11121 4.48076 9.11121C3.88076 9.10881 3.88076 9.10881 3.88076 9.71601Z" fill="#8A92A6"/>
<path d="M8.93543 12.8432C8.36903 12.8432 7.80263 12.8456 7.23623 12.8408C7.14983 12.8408 7.03703 12.8504 6.98663 12.8024C6.89543 12.7184 6.78023 12.5888 6.78743 12.4856C6.79463 12.3824 6.93143 12.2792 7.02743 12.1952C7.06823 12.1616 7.15223 12.1736 7.21703 12.1736C8.37143 12.1736 9.52583 12.1736 10.6802 12.1736C10.7378 12.1736 10.7978 12.176 10.853 12.1856C11.0258 12.2168 11.1218 12.32 11.129 12.4976C11.1338 12.6776 11.0402 12.7856 10.8722 12.8264C10.8026 12.8432 10.7282 12.8432 10.6562 12.8432C10.0802 12.8456 9.50903 12.8432 8.93543 12.8432Z" fill="#8A92A6"/>
<path d="M8.94977 8.62402C9.53777 8.62402 10.1258 8.62402 10.7138 8.62402C10.9874 8.62402 11.129 8.74162 11.1266 8.96002C11.1242 9.17122 10.9922 9.28162 10.7258 9.28162C9.54257 9.28402 8.35937 9.28402 7.17617 9.28162C6.92177 9.28162 6.77057 9.15682 6.76817 8.96002C6.76337 8.75362 6.92417 8.62402 7.18577 8.62402C7.77617 8.62402 8.36417 8.62402 8.94977 8.62402Z" fill="#8A92A6"/>
<path d="M8.94977 5.73677C8.36177 5.73677 7.77377 5.73677 7.18577 5.73677C6.92417 5.73677 6.76337 5.60237 6.76817 5.39597C6.77297 5.20157 6.92417 5.07437 7.17857 5.07437C8.36177 5.07197 9.54497 5.07197 10.7282 5.07437C10.997 5.07437 11.1266 5.18717 11.1266 5.40077C11.129 5.61677 10.985 5.73437 10.7114 5.73437C10.1258 5.73677 9.53777 5.73677 8.94977 5.73677Z" fill="#8A92A6"/>
<path d="M7.82894 6.41117C8.05454 6.41117 8.28014 6.40637 8.50574 6.41357C8.74093 6.41837 8.88974 6.54797 8.89454 6.73997C8.89934 6.93677 8.74333 7.08077 8.50093 7.08317C8.05693 7.08797 7.61534 7.08797 7.17134 7.08317C6.92414 7.08077 6.76814 6.94157 6.77054 6.74477C6.77294 6.54797 6.92894 6.41837 7.17614 6.41357C7.39214 6.40637 7.61054 6.41117 7.82894 6.41117Z" fill="#8A92A6"/>
<path d="M7.84098 9.97282C8.07378 9.97282 8.30658 9.97042 8.53938 9.97282C8.75298 9.97762 8.89698 10.1144 8.89458 10.3016C8.89218 10.4888 8.74578 10.6232 8.52978 10.6232C8.06418 10.628 7.59858 10.6256 7.13538 10.6232C6.91938 10.6208 6.77298 10.4888 6.76818 10.3016C6.76338 10.1072 6.91218 9.97282 7.14258 9.97042C7.37538 9.96802 7.60818 9.97042 7.84098 9.97282Z" fill="#8A92A6"/>
<path d="M7.8241 14.1776C7.5913 14.1776 7.3585 14.1824 7.1257 14.1752C6.9097 14.168 6.7657 14.0288 6.7681 13.8464C6.7705 13.6616 6.9145 13.52 7.1305 13.5152C7.5961 13.508 8.0593 13.508 8.5249 13.5152C8.7433 13.5176 8.8873 13.6544 8.8945 13.8392C8.9017 14.0288 8.7529 14.1704 8.5225 14.1776C8.2897 14.1824 8.0569 14.1776 7.8241 14.1776Z" fill="#8A92A6"/>
<path d="M14.9522 9.72801C14.9498 8.74401 15.7466 7.93761 16.7306 7.93041C17.7146 7.92321 18.5354 8.73921 18.5354 9.72801C18.5354 10.7096 17.741 11.5112 16.7522 11.5232C15.7658 11.5352 14.9546 10.724 14.9522 9.72801ZM16.7354 10.8536C17.3642 10.856 17.8754 10.352 17.8754 9.72801C17.8754 9.10401 17.3618 8.59761 16.7354 8.60001C16.1114 8.60241 15.617 9.09681 15.6146 9.71601C15.6098 10.3544 16.1018 10.8512 16.7354 10.8536Z" fill="#8A92A6"/>
</svg>
