<svg width="24" height="25" viewBox="0 0 24 25" fill="none" xmlns="http://www.w3.org/2000/svg">
<g clip-path="url(#clip0_189_5110)">
<path d="M17.7719 0.960815C18.1799 1.13122 18.3119 1.44082 18.3119 1.87282C18.3023 5.71042 18.3071 9.54802 18.3047 13.388C18.3047 13.484 18.3071 13.5848 18.2807 13.6784C18.2327 13.8536 18.1031 13.9352 17.9207 13.9136C17.7503 13.8944 17.6519 13.7888 17.6327 13.6184C17.6231 13.5368 17.6279 13.4528 17.6279 13.3712C17.6279 9.56962 17.6279 5.77042 17.6279 1.96882C17.6279 1.87282 17.6279 1.77442 17.6279 1.65922C14.2391 1.65922 10.8647 1.65922 7.45433 1.65922C7.45433 1.73602 7.45433 1.81762 7.45433 1.89682C7.45433 2.63362 7.45673 3.36802 7.45433 4.10482C7.45193 4.82722 7.02473 5.24962 6.30233 5.24962C5.57273 5.24962 4.84553 5.24962 4.11593 5.24962C4.03433 5.24962 3.95513 5.24962 3.85913 5.24962C3.85913 9.85042 3.85913 14.4272 3.85913 19.0328C3.95273 19.0328 4.03913 19.0328 4.12793 19.0328C6.74153 19.0328 9.35753 19.0328 11.9711 19.0328C12.0527 19.0328 12.1367 19.028 12.2183 19.0376C12.3887 19.0592 12.4919 19.16 12.5087 19.3304C12.5279 19.5104 12.4415 19.6376 12.2687 19.688C12.1919 19.7096 12.1055 19.7072 12.0239 19.7072C9.35033 19.7072 6.67433 19.7072 4.00073 19.7072C3.44153 19.7072 3.16793 19.436 3.16793 18.8792C3.16793 14.4104 3.17033 9.94162 3.16553 5.47282C3.16553 4.99282 3.33113 4.60162 3.67193 4.26562C4.53833 3.41122 5.39993 2.55202 6.25433 1.68322C6.56153 1.36882 6.87833 1.08082 7.31273 0.960815C10.7999 0.960815 14.2871 0.960815 17.7719 0.960815ZM4.40633 4.56802C5.07113 4.56802 5.75273 4.57282 6.43193 4.56562C6.64553 4.56322 6.77513 4.40482 6.77993 4.17442C6.78713 3.86002 6.78233 3.54562 6.78233 3.22882C6.78233 2.88082 6.78233 2.53042 6.78233 2.18962C5.98553 2.98402 5.19833 3.77362 4.40633 4.56802Z" fill="#8A92A6"/>
<path d="M14.7024 6.9224C14.7024 8.1944 14.7024 9.4376 14.7024 10.7168C14.8248 10.7168 14.9424 10.7096 15.06 10.7192C15.2712 10.7336 15.4104 10.8704 15.4104 11.0552C15.4104 11.2424 15.2736 11.372 15.0576 11.3888C14.9976 11.3936 14.9376 11.3912 14.8776 11.3912C12.1152 11.3912 9.35042 11.3912 6.58802 11.3912C6.50642 11.3912 6.42242 11.3912 6.34082 11.3768C6.16802 11.348 6.07682 11.228 6.06962 11.0648C6.06482 10.8896 6.15842 10.76 6.33842 10.7288C6.47042 10.7072 6.60722 10.712 6.76082 10.7048C6.76082 9.452 6.76082 8.204 6.76082 6.9392C6.71522 6.9536 6.66722 6.9656 6.62402 6.9848C6.37442 7.0952 6.19202 7.0544 6.10082 6.8648C6.00722 6.6752 6.08642 6.4976 6.32402 6.3776C6.92642 6.0752 7.53122 5.7728 8.13362 5.4704C8.90402 5.084 9.67922 4.7048 10.4472 4.3112C10.6464 4.208 10.8168 4.2008 11.0184 4.304C12.3768 4.9904 13.74 5.6696 15.1008 6.3512C15.1536 6.3776 15.2112 6.4016 15.2592 6.4376C15.4128 6.5528 15.456 6.7064 15.3696 6.8744C15.2856 7.0352 15.1368 7.0808 14.9664 7.0328C14.88 7.0088 14.8032 6.9656 14.7024 6.9224ZM13.9968 10.7C14.004 10.64 14.0136 10.5872 14.0136 10.5368C14.0136 9.2672 14.0112 8 14.0184 6.7304C14.0184 6.5912 13.9584 6.536 13.8456 6.4808C12.8592 5.9912 11.8752 5.4944 10.8864 5.0096C10.8048 4.9688 10.668 4.9712 10.584 5.012C9.60002 5.492 8.62322 5.9864 7.64162 6.4712C7.50242 6.5384 7.44962 6.62 7.45202 6.7784C7.45922 8.0096 7.45682 9.2408 7.45682 10.472C7.45682 10.544 7.45682 10.6184 7.45682 10.6976C7.72802 10.6976 7.96802 10.6976 8.22722 10.6976C8.22722 10.5968 8.22722 10.5152 8.22722 10.4336C8.22722 9.5936 8.22482 8.7512 8.22722 7.9112C8.22722 7.58 8.34482 7.4624 8.67602 7.46C9.08162 7.4576 9.48722 7.4576 9.89282 7.46C10.2384 7.4624 10.3488 7.5704 10.3488 7.9208C10.3512 8.7608 10.3488 9.6032 10.3488 10.4432C10.3488 10.5248 10.3488 10.604 10.3488 10.7C11.58 10.7 12.7848 10.7 13.9968 10.7ZM8.91842 8.1488C8.91842 9.0032 8.91842 9.8456 8.91842 10.6976C9.17282 10.6976 9.41522 10.6976 9.65762 10.6976C9.65762 9.8384 9.65762 8.996 9.65762 8.1488C9.40322 8.1488 9.16562 8.1488 8.91842 8.1488Z" fill="#8A92A6"/>
<path d="M16.8072 16.4936C16.6296 16.3232 16.4664 16.1792 16.3152 16.0208C16.0944 15.7928 16.152 15.5312 16.4496 15.4208C17.736 14.948 19.0248 14.4752 20.3184 14.0192C20.436 13.9784 20.6184 14.0144 20.7288 14.0816C20.8704 14.1704 20.844 14.3384 20.7888 14.492C20.3232 15.7664 19.86 17.0408 19.3944 18.3152C19.2696 18.6584 19.0128 18.716 18.756 18.464C18.6072 18.3176 18.4704 18.1568 18.3168 17.9936C18.2328 18.0752 18.1728 18.128 18.1152 18.1832C16.2672 20.0312 14.4192 21.8792 12.5688 23.7248C12.1488 24.1448 11.7864 24.1448 11.3688 23.7272C11.268 23.6264 11.1672 23.5256 11.0664 23.4248C10.656 23.0144 10.6512 22.6472 11.0592 22.2392C12.3504 20.948 13.6392 19.6592 14.9304 18.368C15.5472 17.7536 16.164 17.1392 16.8072 16.4936ZM11.9784 23.3672C13.1184 22.2272 14.2416 21.1016 15.3672 19.976C16.2432 19.1 17.1192 18.224 17.9952 17.348C18.2136 17.1296 18.372 17.1296 18.5904 17.348C18.6888 17.4464 18.7752 17.5592 18.8976 17.7008C19.2528 16.724 19.5816 15.8216 19.9248 14.8736C18.9696 15.2192 18.0648 15.548 17.1072 15.896C17.2128 15.9896 17.2944 16.052 17.3688 16.1264C17.6928 16.448 17.6928 16.5632 17.3712 16.8848C15.4536 18.8 13.5384 20.7176 11.6232 22.6328C11.5608 22.6952 11.5008 22.76 11.4384 22.8248C11.6232 23.012 11.7936 23.18 11.9784 23.3672Z" fill="#8A92A6"/>
<path d="M7.78068 13.0304C7.89108 13.0688 7.99908 13.1 8.10228 13.1408C8.32788 13.232 8.41908 13.4048 8.34948 13.5992C8.28468 13.7768 8.11668 13.8416 7.88148 13.7816C7.85268 13.7744 7.82388 13.7696 7.78068 13.76C7.78068 14.06 7.78068 14.348 7.78068 14.648C8.16948 14.78 8.48388 15.0056 8.61828 15.4208C8.80548 15.9968 8.51028 16.6472 7.93428 16.9208C7.83348 16.9688 7.76148 17.0048 7.76388 17.1416C7.76628 17.3912 7.62708 17.5376 7.43028 17.5352C7.24308 17.5328 7.11588 17.3912 7.09428 17.1584C7.09188 17.1224 7.08708 17.0864 7.08468 17.0816C6.84708 16.9808 6.62148 16.9016 6.41028 16.7912C6.17748 16.6712 6.11748 16.472 6.22788 16.292C6.33108 16.1216 6.52308 16.0904 6.74148 16.208C6.84468 16.2632 6.95028 16.3088 7.09428 16.376C7.09428 15.9464 7.10148 15.5672 7.08708 15.1856C7.08468 15.1256 6.98148 15.056 6.90948 15.0176C6.53988 14.8232 6.28548 14.5544 6.28068 14.1104C6.27588 13.652 6.52548 13.268 6.94548 13.0784C7.00788 13.0496 7.07988 12.9824 7.09188 12.9248C7.14708 12.644 7.25028 12.5216 7.45908 12.536C7.66548 12.548 7.76148 12.68 7.77588 12.9704C7.77108 12.9776 7.77348 12.992 7.78068 13.0304ZM7.78308 15.416C7.78308 15.6824 7.78308 15.9296 7.78308 16.1888C8.06868 15.944 8.06868 15.6104 7.78308 15.416ZM7.07988 13.8176C6.90468 14.0264 6.90708 14.1488 7.07988 14.288C7.07988 14.1344 7.07988 13.9832 7.07988 13.8176Z" fill="#8A92A6"/>
<path d="M12.5349 13.9232C11.7549 13.9232 10.9749 13.9232 10.1949 13.9232C10.1133 13.9232 10.0293 13.9256 9.94773 13.9088C9.76773 13.8728 9.67653 13.748 9.68133 13.5704C9.68853 13.4048 9.77973 13.2896 9.95253 13.2608C10.0269 13.2488 10.1013 13.2488 10.1757 13.2488C11.7525 13.2488 13.3269 13.2488 14.9037 13.2488C14.9565 13.2488 15.0093 13.2464 15.0621 13.2512C15.2757 13.268 15.4125 13.4024 15.4101 13.5896C15.4077 13.7744 15.2709 13.9064 15.0573 13.9232C14.9973 13.928 14.9373 13.9256 14.8773 13.9256C14.0949 13.9232 13.3149 13.9232 12.5349 13.9232Z" fill="#8A92A6"/>
<path d="M18.7153 21.692C18.7153 21.0632 18.7129 20.432 18.7153 19.8032C18.7153 19.5368 18.8401 19.3904 19.0537 19.3928C19.2649 19.3952 19.3897 19.544 19.3897 19.8104C19.3921 21.0776 19.3921 22.3448 19.3897 23.612C19.3897 23.876 19.2625 24.032 19.0561 24.0368C18.8425 24.0416 18.7153 23.8832 18.7129 23.6048C18.7129 22.9688 18.7153 22.3304 18.7153 21.692Z" fill="#8A92A6"/>
<path d="M11.6617 14.6936C12.1657 14.6936 12.6673 14.6912 13.1713 14.6936C13.4473 14.696 13.5937 14.8088 13.6009 15.0152C13.6081 15.2312 13.4521 15.3656 13.1737 15.368C12.1513 15.3704 11.1313 15.368 10.1089 15.368C10.0705 15.368 10.0345 15.368 9.99613 15.3632C9.79933 15.3368 9.67453 15.1976 9.67933 15.0176C9.68413 14.8376 9.81373 14.7008 10.0177 14.6984C10.5649 14.6912 11.1145 14.696 11.6617 14.6936Z" fill="#8A92A6"/>
<path d="M17.2701 22.0808C17.2701 21.5648 17.2677 21.0464 17.2701 20.5304C17.2701 20.2616 17.3901 20.1152 17.6037 20.1152C17.8173 20.1152 17.9445 20.2616 17.9469 20.528C17.9493 21.5624 17.9493 22.5968 17.9469 23.6312C17.9469 23.888 17.8053 24.044 17.5965 24.0368C17.3973 24.032 17.2725 23.8832 17.2725 23.6336C17.2677 23.1152 17.2701 22.5992 17.2701 22.0808Z" fill="#8A92A6"/>
<path d="M11.0954 16.1384C11.441 16.1384 11.7866 16.136 12.1322 16.1384C12.3722 16.1408 12.509 16.2584 12.5162 16.4576C12.5258 16.664 12.3818 16.8104 12.1394 16.8104C11.4482 16.8152 10.7594 16.8152 10.0682 16.8104C9.82575 16.808 9.67695 16.664 9.68175 16.4624C9.68655 16.2608 9.83055 16.1384 10.0826 16.136C10.4186 16.136 10.757 16.1384 11.0954 16.1384Z" fill="#8A92A6"/>
<path d="M16.4999 22.8128C16.4999 23.0912 16.5047 23.3696 16.4975 23.6456C16.4927 23.8904 16.3535 24.0392 16.1519 24.0344C15.9527 24.032 15.8255 23.8832 15.8231 23.6336C15.8207 23.0696 15.8207 22.508 15.8231 21.944C15.8255 21.6992 15.9575 21.5528 16.1615 21.5552C16.3583 21.5576 16.4903 21.6992 16.4951 21.932C16.5047 22.2272 16.4999 22.52 16.4999 22.8128Z" fill="#8A92A6"/>
<path d="M14.3805 23.3216C14.3805 23.2016 14.3733 23.0816 14.3829 22.9616C14.3949 22.7696 14.5077 22.6544 14.6973 22.6448C14.8893 22.6352 15.0261 22.7432 15.0381 22.9304C15.0573 23.2064 15.0573 23.4848 15.0333 23.7584C15.0165 23.948 14.8725 24.0464 14.6829 24.032C14.5053 24.0176 14.3949 23.9072 14.3829 23.7248C14.3733 23.5904 14.3805 23.456 14.3805 23.3216Z" fill="#8A92A6"/>
<path d="M13.2453 8.7128C13.2453 8.9912 13.2501 9.2696 13.2429 9.5456C13.2357 9.8264 13.1229 9.9392 12.8397 9.9416C12.3957 9.9464 11.9541 9.9464 11.5101 9.9416C11.2413 9.9368 11.1261 9.824 11.1237 9.5528C11.1189 8.9888 11.1189 8.4272 11.1237 7.8632C11.1261 7.5848 11.2485 7.4648 11.5269 7.4624C11.9637 7.4576 12.3981 7.4576 12.8349 7.4624C13.1229 7.4648 13.2405 7.5872 13.2453 7.88C13.2477 8.156 13.2453 8.4344 13.2453 8.7128ZM11.8077 9.2528C12.0717 9.2528 12.3093 9.2528 12.5469 9.2528C12.5469 8.8736 12.5469 8.5112 12.5469 8.1512C12.2901 8.1512 12.0549 8.1512 11.8077 8.1512C11.8077 8.5232 11.8077 8.8808 11.8077 9.2528Z" fill="#8A92A6"/>
</g>
<defs>
<clipPath id="clip0_189_5110">
<rect width="24" height="24" fill="white" transform="translate(0 0.5)"/>
</clipPath>
</defs>
</svg>
