<svg width="24" height="25" viewBox="0 0 24 25" fill="none" xmlns="http://www.w3.org/2000/svg">
<path d="M23.1866 22.7696C23.0858 22.9352 22.9418 22.9904 22.7474 22.9904C15.5834 22.9856 8.41943 22.988 1.25303 22.988C1.19543 22.988 1.13303 22.9952 1.07783 22.9808C0.902633 22.9352 0.799433 22.8224 0.813833 22.6328C0.828233 22.4576 0.929033 22.352 1.10423 22.3352C1.22663 22.3232 1.35143 22.3328 1.50983 22.3328C1.50983 22.2392 1.50983 22.1552 1.50983 22.0712C1.50983 19.508 1.50983 16.9448 1.50983 14.3816C1.50983 14.0168 1.61063 13.9136 1.97543 13.9136C8.65943 13.9136 15.3434 13.9136 22.0298 13.9136C22.3826 13.9136 22.4858 14.0216 22.4858 14.3696C22.4858 16.9256 22.4858 19.4816 22.4858 22.0376C22.4858 22.124 22.4858 22.2104 22.4858 22.3208C22.7306 22.3568 23.009 22.268 23.1866 22.508C23.1866 22.5944 23.1866 22.6832 23.1866 22.7696ZM6.40343 16.7072C5.68343 16.7072 4.98263 16.7072 4.26743 16.7072C4.26743 16.8128 4.26743 16.8992 4.26743 16.9856C4.26743 17.6984 4.26983 18.4136 4.26503 19.1264C4.26503 19.3424 4.12583 19.4888 3.93863 19.4864C3.75143 19.4864 3.61943 19.34 3.60983 19.1264C3.60743 19.076 3.60983 19.0256 3.60983 18.9728C3.60983 18.1568 3.60983 17.3408 3.60983 16.5248C3.60983 16.1072 3.69383 16.0208 4.10183 16.0208C4.92503 16.0208 5.74823 16.0208 6.57143 16.0208C6.99143 16.0208 7.07063 16.1 7.07063 16.5176C7.07063 18.368 7.07063 20.2184 7.07063 22.0688C7.07063 22.1528 7.07063 22.2368 7.07063 22.3136C12.0122 22.3136 16.9154 22.3136 21.8162 22.3136C21.8162 19.7336 21.8162 17.1704 21.8162 14.6024C15.2618 14.6024 8.71943 14.6024 2.17943 14.6024C2.17943 17.1848 2.17943 19.7528 2.17943 22.3184C2.65943 22.3184 3.12263 22.3184 3.59783 22.3184C3.60023 22.2584 3.60743 22.208 3.60743 22.16C3.60743 21.6344 3.60503 21.1112 3.60983 20.5856C3.61223 20.3648 3.74183 20.2304 3.93863 20.2304C4.13783 20.2304 4.25783 20.3576 4.26503 20.5832C4.26983 20.6912 4.26503 20.7968 4.26503 20.9096C4.99223 20.9096 5.69303 20.9096 6.40103 20.9096C6.40343 19.5056 6.40343 18.1136 6.40343 16.7072ZM6.39863 22.3208C6.39863 22.0688 6.39863 21.8384 6.39863 21.6056C5.68583 21.6056 4.98503 21.6056 4.28183 21.6056C4.28183 21.8528 4.28183 22.0808 4.28183 22.3208C4.98983 22.3208 5.68583 22.3208 6.39863 22.3208Z" fill="#8A92A6"/>
<path d="M23.1865 6.68479C23.0353 6.85039 22.8673 6.92239 22.6489 6.81439C22.4617 6.72319 22.3801 6.54079 22.4593 6.36319C22.5313 6.20239 22.7161 6.12559 22.8985 6.20719C23.0041 6.25519 23.0905 6.34879 23.1865 6.42079C23.1865 6.50959 23.1865 6.59839 23.1865 6.68479Z" fill="#8A92A6"/>
<path d="M12.9766 2.5112C12.9838 2.7872 12.7918 2.9528 12.5878 2.9144C12.5662 2.9096 12.5446 2.9048 12.5254 2.8928C12.1702 2.684 11.8246 2.7032 11.4622 2.888C11.2894 2.9768 11.1022 2.8736 11.0374 2.7032C10.975 2.5352 11.0398 2.36 11.2126 2.2856C11.431 2.1896 11.6542 2.1056 11.8798 2.0264C11.9446 2.0048 12.0286 2 12.0934 2.0216C12.331 2.1056 12.5734 2.1896 12.799 2.3024C12.8902 2.3504 12.943 2.468 12.9766 2.5112Z" fill="#8A92A6"/>
<path d="M12.3553 11.1104C12.4705 11.1104 12.5881 11.1008 12.7033 11.1128C12.8977 11.132 13.0465 11.2856 13.0297 11.456C13.0105 11.648 12.8977 11.7656 12.7033 11.7728C12.4633 11.7824 12.2233 11.7848 11.9833 11.7704C11.7937 11.7584 11.6593 11.612 11.6689 11.444C11.6809 11.2496 11.7937 11.1368 11.9833 11.1128C12.1057 11.1008 12.2329 11.1128 12.3553 11.1104Z" fill="#8A92A6"/>
<path d="M16.5529 11.7752C16.4305 11.7752 16.3057 11.7848 16.1833 11.7728C16.0009 11.7536 15.8905 11.6504 15.8809 11.4608C15.8713 11.2808 15.9865 11.132 16.1761 11.12C16.4305 11.1032 16.6849 11.1008 16.9393 11.1224C17.1169 11.1368 17.2249 11.2616 17.2369 11.444C17.2465 11.6096 17.1121 11.756 16.9249 11.7752C16.8001 11.7848 16.6753 11.7752 16.5529 11.7752Z" fill="#8A92A6"/>
<path d="M10.2242 9.70159C10.2242 9.82399 10.2338 9.94879 10.2218 10.0712C10.2026 10.2536 10.0922 10.364 9.90502 10.3688C9.71782 10.3736 9.58822 10.2656 9.57382 10.088C9.55222 9.82879 9.55222 9.56479 9.57382 9.30319C9.58822 9.12559 9.71782 9.01039 9.90022 9.01279C10.0802 9.01519 10.2002 9.12319 10.2218 9.30799C10.2338 9.43759 10.2242 9.56959 10.2242 9.70159Z" fill="#8A92A6"/>
<path d="M7.43746 11.7728C7.31506 11.7728 7.19026 11.7824 7.06786 11.7704C6.88546 11.7512 6.77266 11.636 6.76546 11.4536C6.75826 11.2688 6.87106 11.1368 7.04866 11.1224C7.31506 11.1008 7.58626 11.1008 7.85266 11.1248C8.03266 11.1416 8.12866 11.2784 8.11906 11.4656C8.10946 11.6432 8.00386 11.7488 7.83106 11.768C7.70146 11.7824 7.56946 11.7728 7.43746 11.7728Z" fill="#8A92A6"/>
<path d="M9.56391 11.1128C9.67911 11.1128 9.79911 11.1008 9.91191 11.1152C10.0991 11.1392 10.2215 11.2472 10.2215 11.4464C10.2215 11.6432 10.1039 11.7608 9.90951 11.7728C9.66951 11.7872 9.42951 11.7848 9.18951 11.7752C8.99511 11.7656 8.88231 11.648 8.86311 11.456C8.84631 11.2856 8.99511 11.132 9.18951 11.1128C9.31431 11.1008 9.43911 11.1104 9.56391 11.1128Z" fill="#8A92A6"/>
<path d="M14.4361 11.7728C14.3137 11.7728 14.1889 11.7848 14.0665 11.7704C13.8937 11.7512 13.7881 11.6432 13.7785 11.468C13.7689 11.2832 13.8673 11.144 14.0473 11.1272C14.3137 11.1032 14.5849 11.1032 14.8513 11.1248C15.0289 11.1392 15.1393 11.276 15.1321 11.4584C15.1249 11.6384 15.0145 11.756 14.8297 11.7728C14.6977 11.7848 14.5657 11.7728 14.4361 11.7728Z" fill="#8A92A6"/>
<path d="M12.3286 9.7112C12.3286 9.8336 12.343 9.96079 12.3262 10.0808C12.2998 10.2608 12.187 10.3688 11.9998 10.3688C11.8102 10.3688 11.6902 10.2584 11.6758 10.0784C11.6566 9.82639 11.6566 9.56959 11.6734 9.31519C11.6854 9.13519 11.8078 9.02719 11.9902 9.01039C12.1534 8.99599 12.307 9.1304 12.3286 9.3176C12.343 9.4472 12.331 9.5792 12.3286 9.7112Z" fill="#8A92A6"/>
<path d="M5.32083 11.7752C5.20563 11.7752 5.08803 11.7848 4.97283 11.7728C4.79043 11.7536 4.67523 11.6456 4.66563 11.4632C4.65603 11.2784 4.76403 11.1416 4.93923 11.1248C5.20563 11.1008 5.47683 11.1008 5.74323 11.1248C5.92083 11.1392 6.02403 11.2712 6.01443 11.4608C6.00723 11.6528 5.89203 11.7536 5.71203 11.7728C5.58483 11.7848 5.45283 11.7752 5.32083 11.7752Z" fill="#8A92A6"/>
<path d="M18.6383 11.7704C18.5159 11.7704 18.3911 11.7824 18.2687 11.768C18.0959 11.7464 17.9927 11.6432 17.9831 11.4656C17.9735 11.276 18.0719 11.1416 18.2495 11.1272C18.5159 11.1032 18.7871 11.1032 19.0535 11.1248C19.2287 11.1392 19.3415 11.2736 19.3319 11.4584C19.3247 11.6432 19.2095 11.7536 19.0295 11.7728C18.8999 11.7872 18.7679 11.7752 18.6383 11.7752C18.6383 11.7728 18.6383 11.7728 18.6383 11.7704Z" fill="#8A92A6"/>
<path d="M10.5336 3.1136C10.4856 3.164 10.416 3.284 10.3128 3.3368C10.1064 3.4424 9.88323 3.5144 9.66483 3.5912C9.48723 3.6536 9.31683 3.5744 9.24963 3.4136C9.17763 3.2432 9.24723 3.0608 9.42963 2.9816C9.64323 2.888 9.85923 2.8016 10.0776 2.7272C10.3224 2.6456 10.5456 2.8064 10.5336 3.1136Z" fill="#8A92A6"/>
<path d="M13.8671 2.70081C14.0879 2.79441 14.3831 2.89761 14.6567 3.04161C14.7959 3.11601 14.8103 3.28641 14.7359 3.43041C14.6615 3.56961 14.5343 3.65361 14.3735 3.60081C14.1263 3.51921 13.8815 3.42321 13.6439 3.31761C13.4951 3.25041 13.4375 3.11841 13.4759 2.95521C13.5143 2.79201 13.6247 2.71281 13.8671 2.70081Z" fill="#8A92A6"/>
<path d="M21.6025 6.41601C21.3169 6.29601 21.0217 6.19041 20.7505 6.04641C20.6065 5.96961 20.5897 5.78001 20.6809 5.66001C20.7529 5.56881 20.9209 5.47281 21.0169 5.49441C21.2833 5.55681 21.5449 5.66001 21.7849 5.79201C21.8713 5.84001 21.9265 6.02001 21.9241 6.14001C21.9217 6.29601 21.7777 6.38241 21.6025 6.41601Z" fill="#8A92A6"/>
<path d="M3.3601 5.87361C3.3241 5.92161 3.2713 6.04881 3.1777 6.09681C2.9593 6.20961 2.7241 6.29361 2.4913 6.37041C2.2969 6.43281 2.1337 6.34161 2.0713 6.16161C2.0137 5.99361 2.0809 5.83521 2.2657 5.75601C2.4865 5.66241 2.7097 5.57361 2.9353 5.49921C3.1537 5.42721 3.3553 5.57841 3.3601 5.87361Z" fill="#8A92A6"/>
<path d="M1.51445 12.4928C1.51445 12.368 1.50725 12.2456 1.51685 12.1208C1.53125 11.9408 1.68245 11.7992 1.85045 11.816C2.02805 11.8352 2.15525 11.9288 2.16245 12.1184C2.17205 12.3728 2.17445 12.6272 2.16245 12.8816C2.15285 13.0712 2.01845 13.172 1.84085 13.1744C1.66325 13.1744 1.53605 13.0712 1.51685 12.884C1.50245 12.7544 1.51445 12.6224 1.51445 12.4928Z" fill="#8A92A6"/>
<path d="M22.4857 12.5072C22.4857 12.632 22.4953 12.7544 22.4833 12.8792C22.4665 13.0664 22.3417 13.1624 22.1641 13.1792C21.9937 13.1936 21.8425 13.0544 21.8353 12.8696C21.8257 12.6224 21.8257 12.3752 21.8353 12.128C21.8425 11.9456 21.9937 11.8112 22.1641 11.816C22.3345 11.8184 22.4713 11.9552 22.4857 12.14C22.4881 12.1544 22.4857 12.1688 22.4857 12.1832C22.4881 12.2888 22.4857 12.3968 22.4857 12.5072Z" fill="#8A92A6"/>
<path d="M15.547 3.34399C15.883 3.49039 16.1854 3.59599 16.459 3.75199C16.531 3.79279 16.555 4.00399 16.5262 4.11679C16.4854 4.26559 16.3342 4.34479 16.1758 4.29439C15.9214 4.21039 15.6694 4.11679 15.427 4.00399C15.2806 3.93679 15.2134 3.78559 15.2854 3.63679C15.331 3.52879 15.4462 3.44959 15.547 3.34399Z" fill="#8A92A6"/>
<path d="M5.15501 5.17999C5.11421 5.23039 5.05421 5.35519 4.95341 5.41039C4.74941 5.51839 4.52861 5.59519 4.30781 5.66959C4.10141 5.73919 3.93101 5.65759 3.86381 5.47279C3.80141 5.29759 3.87581 5.13679 4.07261 5.05519C4.28621 4.96399 4.50221 4.87759 4.72301 4.80799C4.94861 4.73599 5.14541 4.87999 5.15501 5.17999Z" fill="#8A92A6"/>
<path d="M20.1579 5.3024C20.1555 5.5832 19.9539 5.7416 19.7307 5.6744C19.4883 5.6 19.2507 5.5064 19.0203 5.4008C18.8523 5.3216 18.8043 5.1608 18.8691 4.9928C18.9339 4.8224 19.0755 4.7432 19.2555 4.8008C19.4955 4.88 19.7379 4.964 19.9635 5.0768C20.0595 5.1248 20.1147 5.252 20.1579 5.3024Z" fill="#8A92A6"/>
<path d="M18.0599 5.04559C17.7311 4.90639 17.4431 4.80559 17.1743 4.66639C17.0279 4.59199 16.9991 4.40959 17.0879 4.28479C17.1551 4.19119 17.3231 4.08799 17.4167 4.10959C17.6879 4.17199 17.9543 4.28239 18.2087 4.40479C18.3503 4.47199 18.4127 4.63279 18.3311 4.77679C18.2735 4.88239 18.1535 4.95679 18.0599 5.04559Z" fill="#8A92A6"/>
<path d="M18.6531 8.26638C18.5307 8.26638 18.4059 8.27358 18.2835 8.26398C18.0987 8.24958 17.9931 8.14158 17.9835 7.95438C17.9739 7.77438 18.0915 7.62558 18.2787 7.61358C18.5331 7.59918 18.7875 7.59918 19.0419 7.61358C19.2243 7.62558 19.3539 7.78878 19.3347 7.95918C19.3155 8.13918 19.2123 8.25198 19.0227 8.26398C18.9003 8.27358 18.7779 8.26638 18.6531 8.26638Z" fill="#8A92A6"/>
<path d="M6.94802 4.496C6.90242 4.5464 6.83522 4.6664 6.73442 4.7192C6.53042 4.8248 6.30722 4.9016 6.08882 4.976C5.89442 5.0408 5.72882 4.9592 5.66162 4.7864C5.59442 4.6112 5.66402 4.4504 5.86082 4.364C6.06722 4.2752 6.27602 4.1888 6.48962 4.1192C6.73442 4.0352 6.95042 4.184 6.94802 4.496Z" fill="#8A92A6"/>
<path d="M5.33041 8.26639C5.21521 8.26639 5.09761 8.27359 4.98241 8.26399C4.79281 8.24959 4.65841 8.11519 4.66321 7.94479C4.66801 7.75999 4.77361 7.63039 4.95121 7.61599C5.21041 7.59439 5.47441 7.59439 5.73601 7.61599C5.91121 7.63039 6.02161 7.75519 6.01681 7.94479C6.01201 8.13199 5.90881 8.24479 5.72401 8.26159C5.59441 8.27359 5.46241 8.26639 5.33041 8.26639Z" fill="#8A92A6"/>
<path d="M7.73288 4.35201C7.63928 4.26321 7.49768 4.18881 7.46888 4.08321C7.44008 3.97761 7.48808 3.77121 7.56728 3.72801C7.82648 3.58881 8.10968 3.48081 8.39528 3.41121C8.48408 3.38961 8.66648 3.50961 8.70488 3.60561C8.74328 3.70161 8.69288 3.91521 8.61608 3.96081C8.35208 4.11681 8.06168 4.21281 7.73288 4.35201Z" fill="#8A92A6"/>
<path d="M22.4858 10.3976C22.4858 10.5224 22.493 10.6448 22.4834 10.7696C22.469 10.952 22.325 11.084 22.1474 11.072C21.965 11.0576 21.8426 10.9616 21.8354 10.772C21.8258 10.5176 21.8234 10.2632 21.8378 10.0088C21.8474 9.8192 21.9818 9.7184 22.157 9.716C22.3346 9.716 22.4594 9.8216 22.481 10.0064C22.4954 10.136 22.4858 10.268 22.4858 10.3976Z" fill="#8A92A6"/>
<path d="M5.31865 9.70639C5.31865 9.82159 5.32585 9.93919 5.31625 10.0544C5.30425 10.2488 5.17705 10.3712 4.99705 10.3688C4.80985 10.3664 4.68265 10.2608 4.67065 10.0832C4.65145 9.82399 4.65145 9.55999 4.67065 9.29839C4.68505 9.11839 4.81945 9.00799 4.99945 9.01519C5.17705 9.01999 5.30185 9.12319 5.31385 9.31279C5.32345 9.44239 5.31625 9.57439 5.31865 9.70639C5.31625 9.70639 5.31625 9.70639 5.31865 9.70639Z" fill="#8A92A6"/>
<path d="M19.3368 9.71361C19.3368 9.82881 19.344 9.94641 19.3344 10.0616C19.3176 10.2464 19.1784 10.3712 19.0032 10.3712C18.8208 10.3688 18.6912 10.2488 18.684 10.0544C18.6744 9.81441 18.6744 9.57441 18.684 9.33441C18.6912 9.14721 18.828 9.01521 19.0008 9.01041C19.1688 9.00561 19.32 9.14001 19.3368 9.32001C19.3464 9.44961 19.3368 9.58161 19.3368 9.71361Z" fill="#8A92A6"/>
<path d="M1.51194 10.3856C1.51194 10.2608 1.50234 10.1384 1.51434 10.0136C1.53114 9.82638 1.65354 9.72798 1.83114 9.71118C1.99914 9.69678 2.15514 9.83838 2.16234 10.0184C2.17194 10.2656 2.17194 10.5128 2.16234 10.76C2.15514 10.9448 2.01354 11.072 1.83594 11.072C1.66074 11.0696 1.52394 10.94 1.51434 10.7552C1.50714 10.6328 1.51194 10.508 1.51194 10.3856Z" fill="#8A92A6"/>
<path d="M22.4857 8.30241C22.4857 8.41761 22.4905 8.53521 22.4833 8.65041C22.4713 8.84001 22.3417 8.96481 22.1617 8.96721C21.9817 8.96961 21.8401 8.84721 21.8329 8.66001C21.8233 8.41281 21.8233 8.16561 21.8329 7.91841C21.8401 7.73841 21.9913 7.59681 22.1617 7.61121C22.3417 7.62561 22.4617 7.72401 22.4785 7.91121C22.4953 8.04081 22.4857 8.17281 22.4857 8.30241Z" fill="#8A92A6"/>
<path d="M14.4433 8.26639C14.3209 8.26639 14.1961 8.27359 14.0737 8.26399C13.8841 8.24959 13.7833 8.12959 13.7785 7.94719C13.7737 7.76239 13.8841 7.63279 14.0617 7.61599C14.3209 7.59439 14.5849 7.59679 14.8465 7.61599C15.0265 7.63039 15.1297 7.76239 15.1369 7.94479C15.1441 8.11519 15.0049 8.24959 14.8153 8.26399C14.6905 8.27359 14.5657 8.26639 14.4433 8.26639Z" fill="#8A92A6"/>
<path d="M7.428 8.26638C7.3128 8.26638 7.1952 8.27358 7.08 8.26398C6.8952 8.24958 6.756 8.10798 6.7656 7.93998C6.7752 7.75758 6.8808 7.62798 7.0584 7.61598C7.3176 7.59678 7.584 7.59438 7.8432 7.61838C8.0208 7.63518 8.12641 7.76238 8.11921 7.95198C8.11201 8.13918 8.0088 8.24958 7.8216 8.26398C7.6896 8.27358 7.5576 8.26638 7.428 8.26638Z" fill="#8A92A6"/>
<path d="M1.51201 8.27361C1.51201 8.15841 1.50481 8.04081 1.51441 7.92561C1.52641 7.74321 1.67041 7.60881 1.84081 7.61121C2.01121 7.61121 2.15761 7.74561 2.16241 7.93041C2.16961 8.17761 2.17201 8.42481 2.16001 8.67201C2.15041 8.85921 2.03281 8.96001 1.84561 8.96961C1.66561 8.97921 1.52401 8.85201 1.51201 8.66961C1.50481 8.53521 1.51441 8.40321 1.51201 8.27361Z" fill="#8A92A6"/>
<path d="M12.3529 8.26641C12.2281 8.26641 12.1057 8.27361 11.9833 8.26401C11.7937 8.24961 11.6593 8.11041 11.6689 7.94001C11.6785 7.75761 11.7841 7.63041 11.9641 7.61601C12.2161 7.59681 12.4729 7.60161 12.7273 7.61361C12.9073 7.62321 13.0465 7.78881 13.0297 7.95441C13.0105 8.13201 12.9145 8.25441 12.7249 8.26641C12.6025 8.27121 12.4777 8.26641 12.3529 8.26641Z" fill="#8A92A6"/>
<path d="M16.5479 8.26638C16.4255 8.26638 16.3007 8.27358 16.1783 8.26398C15.9911 8.24958 15.8879 8.13918 15.8807 7.95198C15.8735 7.76238 15.9815 7.63518 16.1567 7.61838C16.4159 7.59438 16.6799 7.59678 16.9415 7.61598C17.1215 7.62798 17.2247 7.75758 17.2343 7.93998C17.2439 8.10798 17.1047 8.24958 16.9175 8.26398C16.7951 8.27358 16.6727 8.26638 16.5479 8.26638Z" fill="#8A92A6"/>
<path d="M9.54001 8.26639C9.41761 8.26639 9.29281 8.27359 9.17041 8.26399C8.98081 8.25199 8.87761 8.12719 8.86801 7.95199C8.86081 7.76959 8.97121 7.63279 9.14881 7.61839C9.41521 7.59679 9.68881 7.59439 9.95521 7.62079C10.1328 7.63759 10.2336 7.77679 10.2216 7.96399C10.2096 8.13679 10.1112 8.24959 9.93361 8.26399C9.80161 8.27359 9.67201 8.26399 9.54001 8.26639Z" fill="#8A92A6"/>
<path d="M1.56483 6.49761C1.56723 6.70401 1.37523 6.86721 1.13523 6.86481C0.955234 6.86241 0.818434 6.73041 0.811234 6.55281C0.804034 6.34881 0.993634 6.17361 1.22883 6.16881C1.40883 6.16401 1.56243 6.31521 1.56483 6.49761Z" fill="#8A92A6"/>
<path d="M11.4695 20.1872C10.6319 20.1872 9.79425 20.1872 8.95905 20.1872C8.62785 20.1872 8.51025 20.072 8.51025 19.7432C8.51025 18.6512 8.51025 17.5592 8.51025 16.4672C8.51025 16.1336 8.62305 16.0208 8.95425 16.0208C10.6367 16.0184 12.3167 16.0184 13.9991 16.0208C14.3207 16.0208 14.4359 16.136 14.4383 16.4528C14.4407 17.552 14.4407 18.6512 14.4383 19.7504C14.4383 20.0672 14.3159 20.1872 14.0039 20.1872C13.1591 20.1896 12.3143 20.1872 11.4695 20.1872ZM10.5983 16.6976C10.5983 17.648 10.5983 18.5744 10.5983 19.5128C11.6567 19.5128 12.6983 19.5128 13.7471 19.5128C13.7471 18.5672 13.7471 17.6336 13.7471 16.6976C12.6911 16.6976 11.6543 16.6976 10.5983 16.6976ZM9.89745 19.5152C9.89745 18.572 9.89745 17.6408 9.89745 16.7024C9.65745 16.7024 9.42945 16.7024 9.19665 16.7024C9.19665 17.648 9.19665 18.5816 9.19665 19.5152C9.43665 19.5152 9.65985 19.5152 9.89745 19.5152Z" fill="#8A92A6"/>
<path d="M19.7305 16.7C19.1209 16.7 18.5401 16.7 17.9497 16.7C17.9497 17.6408 17.9497 18.5696 17.9497 19.5128C18.5329 19.5128 19.1113 19.5128 19.7281 19.5128C19.7281 19.22 19.7281 18.9248 19.7281 18.6296C19.7281 18.272 19.8289 18.1232 20.0617 18.128C20.2849 18.1328 20.3857 18.284 20.3857 18.6224C20.3857 19.0088 20.3881 19.3952 20.3857 19.7792C20.3833 20.0672 20.2657 20.1872 19.9705 20.1872C18.7393 20.1896 17.5105 20.1896 16.2793 20.1872C15.9985 20.1872 15.8737 20.072 15.8737 19.7936C15.8689 18.6656 15.8689 17.5352 15.8737 16.4072C15.8737 16.1336 15.9865 16.0232 16.2625 16.0208C17.5081 16.0184 18.7537 16.0184 19.9969 16.0208C20.2657 16.0208 20.3809 16.1432 20.3857 16.4096C20.3881 16.6136 20.3905 16.8176 20.3857 17.0216C20.3809 17.2352 20.2417 17.384 20.0569 17.384C19.8721 17.384 19.7377 17.24 19.7305 17.0216C19.7281 16.9232 19.7305 16.8224 19.7305 16.7ZM16.5577 16.7C16.5577 17.636 16.5577 18.5744 16.5577 19.5104C16.8001 19.5104 17.0281 19.5104 17.2633 19.5104C17.2633 18.5648 17.2633 17.6384 17.2633 16.7C17.0257 16.7 16.8001 16.7 16.5577 16.7Z" fill="#8A92A6"/>
<path d="M5.66635 18.1016C5.66635 18.2264 5.67355 18.3488 5.66395 18.4712C5.65195 18.656 5.50795 18.7952 5.33995 18.7832C5.15755 18.7712 5.03035 18.668 5.01835 18.488C5.00155 18.2336 5.00395 17.9792 5.01595 17.7248C5.02555 17.54 5.17675 17.4176 5.35435 17.4272C5.53915 17.4392 5.65195 17.54 5.66395 17.7272C5.67355 17.852 5.66635 17.9768 5.66635 18.1016Z" fill="#8A92A6"/>
</svg>
