<svg width="24" height="25" viewBox="0 0 24 25" fill="none" xmlns="http://www.w3.org/2000/svg">
<path d="M6.34991 8.82331H2.34873C2.22685 8.82331 2.10995 8.87173 2.02377 8.95792C1.93758 9.04411 1.88916 9.161 1.88916 9.28289V15.7169C1.88916 15.8388 1.93758 15.9557 2.02377 16.0419C2.10995 16.1281 2.22685 16.1765 2.34873 16.1765H6.34991C6.56234 16.1766 6.76818 16.2503 6.93242 16.385L12.1871 20.6936C12.2556 20.744 12.3368 20.7743 12.4215 20.7813C12.5063 20.7884 12.5914 20.7717 12.6672 20.7332C12.7431 20.6948 12.8068 20.636 12.8512 20.5635C12.8957 20.4909 12.9191 20.4075 12.919 20.3224V4.67738C12.9189 4.59241 12.8953 4.50913 12.8508 4.43677C12.8063 4.36441 12.7425 4.30582 12.6667 4.26749C12.5909 4.22916 12.5059 4.2126 12.4213 4.21965C12.3366 4.2267 12.2555 4.25708 12.1871 4.30742L6.93242 8.61593C6.76802 8.75026 6.5622 8.82353 6.34991 8.82331Z" stroke="#8A92A6" stroke-linecap="round" stroke-linejoin="round"/>
<path d="M17.5151 16.1765C18.0747 15.0614 18.4343 13.8321 18.4343 12.4999C18.4343 11.1493 18.0896 9.94925 17.5151 8.82329" stroke="#8A92A6" stroke-linecap="round" stroke-linejoin="round"/>
<path d="M20.2725 18.9339C21.3915 16.9807 22.1108 15.2573 22.1108 12.4999C22.1108 9.74244 21.4214 8.03627 20.2725 6.06584" stroke="#8A92A6" stroke-linecap="round" stroke-linejoin="round"/>
</svg>
