<svg width="24" height="25" viewBox="0 0 24 25" fill="none" xmlns="http://www.w3.org/2000/svg">
<path d="M7.20504 13.6256C6.86904 13.6256 6.56184 13.628 6.25704 13.6256C5.89944 13.6208 5.77944 13.5056 5.77704 13.1552C5.77224 12.4208 5.77224 11.6864 5.77704 10.9496C5.77944 10.6184 5.90664 10.496 6.24504 10.4936C6.87864 10.4912 7.51464 10.4936 8.19384 10.4936C8.19384 10.3784 8.19144 10.2752 8.19384 10.1696C8.20584 9.47121 8.16264 8.76801 8.24424 8.07921C8.36664 7.06881 9.22584 6.37281 10.2386 6.34881C10.3682 6.34641 10.5698 6.32961 10.613 6.25041C10.769 5.96721 10.7066 5.58561 10.5362 5.44641C9.70824 4.76721 9.40584 3.66081 9.77544 2.67201C10.1402 1.69761 11.1074 1.04481 12.1418 1.07121C13.1522 1.09761 14.0546 1.75521 14.393 2.71521C14.7386 3.69441 14.453 4.73361 13.6514 5.42001C13.4834 5.56401 13.4138 6.14481 13.5674 6.29601C13.6226 6.35121 13.7498 6.34881 13.8434 6.34881C15.0818 6.36081 15.9602 7.24401 15.965 8.48481C15.9674 9.05601 15.965 9.62721 15.965 10.2008C15.965 10.2896 15.965 10.3784 15.965 10.4936C16.553 10.4936 17.1122 10.4936 17.6714 10.4936C18.1106 10.4936 18.2162 10.5968 18.2186 11.036C18.221 11.7248 18.221 12.416 18.2186 13.1048C18.2162 13.5128 18.1082 13.6208 17.705 13.6256C17.4242 13.628 17.1434 13.6304 16.8626 13.6352C16.8482 13.6352 16.8314 13.6496 16.7906 13.6736C16.7906 13.7672 16.7906 13.8728 16.7906 13.9784C16.7906 17.108 16.7906 20.24 16.7906 23.3696C16.7906 23.8352 16.697 23.9288 16.2386 23.9288C13.409 23.9288 10.577 23.9288 7.74744 23.9288C7.30104 23.9288 7.20264 23.8304 7.20264 23.3912C7.20264 20.252 7.20264 17.1128 7.20264 13.9736C7.20504 13.868 7.20504 13.76 7.20504 13.6256ZM16.0706 13.6544C13.3394 13.6544 10.6394 13.6544 7.93944 13.6544C7.93944 16.8416 7.93944 20.012 7.93944 23.1776C10.661 23.1776 13.361 23.1776 16.0706 23.1776C16.0706 19.9952 16.0706 16.832 16.0706 13.6544ZM17.489 11.2472C13.817 11.2472 10.169 11.2472 6.51144 11.2472C6.51144 11.7968 6.51144 12.3296 6.51144 12.8744C10.1738 12.8744 13.8242 12.8744 17.489 12.8744C17.489 12.332 17.489 11.8016 17.489 11.2472ZM15.221 10.4816C15.221 9.69201 15.2546 8.92881 15.209 8.17281C15.1802 7.67361 14.8442 7.32561 14.3714 7.16721C14.1362 7.09041 13.8722 7.08561 13.6226 7.08321C13.517 7.08321 13.3802 7.15281 13.3106 7.23441C13.0034 7.58961 12.7154 7.96641 12.4154 8.32881C12.1994 8.59041 11.9786 8.59041 11.7602 8.33121C11.5274 8.05281 11.2706 7.78881 11.0834 7.48161C10.853 7.10241 10.5434 7.03761 10.145 7.08561C9.45144 7.16721 8.95464 7.66161 8.93784 8.36001C8.92104 9.03201 8.93304 9.70161 8.93544 10.3736C8.93544 10.4072 8.94984 10.4408 8.95704 10.472C10.469 10.472 11.969 10.472 13.481 10.472C13.481 10.2776 13.4978 10.1048 13.4738 9.93441C13.4618 9.84321 13.4042 9.73521 13.3322 9.68001C12.9794 9.40641 12.8354 9.02241 12.9554 8.62641C13.0778 8.22801 13.433 7.97121 13.8554 7.97121C14.2682 7.97361 14.6018 8.21601 14.7338 8.61441C14.8634 9.00801 14.7266 9.40161 14.3738 9.66801C14.3138 9.71361 14.2322 9.77601 14.225 9.83841C14.2058 10.0496 14.2178 10.2632 14.2178 10.4816C14.5778 10.4816 14.8922 10.4816 15.221 10.4816ZM13.8122 3.54081C13.8146 2.57601 13.0634 1.81281 12.0986 1.80561C11.1362 1.79841 10.3634 2.55681 10.3586 3.51441C10.3538 4.49361 11.1146 5.26401 12.0866 5.26401C13.0466 5.26401 13.8098 4.50081 13.8122 3.54081ZM12.7634 5.95521C12.2906 5.95521 11.8562 5.95521 11.4122 5.95521C11.393 6.07041 11.3546 6.20241 11.3498 6.33681C11.345 6.46401 11.3282 6.62241 11.393 6.71601C11.5994 7.01121 11.8394 7.28241 12.0842 7.58721C12.341 7.27041 12.5858 6.97041 12.8234 6.66801C12.8522 6.63201 12.857 6.56721 12.8498 6.51681C12.8258 6.32001 12.7898 6.12561 12.7634 5.95521ZM13.8314 8.59761C13.7402 8.74161 13.6394 8.83281 13.649 8.90481C13.661 8.97921 13.7858 9.08961 13.8554 9.08481C13.9274 9.08001 14.0378 8.95761 14.0426 8.88321C14.0474 8.81121 13.937 8.73201 13.8314 8.59761Z" fill="#8A92A6"/>
</svg>
