<svg width="24" height="25" viewBox="0 0 24 25" fill="none" xmlns="http://www.w3.org/2000/svg">
<path d="M21.9417 19.5492C21.4379 19.5492 20.9368 19.5492 20.433 19.5492C19.1801 19.5492 17.9272 19.5492 16.6743 19.5492C15.0519 19.5492 13.4322 19.5492 11.8098 19.5492C10.203 19.5492 8.59618 19.5492 6.98935 19.5492C5.78551 19.5492 4.5791 19.5492 3.37526 19.5492C3.03684 19.5492 2.69584 19.5492 2.35743 19.5492C2.27734 19.5492 2.19726 19.5492 2.11718 19.5492C2.10168 19.5492 2.08359 19.5492 2.06809 19.5492C2.05518 19.5492 2.04226 19.5492 2.02934 19.5492C2.11459 19.5517 2.01384 19.5414 1.99834 19.5388C2.07584 19.5595 1.98801 19.5311 1.96993 19.5233C1.88468 19.482 2.01126 19.5698 1.94409 19.5027C1.91568 19.4691 1.91309 19.4717 1.94151 19.5052C1.92859 19.4872 1.91826 19.4691 1.90793 19.4484C1.90276 19.4381 1.89759 19.4277 1.89243 19.4174C1.91051 19.4587 1.91309 19.4562 1.89759 19.4148C1.89501 19.4045 1.89243 19.3916 1.88984 19.3812C1.89501 19.4277 1.89759 19.4277 1.89501 19.3812V19.3787C1.89501 19.3735 1.89501 19.3657 1.89501 19.3606C1.89501 19.3296 1.89501 19.2986 1.89501 19.265C1.89501 19.1358 1.89501 19.0067 1.89501 18.8749C1.89501 18.397 1.89501 17.9165 1.89501 17.4386C1.89501 15.9299 1.89501 14.4212 1.89501 12.9126C1.89501 11.3445 1.89501 9.77641 1.89501 8.21091C1.89501 7.36358 1.89243 6.51366 1.89501 5.66633C1.89501 5.65083 1.89501 5.63533 1.89501 5.61983C1.89501 5.61208 1.90276 5.66633 1.89501 5.60174C1.89501 5.59658 1.89501 5.58882 1.89501 5.58366C1.88726 5.63016 1.88726 5.63016 1.89759 5.58366C1.90018 5.57332 1.90276 5.56299 1.90793 5.55008C1.88726 5.58883 1.88726 5.58883 1.90793 5.55008C1.91568 5.53458 1.98026 5.45966 1.92343 5.51907C1.93376 5.50874 2.01384 5.44416 1.94409 5.49324C1.96993 5.47516 2.00093 5.45707 2.02934 5.44416C1.94926 5.47774 2.05259 5.44416 2.06551 5.44157C2.01126 5.45191 2.02676 5.44416 2.06809 5.44674C2.10426 5.44933 2.14301 5.44674 2.18176 5.44674C2.44268 5.44674 2.70359 5.44674 2.96451 5.44674C4.07276 5.44674 5.17843 5.44674 6.28668 5.44674C7.85476 5.44674 9.42285 5.44674 10.9883 5.44674C12.6262 5.44674 14.2614 5.44674 15.8993 5.44674C17.2426 5.44674 18.5834 5.44674 19.9267 5.44674C20.5829 5.44674 21.239 5.44416 21.8978 5.44674C21.9133 5.44674 21.9262 5.44674 21.9417 5.44674H21.9443C21.9572 5.44674 21.9675 5.44674 21.9804 5.44674C21.9339 5.43899 21.9339 5.43899 21.9804 5.44932C21.9908 5.45191 22.0011 5.45449 22.014 5.45966C21.9753 5.43899 21.9753 5.43899 22.014 5.45966C22.0295 5.46741 22.1044 5.53199 22.045 5.47516C22.0554 5.48549 22.1199 5.56558 22.0709 5.49582C22.0864 5.51908 22.1251 5.62757 22.1044 5.55266C22.1096 5.57074 22.1199 5.66891 22.1148 5.58366V5.61983V5.62241C22.1148 5.63016 22.1148 5.63791 22.1148 5.64566C22.1148 5.67666 22.1148 5.71024 22.1148 5.74124C22.1148 6.08224 22.1148 6.42583 22.1148 6.76683C22.1148 8.13341 22.1148 9.49741 22.1148 10.864C22.1148 12.4967 22.1148 14.1293 22.1148 15.7594C22.1148 16.8573 22.1148 17.9527 22.1148 19.0506C22.1148 19.1462 22.1148 19.2417 22.1148 19.3373C22.1148 19.3528 22.1148 19.3683 22.1148 19.3812C22.1174 19.4148 22.107 19.4432 22.1199 19.3838C22.1174 19.3967 22.0838 19.5001 22.1174 19.42C22.1044 19.451 22.0864 19.4794 22.0683 19.5052C22.1174 19.4355 22.0528 19.5156 22.0424 19.5259C22.1019 19.4691 22.0269 19.5311 22.0114 19.5414C22.0011 19.5466 21.9908 19.5517 21.9804 19.5569C22.0218 19.5388 22.0192 19.5362 21.9779 19.5517C21.9675 19.5543 21.9546 19.5569 21.9443 19.5595C21.9882 19.5466 21.9882 19.5466 21.9417 19.5492C21.7402 19.5543 21.5439 19.7222 21.5542 19.9367C21.5645 20.1407 21.7247 20.3319 21.9417 20.3242C22.4764 20.3087 22.882 19.8902 22.8872 19.358C22.8872 19.2727 22.8872 19.1901 22.8872 19.1048C22.8872 18.6863 22.8872 18.2652 22.8872 17.8467C22.8872 16.382 22.8872 14.9147 22.8872 13.4499C22.8872 11.8302 22.8872 10.2104 22.8872 8.59066C22.8872 7.63741 22.8872 6.68674 22.8872 5.73349C22.8872 5.60174 22.8872 5.47257 22.8459 5.34599C22.7193 4.93266 22.3369 4.67691 21.9133 4.67174C21.7144 4.66916 21.518 4.67174 21.3191 4.67174C20.2884 4.67174 19.2576 4.67174 18.2269 4.67174C16.6794 4.67174 15.1294 4.67174 13.582 4.67174C11.9106 4.67174 10.2392 4.67174 8.56776 4.67174C7.16243 4.67174 5.75451 4.67174 4.34918 4.67174C3.61809 4.67174 2.88959 4.67174 2.15851 4.67174C2.10168 4.67174 2.04743 4.67174 1.99318 4.67691C1.48684 4.72341 1.12259 5.13674 1.11743 5.64307C1.11484 5.90658 1.11743 6.16749 1.11743 6.43099C1.11743 7.73558 1.11743 9.03758 1.11743 10.3422C1.11743 12.0007 1.11743 13.6592 1.11743 15.3177C1.11743 16.5086 1.11743 17.6995 1.11743 18.8904C1.11743 19.1849 1.08384 19.5052 1.20784 19.7817C1.36284 20.1304 1.71676 20.3267 2.09134 20.3293C2.16109 20.3293 2.22826 20.3293 2.29801 20.3293C3.14276 20.3293 3.98751 20.3293 4.83226 20.3293C6.2996 20.3293 7.76693 20.3293 9.23426 20.3293C10.9134 20.3293 12.59 20.3293 14.2692 20.3293C15.7701 20.3293 17.271 20.3293 18.7719 20.3293C19.7019 20.3293 20.6294 20.3293 21.5594 20.3293C21.6859 20.3293 21.8125 20.3293 21.9417 20.3293C22.1432 20.3293 22.3395 20.1511 22.3292 19.9418C22.3189 19.7274 22.1587 19.5492 21.9417 19.5492Z" fill="#8A92A6"/>
<path d="M12.0706 16.5009C12.0655 15.6251 11.6935 14.7623 11.0347 14.1811C10.4431 13.6592 9.69654 13.3854 8.90862 13.3828C8.42037 13.3828 7.92954 13.3828 7.44129 13.3828C6.7412 13.3828 6.0592 13.5404 5.4857 13.9615C4.66937 14.5582 4.18112 15.4882 4.17337 16.5009C4.17078 16.7024 4.35162 16.8987 4.56087 16.8884C4.7727 16.8781 4.94578 16.7179 4.94837 16.5009C4.94837 16.4053 4.95612 16.3097 4.96387 16.2141C4.96387 16.1986 4.9742 16.1366 4.96387 16.2116C4.96645 16.1883 4.97162 16.1651 4.9742 16.1418C4.98195 16.0901 4.99228 16.0385 5.0052 15.9868C5.02587 15.9016 5.04912 15.8189 5.07495 15.7362C5.09045 15.6923 5.10595 15.651 5.12145 15.6071C5.14728 15.5373 5.1292 15.589 5.12145 15.6045C5.13178 15.5786 5.1447 15.5528 5.15762 15.527C5.2377 15.3591 5.33587 15.1963 5.44953 15.0491C5.40045 15.1111 5.48312 15.0103 5.49603 14.9948C5.52187 14.9638 5.5477 14.9354 5.57612 14.907C5.6407 14.8372 5.71045 14.7701 5.78279 14.7081C5.7957 14.6977 5.89903 14.6151 5.83703 14.6616C5.8732 14.6331 5.90937 14.6073 5.94812 14.5815C6.02304 14.5298 6.10054 14.4833 6.18062 14.4394C6.21937 14.4187 6.2607 14.3955 6.30203 14.3774C6.31753 14.3696 6.43895 14.318 6.36662 14.3464C6.45703 14.3102 6.55004 14.2766 6.64304 14.2508C6.72829 14.2276 6.81354 14.2069 6.89879 14.1914C6.91687 14.1888 7.0512 14.1707 6.97112 14.1785C7.03054 14.1733 7.08995 14.1656 7.14937 14.163C7.2217 14.1604 7.29145 14.1604 7.36379 14.1604C7.83395 14.1604 8.30412 14.1604 8.77429 14.1604C8.8337 14.1604 8.89054 14.1604 8.94995 14.1604C9.00162 14.1604 9.05329 14.1604 9.10237 14.163C9.15145 14.1656 9.19795 14.1707 9.24445 14.1733C9.25995 14.1733 9.32195 14.1836 9.24704 14.1733C9.27545 14.1785 9.30645 14.1811 9.33487 14.1862C9.51829 14.2198 9.69654 14.2715 9.86962 14.3386C9.92645 14.3593 9.81795 14.3154 9.8722 14.3386C9.89287 14.349 9.91354 14.3567 9.9342 14.3671C9.97554 14.3877 10.0169 14.4084 10.0556 14.4291C10.1409 14.4756 10.2235 14.5246 10.301 14.5789C10.3191 14.5918 10.3372 14.6047 10.3553 14.6176C10.363 14.6228 10.4354 14.6796 10.3966 14.6486C10.363 14.6228 10.407 14.6564 10.4095 14.6616C10.4354 14.6848 10.4612 14.7055 10.487 14.7261C10.562 14.7933 10.6343 14.8656 10.704 14.9406C10.7376 14.9793 10.7712 15.0181 10.8022 15.0568C10.841 15.1033 10.7686 15.0103 10.8048 15.0594C10.8229 15.0826 10.8384 15.1059 10.8539 15.1291C10.9133 15.2118 10.9675 15.2996 11.0166 15.3875C11.045 15.4366 11.0709 15.4882 11.0941 15.5399C11.1019 15.5554 11.107 15.5709 11.1148 15.5864C11.1329 15.6277 11.0967 15.5373 11.1225 15.6045C11.1613 15.7078 11.1975 15.8111 11.2233 15.9171C11.2362 15.9687 11.2491 16.0178 11.2595 16.0695C11.2646 16.0927 11.2672 16.116 11.2724 16.1392C11.275 16.1496 11.2879 16.2426 11.2801 16.1935C11.275 16.1444 11.2827 16.2193 11.2827 16.2296C11.2853 16.2606 11.2879 16.2891 11.2905 16.3201C11.2956 16.3795 11.2956 16.4415 11.2956 16.5009C11.2982 16.7024 11.4739 16.8987 11.6831 16.8884C11.8924 16.8806 12.0732 16.7179 12.0706 16.5009Z" fill="#8A92A6"/>
<path d="M10.4482 10.4326C10.4405 9.44832 9.82305 8.58807 8.90855 8.2419C8.0173 7.90607 6.94263 8.20057 6.34071 8.93423C5.71813 9.69373 5.61221 10.7813 6.1263 11.6312C6.6378 12.476 7.6298 12.8971 8.59597 12.7111C9.66805 12.5044 10.4405 11.5124 10.4482 10.4326C10.4508 10.2311 10.2674 10.0347 10.0607 10.0451C9.84888 10.0554 9.6758 10.2156 9.67322 10.4326C9.67322 10.4817 9.67063 10.5282 9.66805 10.5747C9.66547 10.5979 9.66288 10.6212 9.66288 10.6444C9.66547 10.6289 9.6758 10.5695 9.66288 10.647C9.6448 10.7426 9.62413 10.8382 9.59313 10.9312C9.58022 10.9699 9.5673 11.0061 9.5518 11.0448C9.58022 10.9725 9.53113 11.0862 9.5208 11.1068C9.47688 11.1921 9.4278 11.2722 9.37355 11.3522C9.36838 11.36 9.32447 11.4168 9.35288 11.3807C9.3813 11.3445 9.33738 11.3987 9.32963 11.4065C9.3038 11.4349 9.27797 11.4659 9.25213 11.4943C9.22113 11.5279 9.19013 11.5589 9.15655 11.5873C9.14105 11.6028 9.12297 11.6183 9.10747 11.6312C9.09972 11.6364 9.01447 11.7036 9.08163 11.6545C9.01447 11.7036 8.94472 11.7501 8.8698 11.7914C8.83105 11.8147 8.78972 11.8327 8.74838 11.8534C8.73288 11.8612 8.71738 11.8689 8.70188 11.8741C8.77938 11.8405 8.67605 11.8818 8.6683 11.8844C8.58822 11.9128 8.50297 11.9361 8.4203 11.9542C8.39705 11.9593 8.3738 11.9645 8.35313 11.9671C8.3428 11.9697 8.26788 11.9774 8.31697 11.9722C8.36605 11.9671 8.29113 11.9748 8.2808 11.9748C8.25238 11.9774 8.22138 11.98 8.19297 11.98C8.09738 11.9826 8.0018 11.9774 7.90622 11.9697C7.98888 11.9774 7.85713 11.9593 7.83647 11.9567C7.78997 11.9464 7.74605 11.9361 7.70213 11.9257C7.65822 11.9128 7.6143 11.8999 7.57038 11.8844C7.54972 11.8767 7.52905 11.8689 7.5058 11.8612C7.51872 11.8663 7.57297 11.887 7.5058 11.8612C7.42055 11.8198 7.3353 11.7759 7.25522 11.7217C7.22163 11.701 7.19063 11.6777 7.15963 11.6545C7.22163 11.6984 7.12605 11.6261 7.10796 11.6106C7.03563 11.5486 6.97105 11.4788 6.90905 11.4065C6.9013 11.3987 6.85738 11.3419 6.8858 11.3807C6.91421 11.4168 6.87288 11.3626 6.86513 11.3522C6.8393 11.3161 6.81605 11.2773 6.7928 11.2386C6.77213 11.205 6.75405 11.1714 6.73596 11.1352C6.72563 11.1146 6.7153 11.0939 6.70496 11.0758C6.6998 11.0681 6.65846 10.9647 6.68946 11.0448C6.65846 10.9647 6.63263 10.8847 6.61196 10.7994C6.60163 10.7555 6.5913 10.709 6.58355 10.6625C6.58096 10.6522 6.57321 10.5772 6.57838 10.6263C6.58355 10.678 6.57321 10.5695 6.57321 10.5721C6.56546 10.4765 6.56546 10.3809 6.57321 10.2853C6.57321 10.2672 6.5758 10.2492 6.57838 10.2311C6.58355 10.1691 6.56805 10.2905 6.57838 10.2285C6.58613 10.1768 6.59646 10.1252 6.60938 10.0761C6.63005 9.98823 6.65846 9.9004 6.69205 9.81515C6.66363 9.89007 6.71271 9.77123 6.72305 9.75315C6.74371 9.71182 6.76438 9.67307 6.78763 9.63432C6.81088 9.59557 6.83413 9.55682 6.85996 9.52065C6.87288 9.50257 6.8858 9.48448 6.89871 9.4664C6.85738 9.52323 6.89096 9.47673 6.9013 9.4664C6.9633 9.39407 7.02788 9.32432 7.09763 9.26232C7.11313 9.24682 7.13122 9.2339 7.1493 9.2184C7.15705 9.21065 7.21388 9.16673 7.17513 9.19515C7.14155 9.22098 7.18547 9.1874 7.19063 9.18482C7.20872 9.1719 7.2268 9.15898 7.24488 9.14607C7.32496 9.09182 7.40763 9.0479 7.49547 9.00657C7.5058 9.0014 7.57038 8.97298 7.52647 8.99107C7.48255 9.00915 7.54972 8.98332 7.56005 8.97815C7.60397 8.96265 7.6453 8.94715 7.68922 8.93682C7.72797 8.92648 7.76672 8.91615 7.80547 8.90582C7.82872 8.90065 7.85197 8.89548 7.87263 8.8929C7.88297 8.89032 7.99405 8.8774 7.9088 8.88515C7.99922 8.8774 8.08705 8.87223 8.17747 8.87482C8.22397 8.8774 8.27305 8.87998 8.31955 8.88515C8.38155 8.89032 8.26013 8.87482 8.32213 8.88515C8.35055 8.89032 8.37897 8.89548 8.40738 8.90065C8.50813 8.92132 8.6063 8.95232 8.70447 8.9859C8.77422 9.00915 8.72255 8.99107 8.70705 8.9859C8.73288 8.99623 8.75872 9.00915 8.78455 9.02207C8.83105 9.04532 8.87497 9.06857 8.91888 9.0944C8.9628 9.12023 9.00413 9.14865 9.04547 9.17707C9.05322 9.18223 9.11005 9.22615 9.07388 9.19773C9.03513 9.16673 9.10488 9.22357 9.11263 9.23132C9.19013 9.2959 9.25988 9.36823 9.32447 9.44315C9.33997 9.46123 9.35288 9.47673 9.36838 9.49482C9.31672 9.43023 9.38388 9.51807 9.38905 9.52323C9.41488 9.5594 9.43813 9.59815 9.46138 9.6369C9.4898 9.68598 9.51563 9.73507 9.54147 9.78673C9.5518 9.8074 9.55955 9.82807 9.56988 9.84873C9.54663 9.79707 9.56472 9.83582 9.57505 9.86682C9.60863 9.96498 9.63705 10.0632 9.65772 10.1665C9.66288 10.1897 9.66547 10.213 9.67063 10.2362C9.68097 10.2982 9.66547 10.1432 9.67322 10.2543C9.67838 10.3137 9.68097 10.3732 9.68097 10.4326C9.68355 10.6341 9.85663 10.8304 10.0685 10.8201C10.27 10.8097 10.4508 10.6496 10.4482 10.4326Z" fill="#8A92A6"/>
<path d="M13.2487 10.7478C13.9436 10.7478 14.636 10.7478 15.3309 10.7478C16.4391 10.7478 17.5448 10.7478 18.6531 10.7478C18.9088 10.7478 19.162 10.7478 19.4177 10.7478C19.6192 10.7478 19.8156 10.5695 19.8052 10.3603C19.7949 10.151 19.6347 9.97278 19.4177 9.97278C18.7228 9.97278 18.0305 9.97278 17.3356 9.97278C16.2273 9.97278 15.1216 9.97278 14.0134 9.97278C13.7576 9.97278 13.5045 9.97278 13.2487 9.97278C13.0472 9.97278 12.8509 10.151 12.8612 10.3603C12.869 10.5695 13.0317 10.7478 13.2487 10.7478Z" fill="#8A92A6"/>
<path d="M14.4914 15.0206C15.0442 15.0206 15.5997 15.0206 16.1525 15.0206C17.036 15.0206 17.9195 15.0206 18.803 15.0206C19.0071 15.0206 19.2112 15.0206 19.4152 15.0206C19.6167 15.0206 19.8131 14.8424 19.8027 14.6331C19.7924 14.4239 19.6322 14.2456 19.4152 14.2456C18.8624 14.2456 18.307 14.2456 17.7542 14.2456C16.8707 14.2456 15.9872 14.2456 15.1037 14.2456C14.8996 14.2456 14.6955 14.2456 14.4914 14.2456C14.2899 14.2456 14.0936 14.4239 14.1039 14.6331C14.1142 14.845 14.2744 15.0206 14.4914 15.0206Z" fill="#8A92A6"/>
</svg>
