<svg width="24" height="25" viewBox="0 0 24 25" fill="none" xmlns="http://www.w3.org/2000/svg">
<mask id="path-1-outside-1_189_5239" maskUnits="userSpaceOnUse" x="4.08301" y="4.47821" width="16" height="16" fill="black">
<rect fill="white" x="4.08301" y="4.47821" width="16" height="16"/>
<path d="M6.67454 14.2352C6.63374 14.096 6.59294 13.976 6.55934 13.8512C6.47054 13.5176 6.47054 13.52 6.12254 13.5152C5.95934 13.5128 5.79374 13.52 5.63534 13.4888C5.30894 13.424 5.10254 13.1744 5.09054 12.8408C5.08094 12.5696 5.08094 12.2984 5.08814 12.0296C5.09774 11.6072 5.37614 11.3312 5.80574 11.3144C5.98334 11.3072 6.16334 11.324 6.33854 11.3072C6.40094 11.3024 6.48494 11.2376 6.50654 11.1824C6.57374 10.9952 6.61454 10.8008 6.66974 10.5944C6.48254 10.4864 6.29054 10.3784 6.10094 10.2656C5.71934 10.0376 5.61374 9.64641 5.82974 9.25521C5.94734 9.04401 6.06734 8.83281 6.19214 8.62641C6.41534 8.25921 6.81134 8.15121 7.18814 8.35761C7.38014 8.46321 7.56974 8.57601 7.75934 8.68641C7.78094 8.67201 7.80014 8.66241 7.81694 8.64801C7.97534 8.49441 8.13134 8.33841 8.29934 8.17281C8.19134 7.98321 8.08334 7.80321 7.98014 7.61841C7.74734 7.20321 7.85774 6.80481 8.27294 6.56481C8.46974 6.44961 8.66414 6.33441 8.86574 6.22401C9.24494 6.01761 9.63854 6.12081 9.86174 6.48801C9.97694 6.67521 10.0825 6.86721 10.1977 7.06401C10.4065 7.00881 10.6129 6.96321 10.8145 6.89601C10.8601 6.88161 10.9105 6.80001 10.9129 6.74721C10.9249 6.57681 10.9153 6.40641 10.9177 6.23361C10.9249 5.77281 11.2081 5.48721 11.6617 5.48001C11.8969 5.47761 12.1321 5.47761 12.3673 5.48001C12.8281 5.48481 13.1089 5.76321 13.1209 6.22401C13.1257 6.39441 13.1113 6.56721 13.1281 6.73521C13.1353 6.79521 13.2025 6.87681 13.2601 6.89601C13.4449 6.96321 13.6393 7.00641 13.8409 7.06161C13.9513 6.86961 14.0569 6.67761 14.1697 6.48801C14.3905 6.11841 14.7865 6.01041 15.1633 6.21441C15.3817 6.33201 15.5977 6.45681 15.8113 6.58641C16.1761 6.81201 16.2793 7.20801 16.0753 7.58481C15.9697 7.77681 15.8569 7.96641 15.7513 8.14881C15.9313 8.32641 16.1017 8.49681 16.2865 8.67681C16.4569 8.57841 16.6393 8.47041 16.8241 8.36481C17.2297 8.13681 17.6281 8.24241 17.8657 8.64321C17.9809 8.84001 18.0937 9.03681 18.2041 9.23601C18.4321 9.64641 18.3217 10.0304 17.9137 10.2728C17.7361 10.3784 17.5585 10.4792 17.3737 10.5848C17.4289 10.796 17.4745 11.0024 17.5393 11.204C17.5537 11.2496 17.6353 11.2976 17.6881 11.3024C17.8585 11.3144 18.0289 11.3048 18.2017 11.3072C18.6649 11.3168 18.9457 11.5952 18.9553 12.0536C18.9601 12.296 18.9601 12.5384 18.9553 12.7808C18.9457 13.2296 18.6625 13.5032 18.2113 13.5104C18.0409 13.5128 17.8681 13.4984 17.7001 13.5176C17.6401 13.5248 17.5585 13.5896 17.5369 13.6472C17.4697 13.832 17.4289 14.0264 17.3737 14.2304C17.5585 14.336 17.7433 14.4416 17.9281 14.5496C18.3313 14.7872 18.4345 15.1784 18.2041 15.5888C18.0865 15.8 17.9689 16.0112 17.8393 16.2176C17.6257 16.5608 17.2321 16.664 16.8721 16.472C16.6729 16.364 16.4785 16.2464 16.2841 16.1336C16.2601 16.1504 16.2409 16.1624 16.2265 16.1768C16.0681 16.3304 15.9121 16.4864 15.7465 16.6496C15.8593 16.8464 15.9721 17.0336 16.0777 17.2256C16.2937 17.6168 16.1905 18.0056 15.8089 18.236C15.5953 18.3656 15.3793 18.488 15.1609 18.6056C14.7889 18.8072 14.4073 18.7016 14.1841 18.3368C14.0689 18.1496 13.9633 17.9552 13.8481 17.756C13.6393 17.8112 13.4329 17.8568 13.2337 17.9216C13.1881 17.936 13.1353 18.0152 13.1329 18.068C13.1209 18.2456 13.1329 18.4232 13.1257 18.6008C13.1113 19.052 12.8329 19.328 12.3841 19.3352C12.1345 19.34 11.8849 19.34 11.6353 19.3352C11.2153 19.3232 10.9321 19.04 10.9225 18.6152C10.9177 18.3944 10.9225 18.176 10.9225 17.948C10.6777 17.8808 10.4473 17.8184 10.2073 17.7512C10.0945 17.9432 9.98654 18.1352 9.87374 18.3224C9.64094 18.7064 9.25934 18.8096 8.86574 18.5912C8.65454 18.4736 8.44574 18.3512 8.23694 18.2264C7.86734 18.0032 7.76174 17.612 7.97054 17.2328C8.07614 17.0408 8.19134 16.8512 8.29694 16.6664C8.11934 16.4936 7.94654 16.3256 7.75214 16.1384C7.59374 16.2296 7.41374 16.3352 7.22894 16.4384C6.81134 16.6736 6.42014 16.5656 6.17534 16.1504C6.06734 15.9656 5.96174 15.7808 5.85614 15.596C5.61134 15.164 5.71694 14.7848 6.15134 14.5328C6.31454 14.444 6.48494 14.3432 6.67454 14.2352ZM12.6577 18.2072C12.6577 18.0944 12.6673 17.9792 12.6553 17.8664C12.6337 17.6432 12.7369 17.5472 12.9481 17.504C13.2385 17.444 13.5265 17.3624 13.8121 17.2736C13.9777 17.2208 14.0857 17.2616 14.1673 17.408C14.2969 17.6384 14.4289 17.864 14.5609 18.092C14.6569 18.2576 14.7865 18.296 14.9545 18.1976C15.1441 18.0872 15.3385 17.9816 15.5281 17.8688C15.7369 17.7464 15.7657 17.6384 15.6481 17.4296C15.5257 17.2136 15.4009 16.9976 15.2737 16.784C15.1849 16.6328 15.2041 16.5104 15.3385 16.388C15.5617 16.1792 15.7801 15.9656 15.9865 15.74C16.1161 15.5984 16.2409 15.5816 16.3993 15.6776C16.6057 15.8024 16.8145 15.9248 17.0257 16.0448C17.2369 16.1648 17.3473 16.136 17.4697 15.9344C17.5801 15.752 17.6857 15.5672 17.7889 15.38C17.8993 15.1808 17.8705 15.068 17.6785 14.9528C17.4529 14.8184 17.2225 14.6888 16.9945 14.5592C16.8625 14.4848 16.8289 14.3816 16.8697 14.2352C16.9609 13.9208 17.0449 13.6064 17.1241 13.2896C17.1649 13.124 17.2537 13.052 17.4265 13.0568C17.6833 13.064 17.9401 13.0592 18.1969 13.0592C18.3865 13.0592 18.4921 12.968 18.4921 12.776C18.4945 12.5408 18.4969 12.3056 18.4921 12.0704C18.4873 11.8616 18.4009 11.7824 18.1825 11.78C17.9329 11.7752 17.6833 11.7704 17.4337 11.7824C17.2345 11.792 17.1553 11.6936 17.1145 11.516C17.0473 11.2256 16.9801 10.9352 16.8841 10.652C16.8193 10.4552 16.8697 10.3424 17.0401 10.2488C17.2465 10.1384 17.4481 10.0184 17.6521 9.90081C17.8729 9.77121 17.9017 9.66561 17.7817 9.44721C17.6809 9.26721 17.5777 9.08721 17.4745 8.90961C17.3497 8.69841 17.2369 8.66961 17.0161 8.79441C16.8121 8.90961 16.6081 9.02721 16.4089 9.14961C16.2433 9.25041 16.1137 9.23361 15.9793 9.08481C15.7849 8.86881 15.5785 8.66001 15.3601 8.46801C15.2017 8.32881 15.1825 8.19681 15.2905 8.02161C15.4177 7.81521 15.5377 7.60641 15.6553 7.39521C15.7633 7.19841 15.7321 7.08561 15.5377 6.97041C15.3481 6.85761 15.1561 6.74721 14.9641 6.64161C14.7721 6.53841 14.6641 6.56721 14.5537 6.75201C14.4193 6.97761 14.2897 7.20801 14.1625 7.43841C14.0833 7.58001 13.9753 7.61121 13.8217 7.56561C13.5145 7.47681 13.2073 7.39041 12.8977 7.31601C12.7225 7.27281 12.6505 7.17921 12.6553 6.99921C12.6649 6.74241 12.6601 6.48561 12.6553 6.22881C12.6529 6.05361 12.5689 5.94561 12.3817 5.94561C12.1393 5.94561 11.8969 5.94321 11.6545 5.94561C11.4577 5.94801 11.3737 6.05601 11.3737 6.24321C11.3737 6.49281 11.3665 6.74241 11.3761 6.99201C11.3857 7.18641 11.2969 7.27521 11.1169 7.31841C10.8217 7.39041 10.5241 7.46481 10.2337 7.55601C10.0609 7.61121 9.94814 7.57761 9.86174 7.41921C9.74174 7.20081 9.61694 6.98721 9.48974 6.77121C9.36734 6.56241 9.25694 6.53121 9.05054 6.64641C8.86334 6.74961 8.67854 6.85761 8.49614 6.96801C8.30174 7.08561 8.27054 7.19601 8.37854 7.39281C8.49614 7.60401 8.61614 7.81521 8.74334 8.01921C8.85134 8.19201 8.83454 8.32401 8.67374 8.46561C8.45534 8.65761 8.24894 8.86641 8.05454 9.08241C7.92014 9.23361 7.79054 9.25041 7.62494 9.14961C7.41854 9.02481 7.20974 8.90241 6.99854 8.78481C6.79454 8.67201 6.68654 8.69841 6.57134 8.89281C6.45854 9.08241 6.34814 9.27441 6.24254 9.46641C6.13214 9.66561 6.16334 9.77361 6.36254 9.89121C6.58334 10.0208 6.80654 10.148 7.02734 10.2728C7.16654 10.3496 7.20734 10.4528 7.16174 10.6112C7.07054 10.916 6.98894 11.2256 6.91454 11.5352C6.87374 11.708 6.78254 11.7872 6.60014 11.78C6.35054 11.7704 6.10094 11.7752 5.85134 11.7776C5.63294 11.78 5.54894 11.8592 5.54414 12.068C5.53694 12.3032 5.54174 12.5384 5.54414 12.7736C5.54654 12.968 5.64734 13.0592 5.83934 13.0568C6.09614 13.0568 6.35294 13.064 6.60974 13.0544C6.79694 13.0472 6.87854 13.1384 6.91934 13.3088C6.99374 13.6112 7.06814 13.916 7.15934 14.2136C7.20974 14.3792 7.17134 14.4872 7.02494 14.5688C6.80174 14.6936 6.57854 14.8208 6.35774 14.9504C6.16334 15.0656 6.13454 15.176 6.24494 15.3776C6.34814 15.5648 6.45614 15.7496 6.56414 15.932C6.68654 16.136 6.79214 16.1624 7.00574 16.0424C7.20974 15.9272 7.41614 15.812 7.61294 15.6872C7.78574 15.5792 7.91774 15.596 8.05934 15.7544C8.25134 15.9728 8.46014 16.1792 8.67854 16.3736C8.82974 16.508 8.85134 16.6352 8.74814 16.8032C8.61854 17.0168 8.49374 17.2304 8.37374 17.4488C8.26814 17.6384 8.29934 17.744 8.48654 17.8568C8.67614 17.9696 8.86574 18.0824 9.06014 18.188C9.26414 18.3008 9.36254 18.272 9.48254 18.0704C9.61694 17.8448 9.74894 17.6168 9.87854 17.3888C9.95294 17.2592 10.0561 17.2256 10.2025 17.2664C10.5169 17.3576 10.8313 17.4416 11.1481 17.5208C11.3017 17.5592 11.3785 17.6432 11.3761 17.8064C11.3713 18.0632 11.3713 18.32 11.3761 18.5768C11.3785 18.7952 11.4553 18.8792 11.6665 18.8864C11.9017 18.8936 12.1369 18.8888 12.3721 18.8888C12.5689 18.8888 12.6553 18.7832 12.6577 18.5936C12.6577 18.464 12.6577 18.3368 12.6577 18.2072Z"/>
</mask>
<path d="M6.67454 14.2352C6.63374 14.096 6.59294 13.976 6.55934 13.8512C6.47054 13.5176 6.47054 13.52 6.12254 13.5152C5.95934 13.5128 5.79374 13.52 5.63534 13.4888C5.30894 13.424 5.10254 13.1744 5.09054 12.8408C5.08094 12.5696 5.08094 12.2984 5.08814 12.0296C5.09774 11.6072 5.37614 11.3312 5.80574 11.3144C5.98334 11.3072 6.16334 11.324 6.33854 11.3072C6.40094 11.3024 6.48494 11.2376 6.50654 11.1824C6.57374 10.9952 6.61454 10.8008 6.66974 10.5944C6.48254 10.4864 6.29054 10.3784 6.10094 10.2656C5.71934 10.0376 5.61374 9.64641 5.82974 9.25521C5.94734 9.04401 6.06734 8.83281 6.19214 8.62641C6.41534 8.25921 6.81134 8.15121 7.18814 8.35761C7.38014 8.46321 7.56974 8.57601 7.75934 8.68641C7.78094 8.67201 7.80014 8.66241 7.81694 8.64801C7.97534 8.49441 8.13134 8.33841 8.29934 8.17281C8.19134 7.98321 8.08334 7.80321 7.98014 7.61841C7.74734 7.20321 7.85774 6.80481 8.27294 6.56481C8.46974 6.44961 8.66414 6.33441 8.86574 6.22401C9.24494 6.01761 9.63854 6.12081 9.86174 6.48801C9.97694 6.67521 10.0825 6.86721 10.1977 7.06401C10.4065 7.00881 10.6129 6.96321 10.8145 6.89601C10.8601 6.88161 10.9105 6.80001 10.9129 6.74721C10.9249 6.57681 10.9153 6.40641 10.9177 6.23361C10.9249 5.77281 11.2081 5.48721 11.6617 5.48001C11.8969 5.47761 12.1321 5.47761 12.3673 5.48001C12.8281 5.48481 13.1089 5.76321 13.1209 6.22401C13.1257 6.39441 13.1113 6.56721 13.1281 6.73521C13.1353 6.79521 13.2025 6.87681 13.2601 6.89601C13.4449 6.96321 13.6393 7.00641 13.8409 7.06161C13.9513 6.86961 14.0569 6.67761 14.1697 6.48801C14.3905 6.11841 14.7865 6.01041 15.1633 6.21441C15.3817 6.33201 15.5977 6.45681 15.8113 6.58641C16.1761 6.81201 16.2793 7.20801 16.0753 7.58481C15.9697 7.77681 15.8569 7.96641 15.7513 8.14881C15.9313 8.32641 16.1017 8.49681 16.2865 8.67681C16.4569 8.57841 16.6393 8.47041 16.8241 8.36481C17.2297 8.13681 17.6281 8.24241 17.8657 8.64321C17.9809 8.84001 18.0937 9.03681 18.2041 9.23601C18.4321 9.64641 18.3217 10.0304 17.9137 10.2728C17.7361 10.3784 17.5585 10.4792 17.3737 10.5848C17.4289 10.796 17.4745 11.0024 17.5393 11.204C17.5537 11.2496 17.6353 11.2976 17.6881 11.3024C17.8585 11.3144 18.0289 11.3048 18.2017 11.3072C18.6649 11.3168 18.9457 11.5952 18.9553 12.0536C18.9601 12.296 18.9601 12.5384 18.9553 12.7808C18.9457 13.2296 18.6625 13.5032 18.2113 13.5104C18.0409 13.5128 17.8681 13.4984 17.7001 13.5176C17.6401 13.5248 17.5585 13.5896 17.5369 13.6472C17.4697 13.832 17.4289 14.0264 17.3737 14.2304C17.5585 14.336 17.7433 14.4416 17.9281 14.5496C18.3313 14.7872 18.4345 15.1784 18.2041 15.5888C18.0865 15.8 17.9689 16.0112 17.8393 16.2176C17.6257 16.5608 17.2321 16.664 16.8721 16.472C16.6729 16.364 16.4785 16.2464 16.2841 16.1336C16.2601 16.1504 16.2409 16.1624 16.2265 16.1768C16.0681 16.3304 15.9121 16.4864 15.7465 16.6496C15.8593 16.8464 15.9721 17.0336 16.0777 17.2256C16.2937 17.6168 16.1905 18.0056 15.8089 18.236C15.5953 18.3656 15.3793 18.488 15.1609 18.6056C14.7889 18.8072 14.4073 18.7016 14.1841 18.3368C14.0689 18.1496 13.9633 17.9552 13.8481 17.756C13.6393 17.8112 13.4329 17.8568 13.2337 17.9216C13.1881 17.936 13.1353 18.0152 13.1329 18.068C13.1209 18.2456 13.1329 18.4232 13.1257 18.6008C13.1113 19.052 12.8329 19.328 12.3841 19.3352C12.1345 19.34 11.8849 19.34 11.6353 19.3352C11.2153 19.3232 10.9321 19.04 10.9225 18.6152C10.9177 18.3944 10.9225 18.176 10.9225 17.948C10.6777 17.8808 10.4473 17.8184 10.2073 17.7512C10.0945 17.9432 9.98654 18.1352 9.87374 18.3224C9.64094 18.7064 9.25934 18.8096 8.86574 18.5912C8.65454 18.4736 8.44574 18.3512 8.23694 18.2264C7.86734 18.0032 7.76174 17.612 7.97054 17.2328C8.07614 17.0408 8.19134 16.8512 8.29694 16.6664C8.11934 16.4936 7.94654 16.3256 7.75214 16.1384C7.59374 16.2296 7.41374 16.3352 7.22894 16.4384C6.81134 16.6736 6.42014 16.5656 6.17534 16.1504C6.06734 15.9656 5.96174 15.7808 5.85614 15.596C5.61134 15.164 5.71694 14.7848 6.15134 14.5328C6.31454 14.444 6.48494 14.3432 6.67454 14.2352ZM12.6577 18.2072C12.6577 18.0944 12.6673 17.9792 12.6553 17.8664C12.6337 17.6432 12.7369 17.5472 12.9481 17.504C13.2385 17.444 13.5265 17.3624 13.8121 17.2736C13.9777 17.2208 14.0857 17.2616 14.1673 17.408C14.2969 17.6384 14.4289 17.864 14.5609 18.092C14.6569 18.2576 14.7865 18.296 14.9545 18.1976C15.1441 18.0872 15.3385 17.9816 15.5281 17.8688C15.7369 17.7464 15.7657 17.6384 15.6481 17.4296C15.5257 17.2136 15.4009 16.9976 15.2737 16.784C15.1849 16.6328 15.2041 16.5104 15.3385 16.388C15.5617 16.1792 15.7801 15.9656 15.9865 15.74C16.1161 15.5984 16.2409 15.5816 16.3993 15.6776C16.6057 15.8024 16.8145 15.9248 17.0257 16.0448C17.2369 16.1648 17.3473 16.136 17.4697 15.9344C17.5801 15.752 17.6857 15.5672 17.7889 15.38C17.8993 15.1808 17.8705 15.068 17.6785 14.9528C17.4529 14.8184 17.2225 14.6888 16.9945 14.5592C16.8625 14.4848 16.8289 14.3816 16.8697 14.2352C16.9609 13.9208 17.0449 13.6064 17.1241 13.2896C17.1649 13.124 17.2537 13.052 17.4265 13.0568C17.6833 13.064 17.9401 13.0592 18.1969 13.0592C18.3865 13.0592 18.4921 12.968 18.4921 12.776C18.4945 12.5408 18.4969 12.3056 18.4921 12.0704C18.4873 11.8616 18.4009 11.7824 18.1825 11.78C17.9329 11.7752 17.6833 11.7704 17.4337 11.7824C17.2345 11.792 17.1553 11.6936 17.1145 11.516C17.0473 11.2256 16.9801 10.9352 16.8841 10.652C16.8193 10.4552 16.8697 10.3424 17.0401 10.2488C17.2465 10.1384 17.4481 10.0184 17.6521 9.90081C17.8729 9.77121 17.9017 9.66561 17.7817 9.44721C17.6809 9.26721 17.5777 9.08721 17.4745 8.90961C17.3497 8.69841 17.2369 8.66961 17.0161 8.79441C16.8121 8.90961 16.6081 9.02721 16.4089 9.14961C16.2433 9.25041 16.1137 9.23361 15.9793 9.08481C15.7849 8.86881 15.5785 8.66001 15.3601 8.46801C15.2017 8.32881 15.1825 8.19681 15.2905 8.02161C15.4177 7.81521 15.5377 7.60641 15.6553 7.39521C15.7633 7.19841 15.7321 7.08561 15.5377 6.97041C15.3481 6.85761 15.1561 6.74721 14.9641 6.64161C14.7721 6.53841 14.6641 6.56721 14.5537 6.75201C14.4193 6.97761 14.2897 7.20801 14.1625 7.43841C14.0833 7.58001 13.9753 7.61121 13.8217 7.56561C13.5145 7.47681 13.2073 7.39041 12.8977 7.31601C12.7225 7.27281 12.6505 7.17921 12.6553 6.99921C12.6649 6.74241 12.6601 6.48561 12.6553 6.22881C12.6529 6.05361 12.5689 5.94561 12.3817 5.94561C12.1393 5.94561 11.8969 5.94321 11.6545 5.94561C11.4577 5.94801 11.3737 6.05601 11.3737 6.24321C11.3737 6.49281 11.3665 6.74241 11.3761 6.99201C11.3857 7.18641 11.2969 7.27521 11.1169 7.31841C10.8217 7.39041 10.5241 7.46481 10.2337 7.55601C10.0609 7.61121 9.94814 7.57761 9.86174 7.41921C9.74174 7.20081 9.61694 6.98721 9.48974 6.77121C9.36734 6.56241 9.25694 6.53121 9.05054 6.64641C8.86334 6.74961 8.67854 6.85761 8.49614 6.96801C8.30174 7.08561 8.27054 7.19601 8.37854 7.39281C8.49614 7.60401 8.61614 7.81521 8.74334 8.01921C8.85134 8.19201 8.83454 8.32401 8.67374 8.46561C8.45534 8.65761 8.24894 8.86641 8.05454 9.08241C7.92014 9.23361 7.79054 9.25041 7.62494 9.14961C7.41854 9.02481 7.20974 8.90241 6.99854 8.78481C6.79454 8.67201 6.68654 8.69841 6.57134 8.89281C6.45854 9.08241 6.34814 9.27441 6.24254 9.46641C6.13214 9.66561 6.16334 9.77361 6.36254 9.89121C6.58334 10.0208 6.80654 10.148 7.02734 10.2728C7.16654 10.3496 7.20734 10.4528 7.16174 10.6112C7.07054 10.916 6.98894 11.2256 6.91454 11.5352C6.87374 11.708 6.78254 11.7872 6.60014 11.78C6.35054 11.7704 6.10094 11.7752 5.85134 11.7776C5.63294 11.78 5.54894 11.8592 5.54414 12.068C5.53694 12.3032 5.54174 12.5384 5.54414 12.7736C5.54654 12.968 5.64734 13.0592 5.83934 13.0568C6.09614 13.0568 6.35294 13.064 6.60974 13.0544C6.79694 13.0472 6.87854 13.1384 6.91934 13.3088C6.99374 13.6112 7.06814 13.916 7.15934 14.2136C7.20974 14.3792 7.17134 14.4872 7.02494 14.5688C6.80174 14.6936 6.57854 14.8208 6.35774 14.9504C6.16334 15.0656 6.13454 15.176 6.24494 15.3776C6.34814 15.5648 6.45614 15.7496 6.56414 15.932C6.68654 16.136 6.79214 16.1624 7.00574 16.0424C7.20974 15.9272 7.41614 15.812 7.61294 15.6872C7.78574 15.5792 7.91774 15.596 8.05934 15.7544C8.25134 15.9728 8.46014 16.1792 8.67854 16.3736C8.82974 16.508 8.85134 16.6352 8.74814 16.8032C8.61854 17.0168 8.49374 17.2304 8.37374 17.4488C8.26814 17.6384 8.29934 17.744 8.48654 17.8568C8.67614 17.9696 8.86574 18.0824 9.06014 18.188C9.26414 18.3008 9.36254 18.272 9.48254 18.0704C9.61694 17.8448 9.74894 17.6168 9.87854 17.3888C9.95294 17.2592 10.0561 17.2256 10.2025 17.2664C10.5169 17.3576 10.8313 17.4416 11.1481 17.5208C11.3017 17.5592 11.3785 17.6432 11.3761 17.8064C11.3713 18.0632 11.3713 18.32 11.3761 18.5768C11.3785 18.7952 11.4553 18.8792 11.6665 18.8864C11.9017 18.8936 12.1369 18.8888 12.3721 18.8888C12.5689 18.8888 12.6553 18.7832 12.6577 18.5936C12.6577 18.464 12.6577 18.3368 12.6577 18.2072Z" fill="#8A92A6"/>
<path d="M6.67454 14.2352C6.63374 14.096 6.59294 13.976 6.55934 13.8512C6.47054 13.5176 6.47054 13.52 6.12254 13.5152C5.95934 13.5128 5.79374 13.52 5.63534 13.4888C5.30894 13.424 5.10254 13.1744 5.09054 12.8408C5.08094 12.5696 5.08094 12.2984 5.08814 12.0296C5.09774 11.6072 5.37614 11.3312 5.80574 11.3144C5.98334 11.3072 6.16334 11.324 6.33854 11.3072C6.40094 11.3024 6.48494 11.2376 6.50654 11.1824C6.57374 10.9952 6.61454 10.8008 6.66974 10.5944C6.48254 10.4864 6.29054 10.3784 6.10094 10.2656C5.71934 10.0376 5.61374 9.64641 5.82974 9.25521C5.94734 9.04401 6.06734 8.83281 6.19214 8.62641C6.41534 8.25921 6.81134 8.15121 7.18814 8.35761C7.38014 8.46321 7.56974 8.57601 7.75934 8.68641C7.78094 8.67201 7.80014 8.66241 7.81694 8.64801C7.97534 8.49441 8.13134 8.33841 8.29934 8.17281C8.19134 7.98321 8.08334 7.80321 7.98014 7.61841C7.74734 7.20321 7.85774 6.80481 8.27294 6.56481C8.46974 6.44961 8.66414 6.33441 8.86574 6.22401C9.24494 6.01761 9.63854 6.12081 9.86174 6.48801C9.97694 6.67521 10.0825 6.86721 10.1977 7.06401C10.4065 7.00881 10.6129 6.96321 10.8145 6.89601C10.8601 6.88161 10.9105 6.80001 10.9129 6.74721C10.9249 6.57681 10.9153 6.40641 10.9177 6.23361C10.9249 5.77281 11.2081 5.48721 11.6617 5.48001C11.8969 5.47761 12.1321 5.47761 12.3673 5.48001C12.8281 5.48481 13.1089 5.76321 13.1209 6.22401C13.1257 6.39441 13.1113 6.56721 13.1281 6.73521C13.1353 6.79521 13.2025 6.87681 13.2601 6.89601C13.4449 6.96321 13.6393 7.00641 13.8409 7.06161C13.9513 6.86961 14.0569 6.67761 14.1697 6.48801C14.3905 6.11841 14.7865 6.01041 15.1633 6.21441C15.3817 6.33201 15.5977 6.45681 15.8113 6.58641C16.1761 6.81201 16.2793 7.20801 16.0753 7.58481C15.9697 7.77681 15.8569 7.96641 15.7513 8.14881C15.9313 8.32641 16.1017 8.49681 16.2865 8.67681C16.4569 8.57841 16.6393 8.47041 16.8241 8.36481C17.2297 8.13681 17.6281 8.24241 17.8657 8.64321C17.9809 8.84001 18.0937 9.03681 18.2041 9.23601C18.4321 9.64641 18.3217 10.0304 17.9137 10.2728C17.7361 10.3784 17.5585 10.4792 17.3737 10.5848C17.4289 10.796 17.4745 11.0024 17.5393 11.204C17.5537 11.2496 17.6353 11.2976 17.6881 11.3024C17.8585 11.3144 18.0289 11.3048 18.2017 11.3072C18.6649 11.3168 18.9457 11.5952 18.9553 12.0536C18.9601 12.296 18.9601 12.5384 18.9553 12.7808C18.9457 13.2296 18.6625 13.5032 18.2113 13.5104C18.0409 13.5128 17.8681 13.4984 17.7001 13.5176C17.6401 13.5248 17.5585 13.5896 17.5369 13.6472C17.4697 13.832 17.4289 14.0264 17.3737 14.2304C17.5585 14.336 17.7433 14.4416 17.9281 14.5496C18.3313 14.7872 18.4345 15.1784 18.2041 15.5888C18.0865 15.8 17.9689 16.0112 17.8393 16.2176C17.6257 16.5608 17.2321 16.664 16.8721 16.472C16.6729 16.364 16.4785 16.2464 16.2841 16.1336C16.2601 16.1504 16.2409 16.1624 16.2265 16.1768C16.0681 16.3304 15.9121 16.4864 15.7465 16.6496C15.8593 16.8464 15.9721 17.0336 16.0777 17.2256C16.2937 17.6168 16.1905 18.0056 15.8089 18.236C15.5953 18.3656 15.3793 18.488 15.1609 18.6056C14.7889 18.8072 14.4073 18.7016 14.1841 18.3368C14.0689 18.1496 13.9633 17.9552 13.8481 17.756C13.6393 17.8112 13.4329 17.8568 13.2337 17.9216C13.1881 17.936 13.1353 18.0152 13.1329 18.068C13.1209 18.2456 13.1329 18.4232 13.1257 18.6008C13.1113 19.052 12.8329 19.328 12.3841 19.3352C12.1345 19.34 11.8849 19.34 11.6353 19.3352C11.2153 19.3232 10.9321 19.04 10.9225 18.6152C10.9177 18.3944 10.9225 18.176 10.9225 17.948C10.6777 17.8808 10.4473 17.8184 10.2073 17.7512C10.0945 17.9432 9.98654 18.1352 9.87374 18.3224C9.64094 18.7064 9.25934 18.8096 8.86574 18.5912C8.65454 18.4736 8.44574 18.3512 8.23694 18.2264C7.86734 18.0032 7.76174 17.612 7.97054 17.2328C8.07614 17.0408 8.19134 16.8512 8.29694 16.6664C8.11934 16.4936 7.94654 16.3256 7.75214 16.1384C7.59374 16.2296 7.41374 16.3352 7.22894 16.4384C6.81134 16.6736 6.42014 16.5656 6.17534 16.1504C6.06734 15.9656 5.96174 15.7808 5.85614 15.596C5.61134 15.164 5.71694 14.7848 6.15134 14.5328C6.31454 14.444 6.48494 14.3432 6.67454 14.2352ZM12.6577 18.2072C12.6577 18.0944 12.6673 17.9792 12.6553 17.8664C12.6337 17.6432 12.7369 17.5472 12.9481 17.504C13.2385 17.444 13.5265 17.3624 13.8121 17.2736C13.9777 17.2208 14.0857 17.2616 14.1673 17.408C14.2969 17.6384 14.4289 17.864 14.5609 18.092C14.6569 18.2576 14.7865 18.296 14.9545 18.1976C15.1441 18.0872 15.3385 17.9816 15.5281 17.8688C15.7369 17.7464 15.7657 17.6384 15.6481 17.4296C15.5257 17.2136 15.4009 16.9976 15.2737 16.784C15.1849 16.6328 15.2041 16.5104 15.3385 16.388C15.5617 16.1792 15.7801 15.9656 15.9865 15.74C16.1161 15.5984 16.2409 15.5816 16.3993 15.6776C16.6057 15.8024 16.8145 15.9248 17.0257 16.0448C17.2369 16.1648 17.3473 16.136 17.4697 15.9344C17.5801 15.752 17.6857 15.5672 17.7889 15.38C17.8993 15.1808 17.8705 15.068 17.6785 14.9528C17.4529 14.8184 17.2225 14.6888 16.9945 14.5592C16.8625 14.4848 16.8289 14.3816 16.8697 14.2352C16.9609 13.9208 17.0449 13.6064 17.1241 13.2896C17.1649 13.124 17.2537 13.052 17.4265 13.0568C17.6833 13.064 17.9401 13.0592 18.1969 13.0592C18.3865 13.0592 18.4921 12.968 18.4921 12.776C18.4945 12.5408 18.4969 12.3056 18.4921 12.0704C18.4873 11.8616 18.4009 11.7824 18.1825 11.78C17.9329 11.7752 17.6833 11.7704 17.4337 11.7824C17.2345 11.792 17.1553 11.6936 17.1145 11.516C17.0473 11.2256 16.9801 10.9352 16.8841 10.652C16.8193 10.4552 16.8697 10.3424 17.0401 10.2488C17.2465 10.1384 17.4481 10.0184 17.6521 9.90081C17.8729 9.77121 17.9017 9.66561 17.7817 9.44721C17.6809 9.26721 17.5777 9.08721 17.4745 8.90961C17.3497 8.69841 17.2369 8.66961 17.0161 8.79441C16.8121 8.90961 16.6081 9.02721 16.4089 9.14961C16.2433 9.25041 16.1137 9.23361 15.9793 9.08481C15.7849 8.86881 15.5785 8.66001 15.3601 8.46801C15.2017 8.32881 15.1825 8.19681 15.2905 8.02161C15.4177 7.81521 15.5377 7.60641 15.6553 7.39521C15.7633 7.19841 15.7321 7.08561 15.5377 6.97041C15.3481 6.85761 15.1561 6.74721 14.9641 6.64161C14.7721 6.53841 14.6641 6.56721 14.5537 6.75201C14.4193 6.97761 14.2897 7.20801 14.1625 7.43841C14.0833 7.58001 13.9753 7.61121 13.8217 7.56561C13.5145 7.47681 13.2073 7.39041 12.8977 7.31601C12.7225 7.27281 12.6505 7.17921 12.6553 6.99921C12.6649 6.74241 12.6601 6.48561 12.6553 6.22881C12.6529 6.05361 12.5689 5.94561 12.3817 5.94561C12.1393 5.94561 11.8969 5.94321 11.6545 5.94561C11.4577 5.94801 11.3737 6.05601 11.3737 6.24321C11.3737 6.49281 11.3665 6.74241 11.3761 6.99201C11.3857 7.18641 11.2969 7.27521 11.1169 7.31841C10.8217 7.39041 10.5241 7.46481 10.2337 7.55601C10.0609 7.61121 9.94814 7.57761 9.86174 7.41921C9.74174 7.20081 9.61694 6.98721 9.48974 6.77121C9.36734 6.56241 9.25694 6.53121 9.05054 6.64641C8.86334 6.74961 8.67854 6.85761 8.49614 6.96801C8.30174 7.08561 8.27054 7.19601 8.37854 7.39281C8.49614 7.60401 8.61614 7.81521 8.74334 8.01921C8.85134 8.19201 8.83454 8.32401 8.67374 8.46561C8.45534 8.65761 8.24894 8.86641 8.05454 9.08241C7.92014 9.23361 7.79054 9.25041 7.62494 9.14961C7.41854 9.02481 7.20974 8.90241 6.99854 8.78481C6.79454 8.67201 6.68654 8.69841 6.57134 8.89281C6.45854 9.08241 6.34814 9.27441 6.24254 9.46641C6.13214 9.66561 6.16334 9.77361 6.36254 9.89121C6.58334 10.0208 6.80654 10.148 7.02734 10.2728C7.16654 10.3496 7.20734 10.4528 7.16174 10.6112C7.07054 10.916 6.98894 11.2256 6.91454 11.5352C6.87374 11.708 6.78254 11.7872 6.60014 11.78C6.35054 11.7704 6.10094 11.7752 5.85134 11.7776C5.63294 11.78 5.54894 11.8592 5.54414 12.068C5.53694 12.3032 5.54174 12.5384 5.54414 12.7736C5.54654 12.968 5.64734 13.0592 5.83934 13.0568C6.09614 13.0568 6.35294 13.064 6.60974 13.0544C6.79694 13.0472 6.87854 13.1384 6.91934 13.3088C6.99374 13.6112 7.06814 13.916 7.15934 14.2136C7.20974 14.3792 7.17134 14.4872 7.02494 14.5688C6.80174 14.6936 6.57854 14.8208 6.35774 14.9504C6.16334 15.0656 6.13454 15.176 6.24494 15.3776C6.34814 15.5648 6.45614 15.7496 6.56414 15.932C6.68654 16.136 6.79214 16.1624 7.00574 16.0424C7.20974 15.9272 7.41614 15.812 7.61294 15.6872C7.78574 15.5792 7.91774 15.596 8.05934 15.7544C8.25134 15.9728 8.46014 16.1792 8.67854 16.3736C8.82974 16.508 8.85134 16.6352 8.74814 16.8032C8.61854 17.0168 8.49374 17.2304 8.37374 17.4488C8.26814 17.6384 8.29934 17.744 8.48654 17.8568C8.67614 17.9696 8.86574 18.0824 9.06014 18.188C9.26414 18.3008 9.36254 18.272 9.48254 18.0704C9.61694 17.8448 9.74894 17.6168 9.87854 17.3888C9.95294 17.2592 10.0561 17.2256 10.2025 17.2664C10.5169 17.3576 10.8313 17.4416 11.1481 17.5208C11.3017 17.5592 11.3785 17.6432 11.3761 17.8064C11.3713 18.0632 11.3713 18.32 11.3761 18.5768C11.3785 18.7952 11.4553 18.8792 11.6665 18.8864C11.9017 18.8936 12.1369 18.8888 12.3721 18.8888C12.5689 18.8888 12.6553 18.7832 12.6577 18.5936C12.6577 18.464 12.6577 18.3368 12.6577 18.2072Z" stroke="#8A92A6" stroke-width="0.4" mask="url(#path-1-outside-1_189_5239)"/>
<path d="M18.8945 6.1192L18.8951 6.11919C19.2343 6.1192 19.4842 5.87022 19.4863 5.53698V5.53697C19.4883 5.20813 19.2302 4.9457 18.901 4.94159L18.8945 6.1192ZM18.8945 6.1192C18.5508 6.12127 18.3059 5.87968 18.3039 5.53939M18.8945 6.1192L19.5863 5.5376C19.5839 5.9264 19.2887 6.2192 18.8951 6.2192C18.4967 6.2216 18.2063 5.936 18.2039 5.54M18.2039 5.54L18.3039 5.53939M18.2039 5.54L18.3039 5.53939C18.3039 5.53939 18.3039 5.53939 18.3039 5.53939M18.2039 5.54L18.3039 5.53939M19.2942 4.34604L19.2941 4.346C18.6108 4.11648 17.883 4.50302 17.6876 5.20091C17.5924 5.53796 17.6423 5.85802 17.8079 6.17171C17.6346 6.33861 17.4713 6.49595 17.31 6.65729C17.2471 6.72013 17.1989 6.79815 17.1919 6.88761C17.1846 6.9806 17.2234 7.0663 17.2959 7.13749C17.3679 7.20925 17.4538 7.24588 17.5461 7.23771C17.6345 7.22988 17.712 7.1823 17.7746 7.12112L17.7747 7.12098C17.7995 7.09662 17.8246 7.07217 17.8499 7.04756C17.9522 6.94795 18.0571 6.84585 18.1553 6.73782C18.2064 6.68209 18.2365 6.66132 18.2619 6.65415C18.2836 6.64804 18.3198 6.64716 18.3945 6.68186C19.0575 6.99104 19.8167 6.65129 20.0688 5.97575L20.0688 5.97559C20.3163 5.30857 19.9671 4.57296 19.2942 4.34604Z" fill="#8A92A6" stroke="#8A92A6" stroke-width="0.2"/>
<path d="M17.3401 18.2026L17.3401 18.2026L17.3407 18.2031C17.4406 18.2975 17.5417 18.3923 17.6334 18.4783C17.6853 18.5269 17.7342 18.5728 17.7782 18.6141C17.7621 18.6932 17.7448 18.7667 17.7278 18.8385C17.7187 18.8774 17.7096 18.9159 17.7009 18.9544C17.6733 19.0771 17.6504 19.1979 17.6478 19.3211L17.6478 19.3211L17.6478 19.3221C17.6399 20.0499 18.2946 20.6163 19.0177 20.5435C19.7237 20.4731 20.2593 19.7877 20.1358 19.0968L20.1358 19.0967C20.0052 18.3698 19.2832 17.832 18.5865 18.0919C18.4193 18.1539 18.3103 18.1522 18.2262 18.1207C18.1384 18.0879 18.0596 18.0165 17.9651 17.9001C17.9386 17.8663 17.9088 17.8375 17.8829 17.8131C17.8784 17.8089 17.8741 17.8048 17.8699 17.8009C17.8481 17.7804 17.8295 17.763 17.8121 17.7439L17.8122 17.7439L17.8111 17.7428C17.7513 17.6791 17.675 17.6165 17.5836 17.5958C17.4826 17.5729 17.3843 17.6052 17.2985 17.6894C17.2137 17.7727 17.1776 17.8694 17.1972 17.9709C17.215 18.0633 17.276 18.1411 17.3401 18.2026ZM18.2037 19.2824L18.3037 19.2836C18.3037 19.2835 18.3037 19.2834 18.3037 19.2833C18.3037 19.2832 18.3037 19.2831 18.3037 19.283L18.2037 19.2824ZM19.4862 19.3069C19.4862 19.3069 19.4862 19.307 19.4862 19.307L19.5861 19.3088L19.4862 19.3069ZM18.8967 18.7008C18.8968 18.7008 18.8969 18.7008 18.897 18.7008C18.8971 18.7008 18.8972 18.7008 18.8973 18.7008V18.6008L18.8967 18.7008Z" fill="#8A92A6" stroke="#8A92A6" stroke-width="0.2"/>
<path d="M6.46542 18.2864C6.22302 18.4808 6.10782 18.6608 6.24221 19.0232M6.46542 18.2864L6.52639 18.3657C6.52667 18.3654 6.52695 18.3652 6.52724 18.365M6.46542 18.2864L6.52798 18.3644C6.52773 18.3646 6.52748 18.3648 6.52724 18.365M6.46542 18.2864C6.50836 18.2534 6.54563 18.2135 6.58268 18.1739C6.59947 18.1559 6.61621 18.138 6.63341 18.1208M6.24221 19.0232L3.98381 19.4048C3.92381 18.7424 4.43262 18.1448 5.08542 18.1472C5.24127 18.1472 5.39712 18.182 5.57112 18.2208C5.65971 18.2406 5.75301 18.2614 5.85341 18.2792L5.78064 18.2106C5.79261 18.1979 5.80509 18.1847 5.81801 18.171M6.24221 19.0232C6.47262 19.6496 5.99021 20.3216 5.31101 20.4392L6.24221 19.0232ZM6.52724 18.365C6.41009 18.459 6.33884 18.5384 6.30633 18.6264C6.27501 18.7113 6.27387 18.821 6.33597 18.9884L6.33607 18.9887C6.59302 19.6873 6.05366 20.4121 5.32808 20.5377L5.32788 20.5378C4.63787 20.6558 3.94948 20.1186 3.88424 19.414L3.88422 19.4138C3.8194 18.6982 4.36864 18.0447 5.0856 18.0472C5.21382 18.0472 5.33959 18.0688 5.46662 18.0955C5.50971 18.1046 5.55248 18.1142 5.59576 18.1238C5.66722 18.1398 5.74006 18.156 5.81801 18.171M6.52724 18.365C6.57667 18.3268 6.62363 18.2767 6.66267 18.2349C6.67764 18.219 6.69144 18.2042 6.70377 18.1919M5.81801 18.171C5.93203 18.0501 6.08082 17.8927 6.22954 17.7353C6.29195 17.669 6.37035 17.6089 6.46358 17.5927C6.56464 17.5751 6.66016 17.6125 6.74253 17.6949L6.74323 17.6956L6.74322 17.6956C6.82126 17.7752 6.85553 17.8677 6.8384 17.965C6.82265 18.0546 6.76617 18.1307 6.70377 18.1919M5.81801 18.171L6.67181 17.7656C6.79181 17.888 6.74621 18.0104 6.63341 18.1208M6.70377 18.1919C6.70364 18.192 6.7035 18.1921 6.70336 18.1923L6.63341 18.1208M6.70377 18.1919C6.70389 18.1917 6.70401 18.1916 6.70413 18.1915L6.63341 18.1208M5.72943 19.307C5.72943 19.307 5.72943 19.3069 5.72943 19.3069L5.82942 19.3088C5.83662 18.9128 5.55101 18.6104 5.16221 18.6032L5.72943 19.307ZM5.72943 19.307C5.73566 18.9643 5.49212 18.7093 5.16036 18.7032L5.15981 18.7032C4.81565 18.6949 4.54906 18.9518 4.54701 19.2854L4.54701 19.2854C4.54495 19.6174 4.79667 19.8769 5.12779 19.8832C5.46239 19.8872 5.72325 19.6349 5.72943 19.307Z" fill="#8A92A6" stroke="#8A92A6" stroke-width="0.2"/>
<path d="M6.70036 6.63174L6.69992 6.63133C6.58126 6.51917 6.46394 6.40614 6.34508 6.29162C6.30558 6.25356 6.2659 6.21533 6.22595 6.17692C6.36536 5.85701 6.41223 5.55053 6.36309 5.27382C6.3103 4.97655 6.14816 4.72254 5.88919 4.53087C5.39221 4.16148 4.7238 4.19774 4.27306 4.62242L4.27292 4.62256C3.84079 5.03126 3.74843 5.68868 4.0675 6.19344L4.06764 6.19365C4.26088 6.49769 4.53474 6.69116 4.85057 6.76058C5.14473 6.82523 5.4678 6.78072 5.78711 6.62933C5.8763 6.72163 5.96607 6.81572 6.05681 6.91082C6.11499 6.97181 6.17357 7.03321 6.23265 7.09482L6.23269 7.09486C6.29655 7.16138 6.37669 7.22096 6.47083 7.23545C6.57282 7.25114 6.66763 7.2108 6.74713 7.12547C6.82455 7.04459 6.85531 6.95101 6.83647 6.85488C6.81905 6.76601 6.76217 6.69087 6.70036 6.63174ZM5.14053 4.94161C5.48002 4.94382 5.73584 5.20692 5.72965 5.55017L4.54723 5.52622C4.54929 5.19831 4.81066 4.94176 5.14053 4.94161ZM5.72965 5.5502C5.72349 5.88408 5.47808 6.12129 5.12705 6.11921L5.72965 5.5502ZM5.12703 6.11921C4.79438 6.11715 4.54517 5.86311 4.54723 5.52623L5.12703 6.11921Z" fill="#8A92A6" stroke="#8A92A6" stroke-width="0.2"/>
<path d="M12.4969 3.84044L12.4964 3.84063C12.4137 3.8722 12.3792 3.90159 12.3624 3.92826C12.3457 3.95483 12.3355 3.99617 12.342 4.07763L12.2424 4.0856M12.4969 3.84044L11.9136 1.5368L11.9008 1.43762C11.9008 1.43762 11.9008 1.43762 11.9007 1.43763C11.2374 1.52284 10.7674 2.03276 10.7648 2.68116M12.4969 3.84044C13.0914 3.60997 13.3959 2.96658 13.2292 2.36224L12.4969 3.84044ZM12.2424 4.0856L12.342 4.07741C12.3546 4.22984 12.3496 4.38614 12.3449 4.53485C12.344 4.56392 12.3431 4.5927 12.3423 4.62111L12.3423 4.62185H12.3423C12.3394 4.70678 12.3155 4.79023 12.2564 4.85307C12.196 4.91746 12.1116 4.9464 12.0168 4.9464C11.9219 4.9464 11.8376 4.91746 11.7771 4.85307C11.7181 4.79024 11.6942 4.7068 11.6912 4.62189C11.684 4.41521 11.6791 4.20556 11.6888 3.99502C11.6908 3.9424 11.6819 3.9225 11.6749 3.9126C11.6668 3.90127 11.6484 3.88511 11.5955 3.86495C11.0739 3.67519 10.7622 3.21998 10.7648 2.68116M12.2424 4.0856C12.228 3.9056 12.2784 3.8168 12.4608 3.7472L12.2424 4.0856ZM10.7648 2.68116C10.7648 2.68115 10.7648 2.68113 10.7648 2.68112L10.8648 2.6816L10.7648 2.6812C10.7648 2.68119 10.7648 2.68117 10.7648 2.68116ZM12.0262 2.08797L12.0263 2.08797C12.3551 2.09619 12.61 2.36039 12.608 2.69298C12.6059 3.02055 12.3354 3.28925 12.015 3.28721L12.015 3.28721C11.6834 3.28516 11.4194 3.01327 11.4255 2.67149C11.4317 2.3441 11.7061 2.07982 12.0262 2.08797Z" fill="#8A92A6" stroke="#8A92A6" stroke-width="0.2"/>
<path d="M2.3063 11.2616C2.7791 11.264 3.2039 11.552 3.3671 12.0104M2.3063 11.2616L2.30691 11.1616C2.30689 11.1616 2.30688 11.1616 2.30686 11.1616C2.30684 11.1616 2.30682 11.1616 2.3068 11.1616L2.3063 11.2616ZM2.3063 11.2616C1.5191 11.2568 0.957497 12.0008 1.1831 12.7496L3.3671 12.0104M3.3671 12.0104C3.4175 12.152 3.4847 12.1952 3.6263 12.1856L3.3671 12.0104ZM4.1975 12.6392C4.3439 12.6368 4.4471 12.5792 4.4495 12.416C4.4519 12.2528 4.3463 12.1904 4.2023 12.1856L4.1975 12.6392ZM4.1975 12.6392C4.15651 12.6398 4.11553 12.6407 4.07455 12.6416M4.1975 12.6392L4.07455 12.6416M2.2943 13.1048C2.6759 13.1024 2.9903 12.7928 2.9903 12.416C2.9927 12.0368 2.6783 11.7248 2.2967 11.7224M2.2943 13.1048V13.0048C2.29419 13.0048 2.29409 13.0048 2.29399 13.0048M2.2943 13.1048C1.9007 13.1048 1.5815 12.788 1.5911 12.4016M2.2943 13.1048L2.29367 13.0048C2.29377 13.0048 2.29388 13.0048 2.29399 13.0048M2.29399 13.0048C2.62218 13.0026 2.8903 12.736 2.8903 12.416V12.4154H2.8903C2.89234 12.0928 2.62386 11.8245 2.29608 11.8224L2.2967 11.7224M2.29399 13.0048C1.95412 13.0046 1.68293 12.7316 1.69107 12.4041M2.2967 11.7224L2.29607 11.8224C1.96348 11.8203 1.69929 12.0753 1.69107 12.4041M2.2967 11.7224C1.9103 11.72 1.6007 12.0176 1.5911 12.4016M1.5911 12.4016L1.69107 12.4041M1.5911 12.4016L1.69107 12.4041C1.69107 12.4041 1.69107 12.4041 1.69107 12.4041M3.6647 12.6368L3.65736 12.7365C3.65724 12.7365 3.65712 12.7365 3.657 12.7365M3.6647 12.6368L3.65662 12.7365C3.65674 12.7365 3.65687 12.7365 3.657 12.7365M3.6647 12.6368C3.80131 12.6479 3.93793 12.6448 4.07455 12.6416M3.6647 12.6368L4.07455 12.6416M3.657 12.7365C3.58396 12.7312 3.54963 12.7407 3.52863 12.7542C3.50737 12.7679 3.48193 12.7972 3.45381 12.8728M3.657 12.7365L3.45381 12.8728M3.45381 12.8728C3.26406 13.3991 2.75926 13.6937 2.19348 13.6655M3.45381 12.8728L2.19348 13.6655M2.19348 13.6655C2.19351 13.6655 2.19354 13.6655 2.19356 13.6655L2.1983 13.5656L2.1933 13.6655C2.19336 13.6655 2.19342 13.6655 2.19348 13.6655Z" fill="#8A92A6" stroke="#8A92A6" stroke-width="0.2"/>
<path d="M20.6832 12.8528C20.8896 13.3976 21.4824 13.6784 22.0392 13.5272C22.5864 13.3784 22.9632 12.8456 22.8936 12.3104L20.6832 12.8528ZM20.6832 12.8528C20.6136 12.668 20.5224 12.62 20.3448 12.6368L20.6832 12.8528ZM21.7516 11.1616C21.2105 11.159 20.7553 11.4706 20.5655 11.9923C20.5451 12.0456 20.5288 12.0647 20.5173 12.073C20.5079 12.0798 20.4886 12.0887 20.4368 12.0858L20.436 12.0857C20.2332 12.0759 20.031 12.0808 19.8329 12.0856L19.8312 12.0856L19.8312 12.0856L19.8303 12.0857C19.7476 12.0884 19.6601 12.1071 19.5918 12.1625C19.5192 12.2214 19.484 12.3086 19.484 12.4136C19.484 12.5162 19.5172 12.6037 19.5895 12.6631C19.6579 12.7193 19.7464 12.7378 19.832 12.7392L19.8322 12.7392C19.8693 12.7397 19.9072 12.7406 19.9457 12.7415C20.0777 12.7447 20.2162 12.748 20.3532 12.7364L20.3532 12.7365L20.3542 12.7364C20.4346 12.7287 20.4757 12.7382 20.5021 12.7544C20.5284 12.7706 20.5582 12.8046 20.5896 12.888L20.5897 12.8882C20.8153 13.4838 21.4617 13.7876 22.0654 13.6237L22.0654 13.6237C22.6564 13.463 23.0693 12.8867 22.9928 12.2976C22.9076 11.6345 22.4003 11.1642 21.7516 11.1616ZM21.7516 11.1616C21.7516 11.1616 21.7517 11.1616 21.7517 11.1616L21.7512 11.2616L21.7516 11.1616C21.7516 11.1616 21.7516 11.1616 21.7516 11.1616ZM19.8336 12.1856C20.0328 12.1808 20.232 12.176 20.4312 12.1856C20.5584 12.1928 20.6136 12.1472 20.6592 12.0272L19.8336 12.6392C19.6848 12.6368 19.584 12.5744 19.584 12.4136C19.584 12.2504 19.6896 12.1904 19.8336 12.1856ZM19.8336 12.1856L19.8336 12.1856L19.8336 12.1856ZM21.1432 12.41L21.1432 12.4101C21.1391 12.7284 21.4036 13.0007 21.7308 13.0048L21.1432 12.41ZM21.1432 12.41C21.1473 12.0768 21.4183 11.8185 21.7638 11.8248L21.7656 11.7248L21.7637 11.8248C22.0813 11.8309 22.3403 12.0939 22.3424 12.4118M21.1432 12.41L22.3424 12.4118M22.3424 12.4118C22.3444 12.738 22.0704 13.0089 21.7308 13.0048L22.3424 12.4118Z" fill="#8A92A6" stroke="#8A92A6" stroke-width="0.2"/>
<path d="M12.2424 20.8208C12.2376 20.9432 12.2736 21.0056 12.3984 21.0512C12.9408 21.2504 13.2432 21.7592 13.164 22.3088C13.0848 22.844 12.6264 23.2568 12.0648 23.2952M12.2424 20.8208L12.3423 20.8258C12.3423 20.8256 12.3423 20.8254 12.3423 20.8252M12.2424 20.8208L12.3423 20.8247C12.3423 20.8249 12.3423 20.8251 12.3423 20.8252M12.2424 20.8208C12.2506 20.6562 12.2483 20.4916 12.2459 20.3271C12.2455 20.2996 12.2451 20.2722 12.2448 20.2448M12.3423 20.8252C12.3403 20.8774 12.3481 20.8988 12.3554 20.91C12.3626 20.9209 12.3798 20.9379 12.4327 20.9573L12.4329 20.9573C13.0186 21.1725 13.349 21.7257 13.263 22.3231L13.2629 22.3234C13.1765 22.9074 12.6778 23.3534 12.0718 23.395M12.3423 20.8252C12.3506 20.6574 12.3482 20.4894 12.3459 20.3251C12.3455 20.298 12.3451 20.271 12.3448 20.2442M12.0718 23.395C12.0718 23.3949 12.0719 23.3949 12.0719 23.3949L12.0648 23.2952M12.0718 23.395C12.0717 23.395 12.0717 23.395 12.0716 23.395L12.0648 23.2952M12.0718 23.395C11.3716 23.4449 10.7597 22.8427 10.7648 22.1258M12.0648 23.2952L12.013 19.8784C11.8982 19.8799 11.8083 19.9211 11.7524 20.003C11.7018 20.0771 11.6901 20.1696 11.6888 20.2504L11.6888 20.2504V20.252C11.6888 20.3078 11.6879 20.365 11.687 20.4231C11.6849 20.5577 11.6828 20.6971 11.6913 20.8339C11.6941 20.8843 11.6844 20.9028 11.6774 20.9119C11.6679 20.9241 11.6471 20.94 11.5935 20.9597L11.628 21.0536L11.5936 20.9597C11.0819 21.1467 10.7674 21.6014 10.7648 22.1258M10.7648 22.1258C10.7648 22.1258 10.7648 22.1257 10.7648 22.1257L10.8648 22.1264L10.7648 22.1259C10.7648 22.1259 10.7648 22.1258 10.7648 22.1258ZM12.3448 20.2442C12.3447 20.1604 12.3306 20.0678 12.2767 19.9946C12.2179 19.915 12.1263 19.8769 12.013 19.8784L12.3448 20.2442ZM12.3448 20.2442L12.3448 20.2448H12.2448M12.3448 20.2442C12.3448 20.244 12.3448 20.2437 12.3448 20.2435L12.2448 20.2448M12.3448 20.2442L12.0144 19.9784C12.192 19.976 12.2448 20.0936 12.2448 20.2448M12.0091 22.7392L12.0091 22.7392C11.6854 22.7331 11.4257 22.469 11.4256 22.1363C11.4278 21.8058 11.6896 21.542 12.0126 21.54C12.3412 21.538 12.6097 21.8096 12.6056 22.1516C12.6014 22.4791 12.329 22.7453 12.0091 22.7392Z" fill="#8A92A6" stroke="#8A92A6" stroke-width="0.2"/>
<path d="M11.9955 10.1712C13.1998 10.1414 14.2202 11.1342 14.2594 12.3855L14.3593 12.3824L14.2594 12.3855L11.9955 10.1712ZM11.9955 10.1712C10.7398 10.2035 9.73121 11.2472 9.77925 12.4504L11.9955 10.1712ZM14.9128 12.5256C14.9774 10.9544 13.7473 9.58245 12.1339 9.5177C10.5674 9.44819 9.19065 10.6735 9.12102 12.2893L14.9128 12.5256ZM9.12102 12.2893C9.05144 13.8878 10.3065 15.2522 11.91 15.3119L9.12102 12.2893Z" fill="#8A92A6" stroke="#8A92A6" stroke-width="0.2"/>
<path d="M11.0784 12.3872C10.9632 12.4952 10.9776 12.6176 11.0808 12.7256C11.2152 12.8648 11.3496 13.0016 11.4888 13.1336L11.0784 12.3872ZM11.0784 12.3872C11.184 12.2888 11.3016 12.3008 11.4 12.3992L11.0784 12.3872ZM11.0088 12.7951C11.1433 12.9343 11.2786 13.072 11.4191 13.2053L11.8803 13.2219C12.2719 12.8399 12.6587 12.4531 13.043 12.0616C13.1052 11.9992 13.1417 11.9219 13.1398 11.8374C13.1378 11.7538 13.0987 11.6781 13.0388 11.6166L13.0387 11.6165C12.9748 11.5511 12.8975 11.51 12.8102 11.509C12.7242 11.5081 12.6462 11.5464 12.5801 11.6036L12.5801 11.6036L12.5787 11.6049C12.5403 11.6394 12.5041 11.6761 12.47 11.7107C12.4591 11.7217 12.4485 11.7325 12.4381 11.7429C12.266 11.9149 12.0947 12.0881 11.9123 12.2725C11.8264 12.3594 11.738 12.4487 11.6459 12.5416C11.6419 12.5365 11.638 12.5314 11.634 12.5263C11.58 12.4573 11.5287 12.3917 11.4737 12.3316L11.4738 12.3316L11.4707 12.3285C11.4093 12.2671 11.3333 12.2243 11.2473 12.2196C11.1599 12.2148 11.0785 12.2504 11.0102 12.314L11.0102 12.314L11.01 12.3143C10.9365 12.3832 10.8944 12.4671 10.8977 12.56C10.901 12.6501 10.9464 12.7298 11.0085 12.7947L11.0085 12.7947L11.0088 12.7951Z" fill="#8A92A6" stroke="#8A92A6" stroke-width="0.2"/>
</svg>
