<svg width="24" height="25" viewBox="0 0 24 25" fill="none" xmlns="http://www.w3.org/2000/svg">
<path d="M9.60951 23.432C9.55431 23.3888 9.48951 23.3528 9.44391 23.3024C9.32391 23.1728 9.27591 23.024 9.35031 22.8512C9.43191 22.6592 9.57831 22.5752 9.78711 22.5752C10.9679 22.5776 12.1487 22.5752 13.3295 22.5752C13.4063 22.5752 13.4831 22.5752 13.5815 22.5752C13.5815 22.1192 13.5815 21.68 13.5815 21.2408C13.5815 20.4152 14.1143 19.8848 14.9447 19.8848C15.3767 19.8848 15.8111 19.8848 16.2719 19.8848C16.2719 19.5056 16.2383 19.1336 16.2791 18.7712C16.3295 18.3152 16.1759 18.0848 15.7559 17.8496C13.9247 16.82 12.8687 15.2288 12.5591 13.148C12.5543 13.1216 12.5495 13.0952 12.5423 13.0472C12.4607 13.0472 12.3839 13.0472 12.3071 13.0472C11.2679 13.0472 10.2287 13.0496 9.19191 13.0448C9.08871 13.0448 8.97351 13.0328 8.88231 12.9872C8.70231 12.9008 8.63031 12.7424 8.66151 12.5456C8.69271 12.3488 8.81271 12.2264 9.01191 12.1976C9.09591 12.1856 9.18231 12.1856 9.26631 12.1856C10.2623 12.1856 11.2583 12.1856 12.2543 12.1856C12.3311 12.1856 12.4079 12.1856 12.4991 12.1856C12.4991 10.9184 12.4991 9.6704 12.4991 8.3936C12.4247 8.3936 12.3479 8.3936 12.2735 8.3936C11.2343 8.3936 10.1951 8.3936 9.15831 8.3936C8.87031 8.3936 8.69751 8.264 8.66151 8.0288C8.62311 7.7864 8.77911 7.5728 9.02391 7.5416C9.10791 7.532 9.19431 7.532 9.27831 7.532C10.8143 7.532 12.3527 7.5344 13.8887 7.5296C14.0423 7.5296 14.2007 7.5056 14.3471 7.46C14.9303 7.2848 15.5111 7.0928 16.0943 6.92C16.2263 6.8816 16.2743 6.8288 16.2743 6.6872C16.2671 5.78 16.2719 4.868 16.2695 3.9584C16.2695 3.6128 16.1039 3.4472 15.7583 3.4472C14.8127 3.4448 13.8671 3.4472 12.9191 3.4472C12.8639 3.4472 12.8087 3.4544 12.7271 3.4592C12.7271 3.6296 12.7343 3.7928 12.7247 3.9536C12.7007 4.4312 12.3119 4.8104 11.8343 4.8128C10.0055 4.8176 8.17671 4.8176 6.35031 4.8128C5.87271 4.8128 5.48631 4.4288 5.46471 3.9512C5.45751 3.7952 5.46471 3.6392 5.46471 3.4592C5.38311 3.4544 5.31591 3.4496 5.24871 3.4496C4.31751 3.4496 3.38391 3.4496 2.45271 3.4496C2.08071 3.4496 1.92471 3.608 1.92471 3.9872C1.92471 10.0064 1.92471 16.0256 1.92471 22.0472C1.92471 22.4216 2.08311 22.5824 2.45511 22.5824C3.54951 22.5848 4.64631 22.5872 5.74071 22.58C5.98311 22.5776 6.20871 22.5992 6.30231 22.8608C6.39351 23.1152 6.25671 23.2904 6.06471 23.4368C4.74231 23.4368 3.41751 23.4368 2.09511 23.4368C2.08551 23.4272 2.07591 23.4128 2.06391 23.408C1.34871 23.156 1.07031 22.7672 1.07031 22.0064C1.07031 15.9944 1.07031 9.9824 1.07031 3.9704C1.07031 3.1232 1.59111 2.5976 2.43351 2.5952C3.35751 2.5928 4.28391 2.5952 5.20791 2.5952C5.28471 2.5952 5.35911 2.5952 5.45991 2.5952C5.45991 2.4032 5.45751 2.2352 5.45991 2.0648C5.46471 1.7192 5.61351 1.5728 5.95671 1.5728C8.04711 1.5728 10.1399 1.5728 12.2303 1.5728C12.5759 1.5728 12.7247 1.7192 12.7295 2.0624C12.7319 2.2376 12.7295 2.4104 12.7295 2.5952C12.8447 2.5952 12.9239 2.5952 13.0007 2.5952C13.9535 2.5952 14.9063 2.5928 15.8591 2.5976C16.4519 2.6024 16.9367 2.9888 17.0783 3.5672C17.1095 3.6896 17.1167 3.8192 17.1167 3.9464C17.1191 4.82 17.1191 5.696 17.1191 6.5936C17.2391 6.56 17.3375 6.5144 17.4407 6.5048C17.6183 6.488 17.8127 6.4496 17.9759 6.4976C19.4879 6.956 20.9951 7.4336 22.5047 7.904C22.6895 7.9616 22.8407 8.0504 22.9271 8.2328C22.9271 9.7976 22.9271 11.3648 22.9271 12.9296C22.9127 12.968 22.8935 13.0064 22.8887 13.0472C22.6583 14.948 21.7631 16.4672 20.1911 17.5448C19.2839 18.1664 18.3143 18.6968 17.1215 18.476C17.1215 19.0376 17.1143 19.6136 17.1263 20.1872C17.1311 20.4032 17.0615 20.564 16.9079 20.7152C16.0847 21.5312 15.2663 22.3544 14.4455 23.1728C14.3519 23.2664 14.2391 23.3456 14.1359 23.4296C12.6263 23.432 11.1167 23.432 9.60951 23.432ZM13.3655 8.6744C13.3655 9.056 13.3631 9.4376 13.3655 9.8216C13.3751 10.832 13.3175 11.8472 13.4111 12.848C13.6103 14.9624 14.7479 16.4432 16.6511 17.3648C17.3759 17.7152 18.0575 17.7176 18.7847 17.3672C20.6903 16.448 21.8471 14.9672 22.0223 12.8528C22.1351 11.4824 22.0607 10.0952 22.0703 8.7152C22.0703 8.7032 22.0607 8.6888 22.0535 8.6672C20.6447 8.2256 19.2311 7.7816 17.8151 7.3448C17.7479 7.3232 17.6591 7.3376 17.5895 7.3616C16.1879 7.7936 14.7863 8.2304 13.3655 8.6744ZM6.31911 2.4296C6.31911 2.876 6.32871 3.3032 6.31431 3.728C6.30711 3.92 6.36951 3.9656 6.55671 3.9656C8.24871 3.9584 9.94311 3.9608 11.6351 3.9608C11.6783 3.9608 11.7263 3.9728 11.7623 3.956C11.8055 3.9368 11.8679 3.8912 11.8679 3.8576C11.8751 3.3848 11.8727 2.9096 11.8727 2.4296C10.0127 2.4296 8.18151 2.4296 6.31911 2.4296ZM14.4335 21.8888C14.8175 21.5024 15.1991 21.1208 15.5759 20.7416C15.3479 20.7416 15.0935 20.7296 14.8391 20.744C14.6063 20.7584 14.4455 20.9288 14.4359 21.164C14.4263 21.4136 14.4335 21.6608 14.4335 21.8888Z" fill="#8A92A6"/>
<path d="M7.68709 23.432C7.51429 23.3192 7.37029 23.1872 7.39669 22.9568C7.41589 22.772 7.57189 22.6064 7.75189 22.5848C7.95589 22.5584 8.11909 22.6304 8.20549 22.8224C8.28949 23.0072 8.25829 23.1824 8.10709 23.3264C8.06869 23.3648 8.02549 23.3984 7.98469 23.4344C7.88629 23.432 7.78789 23.432 7.68709 23.432Z" fill="#8A92A6"/>
<path d="M10.9873 17.7056C10.3609 17.7056 9.7345 17.7056 9.1081 17.7056C8.8945 17.7056 8.7361 17.6096 8.6713 17.4008C8.6137 17.2112 8.6641 17.0432 8.8321 16.9328C8.9041 16.8848 9.0025 16.8536 9.0889 16.8536C10.3633 16.8488 11.6353 16.8488 12.9097 16.8536C13.1665 16.8536 13.3513 17.0456 13.3513 17.2784C13.3489 17.5184 13.1545 17.7056 12.8857 17.708C12.2545 17.708 11.6209 17.7056 10.9873 17.7056Z" fill="#8A92A6"/>
<path d="M5.11199 18.5648C5.62079 18.0536 6.08879 17.5784 6.56399 17.108C6.83759 16.8368 7.19999 16.9064 7.31519 17.2424C7.37279 17.4104 7.32479 17.5568 7.20959 17.6744C6.61919 18.272 6.02879 18.8672 5.42879 19.4528C5.23679 19.64 5.01599 19.6328 4.81919 19.448C4.55999 19.2032 4.31039 18.9512 4.06559 18.6944C3.88319 18.5024 3.88799 18.2552 4.05839 18.0824C4.22399 17.9168 4.48559 17.9144 4.67039 18.0896C4.81919 18.2336 4.95119 18.392 5.11199 18.5648Z" fill="#8A92A6"/>
<path d="M5.10938 9.2504C5.62298 8.7368 6.09578 8.2568 6.57818 7.784C6.81098 7.5536 7.13978 7.5896 7.28378 7.8536C7.38458 8.0384 7.35578 8.2184 7.21178 8.3624C6.62138 8.96 6.03098 9.5552 5.43098 10.1432C5.23898 10.3328 5.01818 10.3256 4.82138 10.1384C4.56218 9.8936 4.31258 9.6416 4.06778 9.3848C3.88538 9.1952 3.88778 8.9456 4.05818 8.7728C4.22138 8.6072 4.48778 8.6048 4.67018 8.78C4.81898 8.9216 4.95098 9.08 5.10938 9.2504Z" fill="#8A92A6"/>
<path d="M5.1095 13.904C5.6207 13.3928 6.0935 12.9128 6.5759 12.44C6.8447 12.176 7.2383 12.2576 7.3127 12.6032C7.3391 12.728 7.2935 12.9176 7.2095 13.0064C6.6287 13.6136 6.0335 14.204 5.4335 14.792C5.2343 14.9864 5.0135 14.9744 4.8095 14.78C4.5575 14.54 4.3103 14.2928 4.0703 14.0408C3.8879 13.8488 3.8879 13.6016 4.0559 13.4288C4.2239 13.256 4.4879 13.2608 4.6847 13.4432C4.7567 13.5104 4.8287 13.5824 4.8959 13.6544C4.9631 13.7288 5.0255 13.8056 5.1095 13.904Z" fill="#8A92A6"/>
<path d="M10.5382 19.5824C10.063 19.5824 9.58785 19.5848 9.11025 19.5824C8.90865 19.58 8.74785 19.4912 8.67825 19.2968C8.61585 19.1216 8.64465 18.9488 8.79825 18.8336C8.88225 18.7712 9.00465 18.7232 9.10785 18.7232C10.0655 18.716 11.0254 18.7136 11.9831 18.7208C12.2639 18.7232 12.4318 18.9032 12.427 19.1576C12.4222 19.4048 12.2422 19.5776 11.9638 19.58C11.4886 19.5848 11.0134 19.5824 10.5382 19.5824Z" fill="#8A92A6"/>
<path d="M10.0751 14.9264C9.77034 14.9264 9.46314 14.9288 9.15834 14.9264C8.84874 14.924 8.65674 14.7584 8.65194 14.4992C8.64714 14.2424 8.83914 14.0624 9.14634 14.06C9.77274 14.0552 10.3967 14.0552 11.0231 14.06C11.3303 14.0624 11.5271 14.2424 11.5223 14.4968C11.5199 14.7488 11.3159 14.924 11.0135 14.9264C10.7015 14.9288 10.3895 14.9264 10.0751 14.9264Z" fill="#8A92A6"/>
<path d="M10.0415 10.2704C9.74388 10.2704 9.44628 10.2728 9.14868 10.2704C8.84388 10.2656 8.64948 10.0904 8.65188 9.8312C8.65428 9.5816 8.83908 9.4064 9.13428 9.404C9.73668 9.3968 10.3415 9.3968 10.9439 9.404C11.2391 9.4064 11.4287 9.584 11.4335 9.8288C11.4383 10.0808 11.2343 10.2656 10.9367 10.2704C10.6367 10.2752 10.3391 10.2704 10.0415 10.2704Z" fill="#8A92A6"/>
<path d="M21.1774 11.168C21.1774 11.7728 21.2254 12.38 21.1678 12.9776C21.0046 14.7152 19.555 16.364 17.8582 16.7864C17.755 16.8128 17.6302 16.7984 17.527 16.7672C15.7894 16.2728 14.4814 14.7416 14.2606 12.9416C14.2366 12.752 14.2222 12.56 14.2222 12.368C14.2174 11.4656 14.2198 10.5608 14.2198 9.6584C14.2198 9.3992 14.3158 9.2624 14.563 9.1832C15.559 8.8712 16.5526 8.5592 17.551 8.2568C17.659 8.2232 17.7934 8.228 17.9038 8.2616C18.8878 8.5592 19.8694 8.8664 20.851 9.1736C21.1366 9.2624 21.2206 9.3872 21.2206 9.692C21.2206 10.184 21.2206 10.6736 21.2206 11.1656C21.2062 11.168 21.1918 11.168 21.1774 11.168ZM15.0718 11.3048C15.0742 11.3048 15.0742 11.3048 15.0766 11.3048C15.0766 11.696 15.0526 12.0896 15.0814 12.4784C15.1966 14.0768 15.9886 15.2048 17.4646 15.8456C17.6374 15.92 17.791 15.9224 17.971 15.8504C19.4158 15.2816 20.3518 13.9112 20.3662 12.3152C20.3734 11.5832 20.3614 10.8512 20.371 10.1192C20.3734 9.9656 20.3182 9.9128 20.1814 9.872C19.4086 9.6368 18.6382 9.392 17.8654 9.1568C17.7766 9.1304 17.6662 9.1304 17.5774 9.1568C16.7902 9.3968 16.0078 9.6464 15.223 9.8864C15.1054 9.9224 15.067 9.9728 15.067 10.0928C15.0766 10.4936 15.0718 10.8992 15.0718 11.3048Z" fill="#8A92A6"/>
<path d="M17.3374 12.776C17.8198 12.2912 18.2686 11.8256 18.7342 11.3792C18.8326 11.2856 18.9982 11.1968 19.1182 11.2112C19.2478 11.228 19.3918 11.3504 19.471 11.4656C19.5718 11.612 19.5214 11.7848 19.3966 11.9144C19.1758 12.1448 18.9478 12.3704 18.7222 12.596C18.3814 12.9368 18.0406 13.28 17.6974 13.6208C17.4478 13.868 17.227 13.868 16.9798 13.6208C16.6822 13.3256 16.3846 13.0304 16.0918 12.7304C15.8854 12.5216 15.8734 12.2696 16.051 12.0896C16.2334 11.9048 16.4782 11.9096 16.6918 12.1184C16.903 12.3272 17.107 12.5432 17.3374 12.776Z" fill="#8A92A6"/>
</svg>
