<svg width="24" height="25" viewBox="0 0 24 25" fill="none" xmlns="http://www.w3.org/2000/svg">
<path d="M0.902302 5.64802C1.0199 5.19442 1.1039 4.72882 1.2599 4.28722C1.6319 3.23842 2.2079 2.30002 2.9279 1.45282C2.9447 1.43122 2.9663 1.41442 3.0071 1.37842C4.1039 2.72482 4.9319 4.17682 5.0975 5.96002C5.3351 5.80882 5.5607 5.66722 5.7839 5.52322C7.8191 4.22002 9.8543 2.91922 11.8871 1.61362C11.9999 1.54162 12.0791 1.51282 12.2111 1.59682C15.7751 3.88642 19.3463 6.16882 22.9127 8.45362C22.9559 8.48002 22.9943 8.51122 23.0543 8.55202C22.9319 8.74402 22.8119 8.93122 22.6799 9.13762C22.1591 8.80642 21.6479 8.48002 21.1367 8.15362C18.1727 6.25282 15.2015 4.35442 12.2351 2.44882C12.1031 2.36482 12.0167 2.36962 11.8871 2.45122C9.6095 3.91522 7.3295 5.37202 5.0543 6.83362C4.9799 6.88162 4.9151 6.96082 4.8743 7.04002C4.7087 7.35442 4.4903 7.62322 4.1951 7.82002C4.0967 7.88482 4.0607 7.94722 4.0775 8.06722C4.1351 8.46082 4.1831 8.85442 4.2383 9.29122C4.3391 9.23122 4.4183 9.18802 4.4927 9.14002C6.9551 7.56322 9.4199 5.98882 11.8799 4.40722C12.0143 4.32082 12.1031 4.31602 12.2423 4.40482C15.1367 6.26242 18.0335 8.11522 20.9327 9.96562C21.0767 10.0568 21.1343 10.1528 21.1319 10.328C21.1271 14.4032 21.1271 18.4784 21.1271 22.5536C21.1271 22.64 21.1271 22.724 21.1271 22.8296C21.8255 22.8296 22.5047 22.8296 23.2031 22.8296C23.2031 23.0768 23.2031 23.3024 23.2031 23.54C22.2839 23.54 21.3719 23.54 20.4335 23.54C20.4335 23.4392 20.4335 23.348 20.4335 23.2568C20.4335 19.088 20.4335 14.9192 20.4383 10.748C20.4383 10.5632 20.3927 10.4528 20.2271 10.3472C17.5703 8.65762 14.9183 6.95842 12.2687 5.25682C12.1199 5.16082 12.0191 5.15602 11.8655 5.25442C9.4151 6.82882 6.9647 8.39602 4.5119 9.96082C4.3751 10.0472 4.3463 10.1288 4.3703 10.292C4.5023 11.1824 4.6151 12.0728 4.7303 12.9656C4.7423 13.0664 4.7375 13.1696 4.7375 13.2704C4.7375 14.5784 4.7375 15.884 4.7375 17.2232C4.8119 17.1872 4.8695 17.1632 4.9199 17.1344C5.6111 16.736 6.2999 16.3328 6.9959 15.9416C7.1327 15.8648 7.1855 15.7832 7.1831 15.6224C7.1759 13.6976 7.1783 11.7728 7.1783 9.84802C7.1783 9.76882 7.1783 9.69202 7.1783 9.60082C10.4351 9.60082 13.6703 9.60082 16.9343 9.60082C16.9343 11.276 16.9343 12.9488 16.9343 14.6432C17.1959 14.576 17.4239 14.516 17.6831 14.4488C17.7407 14.6504 17.7983 14.8496 17.8511 15.0464C18.0959 15.956 18.3455 16.8632 18.5807 17.7752C18.6167 17.9192 18.6767 17.9648 18.8183 17.9576C18.9983 17.948 19.1783 17.9552 19.3679 17.9552C19.3679 19.8272 19.3679 21.6776 19.3679 23.5376C13.7999 23.5376 8.2391 23.5376 2.6615 23.5376C2.6615 21.6848 2.6615 19.832 2.6615 17.9552C2.8103 17.9552 2.9543 17.9432 3.0959 17.9576C3.3671 17.984 3.6047 17.9144 3.8351 17.768C3.9791 17.6768 4.0439 17.5904 4.0415 17.4104C4.0319 16.1672 4.0367 14.9264 4.0367 13.6832C4.0367 13.6112 4.0367 13.5392 4.0367 13.4552C3.3359 13.4552 2.6519 13.4552 1.9487 13.4552C1.9487 16.8152 1.9487 20.168 1.9487 23.5352C1.7111 23.5352 1.4903 23.5352 1.2479 23.5352C1.2479 23.4488 1.2479 23.3696 1.2479 23.2928C1.2479 19.9304 1.2383 16.5656 1.2575 13.2032C1.2599 12.6488 1.3751 12.0944 1.4471 11.54C1.5959 10.4048 1.7495 9.26962 1.9055 8.13442C1.9271 7.98562 1.9007 7.88722 1.7639 7.79122C1.3271 7.48882 1.0655 7.06402 0.945502 6.54802C0.935902 6.50722 0.916702 6.46882 0.899902 6.43042C0.902302 6.17122 0.902302 5.90962 0.902302 5.64802ZM5.3015 17.7296C5.3063 17.7392 5.3111 17.7512 5.3159 17.7608C8.9135 16.796 12.5087 15.8312 16.1327 14.8592C15.6335 13.9976 15.1511 13.1624 14.6663 12.3224C11.5271 14.1344 8.4143 15.932 5.3015 17.7296ZM3.3551 18.68C3.3551 20.0768 3.3551 21.4448 3.3551 22.8224C4.9799 22.8224 6.5951 22.8224 8.2103 22.8224C8.2103 21.4328 8.2103 20.0576 8.2103 18.68C6.5879 18.68 4.9775 18.68 3.3551 18.68ZM17.1935 15.308C13.9415 16.1792 10.7183 17.0432 7.4975 17.9072C7.4999 17.9192 7.5023 17.9288 7.5047 17.9408C10.9655 17.9408 14.4239 17.9408 17.9015 17.9408C17.6639 17.0576 17.4311 16.1936 17.1935 15.308ZM8.9327 22.8248C9.8687 22.8248 10.7783 22.8248 11.7023 22.8248C11.7023 21.44 11.7023 20.0648 11.7023 18.6848C10.7735 18.6848 9.8567 18.6848 8.9327 18.6848C8.9327 20.0696 8.9327 21.4376 8.9327 22.8248ZM12.4223 18.68C12.4223 20.0648 12.4223 21.44 12.4223 22.82C13.3511 22.82 14.2679 22.82 15.1847 22.82C15.1847 21.4304 15.1847 20.0552 15.1847 18.68C14.2583 18.68 13.3463 18.68 12.4223 18.68ZM18.6743 22.8248C18.6743 21.44 18.6743 20.0648 18.6743 18.6848C17.7455 18.6848 16.8287 18.6848 15.9119 18.6848C15.9119 20.0744 15.9119 21.4496 15.9119 22.8248C16.8383 22.8248 17.7503 22.8248 18.6743 22.8248ZM7.8863 13.0544C9.1703 13.0544 10.4351 13.0544 11.7023 13.0544C11.7023 12.1328 11.7023 11.228 11.7023 10.3136C10.4255 10.3136 9.1607 10.3136 7.8863 10.3136C7.8863 11.2304 7.8863 12.1352 7.8863 13.0544ZM2.6495 6.11122C2.8943 6.11122 3.1079 6.11122 3.3431 6.11122C3.3431 6.55762 3.3431 6.98962 3.3431 7.44802C3.8303 7.29922 4.1399 7.00642 4.3079 6.55522C4.4399 6.19762 4.3895 5.83762 4.3295 5.48002C4.1519 4.44562 3.6791 3.53602 3.1031 2.67202C3.0719 2.62642 3.0359 2.58562 2.9759 2.51362C2.7623 2.87362 2.5487 3.20242 2.3639 3.54322C1.9415 4.32082 1.6367 5.13922 1.6031 6.03682C1.5887 6.50002 1.7591 6.89362 2.1263 7.18162C2.2703 7.29682 2.4503 7.36642 2.6495 7.47922C2.6495 6.98242 2.6495 6.55522 2.6495 6.11122ZM14.9231 11.3624C15.3575 12.1136 15.7823 12.848 16.2287 13.616C16.2287 12.4808 16.2287 11.396 16.2287 10.316C14.9519 10.316 13.6895 10.316 12.4295 10.316C12.4295 11.1464 12.4295 11.9648 12.4295 12.8024C13.2671 12.3152 14.0831 11.8448 14.9231 11.3624ZM3.9839 12.7112C3.7823 11.192 3.5807 9.68722 3.3815 8.19202C3.1103 8.19202 2.8631 8.19202 2.6087 8.19202C2.4071 9.69922 2.2079 11.1968 2.0063 12.7112C2.6759 12.7112 3.3167 12.7112 3.9839 12.7112ZM10.6295 13.8392C10.6247 13.8272 10.6223 13.8176 10.6175 13.8056C9.7079 13.8056 8.7983 13.8056 7.8911 13.8056C7.8911 14.3456 7.8911 14.8712 7.8911 15.4208C8.8175 14.8856 9.7247 14.3624 10.6295 13.8392Z" fill="#8A92A6"/>
<path d="M7.17845 20.7704C7.17366 21.5264 6.54966 22.1504 5.78886 22.1552C5.01846 22.16 4.38726 21.5192 4.38966 20.7368C4.39206 19.9784 5.01846 19.3568 5.77926 19.352C6.55685 19.3472 7.18325 19.9832 7.17845 20.7704ZM5.79605 20.0672C5.40965 20.0624 5.09526 20.3624 5.08806 20.7416C5.07846 21.1136 5.39285 21.4352 5.77205 21.44C6.15605 21.4448 6.47286 21.1448 6.48006 20.7656C6.49205 20.3936 6.17525 20.0696 5.79605 20.0672Z" fill="#8A92A6"/>
</svg>
