<svg width="24" height="25" viewBox="0 0 24 25" fill="none" xmlns="http://www.w3.org/2000/svg">
<path d="M18.3026 1.22C18.6266 1.22 18.9482 1.22 19.2722 1.22C19.3178 1.2368 19.3634 1.2584 19.4114 1.2656C21.4634 1.5464 23.1242 3.296 23.2682 5.3576C23.3642 6.7256 22.9442 7.9256 21.9722 8.9C20.9858 9.8864 19.7858 10.3448 18.3794 10.2152C18.1202 10.1912 17.861 10.1432 17.5898 10.1072C16.9802 11.7968 16.373 13.4816 15.7634 15.176C16.4378 15.4952 16.9802 15.9344 17.4218 16.4816C17.4482 16.4792 17.4554 16.4816 17.4602 16.4768C18.1562 16.028 18.8546 15.5816 19.5458 15.1256C19.5914 15.0944 19.601 14.9792 19.5986 14.9048C19.589 14.6072 19.5074 14.2976 19.5626 14.0144C19.8122 12.7328 21.2138 12.1208 22.3562 12.7664C23.1554 13.22 23.501 14.2688 23.1314 15.1208C22.7546 15.992 21.7562 16.4696 20.8754 16.172C20.5826 16.0736 20.3186 15.896 20.009 15.7376C19.3202 16.1864 18.5906 16.6592 17.861 17.1344C17.8922 17.2064 17.9186 17.2592 17.9402 17.312C18.7418 19.148 18.5018 20.8376 17.1746 22.3376C15.5786 24.14 12.6434 24.2648 10.8746 22.6304C10.3322 22.1288 9.91701 21.5432 9.65541 20.8496C9.63141 20.7872 9.53541 20.6984 9.48981 20.708C8.94742 20.8256 8.40981 20.96 7.86502 21.0896C7.85301 21.7184 7.62501 22.2272 7.14261 22.6184C6.39861 23.2256 5.20581 23.1296 4.59381 22.4096C3.89781 21.5912 3.95061 20.4344 4.71381 19.76C5.63541 18.944 6.95781 19.1528 7.60821 20.2112C7.63941 20.264 7.71861 20.3336 7.76181 20.324C8.30901 20.2016 8.85381 20.0672 9.41541 19.9328C9.30981 19.2416 9.36981 18.5816 9.56662 17.9336C9.76581 17.2784 10.1186 16.7096 10.5698 16.1888C10.073 15.644 9.59061 15.1136 9.11541 14.5904C9.07941 14.6 9.06261 14.6 9.05061 14.6072C7.67301 15.5744 6.20181 15.7664 4.63221 15.1496C4.51941 15.1064 4.47621 15.152 4.42822 15.2408C4.26022 15.5504 4.09701 15.8624 3.91461 16.1624C3.83541 16.2944 3.84981 16.3712 3.95301 16.4816C4.48101 17.0408 4.61541 17.7008 4.35141 18.4136C4.10661 19.076 3.60981 19.4864 2.91381 19.604C2.23221 19.7288 1.62261 19.5296 1.18821 18.98C0.979415 18.7112 0.873815 18.3632 0.720215 18.0536C0.720215 17.8616 0.720215 17.672 0.720215 17.48C0.734615 17.4392 0.753815 17.4008 0.763415 17.36C1.00581 16.4096 1.77861 15.8408 2.76021 15.8984C2.89701 15.9056 3.03141 15.9392 3.16821 15.9608C3.39381 15.5552 3.61221 15.1592 3.83781 14.7536C2.52741 13.7792 1.80741 12.5024 1.86021 10.8584C1.91301 9.212 2.71221 7.9856 4.08021 7.0952C3.73461 6.368 3.39141 5.6504 3.05301 4.9352C2.18421 5.0624 1.55781 4.8464 1.09701 4.208C0.924215 3.9656 0.842615 3.6584 0.720215 3.38C0.720215 3.188 0.720215 2.9984 0.720215 2.8064C0.734615 2.768 0.756215 2.7296 0.765815 2.6888C0.876215 2.2328 1.10901 1.844 1.50261 1.5872C1.74501 1.4288 2.03541 1.34 2.30661 1.22C2.49861 1.22 2.68821 1.22 2.88021 1.22C2.92821 1.2368 2.97381 1.2536 3.02181 1.268C4.38021 1.6184 4.95381 3.2048 4.05621 4.2488C3.76821 4.5848 3.80181 4.7936 3.97701 5.1224C4.26261 5.6576 4.50501 6.2144 4.76181 6.7496C7.17861 6.056 9.02901 6.7952 10.3754 8.8784C11.7386 8.3 13.1042 7.7216 14.4818 7.1384C14.1986 6.2672 14.177 5.408 14.4242 4.5368C14.0666 4.4048 13.7282 4.2896 13.397 4.1552C13.2602 4.1 13.193 4.1288 13.1066 4.2392C12.7514 4.7024 12.2786 4.9496 11.693 4.976C10.913 5.012 10.157 4.52 9.87861 3.7952C9.58101 3.0224 9.78501 2.1536 10.4258 1.6736C10.6922 1.4744 11.0306 1.3688 11.3378 1.2224C11.5298 1.2224 11.7194 1.2224 11.9114 1.2224C11.9162 1.2272 11.921 1.2368 11.9258 1.2368C13.0538 1.5944 13.4426 2.1008 13.4954 3.2672C13.4978 3.3224 13.553 3.404 13.601 3.4232C13.9538 3.5624 14.3114 3.6896 14.6594 3.8168C14.681 3.7952 14.6954 3.7856 14.7026 3.7736C14.7242 3.7352 14.7458 3.6968 14.7674 3.6584C15.3602 2.576 16.2266 1.8152 17.4074 1.436C17.7002 1.34 18.005 1.2896 18.3026 1.22ZM16.8842 9.8288C15.953 9.3896 15.2642 8.72 14.777 7.8464C14.7122 7.8704 14.6714 7.8848 14.633 7.9016C13.3658 8.4368 12.0986 8.9744 10.829 9.5072C10.6802 9.5696 10.6634 9.6392 10.7042 9.788C10.9562 10.6952 10.9274 11.5976 10.6154 12.4904C10.409 13.0784 10.0826 13.5968 9.66261 14.0672C10.157 14.6096 10.6442 15.1448 11.1362 15.6872C12.3266 14.8184 13.625 14.5568 15.0506 14.912C15.665 13.2104 16.2698 11.5304 16.8842 9.8288ZM21.605 8.1632C22.877 6.7472 22.8794 4.3592 21.2378 2.9024C19.673 1.5128 17.1914 1.7216 15.857 3.3632C14.5562 4.9616 14.921 7.1456 15.9434 8.1416C16.2362 7.4576 16.7282 6.968 17.4074 6.668C16.5626 5.66 16.8794 4.5704 17.4554 4.0112C18.113 3.3752 19.1546 3.2984 19.8578 3.824C20.249 4.1168 20.513 4.4984 20.6066 4.9784C20.729 5.612 20.5562 6.176 20.117 6.668C20.8202 6.9752 21.3026 7.4648 21.605 8.1632ZM9.18981 13.4384C10.4786 11.996 10.457 9.62 8.83942 8.1776C7.28421 6.7928 4.84101 6.9728 3.48741 8.5832C2.15301 10.172 2.48181 12.3536 3.52821 13.4096C3.81621 12.7208 4.31301 12.236 4.99221 11.9336C4.15221 10.9328 4.45221 9.8432 5.04741 9.272C5.72661 8.6216 6.77781 8.5664 7.48582 9.1208C7.86021 9.4136 8.10982 9.7904 8.19622 10.2512C8.31382 10.8752 8.14821 11.4392 7.70421 11.9288C8.40501 12.2432 8.89701 12.7352 9.18981 13.4384ZM12.5186 20.204C11.7314 19.2896 11.9186 18.1976 12.5426 17.5664C13.1834 16.916 14.2634 16.832 14.9786 17.3696C15.3698 17.6648 15.6266 18.0488 15.7178 18.5288C15.8378 19.1576 15.6602 19.712 15.2282 20.2016C15.9338 20.5088 16.4162 21.008 16.7114 21.6944C17.9114 20.42 18.0602 18.0704 16.481 16.5632C14.8802 15.0368 12.3626 15.1952 10.973 16.8944C9.65061 18.512 10.0514 20.7128 11.0522 21.668C11.3426 20.9936 11.8322 20.5088 12.5186 20.204ZM13.8746 23.0288C14.6402 23.012 15.3362 22.8152 15.953 22.3784C16.0082 22.3376 16.0562 22.2176 16.037 22.1528C15.8546 21.5168 15.4466 21.0704 14.8154 20.8784C14.2466 20.7032 13.6466 20.72 13.073 20.84C12.3842 20.9864 11.9378 21.4376 11.7146 22.112C11.669 22.2488 11.6954 22.3208 11.8154 22.4C12.4466 22.8128 13.1402 23.0168 13.8746 23.0288ZM8.56101 14.024C8.36421 13.244 7.89861 12.7136 7.11621 12.5648C6.66501 12.4784 6.17781 12.4928 5.71701 12.5456C4.94661 12.6344 4.45941 13.1072 4.19541 13.8296C4.13781 13.9904 4.18821 14.0624 4.31541 14.144C5.55141 14.948 7.23381 14.9936 8.56101 14.024ZM18.7682 7.2536C18.605 7.2536 18.4442 7.2488 18.281 7.2536C17.513 7.2848 16.8218 7.844 16.6058 8.5904C16.5698 8.7176 16.5866 8.7848 16.697 8.8616C17.8946 9.6896 19.6466 9.6872 20.8442 8.8568C20.9498 8.7824 20.969 8.7152 20.9354 8.6024C20.8154 8.204 20.5898 7.88 20.261 7.6232C19.8194 7.2776 19.3058 7.2104 18.7682 7.2536ZM5.98341 20.0312C5.36901 20.0312 4.86501 20.5304 4.86021 21.1448C4.85541 21.752 5.35941 22.2632 5.97141 22.2752C6.57861 22.2872 7.11141 21.7568 7.10662 21.1448C7.10421 20.5328 6.59781 20.0312 5.98341 20.0312ZM11.6306 4.22C12.2402 4.2176 12.749 3.7088 12.749 3.0992C12.749 2.4944 12.2378 1.9784 11.6282 1.9736C11.0162 1.9688 10.493 2.4968 10.5002 3.1112C10.5098 3.7232 11.0162 4.2224 11.6306 4.22ZM3.72021 17.756C3.71781 17.1464 3.20901 16.64 2.59701 16.6424C1.98981 16.6448 1.47621 17.156 1.47381 17.7632C1.47141 18.3656 1.98501 18.884 2.59221 18.8912C3.20901 18.896 3.72261 18.3776 3.72021 17.756ZM18.7754 6.4712C19.397 6.4688 19.8938 5.9696 19.8914 5.3504C19.889 4.736 19.3802 4.232 18.7634 4.2344C18.149 4.2392 17.6378 4.7528 17.6426 5.36C17.6474 5.9768 18.1562 6.4736 18.7754 6.4712ZM7.46902 10.6256C7.47142 10.0016 6.97701 9.5024 6.35781 9.5C5.74101 9.4976 5.23461 9.9968 5.22982 10.6136C5.22261 11.2208 5.73622 11.7392 6.34822 11.7464C6.95541 11.7536 7.46902 11.2424 7.46902 10.6256ZM13.8698 17.7776C13.2482 17.78 12.7466 18.2816 12.749 18.8984C12.7514 19.5128 13.2602 20.0144 13.877 20.012C14.4962 20.0096 15.0002 19.5056 14.9978 18.8912C14.9954 18.272 14.4914 17.7752 13.8698 17.7776ZM3.72021 3.0968C3.72021 2.4872 3.21381 1.9784 2.60181 1.9736C2.00181 1.9688 1.48101 2.4872 1.47141 3.092C1.46421 3.704 1.98501 4.2224 2.60661 4.22C3.22101 4.2176 3.72261 3.7112 3.72021 3.0968ZM21.4034 15.5C22.013 15.5 22.5218 14.9936 22.5266 14.384C22.5314 13.784 22.0154 13.2632 21.4082 13.2536C20.7962 13.244 20.2778 13.7672 20.2802 14.3864C20.285 15.0008 20.789 15.5024 21.4034 15.5Z" fill="#8A92A6"/>
</svg>
