<svg width="24" height="25" viewBox="0 0 24 25" fill="none" xmlns="http://www.w3.org/2000/svg">
<path d="M11.8034 23.3C11.6114 23.2232 11.4098 23.168 11.2298 23.0696C10.8074 22.8368 10.529 22.4792 10.3946 22.0184C10.361 21.9032 10.313 21.8744 10.2026 21.8744C9.2234 21.8768 8.2442 21.8672 7.2674 21.884C7.061 21.8888 6.857 22.0064 6.6482 22.0496C6.2978 22.1192 5.9474 22.2152 5.5946 22.2224C4.4714 22.244 3.3482 22.2104 2.2274 22.2368C1.493 22.2536 1.0226 21.6728 1.0442 21.0512C1.0778 20.1536 1.0514 19.2536 1.0538 18.3536C1.0538 17.7248 1.4474 17.2904 2.0738 17.24C2.309 17.2208 2.549 17.2352 2.7866 17.2304C3.0602 17.2232 3.1754 17.1056 3.1826 16.832C3.1922 16.4216 3.173 16.0088 3.2162 15.6032C3.2858 14.912 3.9242 14.372 4.613 14.3792C5.0114 14.384 5.3234 14.6864 5.3282 15.0896C5.3354 15.5144 5.3258 15.9392 5.333 16.364C5.3426 17.0792 5.8226 17.5856 6.533 17.5928C7.937 17.6048 9.3386 17.5976 10.7426 17.5952C10.7762 17.5952 10.8122 17.5856 10.8722 17.576C10.817 17.1776 10.7618 16.7888 10.7066 16.4C10.5866 15.5528 10.4522 14.7104 10.3466 13.8608C10.253 13.1216 10.613 12.6848 11.369 12.584C11.369 12.368 11.369 12.1472 11.369 11.8952C11.2898 11.8952 11.2058 11.8952 11.1242 11.8952C9.353 11.8952 7.5842 11.8952 5.813 11.8952C5.0594 11.8952 4.6178 11.4584 4.613 10.7072C4.6106 10.2248 4.613 9.74241 4.613 9.26001C4.613 9.18321 4.6058 9.10641 4.6034 9.02001C3.797 8.92881 3.077 8.65041 2.4794 8.12721C1.2194 7.03521 0.7538 5.65041 1.2074 4.05201C1.661 2.45601 2.7698 1.49361 4.4162 1.23921C6.0362 0.989606 7.5482 1.74801 8.369 3.16641C8.4506 3.30801 8.5442 3.32481 8.681 3.32481C11.5514 3.32241 14.4218 3.32481 17.2946 3.32241C17.6042 3.32241 17.897 3.37041 18.1394 3.57921C18.4154 3.81441 18.5306 4.11921 18.5306 4.47681C18.5306 5.90241 18.5306 7.32561 18.5306 8.75121C18.5306 8.83521 18.5306 8.92161 18.5306 9.03201C18.7706 9.03201 18.989 9.03201 19.229 9.03201C19.229 10.2272 19.229 11.396 19.229 12.596C19.4618 12.596 19.6754 12.6056 19.8866 12.5888C19.9298 12.5864 19.9922 12.488 20.0018 12.428C20.0786 11.9672 20.1386 11.504 20.2154 11.0432C20.3138 10.4624 20.7314 10.1072 21.3218 10.1C21.9338 10.0928 22.5434 10.0928 23.1554 10.088C23.1554 10.3328 23.1554 10.5776 23.1554 10.8224C22.5506 10.8224 21.9458 10.82 21.3434 10.8224C21.0866 10.8224 20.9522 10.9352 20.9162 11.1824C20.7986 11.9624 20.6834 12.7448 20.5682 13.5272C20.297 15.3608 20.0258 17.192 19.7546 19.0256C19.7162 19.2776 19.685 19.532 19.6538 19.7792C19.7354 19.808 19.7882 19.8248 19.8434 19.8464C20.489 20.1032 20.897 20.5664 20.9954 21.2576C21.101 21.9848 20.8346 22.5752 20.2322 22.9904C20.0258 23.132 19.7666 23.1992 19.5314 23.3C19.3298 23.3 19.1282 23.3 18.9266 23.3C18.881 23.2832 18.8378 23.2616 18.7898 23.2496C17.8226 22.9856 17.2466 22.0064 17.513 21.0584C17.5706 20.852 17.681 20.66 17.765 20.4632C16.361 20.4632 14.9642 20.4632 13.5482 20.4632C13.5842 20.5256 13.6082 20.5688 13.6322 20.6096C14.0378 21.3032 13.9514 22.1312 13.4162 22.7264C13.1426 23.0312 12.785 23.1824 12.4058 23.3C12.2066 23.3 12.005 23.3 11.8034 23.3ZM17.8058 9.03441C17.8058 8.93121 17.8058 8.85441 17.8058 8.77521C17.8058 7.37121 17.8058 5.96961 17.8058 4.56561C17.8058 4.14801 17.7002 4.04241 17.285 4.04241C14.5226 4.04241 11.7602 4.04241 8.9954 4.04241C8.921 4.04241 8.8466 4.04241 8.7506 4.04241C9.0578 5.24721 8.885 6.34881 8.1962 7.34241C7.5074 8.33601 6.5354 8.88081 5.3282 9.02721C5.3282 9.59121 5.3282 10.136 5.3282 10.6808C5.3282 11.0528 5.4434 11.1656 5.8202 11.1656C7.589 11.1656 9.3602 11.1656 11.129 11.1656C11.2058 11.1656 11.2826 11.1656 11.3834 11.1656C11.3834 10.448 11.3834 9.75201 11.3834 9.03201C13.5338 9.03441 15.6578 9.03441 17.8058 9.03441ZM1.7762 5.10321C1.7714 6.86961 3.197 8.31441 4.949 8.31921C6.7274 8.32401 8.177 6.89601 8.1794 5.13681C8.1818 3.35361 6.7658 1.92321 4.9898 1.91601C3.2066 1.90641 1.7786 3.32481 1.7762 5.10321ZM6.7442 21.2504C6.7442 20.276 6.7442 19.3064 6.7442 18.3272C6.5738 18.3128 6.4082 18.3032 6.2474 18.2864C5.4506 18.2048 4.7138 17.4896 4.6442 16.6904C4.6034 16.2416 4.6202 15.7856 4.6106 15.332C4.6082 15.2576 4.6034 15.1808 4.5986 15.104C4.157 15.1616 3.9122 15.4232 3.905 15.8384C3.8978 16.1984 3.9074 16.5584 3.9002 16.916C3.8882 17.4752 3.4466 17.9216 2.885 17.9408C2.6978 17.948 2.5106 17.9432 2.3234 17.9456C1.829 17.9456 1.6754 18.152 1.8146 18.6584C2.2106 18.6584 2.6138 18.6536 3.0146 18.6632C3.077 18.6656 3.1874 18.7304 3.1922 18.7736C3.2114 18.9632 3.2018 19.1576 3.2018 19.3784C2.7146 19.3784 2.2538 19.3784 1.793 19.3784C1.793 19.6256 1.793 19.8464 1.793 20.0888C2.2658 20.0888 2.7218 20.0888 3.185 20.0888C3.185 20.3384 3.185 20.5616 3.185 20.8088C2.7098 20.8088 2.2514 20.8088 1.7978 20.8088C1.7186 21.3848 1.8266 21.5144 2.3666 21.5144C3.4154 21.5144 4.4666 21.5096 5.5154 21.5168C5.9474 21.524 6.3482 21.4112 6.7442 21.2504ZM7.493 18.3272C7.493 19.2728 7.493 20.2016 7.493 21.152C8.4266 21.152 9.3458 21.152 10.265 21.1472C10.3034 21.1472 10.361 21.0944 10.3778 21.0536C10.769 20.0888 11.2994 19.7264 12.3362 19.7264C14.4434 19.7264 16.553 19.7264 18.6602 19.7264C18.7442 19.7264 18.8306 19.7264 18.9242 19.7264C18.9602 19.4864 18.9914 19.2704 19.0274 19.0256C18.9194 19.0256 18.8354 19.0256 18.7514 19.0256C16.5074 19.0256 14.261 19.0256 12.017 19.0256C11.597 19.0256 11.2778 18.8504 11.0786 18.4856C11.0042 18.3488 10.9202 18.3128 10.7762 18.3128C9.7538 18.3176 8.7338 18.3152 7.7114 18.3152C7.6418 18.3152 7.5722 18.3224 7.493 18.3272ZM17.0978 9.75921C17.0978 10.2416 17.0978 10.7 17.0978 11.1584C15.9002 11.1584 14.7242 11.1584 13.529 11.1584C13.529 10.6856 13.529 10.2296 13.529 9.76401C13.0466 9.76401 12.5834 9.76401 12.1178 9.76401C12.1178 10.712 12.1178 11.6432 12.1178 12.5792C14.2538 12.5792 16.3778 12.5792 18.5042 12.5792C18.5042 11.6312 18.5042 10.7 18.5042 9.75921C18.0362 9.75921 17.585 9.75921 17.0978 9.75921ZM18.1274 13.328C18.0386 14.0408 17.9546 14.732 17.8682 15.428C18.4538 15.428 19.0082 15.428 19.5626 15.428C19.6658 14.72 19.769 14.0288 19.8722 13.328C19.2842 13.328 18.7178 13.328 18.1274 13.328ZM12.1154 22.5752C12.6986 22.5704 13.1666 22.1024 13.1714 21.5216C13.1762 20.9384 12.689 20.4488 12.1034 20.4488C11.5202 20.4488 11.033 20.9384 11.0378 21.5216C11.0426 22.112 11.5202 22.58 12.1154 22.5752ZM19.229 22.5752C19.8218 22.5776 20.3042 22.1048 20.3066 21.5192C20.309 20.9384 19.817 20.4488 19.2338 20.4488C18.6554 20.4488 18.185 20.9192 18.1754 21.5024C18.1682 22.1 18.6314 22.5728 19.229 22.5752ZM17.7698 16.1816C17.681 16.8944 17.5946 17.5856 17.5082 18.284C18.065 18.284 18.6002 18.284 19.1378 18.284C19.2434 17.576 19.3442 16.8848 19.4474 16.1816C18.881 16.1816 18.3362 16.1816 17.7698 16.1816ZM13.229 13.3352C13.3178 14.0432 13.4066 14.7392 13.493 15.4328C13.9898 15.4328 14.465 15.4328 14.9426 15.4328C14.9426 14.7248 14.9426 14.0312 14.9426 13.3352C14.3642 13.3352 13.8002 13.3352 13.229 13.3352ZM17.3954 13.3352C16.8098 13.3352 16.253 13.3352 15.6938 13.3352C15.6938 14.0432 15.6938 14.7368 15.6938 15.4472C16.145 15.4472 16.5818 15.452 17.021 15.4424C17.0666 15.4424 17.1434 15.368 17.1506 15.3224C17.237 14.6648 17.3138 14.0096 17.3954 13.3352ZM12.4994 13.3232C12.0914 13.3232 11.705 13.3136 11.3186 13.328C11.1314 13.3328 11.0234 13.472 11.045 13.6496C11.117 14.2448 11.2106 14.8376 11.2946 15.4352C11.789 15.4352 12.2666 15.4352 12.7634 15.4352C12.6746 14.7224 12.5882 14.0288 12.4994 13.3232ZM11.4002 16.184C11.4938 16.8296 11.5802 17.4608 11.6882 18.0872C11.7026 18.1688 11.8442 18.2816 11.9306 18.2864C12.3146 18.308 12.7034 18.296 13.1186 18.296C13.0298 17.5784 12.9434 16.8848 12.857 16.184C12.365 16.184 11.8946 16.184 11.4002 16.184ZM14.9498 16.184C14.4866 16.184 14.045 16.184 13.5866 16.184C13.6682 16.856 13.7474 17.516 13.8338 18.176C13.8386 18.2192 13.8914 18.2912 13.9226 18.2912C14.2634 18.2984 14.6042 18.296 14.9498 18.296C14.9498 17.5784 14.9498 16.8896 14.9498 16.184ZM16.7786 18.2888C16.8674 17.588 16.9538 16.8944 17.0402 16.1864C16.5746 16.1864 16.1354 16.1864 15.6914 16.1864C15.6914 16.8944 15.6914 17.588 15.6914 18.2888C16.0586 18.2888 16.4066 18.2888 16.7786 18.2888ZM16.3754 9.76401C15.6602 9.76401 14.9666 9.76401 14.2658 9.76401C14.2658 9.99681 14.2658 10.2176 14.2658 10.4456C14.9762 10.4456 15.6722 10.4456 16.3754 10.4456C16.3754 10.2104 16.3754 9.99681 16.3754 9.76401Z" fill="#8A92A6"/>
<path d="M22.1499 3.75681C22.3491 3.96561 22.5051 4.13121 22.6443 4.27761C21.8667 5.05521 21.0771 5.84481 20.3019 6.62001C20.0187 6.33681 19.7067 6.02241 19.4067 5.72241C19.5435 5.58801 19.7091 5.42721 19.8915 5.24721C19.9971 5.36961 20.1291 5.52081 20.2515 5.66241C20.8995 5.00961 21.5211 4.38561 22.1499 3.75681Z" fill="#8A92A6"/>
<path d="M22.1523 5.9024C22.3611 6.1112 22.5171 6.2696 22.6563 6.4088C21.8667 7.1984 21.0771 7.988 20.3019 8.7632C20.0139 8.4752 19.6995 8.1632 19.3755 7.8392C19.5219 7.7144 19.6947 7.568 19.8699 7.4192C19.9683 7.5272 20.1075 7.6784 20.2443 7.8296C20.9067 7.16 21.5259 6.5336 22.1523 5.9024Z" fill="#8A92A6"/>
<path d="M19.3804 3.5576C19.5196 3.4184 19.678 3.2624 19.8388 3.1016C19.9708 3.248 20.11 3.4016 20.254 3.5624C20.914 2.8904 21.5308 2.2616 22.1428 1.6376C22.342 1.8368 22.5028 1.9976 22.6444 2.1416C21.8668 2.9192 21.0772 3.7088 20.302 4.484C20.0164 4.1936 19.702 3.8792 19.3804 3.5576Z" fill="#8A92A6"/>
<path d="M13.1904 4.76001C14.6184 4.76001 16.0248 4.76001 17.4432 4.76001C17.4432 5.94561 17.4432 7.11921 17.4432 8.30721C16.0272 8.30721 14.616 8.30721 13.1904 8.30721C13.1904 7.12881 13.1904 5.95281 13.1904 4.76001ZM16.7232 5.48481C16.248 5.48481 15.7944 5.48481 15.3168 5.48481C15.3168 5.95761 15.3168 6.41361 15.3168 6.90081C14.8344 6.90081 14.3712 6.90081 13.908 6.90081C13.908 7.14801 13.908 7.36641 13.908 7.59201C14.856 7.59201 15.7848 7.59201 16.7184 7.59201C16.7184 7.35681 16.7184 7.13841 16.7184 6.89601C16.4856 6.89601 16.2672 6.89601 16.044 6.89601C16.044 6.64881 16.044 6.42321 16.044 6.17121C16.2768 6.17121 16.4952 6.17121 16.7232 6.17121C16.7232 5.92881 16.7232 5.71521 16.7232 5.48481ZM13.8912 5.48001C13.8912 5.68641 13.884 5.87121 13.896 6.05601C13.8984 6.09681 13.9656 6.16641 14.0064 6.16881C14.196 6.18081 14.388 6.17361 14.5896 6.17361C14.5896 5.92641 14.5896 5.71041 14.5896 5.48001C14.3568 5.48001 14.1384 5.48001 13.8912 5.48001Z" fill="#8A92A6"/>
<path d="M10.6729 9.75439C10.6729 9.99679 10.6729 10.2176 10.6729 10.4528C9.60732 10.4528 8.54892 10.4528 7.47852 10.4528C7.47852 10.2152 7.47852 9.99199 7.47852 9.75439C8.54652 9.75439 9.59772 9.75439 10.6729 9.75439Z" fill="#8A92A6"/>
<path d="M12.4516 4.76959C12.4516 4.99999 12.4516 5.22079 12.4516 5.45599C11.506 5.45599 10.5676 5.45599 9.61719 5.45599C9.61719 5.23039 9.61719 5.01199 9.61719 4.76959C10.5508 4.76959 11.4892 4.76959 12.4516 4.76959Z" fill="#8A92A6"/>
<path d="M12.4516 6.8864C11.5012 6.8864 10.5676 6.8864 9.61963 6.8864C9.61963 6.656 9.61963 6.4304 9.61963 6.1904C10.5628 6.1904 11.5012 6.1904 12.4516 6.1904C12.4516 6.4208 12.4516 6.6416 12.4516 6.8864Z" fill="#8A92A6"/>
<path d="M6.74202 10.46C6.50682 10.46 6.28602 10.46 6.05322 10.46C6.05322 10.2248 6.05322 9.99922 6.05322 9.75922C6.28122 9.75922 6.50442 9.75922 6.74202 9.75922C6.74202 9.98722 6.74202 10.2128 6.74202 10.46Z" fill="#8A92A6"/>
<path d="M5.33037 6.91042C5.33037 7.13842 5.33037 7.36642 5.33037 7.60642C5.08797 7.60642 4.86957 7.60642 4.61517 7.60642C4.61517 7.37602 4.61517 7.14562 4.61517 6.92002C3.91437 6.78562 3.53277 6.38482 3.56637 5.81842C3.76317 5.81842 3.96237 5.81122 4.16157 5.82322C4.20477 5.82562 4.26237 5.88802 4.28157 5.93842C4.34877 6.09922 4.46397 6.17362 4.63197 6.17362C4.86237 6.17602 5.09277 6.18082 5.32317 6.17122C5.53917 6.16402 5.66877 6.03442 5.67597 5.84242C5.68317 5.64322 5.55357 5.48722 5.33517 5.47522C5.08317 5.46082 4.83117 5.47282 4.57917 5.46802C4.04877 5.45602 3.59277 5.03122 3.55437 4.51762C3.51117 3.93442 3.86157 3.44962 4.41357 3.35602C4.56717 3.32962 4.62477 3.27682 4.61037 3.12322C4.59837 2.96722 4.60797 2.80882 4.60797 2.63602C4.85037 2.63602 5.07357 2.63602 5.32077 2.63602C5.32077 2.85442 5.32077 3.07522 5.32077 3.30802C5.95677 3.39442 6.33117 3.73042 6.41277 4.40482C6.18237 4.40482 5.97837 4.40962 5.77197 4.40002C5.73597 4.39762 5.68557 4.34002 5.66877 4.29682C5.59917 4.13122 5.47437 4.05202 5.29917 4.04722C5.08317 4.04242 4.86717 4.04002 4.65117 4.04722C4.41597 4.05442 4.26957 4.19602 4.26957 4.40002C4.26717 4.60642 4.40877 4.74082 4.64877 4.75042C4.91517 4.76002 5.18157 4.74322 5.44557 4.76962C6.00237 4.82722 6.40557 5.28562 6.40317 5.83522C6.40077 6.38242 5.99517 6.82642 5.43597 6.89362C5.40717 6.89362 5.38077 6.90082 5.33037 6.91042Z" fill="#8A92A6"/>
</svg>
