<svg width="24" height="25" viewBox="0 0 24 25" fill="none" xmlns="http://www.w3.org/2000/svg">
<mask id="path-1-outside-1_189_5365" maskUnits="userSpaceOnUse" x="0.312988" y="0.800812" width="23" height="23" fill="black">
<rect fill="white" x="0.312988" y="0.800812" width="23" height="23"/>
<path d="M13.169 1.80561C13.2482 1.92321 13.349 2.03361 13.4018 2.16081C13.5722 2.57121 13.7258 2.98881 13.8794 3.40401C13.9226 3.52401 13.9826 3.59121 14.1194 3.62241C15.0746 3.84561 15.965 4.22241 16.8026 4.73121C16.8698 4.77201 16.9874 4.77681 17.0618 4.74561C17.4986 4.56321 17.9306 4.37601 18.3578 4.17201C18.5714 4.07121 18.7346 4.09521 18.9002 4.26561C19.3394 4.71441 19.781 5.15601 20.2298 5.59521C20.3978 5.75841 20.4266 5.92161 20.3258 6.13761C20.1266 6.55761 19.9514 6.98961 19.7546 7.41201C19.7018 7.52481 19.6994 7.60881 19.7666 7.71681C20.2802 8.53521 20.6498 9.41601 20.8658 10.3592C20.8994 10.508 20.9738 10.5752 21.1106 10.6256C21.5402 10.7816 21.965 10.9592 22.3946 11.1152C22.6082 11.192 22.697 11.324 22.6946 11.5544C22.685 12.188 22.685 12.8216 22.6946 13.4552C22.697 13.676 22.6106 13.8056 22.4066 13.88C21.9698 14.0408 21.5402 14.216 21.1034 14.3768C20.9762 14.4248 20.9018 14.4872 20.8706 14.6288C20.6522 15.5768 20.2802 16.4648 19.7642 17.2904C19.6994 17.3936 19.7042 17.4704 19.7522 17.576C19.949 18.0056 20.1314 18.4424 20.3306 18.8696C20.4266 19.076 20.4002 19.2368 20.2394 19.3952C19.7882 19.8392 19.3394 20.288 18.8954 20.7392C18.737 20.9 18.5762 20.9288 18.3698 20.8304C17.9354 20.6264 17.4986 20.4344 17.057 20.2472C16.9898 20.2184 16.877 20.2232 16.817 20.2616C15.9674 20.78 15.0602 21.152 14.0978 21.3944C14.021 21.4136 13.9346 21.4952 13.9034 21.5672C13.721 22.0112 13.5506 22.4576 13.385 22.9064C13.3106 23.1104 13.181 23.1968 12.9602 23.1944C12.3194 23.1872 11.6786 23.1872 11.0402 23.1944C10.829 23.1968 10.7018 23.1104 10.6298 22.916C10.4642 22.4744 10.2914 22.0352 10.1258 21.5936C10.0802 21.4736 10.0202 21.404 9.88579 21.3728C8.93059 21.152 8.03779 20.7752 7.20259 20.264C7.13779 20.2232 7.01779 20.2232 6.94339 20.2544C6.50659 20.4344 6.07459 20.624 5.64739 20.8256C5.43379 20.9264 5.27059 20.9 5.10499 20.7296C4.67299 20.2856 4.23139 19.8512 3.79219 19.412C3.58099 19.1984 3.56659 19.1216 3.69139 18.8384C3.87619 18.4184 4.05619 17.9984 4.25059 17.5832C4.30339 17.4704 4.30339 17.3864 4.23619 17.2784C3.72259 16.46 3.35539 15.5792 3.13699 14.636C3.10579 14.4992 3.04579 14.4224 2.91139 14.3744C2.49379 14.2232 2.07859 14.0672 1.66819 13.8968C1.53859 13.844 1.43059 13.7432 1.31299 13.664C1.31299 12.884 1.31299 12.104 1.31299 11.324C1.43059 11.2448 1.53859 11.144 1.66819 11.0912C2.08579 10.9184 2.50819 10.7624 2.93059 10.6064C3.04579 10.5632 3.10339 10.4984 3.13219 10.376C3.35539 9.42321 3.72979 8.53041 4.23859 7.69521C4.27939 7.62801 4.28659 7.50801 4.25539 7.43601C4.06819 6.98721 3.86899 6.54561 3.66499 6.10401C3.57859 5.91441 3.60499 5.76081 3.75379 5.61441C4.21459 5.16081 4.67059 4.70241 5.12659 4.24161C5.27299 4.09281 5.42659 4.06641 5.61619 4.15281C6.05779 4.35441 6.49939 4.55361 6.94819 4.74081C7.02019 4.77201 7.14019 4.76481 7.20739 4.72641C8.04259 4.21521 8.93539 3.84081 9.88819 3.62001C10.013 3.59121 10.0754 3.53361 10.1186 3.41841C10.2746 2.99601 10.433 2.57361 10.6034 2.15601C10.6562 2.02641 10.757 1.91841 10.8362 1.80081C11.609 1.80561 12.389 1.80561 13.169 1.80561ZM18.5066 20.1488C18.545 20.1152 18.593 20.0792 18.6362 20.036C18.9362 19.736 19.2338 19.4312 19.5386 19.1384C19.6274 19.052 19.6442 18.9848 19.5914 18.8696C19.4042 18.4664 19.2362 18.0536 19.0442 17.6528C18.9458 17.4464 18.965 17.276 19.0898 17.0888C19.6586 16.2272 20.0474 15.2864 20.2586 14.2784C20.309 14.036 20.4266 13.9064 20.6546 13.8272C21.0674 13.6832 21.4706 13.5128 21.881 13.3592C21.9866 13.3208 22.0322 13.2704 22.0298 13.1504C22.0226 12.7184 22.0202 12.2864 22.0298 11.8568C22.0322 11.7248 21.9794 11.6744 21.869 11.6336C21.4394 11.4752 21.0146 11.3048 20.585 11.1464C20.4098 11.0816 20.3138 10.9712 20.2754 10.7888C20.0642 9.74241 19.6634 8.77281 19.0754 7.88001C18.965 7.71201 18.953 7.55361 19.037 7.37121C19.2266 6.96081 19.4018 6.54561 19.5914 6.13521C19.6418 6.02721 19.6442 5.95521 19.5482 5.86641C19.2362 5.56881 18.9314 5.26161 18.6338 4.95201C18.5522 4.86561 18.4874 4.85601 18.3818 4.90641C17.9858 5.08881 17.5778 5.25441 17.1866 5.44641C16.9586 5.55681 16.7738 5.53281 16.5674 5.39601C15.7058 4.82721 14.7626 4.44561 13.7522 4.23681C13.5458 4.19361 13.4186 4.09521 13.349 3.89841C13.193 3.47361 13.025 3.05601 12.869 2.63361C12.8258 2.51841 12.773 2.47281 12.6434 2.47521C12.2186 2.48481 11.7938 2.48481 11.369 2.47521C11.2298 2.47281 11.177 2.52801 11.1314 2.64801C10.9754 3.07041 10.8074 3.49041 10.6514 3.91281C10.5842 4.09281 10.469 4.19361 10.2794 4.23201C9.24019 4.44561 8.27539 4.83921 7.39219 5.42721C7.21699 5.54241 7.05379 5.55441 6.86419 5.46561C6.46099 5.27601 6.05059 5.10561 5.64739 4.91841C5.52979 4.86321 5.45539 4.86561 5.36179 4.96641C5.06899 5.27361 4.76659 5.57361 4.46179 5.86881C4.37299 5.95281 4.35619 6.02241 4.40899 6.13761C4.59619 6.54081 4.76419 6.95121 4.95619 7.35441C5.05459 7.56081 5.03539 7.73121 4.91059 7.91841C4.33459 8.79201 3.94339 9.74481 3.73219 10.7696C3.69139 10.9688 3.59299 11.0912 3.40579 11.1608C2.98339 11.3168 2.56339 11.4848 2.14099 11.6408C2.01859 11.6864 1.97059 11.744 1.97299 11.8808C1.98259 12.2912 1.98259 12.7016 1.97299 13.112C1.97059 13.2584 2.00899 13.3328 2.15299 13.3856C2.57779 13.5368 2.99539 13.7096 3.41779 13.8656C3.59299 13.9304 3.68899 14.0408 3.72499 14.2232C3.93619 15.2696 4.33699 16.2416 4.92739 17.132C5.03779 17.3 5.04979 17.4584 4.96579 17.6408C4.77859 18.044 4.60819 18.4544 4.41859 18.8576C4.35859 18.9848 4.36099 19.0616 4.46899 19.1624C4.77139 19.448 5.06659 19.7456 5.35459 20.048C5.44579 20.144 5.52019 20.1584 5.64019 20.1032C6.02899 19.9208 6.42979 19.76 6.81619 19.5704C7.03459 19.4648 7.21459 19.472 7.41859 19.6088C8.27779 20.18 9.22099 20.564 10.229 20.7752C10.4642 20.8256 10.589 20.9384 10.6682 21.1592C10.8146 21.572 10.9826 21.9752 11.1338 22.3856C11.177 22.5008 11.2322 22.5464 11.3594 22.544C11.7842 22.5344 12.209 22.5344 12.6338 22.544C12.773 22.5464 12.8258 22.4912 12.8714 22.3712C13.0274 21.9488 13.1954 21.5288 13.3514 21.1064C13.4186 20.9264 13.5314 20.8256 13.7234 20.7872C14.7626 20.5784 15.7274 20.1776 16.613 19.5944C16.7882 19.4792 16.949 19.4648 17.1386 19.5536C17.5418 19.7408 17.9498 19.916 18.3554 20.096C18.3986 20.0984 18.4442 20.12 18.5066 20.1488Z"/>
</mask>
<path d="M13.169 1.80561C13.2482 1.92321 13.349 2.03361 13.4018 2.16081C13.5722 2.57121 13.7258 2.98881 13.8794 3.40401C13.9226 3.52401 13.9826 3.59121 14.1194 3.62241C15.0746 3.84561 15.965 4.22241 16.8026 4.73121C16.8698 4.77201 16.9874 4.77681 17.0618 4.74561C17.4986 4.56321 17.9306 4.37601 18.3578 4.17201C18.5714 4.07121 18.7346 4.09521 18.9002 4.26561C19.3394 4.71441 19.781 5.15601 20.2298 5.59521C20.3978 5.75841 20.4266 5.92161 20.3258 6.13761C20.1266 6.55761 19.9514 6.98961 19.7546 7.41201C19.7018 7.52481 19.6994 7.60881 19.7666 7.71681C20.2802 8.53521 20.6498 9.41601 20.8658 10.3592C20.8994 10.508 20.9738 10.5752 21.1106 10.6256C21.5402 10.7816 21.965 10.9592 22.3946 11.1152C22.6082 11.192 22.697 11.324 22.6946 11.5544C22.685 12.188 22.685 12.8216 22.6946 13.4552C22.697 13.676 22.6106 13.8056 22.4066 13.88C21.9698 14.0408 21.5402 14.216 21.1034 14.3768C20.9762 14.4248 20.9018 14.4872 20.8706 14.6288C20.6522 15.5768 20.2802 16.4648 19.7642 17.2904C19.6994 17.3936 19.7042 17.4704 19.7522 17.576C19.949 18.0056 20.1314 18.4424 20.3306 18.8696C20.4266 19.076 20.4002 19.2368 20.2394 19.3952C19.7882 19.8392 19.3394 20.288 18.8954 20.7392C18.737 20.9 18.5762 20.9288 18.3698 20.8304C17.9354 20.6264 17.4986 20.4344 17.057 20.2472C16.9898 20.2184 16.877 20.2232 16.817 20.2616C15.9674 20.78 15.0602 21.152 14.0978 21.3944C14.021 21.4136 13.9346 21.4952 13.9034 21.5672C13.721 22.0112 13.5506 22.4576 13.385 22.9064C13.3106 23.1104 13.181 23.1968 12.9602 23.1944C12.3194 23.1872 11.6786 23.1872 11.0402 23.1944C10.829 23.1968 10.7018 23.1104 10.6298 22.916C10.4642 22.4744 10.2914 22.0352 10.1258 21.5936C10.0802 21.4736 10.0202 21.404 9.88579 21.3728C8.93059 21.152 8.03779 20.7752 7.20259 20.264C7.13779 20.2232 7.01779 20.2232 6.94339 20.2544C6.50659 20.4344 6.07459 20.624 5.64739 20.8256C5.43379 20.9264 5.27059 20.9 5.10499 20.7296C4.67299 20.2856 4.23139 19.8512 3.79219 19.412C3.58099 19.1984 3.56659 19.1216 3.69139 18.8384C3.87619 18.4184 4.05619 17.9984 4.25059 17.5832C4.30339 17.4704 4.30339 17.3864 4.23619 17.2784C3.72259 16.46 3.35539 15.5792 3.13699 14.636C3.10579 14.4992 3.04579 14.4224 2.91139 14.3744C2.49379 14.2232 2.07859 14.0672 1.66819 13.8968C1.53859 13.844 1.43059 13.7432 1.31299 13.664C1.31299 12.884 1.31299 12.104 1.31299 11.324C1.43059 11.2448 1.53859 11.144 1.66819 11.0912C2.08579 10.9184 2.50819 10.7624 2.93059 10.6064C3.04579 10.5632 3.10339 10.4984 3.13219 10.376C3.35539 9.42321 3.72979 8.53041 4.23859 7.69521C4.27939 7.62801 4.28659 7.50801 4.25539 7.43601C4.06819 6.98721 3.86899 6.54561 3.66499 6.10401C3.57859 5.91441 3.60499 5.76081 3.75379 5.61441C4.21459 5.16081 4.67059 4.70241 5.12659 4.24161C5.27299 4.09281 5.42659 4.06641 5.61619 4.15281C6.05779 4.35441 6.49939 4.55361 6.94819 4.74081C7.02019 4.77201 7.14019 4.76481 7.20739 4.72641C8.04259 4.21521 8.93539 3.84081 9.88819 3.62001C10.013 3.59121 10.0754 3.53361 10.1186 3.41841C10.2746 2.99601 10.433 2.57361 10.6034 2.15601C10.6562 2.02641 10.757 1.91841 10.8362 1.80081C11.609 1.80561 12.389 1.80561 13.169 1.80561ZM18.5066 20.1488C18.545 20.1152 18.593 20.0792 18.6362 20.036C18.9362 19.736 19.2338 19.4312 19.5386 19.1384C19.6274 19.052 19.6442 18.9848 19.5914 18.8696C19.4042 18.4664 19.2362 18.0536 19.0442 17.6528C18.9458 17.4464 18.965 17.276 19.0898 17.0888C19.6586 16.2272 20.0474 15.2864 20.2586 14.2784C20.309 14.036 20.4266 13.9064 20.6546 13.8272C21.0674 13.6832 21.4706 13.5128 21.881 13.3592C21.9866 13.3208 22.0322 13.2704 22.0298 13.1504C22.0226 12.7184 22.0202 12.2864 22.0298 11.8568C22.0322 11.7248 21.9794 11.6744 21.869 11.6336C21.4394 11.4752 21.0146 11.3048 20.585 11.1464C20.4098 11.0816 20.3138 10.9712 20.2754 10.7888C20.0642 9.74241 19.6634 8.77281 19.0754 7.88001C18.965 7.71201 18.953 7.55361 19.037 7.37121C19.2266 6.96081 19.4018 6.54561 19.5914 6.13521C19.6418 6.02721 19.6442 5.95521 19.5482 5.86641C19.2362 5.56881 18.9314 5.26161 18.6338 4.95201C18.5522 4.86561 18.4874 4.85601 18.3818 4.90641C17.9858 5.08881 17.5778 5.25441 17.1866 5.44641C16.9586 5.55681 16.7738 5.53281 16.5674 5.39601C15.7058 4.82721 14.7626 4.44561 13.7522 4.23681C13.5458 4.19361 13.4186 4.09521 13.349 3.89841C13.193 3.47361 13.025 3.05601 12.869 2.63361C12.8258 2.51841 12.773 2.47281 12.6434 2.47521C12.2186 2.48481 11.7938 2.48481 11.369 2.47521C11.2298 2.47281 11.177 2.52801 11.1314 2.64801C10.9754 3.07041 10.8074 3.49041 10.6514 3.91281C10.5842 4.09281 10.469 4.19361 10.2794 4.23201C9.24019 4.44561 8.27539 4.83921 7.39219 5.42721C7.21699 5.54241 7.05379 5.55441 6.86419 5.46561C6.46099 5.27601 6.05059 5.10561 5.64739 4.91841C5.52979 4.86321 5.45539 4.86561 5.36179 4.96641C5.06899 5.27361 4.76659 5.57361 4.46179 5.86881C4.37299 5.95281 4.35619 6.02241 4.40899 6.13761C4.59619 6.54081 4.76419 6.95121 4.95619 7.35441C5.05459 7.56081 5.03539 7.73121 4.91059 7.91841C4.33459 8.79201 3.94339 9.74481 3.73219 10.7696C3.69139 10.9688 3.59299 11.0912 3.40579 11.1608C2.98339 11.3168 2.56339 11.4848 2.14099 11.6408C2.01859 11.6864 1.97059 11.744 1.97299 11.8808C1.98259 12.2912 1.98259 12.7016 1.97299 13.112C1.97059 13.2584 2.00899 13.3328 2.15299 13.3856C2.57779 13.5368 2.99539 13.7096 3.41779 13.8656C3.59299 13.9304 3.68899 14.0408 3.72499 14.2232C3.93619 15.2696 4.33699 16.2416 4.92739 17.132C5.03779 17.3 5.04979 17.4584 4.96579 17.6408C4.77859 18.044 4.60819 18.4544 4.41859 18.8576C4.35859 18.9848 4.36099 19.0616 4.46899 19.1624C4.77139 19.448 5.06659 19.7456 5.35459 20.048C5.44579 20.144 5.52019 20.1584 5.64019 20.1032C6.02899 19.9208 6.42979 19.76 6.81619 19.5704C7.03459 19.4648 7.21459 19.472 7.41859 19.6088C8.27779 20.18 9.22099 20.564 10.229 20.7752C10.4642 20.8256 10.589 20.9384 10.6682 21.1592C10.8146 21.572 10.9826 21.9752 11.1338 22.3856C11.177 22.5008 11.2322 22.5464 11.3594 22.544C11.7842 22.5344 12.209 22.5344 12.6338 22.544C12.773 22.5464 12.8258 22.4912 12.8714 22.3712C13.0274 21.9488 13.1954 21.5288 13.3514 21.1064C13.4186 20.9264 13.5314 20.8256 13.7234 20.7872C14.7626 20.5784 15.7274 20.1776 16.613 19.5944C16.7882 19.4792 16.949 19.4648 17.1386 19.5536C17.5418 19.7408 17.9498 19.916 18.3554 20.096C18.3986 20.0984 18.4442 20.12 18.5066 20.1488Z" fill="#8A92A6"/>
<path d="M13.169 1.80561C13.2482 1.92321 13.349 2.03361 13.4018 2.16081C13.5722 2.57121 13.7258 2.98881 13.8794 3.40401C13.9226 3.52401 13.9826 3.59121 14.1194 3.62241C15.0746 3.84561 15.965 4.22241 16.8026 4.73121C16.8698 4.77201 16.9874 4.77681 17.0618 4.74561C17.4986 4.56321 17.9306 4.37601 18.3578 4.17201C18.5714 4.07121 18.7346 4.09521 18.9002 4.26561C19.3394 4.71441 19.781 5.15601 20.2298 5.59521C20.3978 5.75841 20.4266 5.92161 20.3258 6.13761C20.1266 6.55761 19.9514 6.98961 19.7546 7.41201C19.7018 7.52481 19.6994 7.60881 19.7666 7.71681C20.2802 8.53521 20.6498 9.41601 20.8658 10.3592C20.8994 10.508 20.9738 10.5752 21.1106 10.6256C21.5402 10.7816 21.965 10.9592 22.3946 11.1152C22.6082 11.192 22.697 11.324 22.6946 11.5544C22.685 12.188 22.685 12.8216 22.6946 13.4552C22.697 13.676 22.6106 13.8056 22.4066 13.88C21.9698 14.0408 21.5402 14.216 21.1034 14.3768C20.9762 14.4248 20.9018 14.4872 20.8706 14.6288C20.6522 15.5768 20.2802 16.4648 19.7642 17.2904C19.6994 17.3936 19.7042 17.4704 19.7522 17.576C19.949 18.0056 20.1314 18.4424 20.3306 18.8696C20.4266 19.076 20.4002 19.2368 20.2394 19.3952C19.7882 19.8392 19.3394 20.288 18.8954 20.7392C18.737 20.9 18.5762 20.9288 18.3698 20.8304C17.9354 20.6264 17.4986 20.4344 17.057 20.2472C16.9898 20.2184 16.877 20.2232 16.817 20.2616C15.9674 20.78 15.0602 21.152 14.0978 21.3944C14.021 21.4136 13.9346 21.4952 13.9034 21.5672C13.721 22.0112 13.5506 22.4576 13.385 22.9064C13.3106 23.1104 13.181 23.1968 12.9602 23.1944C12.3194 23.1872 11.6786 23.1872 11.0402 23.1944C10.829 23.1968 10.7018 23.1104 10.6298 22.916C10.4642 22.4744 10.2914 22.0352 10.1258 21.5936C10.0802 21.4736 10.0202 21.404 9.88579 21.3728C8.93059 21.152 8.03779 20.7752 7.20259 20.264C7.13779 20.2232 7.01779 20.2232 6.94339 20.2544C6.50659 20.4344 6.07459 20.624 5.64739 20.8256C5.43379 20.9264 5.27059 20.9 5.10499 20.7296C4.67299 20.2856 4.23139 19.8512 3.79219 19.412C3.58099 19.1984 3.56659 19.1216 3.69139 18.8384C3.87619 18.4184 4.05619 17.9984 4.25059 17.5832C4.30339 17.4704 4.30339 17.3864 4.23619 17.2784C3.72259 16.46 3.35539 15.5792 3.13699 14.636C3.10579 14.4992 3.04579 14.4224 2.91139 14.3744C2.49379 14.2232 2.07859 14.0672 1.66819 13.8968C1.53859 13.844 1.43059 13.7432 1.31299 13.664C1.31299 12.884 1.31299 12.104 1.31299 11.324C1.43059 11.2448 1.53859 11.144 1.66819 11.0912C2.08579 10.9184 2.50819 10.7624 2.93059 10.6064C3.04579 10.5632 3.10339 10.4984 3.13219 10.376C3.35539 9.42321 3.72979 8.53041 4.23859 7.69521C4.27939 7.62801 4.28659 7.50801 4.25539 7.43601C4.06819 6.98721 3.86899 6.54561 3.66499 6.10401C3.57859 5.91441 3.60499 5.76081 3.75379 5.61441C4.21459 5.16081 4.67059 4.70241 5.12659 4.24161C5.27299 4.09281 5.42659 4.06641 5.61619 4.15281C6.05779 4.35441 6.49939 4.55361 6.94819 4.74081C7.02019 4.77201 7.14019 4.76481 7.20739 4.72641C8.04259 4.21521 8.93539 3.84081 9.88819 3.62001C10.013 3.59121 10.0754 3.53361 10.1186 3.41841C10.2746 2.99601 10.433 2.57361 10.6034 2.15601C10.6562 2.02641 10.757 1.91841 10.8362 1.80081C11.609 1.80561 12.389 1.80561 13.169 1.80561ZM18.5066 20.1488C18.545 20.1152 18.593 20.0792 18.6362 20.036C18.9362 19.736 19.2338 19.4312 19.5386 19.1384C19.6274 19.052 19.6442 18.9848 19.5914 18.8696C19.4042 18.4664 19.2362 18.0536 19.0442 17.6528C18.9458 17.4464 18.965 17.276 19.0898 17.0888C19.6586 16.2272 20.0474 15.2864 20.2586 14.2784C20.309 14.036 20.4266 13.9064 20.6546 13.8272C21.0674 13.6832 21.4706 13.5128 21.881 13.3592C21.9866 13.3208 22.0322 13.2704 22.0298 13.1504C22.0226 12.7184 22.0202 12.2864 22.0298 11.8568C22.0322 11.7248 21.9794 11.6744 21.869 11.6336C21.4394 11.4752 21.0146 11.3048 20.585 11.1464C20.4098 11.0816 20.3138 10.9712 20.2754 10.7888C20.0642 9.74241 19.6634 8.77281 19.0754 7.88001C18.965 7.71201 18.953 7.55361 19.037 7.37121C19.2266 6.96081 19.4018 6.54561 19.5914 6.13521C19.6418 6.02721 19.6442 5.95521 19.5482 5.86641C19.2362 5.56881 18.9314 5.26161 18.6338 4.95201C18.5522 4.86561 18.4874 4.85601 18.3818 4.90641C17.9858 5.08881 17.5778 5.25441 17.1866 5.44641C16.9586 5.55681 16.7738 5.53281 16.5674 5.39601C15.7058 4.82721 14.7626 4.44561 13.7522 4.23681C13.5458 4.19361 13.4186 4.09521 13.349 3.89841C13.193 3.47361 13.025 3.05601 12.869 2.63361C12.8258 2.51841 12.773 2.47281 12.6434 2.47521C12.2186 2.48481 11.7938 2.48481 11.369 2.47521C11.2298 2.47281 11.177 2.52801 11.1314 2.64801C10.9754 3.07041 10.8074 3.49041 10.6514 3.91281C10.5842 4.09281 10.469 4.19361 10.2794 4.23201C9.24019 4.44561 8.27539 4.83921 7.39219 5.42721C7.21699 5.54241 7.05379 5.55441 6.86419 5.46561C6.46099 5.27601 6.05059 5.10561 5.64739 4.91841C5.52979 4.86321 5.45539 4.86561 5.36179 4.96641C5.06899 5.27361 4.76659 5.57361 4.46179 5.86881C4.37299 5.95281 4.35619 6.02241 4.40899 6.13761C4.59619 6.54081 4.76419 6.95121 4.95619 7.35441C5.05459 7.56081 5.03539 7.73121 4.91059 7.91841C4.33459 8.79201 3.94339 9.74481 3.73219 10.7696C3.69139 10.9688 3.59299 11.0912 3.40579 11.1608C2.98339 11.3168 2.56339 11.4848 2.14099 11.6408C2.01859 11.6864 1.97059 11.744 1.97299 11.8808C1.98259 12.2912 1.98259 12.7016 1.97299 13.112C1.97059 13.2584 2.00899 13.3328 2.15299 13.3856C2.57779 13.5368 2.99539 13.7096 3.41779 13.8656C3.59299 13.9304 3.68899 14.0408 3.72499 14.2232C3.93619 15.2696 4.33699 16.2416 4.92739 17.132C5.03779 17.3 5.04979 17.4584 4.96579 17.6408C4.77859 18.044 4.60819 18.4544 4.41859 18.8576C4.35859 18.9848 4.36099 19.0616 4.46899 19.1624C4.77139 19.448 5.06659 19.7456 5.35459 20.048C5.44579 20.144 5.52019 20.1584 5.64019 20.1032C6.02899 19.9208 6.42979 19.76 6.81619 19.5704C7.03459 19.4648 7.21459 19.472 7.41859 19.6088C8.27779 20.18 9.22099 20.564 10.229 20.7752C10.4642 20.8256 10.589 20.9384 10.6682 21.1592C10.8146 21.572 10.9826 21.9752 11.1338 22.3856C11.177 22.5008 11.2322 22.5464 11.3594 22.544C11.7842 22.5344 12.209 22.5344 12.6338 22.544C12.773 22.5464 12.8258 22.4912 12.8714 22.3712C13.0274 21.9488 13.1954 21.5288 13.3514 21.1064C13.4186 20.9264 13.5314 20.8256 13.7234 20.7872C14.7626 20.5784 15.7274 20.1776 16.613 19.5944C16.7882 19.4792 16.949 19.4648 17.1386 19.5536C17.5418 19.7408 17.9498 19.916 18.3554 20.096C18.3986 20.0984 18.4442 20.12 18.5066 20.1488Z" stroke="#8A92A6" stroke-width="0.2" mask="url(#path-1-outside-1_189_5365)"/>
<path d="M12.0073 6.10681C8.49963 6.09956 5.61887 8.96832 5.60678 12.4806C5.59468 15.9955 8.47308 18.886 11.9903 18.8932H11.9903L18.3408 12.5192L18.3908 12.5194C18.4053 9.0021 15.5245 6.11167 12.0073 6.10681ZM12.0073 6.10681L12.0072 6.15681L12.0072 6.10681C12.0073 6.10681 12.0073 6.10681 12.0073 6.10681ZM11.9977 18.1116H11.9976C8.90532 18.1092 6.40978 15.6164 6.38597 12.5117C6.36457 9.43171 8.88349 6.90267 11.9906 6.88601C15.0755 6.86936 17.6044 9.39314 17.6116 12.4953C17.6187 15.5852 15.09 18.1164 11.9977 18.1116Z" fill="#8A92A6" stroke="#8A92A6" stroke-width="0.1"/>
<path d="M15.6482 12.812C16.073 12.7688 16.373 12.5024 16.481 12.104C16.5818 11.7296 16.4426 11.3408 16.1042 11.0936L15.6482 12.812ZM15.6482 12.812C15.5497 12.8217 15.449 12.8075 15.3395 12.792C15.3018 12.7867 15.263 12.7812 15.223 12.7765L15.6482 12.812ZM8.34739 12.812L8.34272 12.8618C8.42495 12.8695 8.50661 12.863 8.58699 12.8529C8.61937 12.8489 8.65077 12.8444 8.68201 12.8399C8.71288 12.8355 8.7436 12.8311 8.77499 12.8272V12.8318V12.8369V12.8419V12.847V12.852V12.8571V12.8621V12.8672V12.8722V12.8773V12.8823V12.8874V12.8924V12.8975V12.9025V12.9076V12.9126V12.9176V12.9227V12.9278V12.9328V12.9378V12.9429V12.948V12.953V12.9581V12.9631V12.9682V12.9732V12.9783V12.9833V12.9884V12.9934V12.9985V13.0035V13.0086V13.0136V13.0187V13.0237V13.0288V13.0338V13.0389V13.0439V13.049V13.054V13.0591V13.0641V13.0692V13.0742V13.0793V13.0843V13.0894V13.0944V13.0995V13.1045V13.1096V13.1146V13.1197V13.1247V13.1298V13.1348V13.1399V13.1449V13.15V13.155V13.1601V13.1652V13.1702V13.1753V13.1803V13.1854V13.1904V13.1955V13.2005V13.2056V13.2106V13.2157V13.2207V13.2258V13.2308V13.2359V13.2409V13.246V13.251V13.2561V13.2611V13.2662V13.2713V13.2763V13.2814V13.2864V13.2915V13.2965V13.3016V13.3066V13.3117V13.3167V13.3218V13.3268V13.3319V13.3369V13.342V13.347V13.3521V13.3572V13.3622V13.3673V13.3723V13.3774V13.3824V13.3875V13.3925V13.3976V13.4026V13.4077V13.4127V13.4178V13.4229V13.4279V13.433V13.438V13.4431V13.4481V13.4532V13.4582V13.4633V13.4683V13.4734V13.4784V13.4835V13.4886V13.4936V13.4987V13.5037V13.5088V13.5138V13.5189V13.5239V13.529V13.534V13.5391V13.5441V13.5492V13.5543V13.5593V13.5644V13.5694V13.5745V13.5795V13.5846V13.5896V13.5947V13.5997V13.6048V13.6099V13.6149V13.62V13.625V13.6301V13.6351V13.6402V13.6452V13.6503V13.6553V13.6604V13.6655V13.6705V13.6756V13.6806V13.6857V13.6907V13.6958V13.7008V13.7059V13.711V13.716V13.7211V13.7261V13.7312V13.7362V13.7413V13.7463V13.7514V13.7564V13.7615V13.7666V13.7716V13.7767V13.7817V13.7868V13.7918V13.7969V13.8019V13.807V13.8121V13.8171V13.8222V13.8272V13.8323V13.8373V13.8424V13.8474V13.8525V13.8576V13.8626V13.8677V13.8727V13.8778V13.8828V13.8879V13.8929V13.898V13.903V13.9081V13.9132V13.9182V13.9233V13.9283V13.9334V13.9384V13.9435V13.9485V13.9536V13.9587V13.9637V13.9688V13.9738V13.9789V13.9839V13.989V13.994V13.9991V14.0042V14.0092V14.0143V14.0193V14.0244V14.0294V14.0345V14.0395V14.0446V14.0497V14.0547V14.0598V14.0648V14.0699V14.0749V14.08V14.085V14.0901V14.0952V14.1002V14.1053V14.1103V14.1154V14.1204V14.1255V14.1305V14.1356V14.1407V14.1457V14.1508V14.1558V14.1609V14.1659V14.171V14.176V14.1811V14.1862V14.1912V14.1963V14.2013V14.2064V14.2114V14.2165V14.2215V14.2266V14.2317V14.2367V14.2418V14.2468V14.2519V14.2569V14.262V14.267V14.2721V14.2771V14.2822V14.2873V14.2923V14.2974V14.3024V14.3075V14.3125V14.3176V14.3226V14.3277V14.3328V14.3378V14.3429V14.3479V14.353V14.358V14.3631V14.3681V14.3732V14.3783V14.3833V14.3884V14.3934V14.3985V14.4035V14.4086V14.4136V14.4187V14.4237V14.4288V14.4339V14.4389V14.444V14.449V14.4541V14.4591V14.4642V14.4692V14.4743V14.4794V14.4844V14.4895V14.4945V14.4996V14.5046V14.5097V14.5147V14.5198V14.5248V14.5299V14.535V14.54V14.5451V14.5501V14.5552V14.5602V14.5653V14.5703V14.5754V14.5804V14.5855V14.5906V14.5956V14.6007V14.6057V14.6108V14.6158V14.6209V14.6259V14.631V14.636V14.6411V14.6461V14.6512V14.6563V14.6613V14.6664V14.6714V14.6765V14.6815V14.6866V14.6916V14.6967V14.7017V14.7068V14.7118V14.7169V14.722V14.727V14.7321V14.7371V14.7422V14.7472V14.7523V14.7573V14.7624V14.7674V14.7725V14.7775V14.7826V14.7877V14.7927V14.7978V14.8028V14.8079V14.8129V14.818V14.823V14.8281V14.8331V14.8382V14.8432V14.8483V14.8533V14.8584V14.8634V14.8685V14.8736V14.8786V14.8837V14.8887V14.8938V14.8988V14.9039V14.9089V14.914V14.919V14.9241V14.9291V14.9342V14.9392V14.9443V14.9493V14.9544V14.9594V14.9645V14.9695V14.9746V14.9797V14.9847V14.9898V14.9948V14.9999V15.0049V15.01V15.015V15.0201V15.0251V15.0302V15.0352V15.0403V15.0453V15.0504V15.0554V15.0605V15.0655V15.0706V15.0756V15.0807V15.0857V15.0908V15.0958V15.1009V15.1059V15.111V15.116V15.1211V15.1261V15.1312V15.1362V15.1413V15.1463V15.1514V15.1564V15.1615V15.1665V15.1716V15.1766V15.1817V15.1867V15.1918V15.1968V15.2019V15.2069V15.212V15.217V15.2221V15.2271V15.2322V15.2372V15.2423V15.2473V15.2524V15.2574V15.2625V15.2675V15.2726V15.2776V15.2827V15.2877V15.2928V15.2978V15.3029V15.3079V15.313V15.318V15.3231V15.3281V15.3332V15.3382V15.3433V15.3483V15.3534V15.3584C8.77499 15.7733 8.90447 16.1152 9.14305 16.3535C9.38163 16.5918 9.72412 16.7212 10.1402 16.7212C10.5042 16.7212 10.8678 16.7195 11.2311 16.7178C12.0929 16.7138 12.953 16.7099 13.8135 16.7284L13.8136 16.7284C14.6603 16.7458 15.2625 16.12 15.2301 15.3132M8.34739 12.812L8.34286 12.8618C7.89857 12.8214 7.57951 12.5346 7.46633 12.1171L7.4663 12.117C7.35984 11.7216 7.50774 11.312 7.85934 11.0534C8.31205 10.7201 8.76878 10.3894 9.22438 10.0595C9.38247 9.94505 9.54042 9.83069 9.69802 9.71635L9.69805 9.71633C9.96798 9.52078 10.2379 9.32463 10.5079 9.12846L10.508 9.12837C10.778 8.93218 11.048 8.73596 11.3181 8.54033L11.3181 8.54028C11.5557 8.3688 11.7753 8.27884 11.9983 8.27852C12.2214 8.2782 12.4398 8.36757 12.6751 8.53792L12.6752 8.53798C13.0164 8.78608 13.3579 9.03419 13.6994 9.28236C14.5109 9.872 15.3229 10.462 16.1336 11.0532L16.1337 11.0532C16.4878 11.3119 16.6358 11.7215 16.5293 12.117L16.5292 12.1171C16.416 12.535 16.0992 12.8164 15.6532 12.8618L15.6531 12.8618C15.5742 12.8695 15.4953 12.863 15.416 12.8529C15.3875 12.8493 15.3592 12.8453 15.3308 12.8413C15.2955 12.8363 15.2599 12.8313 15.2229 12.8269C15.2226 13.0681 15.2203 13.3091 15.218 13.55C15.2125 14.1385 15.2069 14.7261 15.2301 15.3132M8.34739 12.812C7.92499 12.7736 7.62259 12.5024 7.51459 12.104L8.77499 12.7768C8.74056 12.7811 8.70661 12.7859 8.67305 12.7907C8.56122 12.8067 8.45373 12.822 8.34739 12.812ZM15.2301 15.3132L15.1802 15.3152M15.2301 15.3132C15.2301 15.3132 15.2301 15.3132 15.2301 15.3132L15.1802 15.3152M15.1802 15.3152C15.2114 16.0928 14.633 16.6952 13.8146 16.6784L15.173 12.8214C15.1727 13.0635 15.1704 13.3058 15.1681 13.5481C15.1625 14.1372 15.1568 14.7268 15.1802 15.3152ZM14.4582 12.4375C14.4582 12.4374 14.4582 12.4373 14.4582 12.4373L14.5082 12.4376C14.5082 12.3104 14.4626 12.236 14.3642 12.1664L12.7293 11.0429C12.8787 11.1515 13.028 11.2603 13.1773 11.369C13.5624 11.6497 13.9476 11.9303 14.3351 12.2071L14.3353 12.2072C14.3807 12.2394 14.4104 12.2701 14.4292 12.3045C14.4479 12.3385 14.4582 12.3801 14.4582 12.4375ZM14.4582 12.4375C14.4537 13.0465 14.4539 13.6558 14.4541 14.2649C14.4542 14.6303 14.4543 14.9956 14.4534 15.3607V15.3608C14.4534 15.5633 14.4037 15.7042 14.3121 15.7955C14.2204 15.887 14.078 15.9373 13.874 15.9396M14.4582 12.4375L13.874 15.9396M13.874 15.9396C13.7293 15.9412 13.5849 15.9407 13.4313 15.9402C13.3664 15.94 13.2999 15.9397 13.231 15.9397C13.231 15.1706 13.231 14.4353 13.2334 13.6978V13.6976C13.2334 13.679 13.2334 13.6603 13.2335 13.6416C13.2338 13.5285 13.2341 13.4128 13.2236 13.2971L13.2235 13.2966C13.1878 12.9388 12.9013 12.634 12.5357 12.6157C12.1813 12.5964 11.8218 12.594 11.4667 12.6157L11.4666 12.6157C11.0537 12.6417 10.7768 12.9852 10.7742 13.4284C10.7742 13.4284 10.7742 13.4285 10.7742 13.4285L13.874 15.9396ZM13.1834 13.6976C13.1834 13.6788 13.1834 13.6599 13.1835 13.6411C13.1838 13.5279 13.1841 13.4148 13.1738 13.3016L13.1834 13.6976ZM13.1834 13.6976C13.181 14.4353 13.181 15.1706 13.181 15.9396L13.1834 13.6976ZM9.86453 15.8991L9.86474 15.8991C10.0807 15.9224 10.2985 15.9176 10.5252 15.9127C10.6061 15.9109 10.6882 15.9091 10.7718 15.9086L9.86453 15.8991ZM9.86453 15.8991C9.77865 15.8902 9.70172 15.8365 9.64458 15.7522C9.58747 15.6679 9.55291 15.5564 9.55178 15.442L9.86453 15.8991ZM12.4542 15.93H12.4558H12.4578H12.4598H12.4618H12.4638H12.4658H12.4678H12.4699H12.4719H12.4739H12.4759H12.4779H12.4799H12.482H12.484H12.486H12.488H12.49H12.492H12.4941H12.4961H12.4981H12.5001H12.5022H12.5042V15.98C12.5042 15.8367 12.5043 15.694 12.5043 15.5518C12.5047 14.8445 12.505 14.1507 12.497 13.4552C12.497 13.412 12.4106 13.3376 12.3602 13.3352L11.7146 13.3256L11.7112 13.3755C11.7113 13.3755 11.7114 13.3755 11.7115 13.3755C11.8202 13.3828 11.9297 13.3816 12.037 13.3804L12.0379 13.3804C12.1463 13.3792 12.2523 13.3781 12.3568 13.3851L12.3568 13.3851L12.3578 13.3852C12.3601 13.3853 12.3675 13.3868 12.3795 13.3932C12.3909 13.3991 12.4032 13.4077 12.4146 13.4176C12.4262 13.4276 12.4354 13.4379 12.4413 13.4467C12.4456 13.453 12.4467 13.4563 12.447 13.457M12.4542 15.93C12.4542 15.8034 12.4543 15.6773 12.4543 15.5517C12.4547 14.8448 12.455 14.1517 12.447 13.457M12.4542 15.93H12.4538H12.4518H12.4497H12.4477H12.4457H12.4437H12.4417H12.4397H12.4377H12.4357H12.4337H12.4317H12.4297H12.4277H12.4257H12.4237H12.4217H12.4197H12.4177H12.4157H12.4137H12.4117H12.4097H12.4077H12.4057H12.4037H12.4017H12.3997H12.3977H12.3957H12.3938H12.3918H12.3898H12.3878H12.3858H12.3838H12.3818H12.3798H12.3778H12.3758H12.3739H12.3719H12.3699H12.3679H12.3659H12.3639H12.362H12.36H12.358H12.356H12.354H12.352H12.3501H12.3481H12.3461H12.3441H12.3421H12.3402H12.3382H12.3362H12.3342H12.3323H12.3303H12.3283H12.3263H12.3244H12.3224H12.3204H12.3184H12.3165H12.3145H12.3125H12.3106H12.3086H12.3066H12.3046H12.3027H12.3007H12.2987H12.2968H12.2948H12.2928H12.2909H12.2889H12.2869H12.285H12.283H12.281H12.2791H12.2771H12.2752H12.2732H12.2712H12.2693H12.2673H12.2653H12.2634H12.2614H12.2595H12.2575H12.2555H12.2536H12.2516H12.2497H12.2477H12.2458H12.2438H12.2418H12.2399H12.2379H12.236H12.234H12.2321H12.2301H12.2282H12.2262H12.2243H12.2223H12.2204H12.2184H12.2165H12.2145H12.2126H12.2106H12.2087H12.2067H12.2048H12.2028H12.2009H12.1989H12.197H12.195H12.1931H12.1911H12.1892H12.1872H12.1853H12.1833H12.1814H12.1795H12.1775H12.1756H12.1736H12.1717H12.1697H12.1678H12.1658H12.1639H12.162H12.16H12.1581H12.1561H12.1542H12.1523H12.1503H12.1484H12.1464H12.1445H12.1426H12.1406H12.1387H12.1368H12.1348H12.1329H12.1309H12.129H12.1271H12.1251H12.1232H12.1213H12.1193H12.1174H12.1155H12.1135H12.1116H12.1097H12.1077H12.1058H12.1039H12.1019H12.1H12.0981H12.0961H12.0942H12.0923H12.0903H12.0884H12.0865H12.0845H12.0826H12.0807H12.0787H12.0768H12.0749H12.0729H12.071H12.0691H12.0672H12.0652H12.0633H12.0614H12.0594H12.0575H12.0556H12.0537H12.0517H12.0498H12.0479H12.046H12.044H12.0421H12.0402H12.0383H12.0363H12.0344H12.0325H12.0305H12.0286H12.0267H12.0248H12.0228H12.0209H12.019H12.0171H12.0152H12.0132H12.0113H12.0094H12.0075H12.0055H12.0036H12.0017H11.9998H11.9978H11.9959H11.994H11.9921H11.9901H11.9882H11.9863H11.9844H11.9825H11.9805H11.9786H11.9767H11.9748H11.9729H11.9709H11.969H11.9671H11.9652H11.9632H11.9613H11.9594H11.9575H11.9556H11.9536H11.9517H11.9498H11.9479H11.946H11.944H11.9421H11.9402H11.9383H11.9364H11.9344H11.9325H11.9306H11.9287H11.9268H11.9249H11.9229H11.921H11.9191H11.9172H11.9153H11.9133H11.9114H11.9095H11.9076H11.9057H11.9037H11.9018H11.8999H11.898H11.8961H11.8942H11.8922H11.8903H11.8884H11.8865H11.8846H11.8826H11.8807H11.8788H11.8769H11.875H11.873H11.8711H11.8692H11.8673H11.8654H11.8635H11.8615H11.8596H11.8577H11.8558H11.8539H11.8519H11.85H11.8481H11.8462H11.8443H11.8424H11.8404H11.8385H11.8366H11.8347H11.8328H11.8308H11.8289H11.827H11.8251H11.8232H11.8212H11.8193H11.8174H11.8155H11.8136H11.8116H11.8097H11.8078H11.8059H11.804H11.802H11.8001H11.7982H11.7963H11.7944H11.7924H11.7905H11.7886H11.7867H11.7848H11.7828H11.7809H11.779H11.7771H11.7752H11.7732H11.7713H11.7694H11.7675H11.7656H11.7636H11.7617H11.7598H11.7579H11.7559H11.754H11.7521H11.7502H11.7483H11.7463H11.7444H11.7425H11.7406H11.7386H11.7367H11.7348H11.7329H11.7309H11.729H11.7271H11.7252H11.7233H11.7213H11.7194H11.7175H11.7156H11.7136H11.7117H11.7098H11.7079H11.7059H11.704H11.7021H11.7001H11.6982H11.6963H11.6944H11.6924H11.6905H11.6886H11.6867H11.6847H11.6828H11.6809H11.6789H11.677H11.6751H11.6732H11.6712H11.6693H11.6674H11.6654H11.6635H11.6616H11.6596H11.6577H11.6558H11.6538H11.6519H11.65H11.6481H11.6461H11.6442H11.6423H11.6403H11.6384H11.6365H11.6345H11.6326H11.6307H11.6287H11.6268H11.6248H11.6229H11.621H11.619H11.6171H11.6152H11.6132H11.6113H11.6094H11.6074H11.6055H11.6035H11.6016H11.5997H11.5977H11.5958H11.5938H11.5919H11.59H11.588H11.5861H11.5841H11.5822H11.5803H11.5783H11.5764H11.5744H11.5725H11.5706H11.5686H11.5667H11.5647H11.5628H11.5608H11.5589H11.5569H11.555H11.5541M12.4542 15.93C12.4542 15.9467 12.4542 15.9633 12.4542 15.98H11.5082M12.447 13.457C12.447 13.4571 12.4471 13.4571 12.4471 13.4571C12.4471 13.4571 12.447 13.4567 12.447 13.4558C12.447 13.4558 12.447 13.4557 12.447 13.4557L12.447 13.4558C12.447 13.4562 12.447 13.4566 12.447 13.457ZM11.5541 15.93C11.5555 15.9445 11.5569 15.9599 11.5581 15.9765L11.5082 15.98M11.5541 15.93H11.553H11.5511H11.5492H11.5472H11.5453H11.5433H11.5414H11.5394H11.5375H11.5355H11.5336H11.5316H11.5297H11.5277H11.5258H11.5238H11.5219H11.5199H11.518H11.516H11.514H11.5121H11.5101H11.5082V15.98M11.5541 15.93L11.4944 15.232C11.4941 15.4196 11.4938 15.6074 11.4938 15.7952C11.4938 15.833 11.4976 15.8698 11.5016 15.9087C11.504 15.9316 11.5064 15.9551 11.5082 15.98M12.7286 11.0424L12.7292 11.0429L9.55179 12.3731V12.3728C9.55179 12.3553 9.55881 12.3308 9.57301 12.3055C9.58708 12.2803 9.60523 12.2597 9.62166 12.2482L9.62167 12.2482L9.62252 12.2476C10.2812 11.7655 10.9415 11.285 11.609 10.7993C11.7391 10.7047 11.8695 10.6098 12.0002 10.5146C12.2444 10.692 12.4865 10.8672 12.7286 11.0424ZM15.773 11.9226L15.7729 11.9228C15.7572 11.958 15.7271 11.9905 15.6853 12.0272C15.6727 12.0383 15.6585 12.0502 15.6437 12.0626C15.6225 12.0804 15.6 12.0992 15.5785 12.1188C15.5363 12.0948 15.4982 12.0746 15.464 12.0564C15.4588 12.0536 15.4536 12.0509 15.4485 12.0482C15.4018 12.0234 15.3634 12.0024 15.3288 11.979C14.6715 11.5041 14.0164 11.027 13.3612 10.5498C13.0335 10.3111 12.7057 10.0724 12.3776 9.83398L12.3776 9.83396C12.2967 9.77524 12.23 9.72918 12.171 9.69793C12.1114 9.66638 12.0561 9.64802 11.9981 9.64802C11.94 9.64802 11.8849 9.6664 11.8255 9.69799C11.7668 9.72924 11.7006 9.7753 11.6204 9.83399C11.3954 9.99751 11.1706 10.161 10.9458 10.3245C10.1873 10.8761 9.42933 11.4273 8.6685 11.9771L8.66846 11.9771L8.66563 11.9792C8.63098 12.0043 8.59452 12.0307 8.55809 12.0505C8.51962 12.0714 8.48934 12.0803 8.46754 12.0783C8.4281 12.0742 8.37979 12.0591 8.33644 12.0359C8.29225 12.0123 8.25957 11.9838 8.24456 11.9571L8.24459 11.9571L8.24372 11.9557C8.2327 11.9375 8.22813 11.9025 8.23568 11.8544C8.2429 11.8084 8.25968 11.7603 8.27878 11.7242L8.23459 11.7008L8.2787 11.7244C8.29225 11.699 8.31789 11.6751 8.35425 11.6491C8.37123 11.637 8.38923 11.6253 8.40819 11.613L8.41102 11.6111C8.43061 11.5984 8.45125 11.5849 8.47055 11.5707L8.44099 11.5304L8.4704 11.5709C8.83749 11.3037 9.20491 11.0371 9.57235 10.7705C10.3073 10.2371 11.0425 9.70361 11.7754 9.16594L11.7757 9.16569C11.8608 9.10215 11.9321 9.07477 11.9992 9.07452C12.0662 9.07428 12.1375 9.10114 12.2226 9.16354L12.2227 9.16359C12.978 9.71565 13.7354 10.2656 14.4928 10.8155C14.8714 11.0904 15.25 11.3653 15.6282 11.6404C15.6869 11.6834 15.7372 11.7259 15.7658 11.7726C15.792 11.8154 15.8004 11.8621 15.773 11.9226Z" fill="#8A92A6" stroke="#8A92A6" stroke-width="0.1"/>
</svg>
