<svg width="24" height="25" viewBox="0 0 24 25" fill="none" xmlns="http://www.w3.org/2000/svg">
<path d="M14.1381 17.729V16.7909C14.1381 16.2222 13.9122 15.6769 13.5101 15.2747C13.108 14.8726 12.5626 14.6467 11.9939 14.6467C11.4252 14.6467 10.8799 14.8726 10.4778 15.2747C10.0756 15.6769 9.84974 16.2222 9.84974 16.7909V17.729H9.17969V19.8731C9.17969 21.4249 10.4421 22.6874 11.9939 22.6874C13.5457 22.6874 14.8081 21.4249 14.8081 19.8731V17.729H14.1381ZM10.3858 16.7909C10.3858 16.3644 10.5552 15.9554 10.8568 15.6538C11.1584 15.3522 11.5674 15.1828 11.9939 15.1828C12.4204 15.1828 12.8294 15.3522 13.131 15.6538C13.4326 15.9554 13.602 16.3644 13.602 16.7909V17.729H10.3858V16.7909ZM14.2721 19.8731C14.2721 21.1293 13.2501 22.1513 11.9939 22.1513C10.7377 22.1513 9.71573 21.1293 9.71573 19.8731V18.265H14.2721V19.8731Z" fill="#8A92A6"/>
<path d="M11.9997 24.5C10.0935 24.5 8.36721 23.4182 7.53685 21.7241H5.65536C5.4571 21.7241 5.29639 21.5633 5.29639 21.3651V3.78815C5.29639 3.5899 5.4571 3.42918 5.65536 3.42918H7.46562C7.83377 2.60769 8.41705 1.90492 9.16377 1.3861C9.99823 0.806461 10.9788 0.5 11.9997 0.5C13.0205 0.5 14.0011 0.806461 14.8356 1.3861C15.5824 1.90492 16.1657 2.60769 16.5338 3.42918H18.344C18.5423 3.42918 18.703 3.5899 18.703 3.78815V21.3651C18.703 21.5633 18.5423 21.7241 18.344 21.7241H16.4625C15.6321 23.4182 13.9058 24.5 11.9997 24.5ZM6.01428 21.0061H7.76654C7.90977 21.0061 8.03926 21.0912 8.09608 21.2227C8.76793 22.7774 10.3002 23.7821 11.9997 23.7821C13.6992 23.7821 15.2314 22.7774 15.9033 21.2227C15.96 21.0913 16.0896 21.0061 16.2328 21.0061H17.9851V4.14713H16.295C16.1471 4.14713 16.0142 4.05631 15.9605 3.91846C15.3213 2.278 13.7666 1.21795 11.9997 1.21795C10.2327 1.21795 8.67803 2.278 8.03885 3.91846C7.9851 4.05631 7.85228 4.14713 7.70439 4.14713H6.01433L6.01428 21.0061Z" fill="#8A92A6"/>
<path d="M16.3305 13.6726H7.66854C7.47029 13.6726 7.30957 13.5118 7.30957 13.3136V5.60415C7.30957 5.40589 7.47029 5.24517 7.66854 5.24517H9.21219C9.4046 3.88005 10.5877 2.82153 11.9996 2.82153C13.4114 2.82153 14.5945 3.88005 14.787 5.24517H16.3306C16.5289 5.24517 16.6896 5.40589 16.6896 5.60415V13.3136C16.6895 13.5118 16.5287 13.6726 16.3305 13.6726ZM8.02752 12.9546H15.9715V5.96312H14.4551C14.2586 5.96312 14.0987 5.80528 14.0961 5.60887C14.0811 4.46784 13.1406 3.53948 11.9995 3.53948C10.8584 3.53948 9.91793 4.46784 9.9029 5.60887C9.90034 5.80528 9.74039 5.96312 9.54398 5.96312H8.02752V12.9546Z" fill="#8A92A6"/>
<path d="M11.994 7.88794C11.7391 7.88809 11.5324 8.09481 11.5322 8.34973C11.5321 8.60466 11.7386 8.81117 11.9935 8.81102C12.2484 8.81086 12.4551 8.60414 12.4553 8.34922C12.4555 8.0943 12.2489 7.88779 11.994 7.88794Z" fill="#8A92A6"/>
<path d="M14.1478 7.88794C13.8929 7.88809 13.6862 8.09481 13.686 8.34973C13.6859 8.60466 13.8924 8.81117 14.1473 8.81102C14.4022 8.81086 14.609 8.60414 14.6091 8.34922C14.6093 8.0943 14.4027 7.88779 14.1478 7.88794Z" fill="#8A92A6"/>
<path d="M9.84021 7.88806C9.58529 7.88822 9.37857 8.09493 9.37842 8.34986C9.37826 8.60478 9.58483 8.81129 9.8397 8.81114C10.0946 8.81098 10.3013 8.60427 10.3015 8.34934C10.3016 8.09442 10.0951 7.88791 9.84021 7.88806Z" fill="#8A92A6"/>
<path d="M11.994 10.2468C11.7391 10.247 11.5324 10.4537 11.5322 10.7086C11.5321 10.9635 11.7386 11.1701 11.9935 11.1699C12.2484 11.1697 12.4551 10.963 12.4553 10.7081C12.4554 10.4532 12.2489 10.2467 11.994 10.2468Z" fill="#8A92A6"/>
<path d="M14.1478 10.2468C13.8929 10.247 13.6862 10.4537 13.686 10.7086C13.6859 10.9635 13.8924 11.1701 14.1473 11.1699C14.4022 11.1697 14.609 10.963 14.6091 10.7081C14.6092 10.4532 14.4027 10.2467 14.1478 10.2468Z" fill="#8A92A6"/>
<path d="M9.84021 10.2469C9.58529 10.247 9.37857 10.4538 9.37842 10.7087C9.37826 10.9636 9.58483 11.1701 9.8397 11.17C10.0946 11.1698 10.3013 10.9631 10.3015 10.7082C10.3016 10.4533 10.0951 10.2467 9.84021 10.2469Z" fill="#8A92A6"/>
<path d="M22.6038 15.881L22.0957 15.3738C23.6778 13.789 23.6778 11.2105 22.0958 9.62576L22.6039 9.11853C24.4651 10.9829 24.4651 14.0165 22.6038 15.881Z" fill="#8A92A6"/>
<path d="M21.3885 14.4066L20.8804 13.8993C21.6507 13.1276 21.6507 11.872 20.8804 11.1002L21.3885 10.593C22.4381 11.6444 22.4381 13.3552 21.3885 14.4066Z" fill="#8A92A6"/>
<path d="M20.3699 12.5002C20.3702 12.7839 20.1404 13.0137 19.8568 13.0135C19.5731 13.0132 19.343 12.783 19.3428 12.4993C19.3425 12.2156 19.5723 11.9858 19.8559 11.9861C20.1395 11.9863 20.3696 12.2165 20.3699 12.5002Z" fill="#8A92A6"/>
<path d="M1.39597 15.8813C-0.465314 14.0169 -0.465314 10.9833 1.39592 9.1189L1.90402 9.62613C0.321968 11.2108 0.321968 13.7894 1.90407 15.3741L1.39597 15.8813Z" fill="#8A92A6"/>
<path d="M2.61092 14.4068C1.56133 13.3554 1.56133 11.6447 2.61092 10.5933L3.11903 11.1006C2.34867 11.8723 2.34867 13.1279 3.11903 13.8996L2.61092 14.4068Z" fill="#8A92A6"/>
<path d="M3.62988 12.5005C3.62963 12.7842 3.85937 13.014 4.14301 13.0137C4.42665 13.0135 4.65675 12.7833 4.65701 12.4996C4.65727 12.2159 4.42752 11.9861 4.14388 11.9863C3.86029 11.9866 3.63014 12.2168 3.62988 12.5005Z" fill="#8A92A6"/>
</svg>
